<?xml version="1.0" encoding="utf-8"?>
<!-- Generator: Adobe Illustrator 24.0.1, SVG Export Plug-In . SVG Version: 6.00 Build 0)  -->
<svg version="1.1" id="Capa_1" xmlns="http://www.w3.org/2000/svg" xmlns:xlink="http://www.w3.org/1999/xlink" x="0px" y="0px"
	 viewBox="0 0 149.8 149.8" style="enable-background:new 0 0 149.8 149.8;" xml:space="preserve">
<style type="text/css">
	.st0{display:none;}
	.st1{fill:none;}
	.st2{fill:#333333;}
	.st3{fill:#FFFFFF;}
</style>
<g id="Guias" class="st0">
</g>
<g id="fondo" class="st0">
</g>
<g id="Gráfico">
	<g>
		<rect class="st1" width="149.8" height="149.8"/>
		<g>
			<path class="st2" d="M54.3,29.4L9.8,4C9.2,3.6,8.5,3.7,8,4C7.4,4.3,7.1,4.9,7.1,5.6c0,0,0,1.9,0,5.2l33,33L54.3,29.4z"/>
			<path class="st2" d="M38.9,44.8L7.1,13c0.1,14.5,0.2,46.3,0.3,63.3L38.9,44.8z"/>
			<path class="st2" d="M81,44.6L55.8,30.2L41.2,44.8l16.5,16.5L81,47.8c0.6-0.3,0.9-0.9,0.9-1.6C81.9,45.6,81.5,45,81,44.6z"/>
			<path class="st2" d="M7.4,78.6c0,5.5,0,8.9,0,8.9c0,0.7,0.3,1.3,0.9,1.6c0.6,0.3,1.3,0.3,1.8,0l46.1-26.9L40.1,46L7.4,78.6z"/>
		</g>
		<polygon class="st3" points="48.7,50.8 48.7,50.8 48.7,50.8 		"/>
		<polygon class="st3" points="48.7,50.8 48.7,50.8 48.7,50.8 		"/>
		<path class="st2" d="M76.5,131.9L76.5,131.9l-4.4,7.7c-1.6,2.8-5.2,3.8-8,2.1c-2.8-1.6-3.8-5.2-2.1-8l3.3-5.7l0.3-0.5
			c0.6-0.8,1.9-2.2,4.7-1.9c0,0,6.5,0.7,7,4.1C77.2,129.7,77.2,130.8,76.5,131.9L76.5,131.9z M139.4,112.3h-13.8
			c-0.9-0.1-1.4-0.4-1.5-0.6l0,0L109.3,86l0,0l-0.9-1.3c-1.5-2.2-3.8,3.5-3.8,3.5c-2.8,6.3,0.4,13.6,1.5,15.7l20.6,35.6
			c1.6,2.8,5.2,3.8,8,2.1c2.8-1.6,3.8-5.2,2.1-8l-5.1-8.9c-0.1-0.2-0.3-0.8,0.8-0.8h7c3.2,0,5.9-2.6,5.9-5.9
			C145.3,114.9,142.7,112.3,139.4,112.3L139.4,112.3z M112.6,120.2c0,0,0.7,3.8-2.1,3.8h-2.9l0,0H59.3c-3.2,0-5.9-2.6-5.9-5.9
			c0-3.2,2.6-5.9,5.9-5.9h13.2c2.1-0.1,2.6-1.3,2.6-1.3l0,0l17.2-29.7l0,0c0.3-0.6,0.1-1.1,0-1.2l-5.7-9.8c-1.6-2.8-0.7-6.4,2.1-8
			c2.8-1.6,6.4-0.7,8,2.1l2.6,4.6l2.6-4.5c1.6-2.8,5.2-3.8,8-2.1c2.8,1.6,3.8,5.2,2.1,8l-23.9,41.4c-0.1,0.3-0.1,0.6,0.6,0.7H103
			v0.1C103.2,112.4,111.4,112.5,112.6,120.2z"/>
	</g>
</g>
<g id="Trazo">
</g>
<g id="Texto">
</g>
</svg>
