<svg xmlns="http://www.w3.org/2000/svg" viewBox="0 0 432.5 80.39"><defs><style>.cls-1{fill:#ccc;}</style></defs><title>Recurso 1</title><g id="Capa_2" data-name="Capa 2"><g id="texo"><polygon class="cls-1" points="65.32 1.32 65.32 79.07 73.15 79.07 73.15 72.03 73.15 72.03 73.15 43.44 73.15 43.44 73.15 36.4 73.15 36.4 73.15 8.36 117.88 8.36 117.88 1.32 65.32 1.32"/><rect class="cls-1" x="82.95" y="72.03" width="34.93" height="7.04"/><rect class="cls-1" x="82.95" y="36.4" width="34.93" height="7.04"/><path class="cls-1" d="M48.89,43.5h0a23.87,23.87,0,0,0-8.6-6A17.49,17.49,0,0,0,48.74,22c0-7.09-2.8-12.69-8.32-16.64-3.85-2.71-10.27-4-19.61-4H0V79.07H7.83V72h0V42h0V35h0V8.36h13c6.61,0,9.57.43,10.87.8a12.15,12.15,0,0,1,6.56,4.71,12.86,12.86,0,0,1,2.67,7.85,11,11,0,0,1-4.76,9.58C32.76,33.74,27.91,35,21.73,35h-4.1v7h4.15a92.71,92.71,0,0,1,9.32.26,22.4,22.4,0,0,1,4.84,1.35,17.42,17.42,0,0,1,7.72,5.63,12.61,12.61,0,0,1,2.79,7.88c0,5.13-2.23,9.08-6.81,12.05h0C36.75,71.07,31.72,72,24.69,72H17.63v7H24.5a67.73,67.73,0,0,0,10.23-.58A23.22,23.22,0,0,0,49,71a20.29,20.29,0,0,0-.07-27.47Z"/><path class="cls-1" d="M190.73,26.17a23.6,23.6,0,0,0-3.92-12.9,23.42,23.42,0,0,0-10-8.89h0c-4.55-2.05-12.49-3-24.26-3H130.24V79.07h7.83V8.36h14.48c5.72,0,9.49.07,11.19.21a25.47,25.47,0,0,1,9.84,2.5,18.13,18.13,0,0,1,6.73,6.47,16.22,16.22,0,0,1,2.59,8.74c0,6.6-3,11.55-9,15.14-3.35,2-8.68,3-15.83,3h-10.2l29.48,34.64h10.28L164,51.45a28.41,28.41,0,0,0,18.68-7.15A23.46,23.46,0,0,0,190.73,26.17Z"/><path class="cls-1" d="M251.65,51.21c0,5.23-.33,7.63-.61,8.76a15.21,15.21,0,0,1-4.2,7.31c-4,4.08-9.47,6.07-16.62,6.07s-12.56-2.21-16.67-6.76a16.88,16.88,0,0,1-4-7.44,53.58,53.58,0,0,1-.48-8.82v-49h-7.83V50.26c0,8,1.23,13.78,3.78,17.74a25.45,25.45,0,0,0,10.67,9.15,33.43,33.43,0,0,0,14.53,3.24c8.9,0,16.29-2.72,22-8.09a21.6,21.6,0,0,0,5.71-8.69,39.89,39.89,0,0,0,1.57-12.48V1.32h-7.83Z"/><path class="cls-1" d="M308.41,0A38.57,38.57,0,0,0,280,11.76a39.55,39.55,0,0,0-11.58,28.71,38.58,38.58,0,0,0,11.7,28.28,40.83,40.83,0,0,0,57.1,0,38.73,38.73,0,0,0,11.7-28.39A40,40,0,0,0,308.41,0Zm.39,73.35c-9.47,0-17.19-3.13-23.62-9.56s-9.54-14.17-9.54-23.65,3.11-17.11,9.49-23.55A31.35,31.35,0,0,1,308.47,7,31.81,31.81,0,0,1,332,16.6a31.66,31.66,0,0,1,9.6,23.54,32,32,0,0,1-9.55,23.55A31.21,31.21,0,0,1,308.8,73.35Z"/><polygon class="cls-1" points="366.65 72.47 366.65 1.32 358.82 1.32 358.82 79.07 366.65 79.07 366.65 72.47 366.65 72.47"/><polygon class="cls-1" points="424.67 1.32 424.67 67.05 376.45 11.79 376.45 23.68 424.81 79.07 432.5 79.07 432.5 1.32 424.67 1.32"/></g></g></svg>