<svg xmlns="http://www.w3.org/2000/svg" viewBox="0 0 40.86 41.68"><defs><style>.cls-1{fill:#fff;}</style></defs><title>Recurso 7</title><g id="Capa_2" data-name="Capa 2"><g id="imago"><path class="cls-1" d="M3.88,26.79a1.48,1.48,0,0,1-1.27-.55A9.67,9.67,0,0,1,.1,20.76a5.37,5.37,0,0,1,1.19-4.38A37.64,37.64,0,0,1,24.55.62C25.4.43,26.28.38,27.12.16a4.88,4.88,0,0,1,4.33,1,9.14,9.14,0,0,1,3.68,4.52,2,2,0,0,1-.55,2,9.13,9.13,0,0,1-3,2.15c-1.19.55-2.4,1.06-3.62,1.51A3,3,0,0,1,24.25,10a4.37,4.37,0,0,1-.72-2c-.05-1-.56-1.24-1.41-1.3A7.13,7.13,0,0,0,19,7.3a27.74,27.74,0,0,0-7.88,5A6.85,6.85,0,0,0,9,15.33a1,1,0,0,0,.41,1.27c1.2.93,2.32,2,2.34,3.68a1.93,1.93,0,0,1-.46,1.4,19,19,0,0,1-5.64,4.64A3.91,3.91,0,0,1,3.88,26.79Z"/><path class="cls-1" d="M20.18,39.29c.19,1.7.19,1.7-1.3,2.07a10.52,10.52,0,0,1-4.8.08c-3-.65-4.74-2.92-4.84-6.31a7.79,7.79,0,0,1,11.1-7.31A6.48,6.48,0,0,1,23,36.7a2.72,2.72,0,0,1-4.19.85c-.28-.22-.39-.2-.65,0a3.37,3.37,0,0,1-4.12.17c-1.22-.76-1.66-2.35-1.26-4.15a3.8,3.8,0,0,1,3.13-2.91,10.15,10.15,0,0,1,3.6.21c.48.1.55.4.53.81-.07,1.11-.13,2.21-.16,3.32,0,.62-.15,1.47.64,1.61s1-.7,1.2-1.34c.83-3-.59-5.72-3.29-6.38a5.67,5.67,0,0,0-7.07,4.18,9.26,9.26,0,0,0-.2,1.89c0,3.77,2.47,5.38,6,5A10.07,10.07,0,0,0,20.18,39.29Zm-2.13-5.68c0-1.56-.31-1.82-1.73-1.42a2.61,2.61,0,0,0-1.63,3.16,1.48,1.48,0,0,0,1.42,1.32,1.54,1.54,0,0,0,1.67-1.17A5.28,5.28,0,0,0,18.05,33.61Z"/><path class="cls-1" d="M13,26.33c.83-2.81,1.64-5.53,2.44-8.25.49-1.68,1-3.35,1.47-5,.36-1.2.89-1.51,2.11-1.16L39.71,18c1.11.33,1.37,1,1,2.33Q39,26.1,37.28,31.88c-.35,1.19-.69,2.38-1.06,3.56s-.9,1.42-2,1.11c-2.77-.8-5.52-1.66-8.3-2.41-.8-.22-.72-.75-.6-1.22s.59-.15.88-.07c2.58.74,5.16,1.46,7.71,2.27.81.26,1,0,1.25-.7q2.07-7.16,4.19-14.28c.18-.61.09-.86-.56-1.05Q28.87,16.21,19,13.25c-.63-.19-.79,0-.95.57-1.05,3.64-2.16,7.26-3.18,10.9C14.55,25.67,14.16,26.3,13,26.33Z"/><path class="cls-1" d="M38.2,20.62c0,.35-.28.49-.55.62-3.61,1.69-7.23,3.37-10.84,5.07-.39.18-.59.07-.82-.26q-3.52-5.1-7.07-10.18c-.25-.36-.42-.76,0-1s.86,0,1.16.4c2,2.92,4.08,5.83,6.07,8.78.46.68.8.82,1.59.43,3-1.47,6.06-2.86,9.1-4.27C37.72,19.76,38.24,20,38.2,20.62Z"/><path class="cls-1" d="M34.75,33.53c0,.36-.1.6-.39.7a.65.65,0,0,1-.86-.31c-.32-.58-.62-1.18-.93-1.78l-2.23-4.37c-.22-.44-.45-.92.11-1.23s.83.19,1.05.61l3.06,6C34.64,33.28,34.7,33.43,34.75,33.53Z"/><path class="cls-1" d="M18.62,25.59,21.43,24c.37-.21.74-.23,1,.16s.07.75-.34,1C21,25.84,19.94,26.53,18.62,25.59Z"/></g></g></svg>