<?xml version="1.0" encoding="utf-8"?>
<!-- Generator: Adobe Illustrator 24.0.1, SVG Export Plug-In . SVG Version: 6.00 Build 0)  -->
<svg version="1.1" id="Capa_1" xmlns="http://www.w3.org/2000/svg" xmlns:xlink="http://www.w3.org/1999/xlink" x="0px" y="0px"
	 viewBox="0 0 840.5 719.8" style="enable-background:new 0 0 840.5 719.8;" xml:space="preserve">
<style type="text/css">
	.st0{fill:#FFFFFF;}
</style>
<title>Recurso 1</title>
<path class="st0" d="M298.8,249.8C298.8,249.8,298.8,249.7,298.8,249.8l-0.3-0.6C298.6,249.4,298.7,249.6,298.8,249.8z"/>
<path class="st0" d="M520.7,309.1c0.1-1.7,0.2-3.4-0.2-4.8c-0.1,1.5-0.1,3,0.2,4.5C520.6,309,520.6,309.1,520.7,309.1z"/>
<path class="st0" d="M380.3,15.8c-0.1,0.1-0.2,0.2-0.2,0.3c0,0,0,0,0,0C380.1,16,380.2,15.9,380.3,15.8z"/>
<path class="st0" d="M301.8,254.9c0.3,0.6,0.2,1.2,0,1.9c0,0,0-0.1,0-0.1C302.4,255.6,302.2,255.1,301.8,254.9z"/>
<path class="st0" d="M526,203.8L526,203.8C526,203.8,525.9,203.8,526,203.8C525.9,203.9,526,203.9,526,203.8
	C526,203.9,526,203.8,526,203.8z"/>
<path class="st0" d="M553.8,279.8c-0.8,3-5.1,5.7-0.9,9.2c0,0-0.1,0-0.1,0c0,0,0.1,0,0.1,0c8,5.8,8,5.8,9.7,10.9
	c-3.3-0.4-6.4-3.7-9.7-1.2c-1.7,1.2-1.1,3.2-1,5c1-0.1,2.1,0.2,3,0.7c6.7,3.1,12.8-0.6,13.5-8c0.2-2.4-0.5-4.7-0.4-7.1
	c-3.1-0.3-4.3-2.3-5.1-8.1c0.1-0.3,0.2-0.5,0.4-0.7C560.4,278.4,557.4,275.8,553.8,279.8z"/>
<path class="st0" d="M548.9,289.3c-0.1-0.8-0.2-1.7-0.2-2.5l3.6-7h0c3.3-5.4,4.6-6,10-2.1c-0.8-2.3-2.1-4.5-3.8-6.3
	c-2.9-3-4.8-3-7,0.5c-1.8,3.1-3.3,6.5-4.2,10c-0.4,1.2-0.5,2.5-1.5,3.2c1.7,0.4,2.1,2.1,2.8,3.5
	C548.7,288.8,548.8,289.1,548.9,289.3z"/>
<path class="st0" d="M324.7,35.7L324.7,35.7c0-0.1,0.1-0.1,0.1-0.2c-0.1,0-0.2,0.1-0.3,0.1C324.6,35.6,324.6,35.6,324.7,35.7z"/>
<path class="st0" d="M551.1,311.1c0.6-0.1,1.2-0.1,1.8,0c-0.4-0.3-0.9-0.7-1.3-1c-1.9-1.4-2.8-3.3-1.2-5.6c0.1-0.1,0.3-0.2,0.4-0.3
	c-0.2-0.7-0.4-1.5-0.6-2.3c-0.8,2.1-1.3,4.3-2.3,6.4c-0.5,1-1,2-1.8,2.8C547.8,311.3,549.5,311.3,551.1,311.1z"/>
<path class="st0" d="M231.8,212.2c-0.1,0.2-0.1,0.4-0.2,0.6c0.2-0.1,0.5-0.3,0.7-0.4C232.1,212.3,232,212.3,231.8,212.2z"/>
<path class="st0" d="M331.4,366.3L331.4,366.3c0.2,0,0.5,0,0.8,0c-0.4-0.1-0.7-0.2-1.1-0.4L331.4,366.3z"/>
<path class="st0" d="M581.5,229.4c0.1,0.3,0.1,0.6,0.1,0.9C581.6,230,581.6,229.7,581.5,229.4z"/>
<path class="st0" d="M288.3,369c0.1,0.7,0.1,1.3-0.1,2c0.6-0.1,1.2-0.2,1.7-0.1c0,0,0.1-0.1,0.2-0.1c0.5-0.2,1-0.2,1.5-0.1
	c0,0,0,0,0,0c0-0.3,0-0.6,0-0.9C290.5,369.8,289.4,369.6,288.3,369z"/>
<path class="st0" d="M538.7,219.3c-0.6-0.2-1.4-0.2-2.3-0.1c0.1,0.4,0.2,0.7,0.1,1C537.3,219.8,538,219.4,538.7,219.3z"/>
<path class="st0" d="M530.4,210.5c0,0,0-0.1,0-0.1c0-0.2,0.1-0.3,0.1-0.5c-0.2,0.2-0.4,0.4-0.6,0.6
	C530.1,210.5,530.3,210.5,530.4,210.5z"/>
<path class="st0" d="M525.2,211.2C525.2,211.2,525.2,211.2,525.2,211.2C525.2,211.2,525.2,211.2,525.2,211.2
	C525.2,211.2,525.2,211.2,525.2,211.2z"/>
<path class="st0" d="M560.9,402.7c-0.8,1.3-1.4,2.7-1.9,4.1c0.5,0.7,0.7,1.3,0.8,2c0.7-1.3,1.3-2.6,1.8-4c0.1-0.3,0.4-0.4,0.6-0.3
	c0.2-1.3,0.5-2.7,0.5-4C561.9,401.2,561.3,401.9,560.9,402.7z"/>
<path class="st0" d="M266.4,582.1c0-0.2,0.1-0.4,0.1-0.5c-13.5,20-30.5,37.1-45.9,55.5c-20.9,25-42.6,49.2-63.3,74.3
	c-4.2,5-9,7.9-15.4,8.5h-0.6c0,0,0,0,0,0h203.5c0,0,0.1-0.1,0.1-0.1c-0.4,0-0.7-0.5-0.3-0.9c1.1-1.2,2.1-2.5,3.2-3.8
	c0.3-1.8,1.9-3.2,3-4.7c3.5-5.1,7.5-9.8,10.9-14.9c8.4-9.7,15.7-20.4,24-30.2c2.6-3.1,5.2-6.2,7.7-9.4c-2.5-0.8-2.7-2.9-3.6-4.5
	c-3.7-7-4.9-15.2-9.7-21.7l0,0c0,0-0.1,0-0.1,0c-6.7,3.9-14,5.8-21.4,7.8c-3.3,0.8-6.2,2.6-8.3,5.3c-3.7,4.7-7.4,9.3-12,13.3
	c-3.5,3.1-2.6,7.7-2.1,11.8c1.5,14.6,0.8,29.3-2.1,43.7c-0.6,3.1-1.2,6.2-4,8.2h-1c-11-2.2-22.2-1.7-33.3-2
	c-9.7-0.3-19.4-0.1-29.1-1.8c-5.8-1-11.6,1-17.3,1.6c-7.3,0.8-14.5-0.6-21.8,1c-2.7,0.6-3.9-1.9-2.9-5.3c2.6-7.7,6-15.2,10.2-22.2
	c8.6-14.3,19.9-26.8,33.4-36.6c3.5-2.5,5.9-6.3,6.8-10.5c2.9-11.6,7.7-22.6,11.6-34c1.6-4.5,2.8-8.8,0.6-13.5
	c-1.7-3.6,0.4-7.8-1.2-11.4c-10.3,13.8-19.5,28.4-26.5,44.7c-2.3-1.9-1.4-3.5-1.1-5C260.8,610.5,263.1,596.2,266.4,582.1z"/>
<path class="st0" d="M607.8,243.3L607.8,243.3c-0.1-0.3-0.2-0.8-0.3-1.2c-0.1-0.4-0.2-0.8-0.2-1.2c-1.4-7.2-3.1-14.2-7.1-20.6
	c-2.1-3.4-4.3-6.3-8.3-7.3v-0.1c0,0,0,0.1,0,0.1c-9.8-1.5-19.5-1.8-28.9,1.9c-8.4,2.8-14.3,8.8-19.9,15.3
	c-4.2,4.9-10.5,7.6-15.1,12.5c2.7-7.1,3.3-14.5,5.1-21.7c-2.2-3.5-3.9-2.7-5.3,0.7c-2,1-0.9-1.6-1.9-1.7c-5.1,0.8-10.1,1.5-15.2,2.4
	c-1.5,0.2-2.9,0.7-4.2-0.6c8-2.4,16.3-3,24.3-4.8c-0.6-1.1-0.3-2.4-0.4-3.7c0-0.1,0-0.3,0-0.4c-2.8,0.1-5.5,1.3-8.3,1.5
	c-1.6,0.1-3.2,1.2-4.5-0.6c2.6-1,6.2-0.6,7.2-4.3c0,0,0,0,0-0.1c0.4-1.9,0.8-3.8,1.2-5.7l-0.1,0.1c0,0,0-0.1,0-0.1
	c-0.7,0.3-1.8,0.9-1.8-0.3c0.1-4.6-1.1-9.4,0.8-13.9c2.3-2.9,0.3-6.5,1.6-10.2c1.9,3.3,1,6.5,1.5,9.5c1,3.3,0.5,6.4-0.3,9.4
	c0.7-0.5,1.5-0.9,2.5-1.1c5.4,0.1,6.3-3.8,7.2-7.9c0.3-1.5,0.3-3.4,2.5-3.7l-0.1-1.7c0,0,0,0,0,0c-1.2-4,0.7-7.7,1.2-11.5
	c1.2,3.7,1.8,7.6,2,11.5c2.2,3.2-0.3,7.4,1.9,10.2c2.4,3.1,1.6,5.8,0.4,8.8c-0.3,1.8-1.1,2.8-3.1,1.8c-2.4-3.2-0.8-6.6-0.7-9.9
	c-0.3,2.3-0.5,4.5-0.9,6.8c-0.4,2.1-0.8,4.4-3.1,5.1c1.5,0.5,3,0.5,4.6,0.3c0.7,0.1,1.3,0.4,1.9,0.8c0.6-0.2,1.6,2.7,1.9-0.3
	c0.2-0.6,0.6-1.2,1.1-1.6l2.1-6.9c0,0,0,0,0.1,0l0,0v-12.1h1.3c1.3,4.2,1.2,8.8-0.3,13c0,0.1,0,0.1,0,0.2c0.5,2.8,1.1,5.4,4.7,5.7
	c0,0,0,0,0,0c0,0,0,0,0,0c4.5-3.4-1-5.8-0.7-8.8l0.9-1c6-0.3,4.9,5.3,6.7,8.4c0.6,1,0,2.6,1.2,3.6l0,0c1.8-3.4,0.9-7.2,1.8-10.8v8.7
	l4.2-3.9c0,0,0,0,0,0c-1.1-0.8-1.3-2.4-0.5-3.5c2.1-3.7,1-8,2.5-11.7c2.1,0.7,5.7-2.7,6.3,2.3c-0.8,5.1-0.6,10.2-1.8,15.3
	c-0.3,1.1-0.5,2.2-1.1,3c0.2,0.1,0.4,0.2,0.5,0.3c1.1-2,2.2-3.9,4.4-5.4c2.7-1.9,1.2-5.9,2.8-8.8c1.5,3.9-0.3,10.8-3.8,15.4
	c2.2,0.1,4.3-1,6.5-0.5c2.6,0.8,5.9-0.2,7.5,3.2c0.7-1.6,1.7-2.8,3.4-3.2c-1.8-3.3-1-6.9-0.9-10.4c0.1-6.3,0.3-12.5-2.2-18.5
	c-1.1-2.6-1-5.2,2.5-6.1c-1.3-1.4-1.7-3.1-0.8-5.2c-0.3-1.7-1.3-3.4-0.5-5.2c3.6-0.7,5.5-4.2,8.6-5.8c-2.3-0.2-3.9-1.4-3.3-4.4
	c0.4-2.4,2.1-4.3,5.1-2.5h0c0.3,1.3,0.1,3.2,0.9,4.1c0.2-0.9,0.3-1.8,0.4-2.7c0.1-1.2,0.1-2.4-0.8-3.3c-1-0.9-2.3-1.6-3.3-2.5
	c-3.1-2.7-5.9-5.8-8.4-9.1c-2.5-3.3-4.6-6.8-6.4-10.5c-3.3-6.8-5.3-14.1-8.5-20.9c-2.3-1.3-4.6-2.6-7.1-3.5
	c-2.8-0.9-6.1-2.2-8.3,1.3c-2.9-1-1.6-2,0.1-2.7c3.4-1.5,6.9-0.9,10.2,0.4c1.2,0.5,2.5,1,3.7,1.5c-1-1.8-2-3.6-3.3-5.2
	c-1.4-1.7-3.1-3.2-4.8-4.7c-3.2-2.8-6.8-5.3-9.3-8.8c-1.9-2.7-3.7-5.4-5.6-8c-1.1-0.8-2.8,0-4.9-0.7c1.1-0.5,2.2-0.9,3.3-1.3
	c-2.1-2.5-4.6-4.8-7.6-6.1c-0.5-0.2-1-0.5-1.5-0.8c-4,1.8-7.8,4.1-11.6,6.3c3.3-2.8,6.6-5.5,10.4-7.4c-0.6-0.6-1-1.3-1.4-2.1
	c-0.6,0.4-2.5-2.3-3.7,0.4c-1.2-1.9-1.1-3.9-1.6-5.9c0.1-0.6,0.4-0.8,0.8-0.9c-1.6-1.1-3.1-2.4-4.6-3.6c-0.4,2.8,0.3,5.7,0.1,8.5
	l-1.3,7.2c0.3-5.6,0.6-11.2-0.1-16.8c-0.9-0.8-1.9-1.7-2.8-2.5c-3.7-3.5-7.3-7.2-11.1-10.5c-1-0.9-2.1-1.8-3.2-2.6
	c0.1,0.3,0.2,0.6,0.3,0.9c0.3,0.9,0.6,2.1-0.5,2.6c-1,0.4-1.9-0.2-2.5-1c0,0,0,0,0,0c-4.3,0.9-4.4-3.7-6.8-5.3c0,0,0-0.1,0-0.1v0.1
	c-0.3-0.1-0.6-0.3-0.8-0.5c-1.5-1.8-5.4-3.1-4-5.3c0.1-0.1,0.2-0.2,0.2-0.3c-3-1.5-6.1-2.7-9.4-3.7c-3.1-0.9-5.8-2.6-7.9-4.9
	c-4.1-1.9-8-4.2-12.3-5.8c-4.5-1.7-8.5-4.6-13.6-4.5c-0.7-0.4-1.3-0.8-1.5-1.6c-0.6,0.7-1.3,1.4-0.6,2.5c1.6,1.4,3.3,2.8,4.8,4.3
	c0.9,1,1.6,2.2,0.8,3.6c-0.9,1.3-2.3,1.2-3.6,0.7c-2.4-1.1-4.7-2.3-7.1-3.4l0,0c0,0,0,0,0,0c-9.4-0.8-18.7-2.7-27.7-5.5
	c-1.7-0.6-3.7-0.4-4.6-2.5c5.8,0.6,11.2,2.8,16.7,3.9c1-1.5-1.6-2.6-0.1-3.7c1.1-0.8,2.2,0.2,3.2,0.7c4.2,2,8.7,3.3,12.5,5.9
	c0,0,0,0,0,0c2.9,0.2,5,3.1,8.6,2.3c-2.7-4.3-7.2-6.2-10.3-9.5c-0.1,0.1-0.2,0.2-0.3,0.3c-5,0.5-9.5-1.7-14.3-2.3
	c-1.5-0.2-2-1.5-2.2-2.9c1.2-2.1,3.2-0.8,4.8-1.1c1.6-0.2,3.2,0.8,4.6-0.5h-21c0.9,1.8,3.3,0.5,4.3,2.1c-0.6,2.8-3.1,3.1-5,3
	c-2.8-0.1-5.7,0.5-8.4-0.2c-0.3-0.1-0.6-0.1-0.8-0.2c0,0.4-0.1,0.9-0.1,1.3c-4,0.4-8,1.7-12.1-0.1c-2-0.8-4.6-0.1-6.9-0.2
	c-0.7,0-1.5,0.2-2.3,0.2c-0.1,0.2-0.3,0.3-0.5,0.3c-2.7,0.4-5.2,1.2-7.9,0.7c0,0,0,0,0,0c-2.7,1.3-5.2,3.3-8.2,3.9l0,0c0,0,0,0,0,0
	c-7.1,2.4-14.4,4.5-21.1,7.9c-0.4,0.8-1,1.4-1.5,2c1.2-0.3,2.5-0.4,3.7-0.8l1.7-0.2c3.3-1.7,6.7-2.9,10.3-3.7c0,0,0.1,0,0.1,0
	c0,0,0,0,0,0c3.5-0.8,6.9-2.3,10.6-2.3c0,0,0,0,0,0c0,0,0,0,0,0c1.6-0.8,3.4-1.1,5.2-0.9c0,0,0,0,0.1,0c8.3-3.7,16.7-1.2,25.1-0.5
	c1.6,0,3.3,0,4.9,0.2c-1.6,0.1-3.3,0-4.9-0.2c-8.2,0.1-16.1,2-24,3.7c4,2.1,8.4,0.2,12.6,1.9c-5.7,2-11.6,3.4-17.7,4.1
	c-1.4,0.4-3.1,0.5-4.1,1.4c-0.7,0.6-5.7-1.3-2,2.6c0.5,0.5-0.6,1.1-1.2,1.3c-8.5,2.9-17,5.9-25.5,8.8l-0.5-1.5l20.8-7.3l-5.9-1.5
	c5.9-2.5,12.1-4.1,18.5-4.8c0,0,0,0,0,0l6.1-1.7c-1.6-1.7-3.6-0.7-5.1-1.3c0,0-0.1-0.1-0.1-0.1c0,0,0,0.1,0.1,0.1L364,19
	c0,0,0-0.1,0-0.1c0,0,0,0.1,0,0.1c-15.5,6.5-30.2,14.3-43.3,24.8c-1.1,0.9-2.4,2.1-3.8,0.3l-4.7,4.1l-1.5-0.2
	c3.3-4.9,8.4-7.9,12.4-12h-0.1c0,0,0,0,0.1,0c-2.5-2.4,0.6-3.1,1.5-4c6.5-5.9,14.3-9.9,22-14.1c2.5-1.2,4.8-2.7,6.8-4.5l-7.2,0.7
	c0,0-0.1,0-0.1,0c-0.2,0.1-0.4,0.1-0.6,0.1c-9.1,2-17.6,5.7-26.5,8.3c-0.5,0.3-1,0.6-1.5,1c-0.2,0.1-0.4,0.3-0.6,0.4
	c0,0,0.1,0,0.1,0c-8.5,4.9-14.2,12.1-18,21.1c-1.4,3.4-3.2,6.7-6.4,8.9c3.4-5.6,5.7-11.8,8.9-17.4c1-1.7,1.3-3-0.5-3.5
	c0,0,0,0.1-0.1,0.1c0,0-0.1,0.1-0.2,0.1c-0.1,0-0.1,0-0.2,0c0,0,0.1,0,0.1,0c-0.4,0.1-0.8,0.2-1.2,0.2c-4.6,4.2-6.6,9.8-8.3,15.6
	c-1.5,5-3.3,9.8-8.1,12.7l0,0c0,0,0,0,0,0c-2.9,1.7-6,1.4-9.1,1.3c-9.3-0.2-11.8,2.3-11.7,11.5c0,1.3,0.1,2.6,0.1,4l0,0
	c1,2,2.1,3,3.8,0.5c0.9-1.3,1.2-3.1,4.5-3.8c-5.5,6.8-5.8,14.7-9,21.6c-0.1,0.5-0.1,1-0.1,1.5c0,0.2,0,0.4,0,0.6
	c1.5-0.1,2.5-1.3,3.6-2L265,97c0,0,0,0,0.1,0c1.4-3.2,1.5-7.3,6.3-8.1c1.3-0.2,2.3-2.6,3.5-4c0,0,0,0,0.1,0c2.7-3.3,3.4-8.1,7.9-10
	c0.4-2.1,2.1-3.6,4.2-3.9c0,0,0,0,0,0l1.8-2.2c1.3-1.4,0.8-4.1,3.3-4.7c0,0,0,0,0,0c2.8-1,4.7-3.6,7.8-4.2c0,0,0,0,0,0l0,0l2.3-1.9
	l8.9-1.9c-2.5,3.4-7.4,2.8-9.9,6c0,0,0,0,0,0.1l0.1,0.1c0.2,3.7-2.7,4.6-5.2,5.9c-1.2,1.7-3.2,2.1-4.7,3.2c0,0,0,0,0,0
	c-1.2,4.1-4.7,5.9-8,8l-7.2,8.1l0,0c-3.5,3.5-6.4,7.7-11,9.7c0,0,0,0,0,0h0c1,1.8,2.3,3.3,0.2,5.6c-16.3,18.4-22.7,40.5-24.2,64.5
	c-0.8,13.1-1.7,26.2-6.1,38.8c3.3,2,6.5-0.9,9.8-0.2l0,0c5.5-1.4,11.2-2.1,16.9-2l0,0c5.8-1.2,11.6-0.9,17.4-0.7l0,0
	c8.4-0.6,16.9-0.6,25.7-2.1c-1.1-1.7-2.2-2.8-2.4-4.1c-0.2-0.9,0.9,0,1.5-0.1c0.2-1.3-1.3-3,1-3.8c2-0.6,2.3,1.1,3.4,2
	c2.3,2,2,6.9,6.8,6c7.3-0.4,14.5-1.6,21.9-1.2c0,0,0,0,0,0c2.8-1.3,7.3,0.7,8.6-2c1-2-1.4-5.5-2.1-8.3c-0.3-1.5-0.4-3-0.4-4.5
	c3.6,1.3,2.9,4.8,3.7,7c1.7,4.9,4.3,7.1,9.3,6.1l0.1,0c0,0,0,0,0,0c1.5-0.3,3.4,0.1,3.9-2.2c0,0,0,0,0,0c0,0,0,0-0.1,0
	c-1.7-1.1-4.1-0.9-6-3.2c3.7,0.3,6.8-3.3,10.2,0c0,0,0,0,0,0c0,0,0,0,0.1,0l6.8,1.3c0.4-2.3-2.2-2-2.4-4.8c4.1,4.3,9,3.1,13.5,3.8
	c-1.5-1.4-3.8-2-4.7-4.4c3.3,2.2,7.3,1.3,10.6,2.9c0,0,0,0,0,0c0,0,0,0,0.1,0l3,1.3c2.8-2.1,4.4-1.3,5.1,1.9c0,0,0,0.1,0,0.1
	l1.7-0.1c0,0,0,0,0,0c6.4-6.7,14.2-3.6,21.6-2.5c-0.1-2-2.5-2.2-2.3-4.4c3.8,0.2,5.9,4.8,10.4,3.7c-2.2-3.5-6-5.7-7.5-10.6
	c4.7,2.1,5.8,8,10.9,7.9c1.2,0.3,2.4,0.5,3.5,0.9c-0.7-1.1-1.3-2.3-1.5-3.8c-0.1-0.8-0.3-2.7,1-1.6c3.6,3.4,8.3,4.3,13.4,6.3
	c-3,1.8-5-0.3-7.2-0.1c-0.1,1.6,1.4,2,2.3,2.7c2.9,2.6,0.2,2.2-1.3,2.5c-1-0.8-2-1.6-3-2.3c0.1,0.4,0.2,0.8,0.2,1.3
	c-1.4,1.3-3.1,2.1-5,2.4c-3.7,0.6-4.4,2.3-2.1,5.3c0,0,0.1,0.1,0.1,0.1l5.7-4.9c-0.8,3-2.8,5.3-5,7.3c-2.2,3-1.5,4.3,2,3.7
	c1.1-0.2,2-1.1,3.2-0.6c0.7,2.8-2.5,2.8-3.1,4.6c0,0,0,0,0,0l1.8,2.1c0.1,0.4,0.3,0.6,0.6,0.8c-0.2-0.3-0.4-0.6-0.6-0.8
	c1.5,0.9,1.9-0.5,2.7-1.2l8.9-10.7l1.2,0.7c-0.6,4.2-3,8-6.6,10.3c0,0,0,0,0,0c-0.4,2.2-2,3.4-4,4.2l0,0c0,0,0,0,0,0
	c0.9,1.6,1.9,3.2,2.8,4.8c5-2.9,6.2-8.8,10.1-12.9c1.3,1.4-1.5,3.5,0.4,4.2c1.1,0.4,2.7-0.4,5.5-0.9c-4,4.5-6.3,8.8-12,9
	c-1.5,0-2.1,1.3-2.8,2.4h0c0,0,0,0,0,0l0,0l5.9,0.1c0,0,0,0,0,0c3.4-2,7.3-0.6,10.8-1.2c0.9-0.3,1.3,0.2,1.5,0.9
	c0,0.5-0.2,0.9-0.5,1.2c-1,0.4-1.1,1.9-2.5,2s-3.4-0.6-3.6,1.5c-0.2,2.1,1.2,3.6,3.2,4.4c6-1.7,11.6-5,18.2-3.9
	c-6,2-12,3.7-18.2,4.9v0c-3.2,1.3-6.6,1-9.9,1.3c0,0,0,0,0,0l0,0c-2.1,2-2.3,3.5,1.2,3.5c2.6,0,5.1-0.5,7.7-0.8
	c0.1,0.1,0.1,0.2,0.2,0.2l-0.2-0.2c4.9,0.4,9.2-2.3,13.9-3l1.1,1.1c-4.6,1.3-8.8,4.1-13.9,3.1c0,0,0,0,0,0
	c-3.4,2.6-7.7,0.4-11.3,2.1c0,0,0,0,0,0.1c0.2,1,0.1,2.1,1,2.9c0.3,0.1,0.4,0.3,0.4,0.5c0,0.2-0.1,0.3-0.2,0.3
	c-1.7,2.2-0.7,4.8-0.8,7.1c0,6.4-1.2,12.8-3.4,18.8c0,0,0,0,0,0c0,0,0,0,0,0.1c-4.1,11.6-11.7,19.8-23.6,23.1
	c-15.5,4.3-31.3,6.6-47.1,1.1c-2.5,0.3-4.5-0.2-5.9-1.6c1.1,1.9,2.6,3.6,3.7,5.6c0,0,0,0,0,0c0,0,0,0,0.1,0c3.5-1,4.2,2.7,6.3,3.9
	c1.1,1.1,2.3,2.2,2.7,3.9c0,0,0,0,0,0c1.2,1,2,2.3,2.3,3.8c0,0,0,0,0,0c2.3,1.5,3.5,4.2,3.2,6.9c-2.8-1.2-3.3-3.7-4.6-5.6
	c-2.2-1.9-4.7-2.5-7.4-1c0,0,0,0,0,0c0,0,0,0,0,0.1c-1.7,1.7-1.6,4.3-2.8,6.2c-2.2,3.6-4.8,6.7-9.6,6.7v0c-6.7,0-13,2.7-19.7,3.2
	c-3,0.2-6.6,2.8-10.2,3.7c0,0,0,0,0,0c0,0,0,0,0,0c-4.1,0.2-3.2,5.1-6,6.5c-0.1,0,0.3,1.4-0.8,0.9c-0.5-0.2-0.9-0.9-1.3-1.4
	c0,0,0,0,0,0c-1.4-0.2-2.9,0.2-3.9,1.2c-2-0.9-4.9-0.8-4.8-4.1c0.2,0.1,0.3,0.1,0.5,0.2c2.3-1,4.7-2.4,6.9-0.9c0.2-2.8,2-5,3.8-7.2
	c0.6-0.3,1.3-0.4,2-0.2c1-5.1,5.2-7,9.3-9c7.8-2.7,19.7-0.2,24.2,5.1c0.2-1.3,1.3-1.9,2.5-2.6c1.8-1,3.7-2.1,4.3-4.4
	c2-2.7,1.3-6.1,2.1-9.1c-3.3-1.9-2.1-5.7-3-8.5c-2.6-5.8-7-9.5-13.4-10.6c-2-0.4-3.6-1.7-4.5-3.5c0.6-1.5,1.7-0.6,2.6-0.7
	c2.5-0.3,3.3-1.1,1.5-3.4c-2.2-2.9-4.3-5.9-6.4-8.9c-0.2-0.4-0.2-0.9,0-1.3c0.3-0.2,0.7-0.3,0.9-0.4c-1-1.3-2-2.7-2.9-4.2
	c0.5,1.2,0.9,2.4,1.3,3.7c-5-6-7-13.6-10.4-20.4c-0.4-0.7,0.2-1.9,0.3-2.9c0.3,0.7,0.6,1.4,1,2.1c-0.2-0.7-0.4-1.4-0.6-2.1
	c-1-3.3-1.5-6.7-3.6-9.6l0.2-0.3c0,0,0,0,0-0.1c-1.5-0.9-1.3-2.6-1.3-4c0-4-2.1-5.5-5.7-5.9c0,0,0,0,0,0v0.1l-14.9,0.9
	c-1,3.2-1.4,6.5-1.2,9.8c0.6,16.2-6.7,29.9-13.5,43.8c2.1,2.2,1,4.6,0.2,6.9c-2,5.5-3.4,11.1-5.7,16.4c-3.5,8.3-2.6,15.1,5.1,20.4
	c2.8,1.9,6.4,2.4,9,4.7c1.2,1,2.7,2.2,0,3.3c-8.2-2.5-16.3-5.2-20.1-14c-2.6-2.3-4-5-3.3-8.5c-0.1-4.1,2-7.6,3.3-11.3
	c0.8-0.7,1.4-1.6,1.8-2.5c-0.5,0.4-1.1,0.8-1.8,1.1c-1.5,0.6-2.8,1.6-3.8,2.9c-0.3,0.1-0.7,0.2-1,0.2c0,0,0,0,0,0l0.1,0
	c-4.4,4.6-10.6,7.1-17,6.9v-0.1c0,0,0,0.1-0.1,0.1c-7.4,0.8-14.8,1.2-21.9-1.8c0,0,0,0,0,0c-1,7.4,1,14.5,3.6,21.2
	c4.4,11.3,9.1,22.6,9.9,34.8c0.8,11.8,2.8,23.6,2.5,35.6c0.1,0.8,0.2,1.7,0.3,2.5c2.2,3.2,1.7,7.1,2.5,10.8c0,0,0,0,0,0
	c3.2,11.6,6.5,23.3,9.5,35c3.1,12.8,10.5,24.2,21,32.3c2,1.5,3.9,3.1,5.8,4.7l9,5c-1.7,1-3.5,0.8-3.8,2.9c-1.1,9-4.7,17.3-8.1,25.5
	c-8.5,20.9-17.6,41.6-23.2,63.6c0,0,0,0,0,0c0,0,0,0,0,0c-2,12.8-5.5,25.3-6.5,38.3c6.4-11.6,14-22.5,21.6-33.3l1.9-1.2
	c6.5-8.6,14-16.5,22.3-23.4c1.8-1.5,3.9-2.6,6.2-3c4.1-0.7,5.7,1.3,4.4,5.2c-3.1,9.2-3.1,9.4,6.3,8.4c12.3-1.4,24.6-1.1,36.9-0.8
	h-0.1c1.7,0.4,2.9,1.7,3.2,3.3c4.6,18.8,10.9,37,17.1,55.3c0,0,0,0,0,0.1l0,0l11.5,27.8c9.7-12,19.1-24.3,29.2-36
	c1-1.1,2.5-1.7,3.1-3.2c0.2-0.4,0.4-0.9,0.5-1.3c9.7-9.2,16.5-20.7,25.5-30.4c4.9-5.3,9.5-11,14.4-16.4c5.1-5.5,9.2-12.1,14-18
	c6-7.4,12.6-14.4,18.4-22c5.6-7.4,11.1-14.8,16.8-22.1c10.8-13.7,21.8-27.3,31.1-42c3.5-5.6,5.5-11.8,7.2-18c1.3-4.5-0.4-8.8-2.1-13
	c-1.1-2.8-4-2-5.9-3.1c-11.6,15.7-26,28.5-41.4,40.3c-3.7,2.8-7.8,5-11,8.5c-0.2,0.8-1,1.2-1.8,1c-16.2,10.1-32.5,20.1-49.5,28.8
	c-1.5,0.8-3,1.4-4.5,2.1l0.1,0.1c-27.5,14.7-55.3,28.9-83.2,42.7c-1.5,0.6-3.1,1-4.8,1.3l0,0c-9.2,2.7-18.4-1.4-24.9-11.5
	c-7.8-12-11.5-25-9.9-39.4c-1.4-3.8-5.1-6.1-6.6-9.7c-0.7-1.7-3-3.7,0.5-5.1c0,0,0,0.1,0,0.1l0.1-0.1c13.7,1.2,27.4,0.1,41.1,1.6
	c0,0,0.1,0,0.1,0l14.6,0.3l-0.4,0.2c0.2-0.1,0.3-0.1,0.4-0.2c7.2-0.5,14.4,0,21.1-3.4l1.2,0.1c0.1-0.3,0.2-0.6,0.4-0.9
	c0.8-1,2.1-1.3,3.3-0.9c2.2,0.6,0.6,3.7,2.8,4.3c1.8,1.3,3.4-1.8,5.3-0.3c0.8,1,1.2,2.4,1.1,3.7c0,0,0,0,0,0
	c2.4,1.1,3.4,2.6,2.3,5.5c-1.4,3.5-2.2,7.3-3.3,10.9c-1.6-4.9,1.1-9.5,0.9-14.2c-2.6,0.8-1.6,3.3-2.4,5c-0.8,1.7,0.9,5.6-3.6,3.3
	c-1.1-0.6-1.1,1.3-1.6,2c-2.9,4.5-1.9,10-4.5,14.7c0.5-3.5,1-7.1,1.6-10.6c0.2-1.3,1-3-0.7-3.4s-2.5,1.1-2.7,2.8
	c-4.5-2.9-4.6-2.9-3.6-8.1c0.1-2-2.8-2.8-2.1-5.1c0.8-2,3.3-2.1,4.4-3.9c0.6-0.3,1-0.7,1.4-1.1c-0.9,0.5-2.1,0.8-3.1,1.2
	c-2.9,3.1-7.4,0.4-10.4,2.8c-1.2-0.2-2.5-0.1-3.8-0.1c0.9,0.3,1.8,0.8,2.6,1.5c0.4,0.9,1,1.7,1.7,2.4c2.9,2.2,4,4.7,1.7,8
	c-0.4,0.6-0.1,1.6-0.3,2.4c-1.8,2.5-3.2,2.2-4.5-0.5c-0.4-0.8-1.2-1.9-2.2-1.1s0.4,1.6,0.5,2.5c0,0,0,0,0,0c2.5,2.9,4.4,6.3,5.8,9.9
	c-1.3-0.7-2.2-1.7-3-2.8c1,2.7,0.8,5.4-1,8.2c-0.4,0-0.7-0.1-1.1-0.2c0.6,1.2,1,2.5,1.1,4c0.3,1.6,0.3,2.8-1.9,2l0,0
	c0.2,1.6-0.1,2.8-2,3c-0.6-0.4-1.2-0.8-1.7-1.3c0.2,0.8,0.3,1.7,0.4,2.5c0,0.9,1.4,1.9,0.5,2.6s-1.5-1-2.4-1.2c0,2.7-0.1,3-1.6,2.2
	c-1.3-0.7-1.2-1-1.4,0.8c-0.4,2.6-3.7,1.5-5.3,3.1c-0.3,0.3-0.6-0.9-0.7-1.8c-0.2-3.8,2.1-7.5-0.2-11.1c2.2-1,2.4,2.7,4.4,1.2
	l-3.2-5.9c0,0,0.1,0,0.1-0.1c0,0-0.1,0-0.1,0c-0.9-1.1-2.5-2.1-1.3-3.6c0.5-0.6,1.5,0.9,2.3,1.4l-3.9-9.6c2.8,1.2,3.4,3.4,4.9,4.8
	c0.7,0.2,1.3,0.5,1.7,0.9c-0.2-0.7-0.3-1.5-0.4-2.2c-0.6-2.2-3-4.2-1.1-6.8c0,0,0,0,0,0c0,0,0,0,0,0c0.8-4.2-3.5-6.2-4-9.9
	c0.3-3.4,2.3-5,5.6-5.3c0.3-0.3,0.8-0.5,1.2-0.7c1.2,0.2,2.4,0.1,3.6,0.1c-1-0.3-1.9-0.8-2.8-1.6c0-0.1,0-0.3,0.1-0.4
	c-2.2,2.1-4.8,0.5-7.3,0.5c-2.5-0.8-5.4,0.4-7.9-0.7c-0.6,0.1-1.1,0.2-1.6,0.4c-8.1,0.6-16.2,1-24.1-1.8c-2.2-0.8-4.6,0.4-6.8-0.6
	l-4-1l0-0.1c0,0,0,0,0,0c0.2,3.9,3,6.3,5.1,9.2c1.2,1.5,2.8,2.8,3.2,4.8c0.9,0.2,1.7,1,1.8,2c1.6,2.3,2.8,4.9,3.5,7.7
	c1.4,5.1,2.8,10.2,5.9,14.7c2.3,3.4,3,7.4,3.5,11.3c1.5,11.3,5.4,14.7,16.6,14.3c0.1,0,0.1,0,0.2-0.1c16.5-7,32-15.9,48-23.8
	c0.2-0.4,0.6-0.6,1.1-0.5l4-2.3c3.9-1.2,7.3-3.3,10.8-5.2c1-0.9,1.9-1.9,2.8-2.9c1.7-0.5,2.3-2.2,3.6-3c2.7,0.1,4.4-2.1,6.8-2.8
	c0.4-0.1,0.9-0.2,1.4-0.1c1.8-5.3,3.5-10.7,6.6-15.5c0,3.6-2.2,6.5-3.2,9.9c-0.6,1.8-2.1,3.5-0.8,5.6l-0.2,0.1c0.1,0,0.1,0,0.2,0
	l6.5-3.1c-0.1-0.2-0.2-0.3-0.2-0.5c0.1-3.1,2.8-3.8,4.7-5.2c2.9-1,5.2-4.4,8.9-2.3c1.2-0.2,2.3-0.8,3.1-1.7c4-3.1,6.5-8.1,12.1-9.1
	c6.7-4.5,13.9-8.5,20.5-13.2c3.8,0.2,4.9-4.2,8.2-4.8c0.5,0.1,0.9,0.3,1.3,0.5c3.5-1.6,6.9-3.1,8.9-6.6c0.5-0.8,1.1-1.5,1.7-2.2
	c6.1-5.9,13.1-10.9,18.6-17.5c2.3-0.9,4-3.2,6.8-3.2c1.3-1.1,2.7-2.2,3-4.1c0.7-1,1.7-1.8,2.9-2.1l1.3-1.8c0.3-1.4,1.4-2.6,2.8-3
	c1.3-1.4,2.6-2.9,3.9-4.3c-0.2-0.2-0.3-0.5-0.4-0.8c-0.4-1-0.2-2,0.3-2.9c2.8-3.7,4.7-8,5.6-12.6c0.3-1.3,0.9-2.7,2.4-2.9
	c-1.6-2-2.2-3.2-1.7-4.3c-0.1-0.4-0.1-0.8-0.2-1.3c1.6-12,2.7-24.1,4.5-36c0.3-2.3,0.8-4.8-2.6-5.3c-1.9,0.2-3.6,1.5-5.7,1.2
	c-2.3,0.4-4.5,1.3-6.8,1.6c-0.5,0.3-1.1,0.6-1.6,0.9c-0.5,0.3-1,0.6-1.6,1c-0.6,0.6-1.4,1-2.2,1.1c-0.4-0.1-0.7-0.4-0.9-0.7
	c-1.2-1.9-0.8-3.2,1.2-4.4c2.4-1.4,5.1-2.4,7.9-3c7.2-1.5,13.9-4.7,19.6-9.3c14.3-11,25.5-24.2,31.2-41.7c2.6-7.9,5.3-15.8,7.9-23.6
	c0,0,0,0,0,0c1.5-6.7,3-13.5,4.5-20.2C607.9,258.2,607.7,250.8,607.8,243.3C607.8,243.3,607.8,243.3,607.8,243.3z M588.6,149.5
	c1.2,0.6,1.5,2.8,2.7,3.5c2.1,1.4,0.5-0.8,0.9-1.2c0,0,0,0,0,0l0,0c-0.8-2.6-1.7-5.1-2.5-7.7c0.7-0.6,1.5-0.9,2.3-0.1
	c2.7,1.2,2.6,3.5,2.3,5.9l-0.6,1c0,0,0,0,0,0c0,0.5,0.1,1,0.2,1.5c0.6,3.1,2.8,6.4-0.8,9.2c-2-1-2-3.2-3-4.7
	c-0.8-1.9-1.6-3.9-2.4-5.8C587.8,150.4,586.6,148.4,588.6,149.5z M351,40c0,1.8,2.4,1,2.4,2.9c-3.9,0.3-7.9,0-11.7-1
	c1.6-4.7,5.7-2.6,8.9-3.2c-1.5-1.4-3.7,0.4-5.5-1.8c5.8-0.2,11.2,0.4,16.6-0.1C358.7,39.1,354.9,40.3,351,40z M437.7,206.6l4.9-5.9
	C442.8,203.7,442.3,206.3,437.7,206.6z M360.1,311c0.8-1-0.5-2.9,0.8-4.1c2.6,0.3,2.6-4.5,5.8-2.8c1.7,4.1-0.2,7.8-1,11.7
	c-1.7,0-2.8,3.1-5,0.6C359.2,314.6,358.3,313.3,360.1,311z M340.8,289c0.8-1.6,0.8-4.5,3.6-3.9c1.7,0.3,2.7,1.8,3.1,3.7
	c-1.1,1.7-3,2.7-5,2.6C341.2,291.4,340.1,290.4,340.8,289z M321,318c1,2.6,4.5,3.1,5,6.1c-3.9-1.6-6.3-4.9-8.6-8.6L321,318z
	 M328.8,507.6l16.2,5l2.6,1.3C341.1,512.4,334.4,511.7,328.8,507.6z M393.4,528.5l-1.2-0.2c0.7-5,1.5-9.9,2.2-14.9l1.2,0.3
	C394.8,518.6,394.1,523.6,393.4,528.5z M529,320.8c0,1.3-0.1,2.6-0.1,3.9C527.7,323.4,527,322.1,529,320.8z M514.8,288.4h1.1v12.3
	c-0.3-1.6-0.7-3.3-1.1-4.9V288.4z M512.9,400.9v-24.1h0.9v24.1c0,0,0,0,0,0h0c-0.7,5.4-0.6,11-2.8,16.2l-0.2-4.2
	C511.5,408.9,512.2,404.9,512.9,400.9z M574.1,184.2c-0.2,1.5-1.2,2.8-3.1,1.7c-0.9-2.9-3.3-5.4-2-8.8c4-1.9,2.1-5,1.5-7.8
	c-0.4-2.2-1.9-4.9,2.4-4.3c1.9,1.8,2.5,4.1,3,6.5C576.9,175.9,574.7,180,574.1,184.2z M568.4,109.9c1.9-0.2,3.1,1.2,4.5,2.1
	c0,0,0,0,0,0c2.9,3.4,6.7,6.2,8,10.8c0,0,0,0,0,0c0,0,0,0,0,0c0,0.1,0.1,0.1,0.1,0.2c0,0,0,0,0.1,0.1c2,2.4,4.2,4.8,4.3,8.8
	c-3.4-1.9-3.4-5.1-4.7-7.6c0,0,0,0,0,0c0,0,0,0,0,0c-3.3-3.1-6.3-6.6-8.9-10.5l-1,2.1C570.2,113.9,567.8,112.6,568.4,109.9z
	 M564.8,153l4.3,11.8c-0.1,1-0.2,2-0.3,3C567.6,162.8,563.9,158.6,564.8,153z M564.9,166.8l-4.7-9.3
	C563.1,159.7,564.8,163.1,564.9,166.8z M560.8,181.2c0,1.4,2.3,3.5-0.2,4c-1.3,0.3-4.2,0.1-4.6-2.7c-0.1-0.5-0.1-1-0.2-1.5l1.3-5.9
	C558.5,177,560.7,178.5,560.8,181.2z M558.9,136c-0.7,1.3-1.3,2.7-1.9,4c-0.4-2.4-2.2-4.3-1.9-6.9c0,0,0,0-0.1,0l0.1-0.1
	c0,0,0,0,0,0.1C559.5,129.7,557.4,135.3,558.9,136z M548.2,127c0.2-0.4,1.3-0.9,1.6-0.8c2.4,1.7,4.8,3.6,5.1,6.8l0.1-0.1
	c-0.9,2-2.2,4-3.4,0.6C550.7,131.2,547,130.3,548.2,127z M546.3,193.9V182C548.3,185.7,548.3,190.2,546.3,193.9z M540.8,116.5
	c3.2,1.6,2.6,5.9,6.3,5.6c0.2,0.6,0.2,1.2,0.1,1.7c-0.3,0.7-1.1,1.1-1.8,0.9c-0.1,0-0.1,0-0.2-0.1
	C542.1,123.1,540.3,120.8,540.8,116.5z M539,68.6c0.2-0.2,0.5-0.2,0.7,0c0.5,0.5,0.5,1.2,0.5,1.9c0,0.3-0.2,0.5-0.5,0.5
	c-0.3,0-0.5-0.2-0.5-0.5c0-0.2,0-0.4,0-0.6c0-0.1-0.1-0.3-0.1-0.4c0,0,0-0.1-0.1-0.1c0,0,0,0,0,0C538.8,69.1,538.8,68.8,539,68.6z
	 M533.8,129.6c2.5,5.9,5.2,11.7,6.9,18.1c-1.3-2.2-2.6-4.4-3.9-6.6l-0.6,0.3l1.9,8.6c-0.5,1.7-1.1,1.6-1.7,1
	c0.5,2.2,0.3,4.4-0.6,6.9c-0.5,0.7-0.1,1.4,0.2,2l-1.1,3.1c1.4,4.2-2.5,6.4-3.8,9.5c-0.7,1.6-3-0.1-4.7,2c-2.2,2.7-3.1,1.9-2.6,5.2
	c0.4,2.4,1.5,4.8,0.2,7.3c-1.8-3.4-2.1-7.3-3-11s3-7.3,4.3-7.5c4.7-1,5.1-4.5,6.5-7.6c0,0,0,0,0,0c0,0,0,0,0,0
	c-0.9-5.7-1.9-11.3,0-17h0.1c-1.2-4.1-1.4-8.5-3.1-12.4c-0.5-1.2-1.6-3,0.5-3.8C531.2,127.1,532.9,127.4,533.8,129.6z M503,74
	C503,74,503,74,503,74C503,74,503,74,503,74c4.4,0.4,3.6,4.5,5,7c0.1-1.4,0.1-2.8,0.2-4.5c2.8,1.1,3.3,3.3,3.8,5.3
	c4.1,0.5,7.5,1.9,8.9,6.2c0,0,0,0,0,0.1l0.1-0.1c3.3,2,7.3,3.2,8.7,8.7c-4-2.7-8.3-3-10.7-6.8l0,0c0,0-0.1,0-0.1,0
	c-4.6,1.8-4.4-3.3-6.8-4.7l0.7,3.8c-3.2-0.7-4.3-3.1-5.8-5.1c0,0,0,0,0,0c-1.4-2.6-5.1-3.4-4.9-6.9c-5.9-1.4-3.1-6.6-4.4-10
	C500.1,68.9,503.7,69.8,503,74z M505.7,390v17.8h-0.9V390H505.7z M496,161.3l7,6.6l-0.1,0.2l-7.3-6.4L496,161.3z M474.6,53.8
	c1.4-2.6,2.8,0.3,3.3,0.6c3.8,2.2,5.9,6.2,8.1,9.9c0.1,0.8-0.4,1.2-1.1,1.4s-1.8,0.4-2.2-0.4c-1.5-3.3-4.8-4.9-7.1-7.4
	C474.6,56.7,473.7,55.3,474.6,53.8z M463.2,162.2c-6.3-5.1-13.2-9.2-20.7-12.4C450.8,151.2,458.1,155.6,463.2,162.2z M444.5,96.3
	l10.2,4.5C450.7,100.6,447.1,99.4,444.5,96.3z M429.9,15.2c6.4,1.2,12.7,3.1,18.7,5.6l-0.4,1.3l-19.5-5.9c0,0,0,0,0,0l0,0l-10.9-1.8
	C422.1,13,426,14.2,429.9,15.2z M413.1,35.2c1.6,0.3,3.3-2.8,4.8,0.3c0.2,0.3,0.7,1.1,0.8,0.6c0.8-4,2.1-2.5,3.6-0.5
	c0.4-3,4.5,1.3,4.6-2.3c4,1,8.6,1.1,9.3,6.7c2.4-1.6,0.1-4.4,1.9-6.7c1.7,2.3,4.9,2.1,6.2,4.8c0.2,0.4,0.6,0.7,1.1,0.7
	c3.2-0.5,3.2-0.5,5.1,1.2c0.5,0.4,1,1.2,1.5,1.2c5.5-0.4,3.3,3.1,3.2,5.9c-3.1-1.2-3.6-4.6-6.7-5.9c0.5,2.3,0.9,4.3,1.3,6.5
	c-4-2.3-8.3-3.8-9.4-9.1c-2.3,2.5-0.2,5.3-2.3,7.8c-1.1-2.4-2.1-4.4-3-6.4c-2.8,0.1-0.1,2.8-2,3.7l-4.8-7.6
	c-0.2,3.2-0.4,5.2-0.5,7.3c-1.1-3.7-5.9-1.3-7-4.5c-1.3,1.5-2.5,3.1-5,1.6C413.6,39.2,413.4,37.3,413.1,35.2z M431.9,172
	c0,0,0.1-0.1,0.1-0.1l-0.1,0c-2.8-3.7-7.3-4.2-11.2-5.9c-2.2-0.9-4.7-1.1-6.2-3.5c7,2.6,14.7,3,20.5,8.4c5.8,2,10.8,5.9,14.1,11.1
	C443.7,178.1,437.5,175.6,431.9,172z M454.2,210.6c-0.2-10.1-1.4-19.1-2.5-29C456.7,189.1,457.7,200.2,454.2,210.6z M458.6,191.5
	c-4-13.4-11.9-23-19.5-32.7c3.6,1.4,5.1,4.9,7.8,7.1c5.9,3.9,9.8,10.2,10.8,17.3C457.9,185.5,459.7,187.4,458.6,191.5z M459.1,181.9
	c-2.3-6.8-5.8-13-11.2-17.8c1.3-2,2.3-0.4,3,0.5c2.1,2.5,4,5.2,6,7.7c0.2,0.4,0.4,0.7,0.6,1.1c0,0,0-0.1,0-0.1
	c-0.6-1.9,0.4-3.3,2.5-1.2c2.8,7.3,7.2,14.3,4.4,22.7c3.7,4.1,2.2,12-3,14.8c0.5-5.3,1.1-10.4,1.6-15.4l0,0
	c0.5-4.4,1.2-8.8-1.3-12.8c-0.5-0.3-0.9-0.7-1.3-1.1c-0.1,0.6-0.2,1.2-0.5,1.9C459.6,181.9,459.4,181.9,459.1,181.9z M469.9,213.9
	C469.9,213.9,469.8,213.9,469.9,213.9c-1,4.3-6.6,3.2-8,7l-2.1-1c1.6-2.7,3-5.6,6.1-7c2.3-3.7,6.2-5.8,9-9c1-0.2,1.5,0.2,1.4,1.2
	C474.6,208.3,474.1,212.5,469.9,213.9z M474.8,224.7c-0.7,0.1-1.5-0.4-2.3-0.7c1.5-3.8,5-1.4,7.4-2.4c6.1-1.3,12.2-2.6,18.4-3.7
	c2-0.4,4.1-1.7,6.1,0C494.8,221.2,484.8,222.8,474.8,224.7z M482.4,246.4c-5.6-1-11.6,0.3-16.4-4.1
	C471.7,242.9,477.6,242.7,482.4,246.4z M475.3,282.6c-3.1-0.7-4.7-3-6.3-6C473.7,276.3,473.6,280.3,475.3,282.6z M462.6,466.9
	c1.2-1.9,2.3-4,4.2-5.3c0.7,0.7,1.4,1.5,2.1,2.2l-7,9.6C461.1,471.1,464.7,469.3,462.6,466.9z M465.5,245.6c-4,1.3-6,0-8.7-0.9
	C460,242.2,462.1,244.1,465.5,245.6z M464.2,263.7c0.7,0.5,1.5,1.1,1,2c-0.6,1.1-1.6,0.9-2.6,0.4c-3.5-1.8-6-4.5-8.9-8.5
	C458.3,259.2,461.2,261.5,464.2,263.7z M465.5,418v22.8C464.8,433.3,465.4,425.7,465.5,418z M455.1,313.7c4.8,7.8,6.8,16.7,8.5,25.6
	C460.3,331,458.3,322.1,455.1,313.7z M459.8,427.1v16.6c-0.9,0.3-1.3,0.1-1-0.9v-15.7H459.8z M444.1,321.8L444.1,321.8L444.1,321.8
	c1.7,3.4,2.7,7.1,2.6,10.9c-1.6-3.3-2.7-6.9-3-10.6l0,0c-2.5-5-4.2-10.3-5.2-15.7C441.1,311.2,443.5,316.2,444.1,321.8z
	 M444.5,457.4c-0.9,6.1-3.8,11.4-7.5,16.1C439.6,468.2,441.7,462.6,444.5,457.4z M436,466.1c-0.6,4-1.9,7.6-5.5,9.9L436,466.1z
	 M416.9,463c0,3.6-1.8,7.1-4.7,9.2L416.9,463z M394.5,354.1c1.6,0.9,1.5,2.3,1.5,3.8l0,0c1.1,1,1.7,2.5,1.7,4
	c-1.7-0.6-1.7-1.9-2-2.9c-0.2-0.2-0.2-0.5-0.1-0.8l-0.2,0.2l-0.5-0.5C394.9,356.6,393.8,355.5,394.5,354.1z M396.2,380
	c-3.2-3-4.1-7.4-6.2-11C394,371.5,394.9,375.9,396.2,380z M386.3,321.7c0.9-0.5,1.5,0.3,2,1c1.6,2.8,3.9,5.4,3.6,10.4
	c-2.4-3.7-4.1-6.2-5.7-8.9C385.7,323.4,385,322.3,386.3,321.7z M294.3,467.1c-2.6-2.5-5.3-4.6-5.4-8.5
	C295.4,458.7,294.9,462.7,294.3,467.1z M306.6,414l9.8,5.1C312.5,419,308.9,417.1,306.6,414z M306.5,412c0.2-0.4,0.4-0.7,0.5-1.1
	l8.9,4.5l-0.5,1.3L306.5,412z M330.9,406.9C330.9,406.9,330.9,406.9,330.9,406.9c0,0.7,0.1,1.4,0.1,2.1l-12-5
	c-0.6-1.6,0.1-1.8,1.4-1.2c2.6,1.1,5.1,2.2,7.7,3.3c2-3.1,5.2-1.7,7.8-2.1C334.8,405.7,332.9,406.4,330.9,406.9z M358,393.2
	c-0.8-0.1-1.3-1.8-2.3-0.2c-0.3,0.5,1.4,2-0.2,1.2c-5.1-2.4-10.5,0.1-15.6-1.4c-3.4,0-6.6,1.7-10.1,1.3c-2.3-0.9-4.6,2-7,0.2
	c-8.9,0.6-17.5-2-26.3-2.7c13.8-1.4,27.6,0.3,41.4-0.6c0.1,0.1,0.1,0.2,0.2,0.2L338,391c6,0.3,12-0.4,17.9-0.9
	c1.7-0.1,3.9-1.6,5.2,0.9C360,391.7,359.5,393.2,358,393.2z M382.3,480.3l5-10.5C387.5,474.2,385.5,477.6,382.3,480.3z M387.4,387.3
	c-1.2-1.1-2.2-1.4-3.4-0.3c-2.5,1.3-2.9-1.7-4.5-2.2c-0.1,0.1-0.3,0.3-0.4,0.4c-0.7,0.2-1.5,0.3-2-0.4l-7-1.9l-13-4l0.5-1.9
	c-1.7-0.3-2.9-1-3.9-1.9c0.1,0.3,0.2,0.5,0.3,0.8c1.5,3.6-2.2,2-4,2l-6.8-1.2h-14.1c0,0,0,0,0,0l0,0l-9,1l0,0l-20.8,0.2
	c-5,0.9-9.5,3.4-12.9,7.1c0,0,0,0,0,0c0,0,0,0,0,0.1c-0.8,1.5-1.5,3.1-2.3,4.7c-2.8-0.7-1.8-3-1.9-4.8c-0.2-2.4-0.1-4.8-0.2-7.2
	c0.1-0.6,0.3-1.2,0.4-1.8c0,0,0,0,0,0c0,0,0,0,0,0c0.8-3.4,1.9-6.6,5.4-8.3l0,0c0,0,0,0,0,0c4-3.1,8.6-2.4,13-1.9
	c10.1,1.1,20.2,1.6,30.3,0v0c6.4-2.6,12.7-4.1,19,0.2l0.1-0.1c0,0,0,0.1,0.1,0.1c1.6-0.2,3.2,0.1,4.6,0.8c7.7,4,15.5,8,23.3,12
	c0,0,0,0,0,0c3.3,1,6.3,2.5,10,2.5c2.8-0.1,4.6,2.8,5.9,5.3c1.1,2.1,2,4.2,3,6.3c-1.1,2.3-2,1.3-3.3,0.1
	C391.6,391,389.4,389.3,387.4,387.3z M391.9,480.1c1.9-5.9,5.9-10.9,7-17.2C399.3,469.8,396.1,475.1,391.9,480.1z M399.8,482.8
	l-4.8,0.9c0.2-1.6,1.2-2.6,2.1-3.8c4.9,0.9,6.6-3.8,10.5-6.1C406.5,478.8,402.2,480,399.8,482.8z M433.5,494.1
	c-0.8,1.2-2.1,1.2-3.2,1.6c-3-0.4-4.4,3.6-7.6,2.6c0.3-1.4,0.5-2.8,1.1-5.9c-2.7,5-7.5,2.3-9.7,5.6c0,0,0,0,0,0l-8.2,17.4
	c0.7-6.4,3.7-12,6.7-17.5c5.2-7.1,10.3-14.1,19.3-17.1c2.9-1,6.8-1,8-5c0.7-1,1.5-2,2.8-1.1c1,0.7,1.3,2,0.6,3c0,0,0,0,0,0
	c-0.6,1.2-1.5,2.4-2.4,3.4C437.2,484.8,435.5,489.5,433.5,494.1z M436,494.2c-1.7-5.2,2.2-7.7,5-10.8v2.5
	C439.3,488.6,437.7,491.4,436,494.2z M439.4,497.5c-0.3-4.9,4.4-7.5,2.4-11.6c0.1-2.3,0.8-4.3,3.1-4.9c0.6-1.8,1.6-3.2,2.8-4.5
	c-0.6,0-1.2-0.1-1.9-0.5l-0.2-0.1c0.5-1.4,0.9-2.9,2.4-3.6c3.5-1.8,6.6-4.2,9.3-7.1l-3.7,7l0.8,0.7c-1.8,3.8-5,6.6-7.4,10
	c0,0,0,0,0,0l0,0C444.6,487.5,442.3,492,439.4,497.5z M452.9,480.8C452.9,480.8,452.8,480.8,452.9,480.8L452.9,480.8
	c-2.3,4.5-4.1,9.3-7,13.5c0.6-5.1,3.4-9.2,5.9-13.4h0.1c0,0,0,0-0.1-0.1c-0.2-3.4,4.4-5,3.1-8.8c1.6-3.6,5.1-6.2,6.1-10.2h0
	c2.2-4.3,3.7-9,4.3-13.8c1.3,2.5,0.6,4.1,0.7,5.7c-0.9,2.7-1.8,5.5-3.7,7.7c0,0,0,0,0,0c3,2.3-0.9,4.2-0.2,6.3
	C459.8,472.7,455.9,476.5,452.9,480.8z M457.9,492.9c-0.5,0.9-0.7,2.4-2.3,2c3.1-7,7-13.7,9.3-21c0,0,0,0,0,0
	c2.3-3.1,4.1-6.6,7.1-9.1c-1.1,3.7-3.3,6.8-5.3,10C463.8,480.8,460.9,486.9,457.9,492.9z M490.8,455.6c-1.5,0.5-0.6,4.4-3.7,2.5
	c-2,2.9-3,7-7.7,6.9c-0.1-0.3-0.2-0.6-0.1-1c-0.8,0.8-1.8,1.4-3.3,0.8c-0.6,3.3-2.9,5.8-4.2,8.8l-2.1-1c1.9-2.8,3.3-6,6.3-8
	c0.7-1.6,1.7-3.1,2-4.7c0.3-2.3-1.2-0.8-2-0.7c0.6-6.8,7-6.4,11.1-8.8c1.1,1.4,1.1,2.5,0.7,3.6c1.3-0.9,3-1.4,4.3-2.3
	C491.5,453.2,491.2,454.4,490.8,455.6z M491.5,265c-2.6,0.3-4.6-1.1-6.8-2.6c2.8-0.9,5.2-0.9,7.1,1
	C492.3,263.9,492.2,264.9,491.5,265z M479,228.9c7-3.8,14.9-5.5,22.8-4.9C494.3,226.1,486.7,227.8,479,228.9z M504.9,433.6
	c-0.5,4-2.3,7.7-5.1,10.6C500.2,440,502.9,437,504.9,433.6z M508,439.9l-6.1,10c-0.4-6.8,3.9-11.6,6.9-16.9
	C509.4,435.4,506.6,437.4,508,439.9z M507.8,425.9c1.8,0.5,0.9,1.3,0.2,2L507.8,425.9z M509.8,411.7h-1.7c0.6-9.3,1.4-18.5,1.7-27.8
	V411.7z M510.7,446.8l-0.9-1c1.3-3.9,2.1-8,5.1-11.2C514.3,438.9,512,442.7,510.7,446.8z M515.7,415.8c-0.3-0.7-0.7-1.4-1-2.1
	c0.5-5.5,0.9-11,1.4-16.6l1,4C516.6,406,516.2,410.9,515.7,415.8z M521.8,396.9c-0.3,7.1-0.7,14.1-3,21c0.7-7,1.4-14,2.2-21h0v-18.7
	h0.9V396.9z M522.8,315.1c0.1,0.5-0.6,1.1-0.9,1.7c-1-1.6-1.3-3.2-1.4-4.8c-0.1,0.2-0.3,0.5-0.5,0.7c-0.5,0.5-1.2,0.5-1.6,0
	c0,0-0.1-0.1-0.1-0.1c-1.2-1.2-1-2.6-0.4-4.1c1-2.2,0.6-4.7-0.9-6.5c0.8-6.5,1.5-13,2.4-20.2c3.4,3.2,0.3,7.1,1.8,9.5
	C526.2,298.9,521.8,307.2,522.8,315.1z M525.4,397.6c0-0.1-0.1-0.2-0.1-0.2c-0.1-3.4-0.3-6.8-0.5-10.2c0.1,4.2,0.1,8.5,0.2,12.7
	l-1.1,1v-19.9l0.5-0.7l0.3,0.7c0,0.2,0,0.3,0,0.5c0-2.9,0.2-5.9,0.7-8.8c0.1-0.7,0-1.3-0.4-1.9v-11.4c2.3,12.7,2.3,25.6,1.8,38.4
	C526.3,398.2,525.7,398,525.4,397.6z M533.8,386c0.5,0.3,0.8,0.6,1,1c0-1.1,0.2-2.1,1-3c0.3-1.8,0.7-3.5,1.1-5.3
	c1,1.5,0.9,2.9,0.6,4.7c-1.2,5.8-1,11.8,0.4,17.6c1.6,3.4,0.1,6.3-1.4,9.1c0.2,0.2,0.4,0.4,0.5,0.6c0.4,0.7,0.4,1.6,0,2.3
	c-1.1,3.9-2.2,7.9-3.3,11.8l-2-3.9c-0.3-2-0.6-4-0.9-6c0,0,0,0,0,0v0l-1.1,1c-2.9,2.5-2.9,2.5-4,1.9c1.1-2.3,2.1-4.5,3.2-6.8
	c0.6-0.3,1-0.2,1.3,0c0.8-2,1.5-4.2,3.6-2.9c0-0.2,0-0.3-0.1-0.5c0.1-0.6,0.2-1.1,0.4-1.7c-1.4,2.2-2.6,1.9-5.9-0.1
	c-0.7-0.8-0.9-1.9-0.5-2.9c1.7-8,1.2-16.3,1.5-24.5c1.6,0.5,1.5,1.6,1.7,2.5c-2.1,5.9-1,11.7,0.5,18.3
	C534.4,394.6,531.6,389.8,533.8,386z M530,356.8c-1.2-7.1,0.8-13.6,3.4-20C534,343.8,532.3,350.3,530,356.8z M549.4,244.7
	c-0.3,5.5,2.7,11.3-1.4,17.4C546.5,255.7,546.7,250.2,549.4,244.7z M535.2,330c0.2-0.4,0.6-0.7,1-0.8c0.6-0.2,1.4-0.3,1.6,0.6
	c0.2,1.3,0.2,2.6,0.4,3.9l1.8,2.3C537.2,335.7,534.4,332.3,535.2,330z M560.6,350.5c-0.5,0.9-1.6,1.7-2.4,0.9
	c-2.4-2.2-5.5-3.7-7-7.6c4,0.6,6.3,2.8,8.9,4.3C561.3,348.6,561.1,349.5,560.6,350.5z M575,296.1c-2.7,6.5-6.1,12.3-13.8,13.9
	c-1.8,0.4-2.5,2-3.9,3c0,0,0,0-0.1,0c-1.7,2-2.9,4.5-5.4,5.8c0,0,0,0,0,0c-2.9,2.5-5.9,4.5-9.8,2.1c0,0-0.1,0-0.1,0
	c-3.3-1-4.5-2.6-2-5.7c1-1.2,0.8-3.1,2.2-4.2c0,0,0.1,0,0.1,0c6.3-8.4,6.4-17.1,1.5-26c-1.8-2.3-2-4.2,0-6.9
	c2.5-3.4,3.8-7.7,5.9-11.5c2.3-4.4,4.8-4.8,8.8-1.6s5.3,7.5,7.4,11.7c0,0,0.1,0,0.1,0.1v-0.1c0.4-1.6-0.6-3.7,2-5
	c0.4,2.3,1.4,4.2,0.1,6.3c0,0,0,0,0,0c1.2,1.8,2.3,3.7,2.1,6C574.1,285.3,576.8,291.7,575,296.1z M594.3,283.1c0,0.4-0.1,0.7-0.3,1
	c-1.2,5-2,10.1-5,14.5c-1.4-7.5,0.2-14.9-1.6-22.1c-1.7-6.9-8.5-12.2-6.3-20.7c4.7,4.8,7.3,10.4,11.2,15.2c1.8,2.1-0.1,5.8-0.8,8.6
	c-0.7,2.9,0.8,2.2,2.3,2.1c0,0,0,0,0,0c0,0,0,0,0,0c0.7-5.5,2.1-10.8,4.3-15.8C597.5,271.7,596.3,277.5,594.3,283.1z M600.8,255.9
	C600.8,255.9,600.8,255.9,600.8,255.9c-0.1,1.4,0.1,3.5-1.7,3.5c-2,0-1.9-2.2-2-3.9c-0.2-2.7,0.6-5.5-1-8.1v6.7
	c-2.6-3.6-1.3-6.6-2.4-9c-1.2,1.2,0.1,3.3-1.8,4.6c-2.1-3.9-0.3-8-1-11.8c-0.4-0.6-0.6-1.2-0.8-1.9c-2,1.2-2.6,3.4-4,5.1
	c-2.7-0.1-1.8-2.3-2.3-3.7c-0.6-1.8,1.5-4.6-2-5.2c-0.2-0.4-0.2-0.7-0.2-1.1c-0.1,0.7-0.3,1.3-0.6,1.9c-1.1-0.2-1-1.2-1.6-2.8
	c-0.4,2.8-0.6,5.5-3.2,5.4c-1.6,0-4.3,0.6-4.8-2.5c0-0.2-1.5-0.1-2.3-0.2c-0.6-0.5-1-1.1-1.4-1.6c0,0.6-0.2,1.3-0.7,1.7
	c-3.6-2.2-5.7,0.5-7.3,2.8c-3.1,4.5-3.7,10.1-5.3,15.7c-1.9-8.5,5.2-22.3,13.6-27.5c8.8-5.4,16.6-5.6,23-0.6c0,0,0,0,0,0
	c0,0,0,0,0,0c8.2,3.3,9.7,10.7,10.8,18.1C602.5,246.4,602.2,251.2,600.8,255.9z"/>
<path class="st0" d="M290.5,488.7c-1.3,0.3-2.6,0.5-3.9,0.7c-0.7,0.1-1.4,0.3-2.2,0.4c0.2,0,0.3,0,0.5,0c-4,0.6-8.1,1.1-12.1,1.5
	c-7.3,0.8-14.8,1.7-22.2,3.5c-3.1,0.8-6.3,1.1-9.7,1.3c-2.3,0.2-4.7,0.4-7,0.8c-3.5,0.6-6.9,1.1-10.4,1.6c-6.6,1-13.4,2-20.1,3.3
	c-5.2,1-10.7,1.6-16,2.2c-3.2,0.4-6.6,0.7-9.8,1.2c-13.4,1.9-31,5-48,12.8l-2,0.9c-7.9,3.6-16,7.3-23.4,12.2
	c-2.9,1.9-6.3,3.1-9.8,3.3c-6.1,0.6-10.1,3-12.1,7.6c-0.2,0.1-0.3,0.3-0.5,0.4c-0.4,0.4-0.9,0.8-1.3,1.2
	c-12.6,9.9-23.2,22.6-32.6,38.9c-4,7-7.1,14.4-10,21.6c-2.6,6.4-5.3,13.1-8.7,19.2c-13.7,25-22.1,46.7-26.4,68c0,0.2,0,0.3,0,0.5
	c-0.2,2.3-0.4,4.6-1,6.9c-0.6,2.2-1.4,4.4-2.1,6.6c-0.3,1.1-0.7,2.2-0.8,3.3c-0.1,1.1-0.1,2.2-0.4,3.3c-0.2,0.9-0.4,1.7-0.7,2.6v5.1
	l4,0c0.1-6.2,1.5-12.3,2.9-18.3c0.6-2.5,1.2-5.1,1.7-7.7c4.2-21.4,12.5-43.2,26.3-68.5c3.5-6.3,6.2-13.1,8.9-19.6
	c2.9-7.1,5.9-14.4,9.8-21.1c9.1-15.8,19.5-28.2,31.6-37.7c0.6-0.5,1.1-1,1.6-1.4c0.2-0.2,0.5-0.4,0.7-0.7l0.3-0.3l0.2-0.4
	c1.4-3.4,4.1-5,8.9-5.5c4.1-0.3,8.2-1.7,11.7-4c7.2-4.8,14.8-8.2,22.9-11.9l2-0.9c16.6-7.6,33.7-10.7,46.9-12.5
	c3.2-0.4,6.5-0.8,9.7-1.2c5.4-0.6,10.9-1.2,16.3-2.2c6.6-1.2,13.4-2.3,20-3.3c3.5-0.5,6.9-1,10.4-1.6c2.2-0.4,4.5-0.6,6.7-0.7
	c3.4-0.3,6.9-0.6,10.3-1.4c7.1-1.8,14.5-2.6,21.6-3.4c4.9-0.6,10-1.1,15-2c2.7-0.5,5.8-1,6.7-4.1l0.5-1.6
	C294,488.2,292.2,488.3,290.5,488.7z"/>
<path class="st0" d="M840.8,692.5c-0.7-2.3-1.2-4.6-1.7-6.9v0.1c-2.4-8.7-6.2-17-11.4-24.5c-2.8-4.2-6.5-7.6-10-10.9
	c-2.7-2.5-5.2-4.8-7.3-7.4c-9.7-11.9-22.3-21.5-36.3-27.7c-40-18-77.1-44-113.3-79.8c-14.3-14-29-28.6-49.1-36.3
	c-11.4-4.4-20.7-12.8-28.5-25.5c-4.8-8.2-10.1-16.3-15.7-24c-0.6-0.7-1.2-1.5-1.7-2.2c-3.6-4.5-6.9-8.7-7-14.7c-0.1-1.8-0.8-3.6-2-5
	c-0.3-0.3-0.5-0.7-0.8-1c-1.4,0-2.7-0.2-3.7-0.9l0.2,0.7c0.5,1.2,1.1,2.4,1.9,3.3c0.8,0.9,1.2,2.1,1.3,3.2c0.1,7,3.9,11.8,7.6,16.5
	c0.6,0.7,1.1,1.4,1.7,2.1c5.5,7.6,10.7,15.6,15.5,23.7c8.1,13.3,17.9,22.1,30,26.8c19.5,7.6,34.1,21.8,48.1,35.7
	c36.5,36,73.9,62.3,114.2,80.4c13.6,6,25.8,15.3,35.2,26.8c2.3,2.8,5,5.3,7.6,7.7c3.4,3.1,6.9,6.4,9.6,10.3
	c8.8,12.9,13.6,28.1,13.8,43.8l0,1l3,1.1v-12.5C841.6,695.1,841.1,693.8,840.8,692.5z"/>
<path class="st0" d="M556.9,410.2c0.3-1.2,0.7-2.4,1.1-3.6c0-0.2,0-0.5,0-0.7c0.1,0.1,0.1,0.1,0.2,0.2c0.1-0.3,0.2-0.6,0.3-0.9
	c0.8-2,2-4.5,4-5.6c-0.1-0.6-0.3-1.1-0.6-1.6c0.2-2.7,1.6-1.8,3-1l0.2,1.8c3.4-7.7,2-15.5,0.1-23.3c-0.7-2.7-1.7-5.3-2.7-8.1
	c2.3,0.1,1.8,2.8,3.5,3.1c0.7-2-1.2-3.8-0.2-6c2.5,1.1,2.6,3.7,3.5,5.6c-0.9,0.5-1.4,1.5-1.3,2.5c0,0.1,0,0.2,0,0.3
	c0.2-0.7,0.3-1.4,0.7-2.1c0.2-0.4,0.6-0.3,0.8,0c0.3-0.4,1.1-0.1,0.9,0.4c-0.1,0.2-0.1,0.4-0.2,0.6c1.4-3.1-0.6-6.1-0.8-9.2
	c-0.2-2.4-0.9-4.7-1.6-8.1c2.4,2.8,2.4,5.2,3.1,7.3c0.9-0.8,1.1-2.1,0.5-3.2c-4.1-5.7,2.7-6.6,4.5-9.5c0,0,0,0,0.1-0.1
	c0-0.1,0-0.2,0-0.3c0-2.1,0.2-4.3,0.2-6.4c-4.2,3.7-8.4,7.5-12.8,11.1c-1.6,1.4-2.6,3.4-2.7,5.6c-1.9,16.7-4,33.4-6,50.1
	c0,0,0,0,0,0c0,0,0,0,0,0C554.7,410.2,556,409.9,556.9,410.2z"/>
<path class="st0" d="M368.2,513.3c0.2,0.4,0.4,0.9,0.7,1.3C368.7,514.1,368.5,513.7,368.2,513.3z"/>
<path class="st0" d="M257.8,207.7C257.7,207.7,257.7,207.7,257.8,207.7c5.9-1.2,11.9-1.2,17.9-0.2c0.4-0.1,1,0.1,1.5,0.3
	c0.1,0,0.1,0,0.2,0l0,0c0,0,0,0,0,0c3.8-0.5,7.2,1.3,10.8,2c4.8,3,10,5.7,11,12.1c0,0,0,0,0,0h0c2,2.9,1.7,6.1,1.1,9.1
	c-1.2,5.8-0.8,11.6-1.1,17.4c0.7-5.9,1.5-11.8,1.6-17.7c0.1-5.9,3.8-8.1,9.3-5.7c0.2,0.2,0.3,0.5,0.3,0.8c4.8-1.6,9.8-1.3,14.7-0.9
	c0,0,0,0,0.1,0l3.9,0c2,0.7,3.3,1.8,3.2,4.3c-0.1,1.6-0.3,3.3,1,4.7c0,0.3,0,0.6,0.1,0.9l0,0c0,0,0,0,0,0c1.8,0,2.1,1.3,2.5,2.6
	c2.5,6.5,4.9,12.9,7.3,19.4c0,0,0,0,0.1,0c7.1,15.8,17.1,29.1,33.6,36.2c-0.5,0.2-0.9,0.3-1.3,0.3c2,0.9,4.1,1.5,6.5,1
	c10.1-0.1,20.1,0.7,30.1-1.9c4.2-1.1,8.3-2,12.1-4.3c0.7-0.1,1.4-0.3,2.1-0.6c3-3,6.1-6,9.8-9.6c0.5-0.9,0.9-1.8,1.3-2.7
	c0.8-2,1.2-4.6,4.2-4.9c0.1,0,0.3,0.1,0.4,0.1c-2.5-3.7-1.5-9,2.5-13.5c0,0,0,0,0-0.1c-0.2,0-0.3,0-0.5-0.1c-2-2.3-1-5.1-1.2-7.6
	c-0.1-3.5-0.1-7-0.5-10.4c-0.3-2.1,0-3.9,2.6-3.8c0.5-3.2-2.7-4-4.2-5.8c-0.1-0.5-0.1-1,0.1-1.4c-0.5-0.3-0.7-0.6-0.7-1.2
	c-1.5-1.1-2.8-2.4-3.8-3.7c1.4,2.7,2.6,5.5,3.8,8.3c0.4,1.9,0.8,3.9,1.1,5.8c0,0,0,0,0,0l0,0l1.3,6.8c-0.4,1.7-0.7,3.3-1.1,5
	c-0.5-3.9-0.9-7.8-1.4-11.7l0,0c0,0,0,0,0,0c-0.8-2.5-1.6-5-2.5-7.5c-6.3-17.5-22.1-28.5-40.8-28.6h-6.5c0,0,0,0,0,0
	c-7.6,0-15.1,2.3-22.7,2c-1.3,0-2.7,0.2-3.7-1c8.3-1.7,16.8-2.4,25.3-2.2l0,0c16.8-2.4,30.8,2.8,42.3,15.1c1.1,1.4,2,2.9,2.9,4.3
	c-0.5-1.4-0.9-3-0.9-4.7c-0.5,0.1-1,0.1-1.5-0.1c-5.4-7.9-13.3-12-22.3-14.6c-2.6-0.7-5.3-0.1-7.9-0.6c-1.9-0.4-4-0.5-5.5-1.9
	c0-0.1-0.1-0.1-0.1-0.2c-0.4,0.6-1.1,1-1.8,1.1c-11.1,1.2-22.3,1.2-33.4,2.4c-1.1,0-2.1-0.1-3.1-0.4c-0.3-0.1-0.5-0.3-0.7-0.5
	c-1.7,3-4.9,1.5-7.5,2c-1.4-0.2-2.8-0.1-4.2,0.2c1,0.2,1.9,0.6,2.9,1.1l-8.1,3.5c-0.5-0.9,2.3-3.5-1.5-2.9c-1.5,0.3-3.3,0.9-4.7-0.6
	c1.5-0.3,3-0.7,4.5-1c-0.4-0.1-0.9-0.3-1.3-0.6c-0.1-0.2-0.2-0.3-0.3-0.5c-6.4,3.2-13.8,3.7-20.6,1.2c0.1,0.2,0.1,0.5,0,0.8
	c-0.4,0.5-0.8,0.8-1.2,1.1c2.3,0,4.5,0,6.8,0c-1.9,1.9-4.4,0.8-6.5,1.3c-2.2,0.5-4.6,0.1-5.3,3c-1.5,1.4-2.8,0.9-4.1,0.2
	c1.5,1.3,2.6,3,3.7,4.8c1.1,1.2,1.4,3,0.8,4.5c5.8,0,11.6-0.1,17.4,0c2.1,0,3.4-0.7,4-2.8c0.4-1.4,0.9-2.9,2.7-3.1
	c-1.1,5.9-4.4,8-10.4,7.2c-4.1-0.7-8.3-0.4-12.3,0.7l-2.8-0.1c0,0,0,0,0,0c0,0,0,0,0,0c-4.1,1.2-7.1,0.7-9.5-3.8c-2-3.7-6-6-10.3-7
	c-2.4-0.8-4.7-1.5-7-2.4c0,0,0-0.3,0.1-0.4c0.3-0.2,0.6-0.3,0.9-0.4h9.8c1-0.2,2-0.4,3-0.4c0.5-0.1,0.9-0.1,1.4-0.2
	c-0.5,0-0.9,0.1-1.4,0.1c-4.8,0.4-9.5,0.4-14.3,0c-0.2,0-0.3-0.1-0.5-0.1c-0.1,0.2-0.2,0.3-0.4,0.5c-4.8,1.5-9.6,0.5-14.4,0.6
	c-0.4-0.2-0.8-0.3-1.3-0.4c-1.4,0.9-3.2,0.7-4.7,0.9c-1.9,0.2-3.8,0.6-5.6,0.9C255.6,207.7,256.6,207.7,257.8,207.7L257.8,207.7z
	 M386.3,245.8c-0.2,1-1.1,1.7-2.2,1.5c-0.3-0.1-0.7-0.2-0.9-0.4c-1.5-0.9-3.3-1.4-4.3-3.1c1.7-1,3.5-0.2,5.2-0.2
	C385.5,243.6,386.9,244,386.3,245.8z M416.4,249c-2.1-0.1-2.3,4.6-5.3,2.1c-0.4-0.3-0.6,0.4-0.6,0.9c-0.3,4.5-3,5-6.6,3.9
	c0,0,0,0,0,0c0.3,1.1,3.2,2.8-0.7,2.8c-1.4,0-2.9,0.2-4.3,0.3c-0.2-1.3-1.4-2.5-0.1-3.8c1.9,0.8,3-2.9,5.1-1
	c0.6-0.2,1.9,0.9,1.7-0.6c-0.2-1.2-2-1.7-2-3.3c1.7-1.3,2.6,1,4.1,0.8c1.1-1.7-1.8-2.6-1-4.2c1.6-0.5,2.5,1.6,4,1.3
	c0.3-1.9-2.3-2.4-1.7-4.5c2.3,0.2,3.9,3.8,6.9,1.6c0.3-0.2,1.9,0.8,2.2,1.6C418.4,247.9,417,249,416.4,249z M426.3,246.1
	c-2.9,0.9-3.8-1.8-6.1-2.9c0.9-0.4,1.3-0.7,1.4-0.6c1.7,1.1,4.6-0.5,5.5,2.4C427.2,245.3,426.7,246.1,426.3,246.1z M431.2,248.7
	v-14.6C434.9,238.8,434.7,244,431.2,248.7z M386,207c13.2-4.7,25.1-1,36.6,5.6c-11.5-0.9-22.5-6.2-34.4-4.5
	c-2.9,1.1-5.5,3.3-9.6,3.2C380.7,208.3,383.4,207.7,386,207z M369.1,225.5c2.6-0.6,2-3.1,2.9-4.6c1.7,0.2,2.8-0.8,3.8-1.9
	c5.2-5.6,11.3-4.6,18.1-3.8c11,1.3,21.3,5,32.1,6.8c2,0.3,4.2,0.6,6.4,2.8c-3.8,0.6-7.5-1.8-10.3,1.2c0,0,0,0-0.1,0.1
	c-0.4,2.2-1.8,2.8-3.8,3.1c-4.4,0.6-8.8,2.1-13.1,0c0,0,0,0,0,0c-4.8-0.1-9.8,1.2-14.2-2.1c0,0,0,0,0,0l0,0c-1.8,0.2-0.7,2.3-2,2.9
	c0.8,2.5,2.9,0.3,4.2,1.1c-2.8,3.2-7.6,4.5-20.6,5.5c0.2-1.3,1.3-1.3,2.1-1.8c0.4-0.4,0.9-0.7,1.3-1c-0.4-0.1-0.8-0.3-1.2-0.6
	l-3.9,0c-2.7,0.7-4-1-4.6-3.1C365.8,227.9,366.8,226.1,369.1,225.5z M364.7,251.7c0.7-0.9,3.2-1.6,4.2-1c2.3,1.4,5.1,0.5,7.1,2.3
	c2.8,0.1,3.8,2.2,4.1,4.4c0.3,1.6-0.7,3.1-2.3,3.5c-0.3,0.1-0.5,0.1-0.8,0c-0.9-0.9-1.4-2-3.1-1.9c-2.9,0-5.3-1.7-7.2-3.8
	C365.8,254.2,363.6,253.3,364.7,251.7z M332.9,220c2.3-8.5,8.5-13,16.2-15.9c4.6-0.6,9.1-2.4,13.9-1.3c-2.7,2-6,1.5-9,2.1
	c-10.5,2-18,7.1-20,18.3c-1.4,0.2-1.7-0.7-1.8-1.8C332.3,220.9,332.6,220.4,332.9,220z"/>
<path class="st0" d="M245.1,209.2L245.1,209.2c1.4-0.4,2.9-0.7,4.5-0.9c-1.2,0-2.3-0.1-3.5-0.3c-0.3-0.2-0.6-0.4-0.8-0.7
	c-3,2.3-6.4,3.1-10,2.1c0,0,0,0.1,0,0.1c-0.2,0.8-0.6,1.6-1.2,2.1l10.9-2.5C245,209.1,245.1,209.2,245.1,209.2z"/>
<path class="st0" d="M361.9,286c0.1,0.1,0.3,0.2,0.4,0.3c-1.8-1.6-3.6-3.2-5.4-4.8C358.4,283.1,360,284.7,361.9,286z"/>
<path class="st0" d="M307.7,203.6c-0.5,0.3-1.1,0.6-1.6,0.8c1-0.1,1.9-0.1,2.9-0.2C308.4,204,308,203.8,307.7,203.6z"/>
<path class="st0" d="M340.9,258.5c0.1-0.5,0.3-1.1,0.7-1.6c-0.8-0.4-1.5-0.8-2.1-1.3C340,256.5,340.5,257.5,340.9,258.5z"/>
<path class="st0" d="M287.6,283.5c-0.5-0.5-0.8-1.3-0.6-2c1.3-4.6,2.1-9.5,6.1-12.9c0.4,0,0.9-0.1,1.3-0.2l3.4-20.5l0,0
	c-0.1-4.1-0.2-8.2-0.2-12.4c0-3.7-1.7-2.6-3.5-1.3c-0.8,2.5-3.2,2-5,2.7c-0.9,0-1.7,0.2-2.6,0.6c-0.6,0.2-1.2,0.5-1.8,0.7
	c0,0.1,0,0.2,0,0.3c4-1.7,5.2,2.1,7.2,4.4c-0.3,1.9-0.2,4.6-3.2,1.7c-1.5-1.5-3.2-2.8-4.8-4.2c0,0,0,0,0,0c0,0,0,0,0,0
	c-1.8,0-1.9,1.8-3,2.6c-1.1,1.1-2.4,0.9-3.7,0.4c-0.2-0.2-0.5-0.3-0.8-0.4c-2.1,1-4.5-0.4-6.5,0.8l-9,1.1c3.7-2.5,7.8-3.4,12.1-3.8
	l5.9-1.9c-1.5-1.6-1.8-1.5-5.1-0.1c-1.8-1.6-3.4-1.5-5,0.3c-0.7,0.1-1.4,0.1-2.1,0c-0.1,0-0.2-0.1-0.3-0.2c-0.9,2.4-3.1-0.2-4.7-0.3
	l-0.5-0.2c-0.2,0.2-0.3,0.5-0.5,0.7c-2.4,2.6-5.7,1.2-8.5,2.1c-0.8-0.2-1.5-0.6-1.9-1.3c-0.3-0.8-0.2-1.7,0.5-2.2
	c6.1-6.5,13-11.8,22-13.4c3.2-0.6,4.1-4.8,7.7-4.4c0.2,0.1,0.5,0.1,0.7,0.2c-0.2-0.1-0.5-0.1-0.7-0.2c2.3-1.5,4.1-3.6,5.2-6.1
	c0.6-1.4,1.5-0.5,2-0.3c4,1.8,6.9,4.4,6.8,9.3c0,0,0,0,0,0c0,0,0,0,0,0c1.6,1.3,1.6-0.5,2.2-1.1h0.1c0,0,0,0,0,0
	c-1.5-7.1-7.3-9.5-13.1-11.5c-2.8-1-5.8-1.1-8.8-1.7c0,0,0,0,0,0l0,0h-12.3c-0.6-0.4-1.2-0.4-1.9-0.3l1.9,0.4l-3.8,0.4
	c-2.3,0.4-4.7,0.3-7.1,0.7l-5.8,0.3c-8.7,1.8-17,5.3-24.3,10.4c0.2-0.9,0.6-1.6,1-2.1c-3.2,2.2-5.8,5-7.4,8.8
	c-1.5,3.6-1.7,7.5-2.1,11.2c-0.4,3.2-0.8,6-3.8,6.7c0.3,0.6,0.5,1.5,0.5,2.7c0,0.1-0.1,0.1-0.1,0.2c4,1.9,5,5.7,2.7,10.8
	c-0.2,0.2-0.4,0.2-0.6,0.3c3.8,2.2,4.6,5.4,2.3,9.3c2.8,0.3,3,2.8,3.6,4.7c2.1,6.5,5.3,12.6,9.5,18c2.5,3.4,5.6,6.2,9.2,8.2
	c1.8,1,4.3,1.7,3.2,4.7l0,0.2c0,0,0,0,0,0c0.2-0.5,0.5-0.9,0.9-1.2c7,0.4,14.2-0.6,21,2.3c0,0.1,0.1,0.1,0.1,0.2
	c0-0.6,0.1-1.1,0.6-1.3c4.5-2,8.9-4.1,13.7-5.1c0.3-0.1,0.6,0.2,0.9,0.5c-0.2-0.3-0.3-0.6-0.1-0.8
	C280,293.2,282.5,287.4,287.6,283.5z M224.3,244.1c2.8-1.7,4.8-3,6.9-4.2c0.7-0.4,1.5-1,2.1,0c0.5,0.7,0.3,1.7-0.3,2.2
	c0,0,0,0-0.1,0C230.5,243.7,228.3,245.6,224.3,244.1z M229.9,252.1c-1.7-3.9-0.4-6,4.1-6.7C233.5,248.5,232.3,250.6,229.9,252.1z
	 M251.5,249.5c-3.8,3.2-5.8,1-7.7-1.1L251.5,249.5z M239.7,256.7c1.5-2.7,3.7-2.4,6.5-1.7C244.1,257.4,242.4,259.1,239.7,256.7z
	 M253.4,272.3c-2.1,1.5-4.2,0.7-6.3,0.4v-1.3c0.6-0.2,1.5-0.7,1.7-0.5c1.8,1.6,3.4-2.2,5.1-0.2C254.5,271.5,253.9,272,253.4,272.3z"
	/>
<path class="st0" d="M364.9,289.6c0.6-0.2,1.2-0.3,1.7-0.2c-0.9-0.6-1.8-1.2-2.6-1.9C364.4,288.1,364.8,288.8,364.9,289.6z"/>
</svg>
