<?xml version="1.0" encoding="utf-8"?>
<!-- Generator: Adobe Illustrator 24.0.1, SVG Export Plug-In . SVG Version: 6.00 Build 0)  -->
<svg version="1.1" xmlns="http://www.w3.org/2000/svg" xmlns:xlink="http://www.w3.org/1999/xlink" x="0px" y="0px"
	 viewBox="0 0 1080 1255" style="enable-background:new 0 0 1080 1255;" xml:space="preserve">
<style type="text/css">
	.st0{display:none;}
	.st1{display:inline;fill:#191919;}
	.st2{fill:#F54B4B;}
	.st3{opacity:0.1;fill:#F54B4B;}
	.st4{opacity:0.2;fill:#F54B4B;}
	.st5{opacity:0.3;fill:#F54B4B;}
	.st6{opacity:0.7;fill:#F54B4B;}
	.st7{opacity:0.3;}
	.st8{fill:#FF0000;}
	.st9{fill:none;stroke:#F54B4B;stroke-width:0.7907;stroke-miterlimit:10;}
	.st10{clip-path:url(#SVGID_2_);}
	.st11{fill:none;stroke:#F54B4B;stroke-width:0.2728;stroke-miterlimit:10;}
	.st12{display:inline;}
	.st13{fill:#FFFFFF;}
	.st14{display:inline;fill:#FFFFFF;}
	.st15{fill:#50C87D;}
	.st16{opacity:0.75;fill:#50C87D;}
	.st17{opacity:0.75;}
	.st18{fill:#50C87D;stroke:#50C87D;stroke-width:5;stroke-linejoin:bevel;stroke-miterlimit:10;}
	.st19{opacity:0.7;fill:#50C87D;}
	.st20{opacity:0.25;fill:#50C87D;}
	.st21{fill:none;stroke:#50C87D;stroke-width:3;stroke-miterlimit:10;}
	.st22{fill:none;stroke:#50C87D;stroke-width:2.5;stroke-miterlimit:10;}
	.st23{opacity:0.4;fill:#50C87D;}
	.st24{opacity:0.6;fill:#50C87D;}
	.st25{fill:#50C87D;stroke:#FFFFFF;stroke-width:5;stroke-miterlimit:10;}
	.st26{opacity:0.4;fill:#50C87D;stroke:#FFFFFF;stroke-width:5;stroke-miterlimit:10;}
	.st27{opacity:0.6;fill:#50C87D;stroke:#FFFFFF;stroke-width:5;stroke-miterlimit:10;}
	.st28{opacity:0.8;fill:#50C87D;stroke:#FFFFFF;stroke-width:5;stroke-miterlimit:10;}
	.st29{opacity:0.8;fill:#50C87D;}
	.st30{opacity:0.5;fill:#50C87D;}
	.st31{opacity:0.5;}
	.st32{fill:none;stroke:#50C87D;stroke-width:5;stroke-miterlimit:10;}
	.st33{fill:none;stroke:#50C87D;stroke-width:5;stroke-miterlimit:10;stroke-dasharray:4.6642,9.3285;}
	.st34{fill-rule:evenodd;clip-rule:evenodd;fill:#50C87D;}
	.st35{opacity:0.3;fill:#509BC8;}
	.st36{opacity:0.7;fill:#509BC8;}
	.st37{fill:#509BC8;}
	.st38{fill:none;stroke:#509BC8;stroke-width:0.7907;stroke-miterlimit:10;}
	.st39{fill:none;stroke:#FFFFFF;stroke-width:5;stroke-miterlimit:10;}
	.st40{opacity:0.5;fill:#509BC8;}
	.st41{opacity:0.3;fill:none;stroke:#509BC8;stroke-width:2;stroke-miterlimit:10;}
	.st42{opacity:0.7;}
	.st43{fill:none;stroke:#509BC8;stroke-width:8;stroke-miterlimit:10;}
	.st44{opacity:0.75;fill:#509BC8;}
	.st45{fill:none;stroke:#191919;stroke-width:5;stroke-miterlimit:10;}
	.st46{fill:#191919;}
	.st47{opacity:0.9;}
	.st48{fill:none;stroke:#F54B4B;stroke-width:3;stroke-miterlimit:10;}
	.st49{fill:none;stroke:#F54B4B;stroke-width:3;stroke-miterlimit:10;stroke-dasharray:16.9231,8.4615;}
	.st50{fill:none;stroke:#F54B4B;stroke-width:3;stroke-miterlimit:10;stroke-dasharray:4.2308,8.4615,16.9231,8.4615;}
	.st51{fill:none;stroke:#509BC8;stroke-width:4;stroke-miterlimit:10;}
	.st52{fill:none;}
	.st53{font-family:'AvantGardeITCbyBT-Book';}
	.st54{font-size:12px;}
	.st55{fill:#194B4B;}
</style>
<g id="Guias" class="st0">
</g>
<g id="fondo" class="st0">
	<rect x="0" y="1165" class="st1" width="1080" height="90"/>
</g>
<g id="Gráfico">
	<g>
		<g>
			<path class="st2" d="M691.9,536.2H176.3c-2.4,0-4.4,2-4.4,4.4v350.1c0,2.4,2,4.4,4.4,4.4h515.6c2.4,0,4.4-2,4.4-4.4V540.5
				C696.3,538.1,694.3,536.2,691.9,536.2z M674.5,890.6c-1.6,0-2.9-1.3-2.9-2.9c0-1.6,1.3-2.9,2.9-2.9c1.6,0,2.9,1.3,2.9,2.9
				C677.4,889.3,676.1,890.6,674.5,890.6z M689,880.4H179.2v-337H689V880.4z"/>
			<path class="st2" d="M459.3,895v23c0,3.4-2.7,6.1-6.1,6.1h-36.8c-3.4,0-6.1-2.7-6.1-6.1v-23h-24.2v71.2H482V895H459.3z"/>
			<path class="st2" d="M434.1,973H332.8c-2.6,0-3.3-3.5-0.9-4.6c14-6,54.8-10.3,102.3-10.3s88.2,4.4,102.3,10.3
				c2.4,1,1.7,4.6-0.9,4.6H434.1z"/>
		</g>
		<g>
			<g>
				<rect x="683.1" y="542.8" class="st3" width="6.3" height="337.6"/>
				<rect x="683.1" y="774.5" class="st4" width="6.3" height="32.4"/>
			</g>
			<rect x="505.2" y="622.7" class="st5" width="150.2" height="4.4"/>
			<g>
				<circle class="st6" cx="473.5" cy="634.5" r="11.9"/>
				<rect x="505.2" y="632.3" class="st5" width="150.2" height="4.4"/>
				<rect x="505.2" y="642" class="st5" width="133.2" height="4.4"/>
				<circle class="st6" cx="473.5" cy="744.5" r="11.9"/>
				<rect x="505.2" y="732.6" class="st5" width="150.2" height="4.4"/>
				<rect x="505.2" y="742.2" class="st5" width="150.2" height="4.4"/>
				<rect x="505.2" y="751.9" class="st5" width="133.2" height="4.4"/>
				<circle class="st6" cx="473.5" cy="689.1" r="11.9"/>
				<rect x="505.2" y="677.2" class="st5" width="150.2" height="4.4"/>
				<rect x="505.2" y="686.9" class="st5" width="150.2" height="4.4"/>
				<rect x="505.2" y="696.5" class="st5" width="133.2" height="4.4"/>
			</g>
			<g>
				<g class="st7">
					<path class="st8" d="M430,616.4v238H201.5v-238H430 M434,612.4H197.6v245.9H434V612.4L434,612.4z"/>
				</g>
				<rect x="210.2" y="625.9" class="st6" width="209.5" height="17.4"/>
				<rect x="351.9" y="828.3" class="st6" width="68.5" height="11.9"/>
				<rect x="210.2" y="657.5" class="st5" width="98.8" height="4.7"/>
				<rect x="319.3" y="657.5" class="st5" width="101.2" height="4.7"/>
				<rect x="210.2" y="667.8" class="st5" width="98.8" height="4.7"/>
				<rect x="319.3" y="667.8" class="st5" width="101.2" height="4.7"/>
				<rect x="210.2" y="678" class="st5" width="98.8" height="4.7"/>
				<rect x="319.3" y="678" class="st5" width="101.2" height="4.7"/>
				<rect x="210.2" y="688.3" class="st5" width="98.8" height="4.7"/>
				<rect x="319.3" y="688.3" class="st5" width="101.2" height="4.7"/>
				<rect x="210.2" y="698.6" class="st5" width="98.8" height="4.7"/>
				<rect x="319.3" y="698.6" class="st5" width="101.2" height="4.7"/>
				<rect x="210.2" y="708.9" class="st5" width="98.8" height="4.7"/>
				<rect x="319.3" y="708.9" class="st5" width="101.2" height="4.7"/>
				<rect x="210.2" y="719.2" class="st5" width="98.8" height="4.7"/>
				<rect x="319.3" y="719.2" class="st5" width="101.2" height="4.7"/>
				<rect x="210.2" y="729.4" class="st5" width="98.8" height="4.7"/>
				<rect x="319.3" y="729.4" class="st5" width="101.2" height="4.7"/>
				<rect x="210.2" y="739.7" class="st5" width="98.8" height="4.7"/>
				<rect x="319.3" y="739.7" class="st5" width="101.2" height="4.7"/>
				<rect x="210.2" y="750" class="st5" width="98.8" height="4.7"/>
				<rect x="319.3" y="750" class="st5" width="101.2" height="4.7"/>
				<rect x="210.2" y="760.3" class="st5" width="98.8" height="4.7"/>
				<rect x="319.3" y="760.3" class="st5" width="101.2" height="4.7"/>
				<rect x="210.2" y="770.6" class="st5" width="98.8" height="4.7"/>
				<rect x="319.3" y="770.6" class="st5" width="101.2" height="4.7"/>
				<rect x="210.2" y="780.8" class="st5" width="98.8" height="4.7"/>
				<rect x="319.3" y="780.8" class="st5" width="101.2" height="4.7"/>
				<rect x="210.2" y="791.1" class="st5" width="98.8" height="4.7"/>
				<rect x="319.3" y="791.1" class="st5" width="101.2" height="4.7"/>
				<rect x="210.2" y="801.4" class="st5" width="98.8" height="4.7"/>
				<rect x="319.3" y="801.4" class="st5" width="101.2" height="4.7"/>
				<rect x="210.2" y="811.7" class="st5" width="98.8" height="4.7"/>
				<rect x="319.3" y="811.7" class="st5" width="66.4" height="4.7"/>
			</g>
			<g>
				<rect x="178.6" y="542.8" class="st5" width="504.5" height="51.4"/>
				<circle class="st2" cx="203.1" cy="567.3" r="11.9"/>
				<rect x="227.6" y="555.5" class="st2" width="405.6" height="23.7"/>
				<rect x="649.1" y="555.5" class="st2" width="23.7" height="4.7"/>
				<rect x="649.1" y="574.5" class="st2" width="23.7" height="4.7"/>
				<rect x="649.1" y="565" class="st2" width="23.7" height="4.7"/>
			</g>
			<g>
				<g class="st7">
					<path class="st2" d="M661.7,781.6v72.7H465.6v-72.7H661.7 M665.7,777.7h-204v80.7h204V777.7L665.7,777.7z"/>
				</g>
				
					<rect x="485.8" y="801" transform="matrix(0.7071 -0.7071 0.7071 0.7071 -431.2649 595.5266)" class="st9" width="34.8" height="34.8"/>
				
					<rect x="510.3" y="801" transform="matrix(0.7071 -0.7071 0.7071 0.7071 -424.0855 612.8593)" class="st9" width="34.8" height="34.8"/>
				
					<rect x="534.1" y="801" transform="matrix(0.7071 -0.7071 0.7071 0.7071 -417.1377 629.6329)" class="st9" width="34.8" height="34.8"/>
				
					<rect x="558.6" y="801" transform="matrix(0.7071 -0.7071 0.7071 0.7071 -409.9582 646.9656)" class="st9" width="34.8" height="34.8"/>
				
					<rect x="583.1" y="801" transform="matrix(0.7071 -0.7071 0.7071 0.7071 -402.7788 664.2983)" class="st9" width="34.8" height="34.8"/>
				
					<rect x="606.8" y="801" transform="matrix(0.7071 -0.7071 0.7071 0.7071 -395.831 681.0718)" class="st9" width="34.8" height="34.8"/>
			</g>
		</g>
	</g>
	<g>
		<g>
			<path class="st2" d="M744.8,270H420.2c-7.3,0-13.2,5.9-13.2,13.2v218.3h351V283.2C758,275.9,752.1,270,744.8,270z M582.5,273
				c1.6,0,3,1.3,3,3c0,1.6-1.3,3-3,3s-3-1.3-3-3C579.5,274.3,580.8,273,582.5,273z M745.3,491H419.7V281.9h325.6V491z"/>
			<path class="st2" d="M796.5,511.9h-428c-3.1,0-5.5-2.5-5.5-5.5v-4.9H802v4.9C802,509.5,799.5,511.9,796.5,511.9z"/>
		</g>
		<g>
			<g>
				<rect x="739.2" y="281.9" class="st3" width="6.3" height="209.5"/>
				<rect x="739.2" y="425.7" class="st4" width="6.3" height="20.1"/>
			</g>
			<rect x="626" y="331.9" class="st5" width="94.9" height="2.8"/>
			<g>
				<circle class="st6" cx="606.1" cy="339.4" r="7.5"/>
				<rect x="626" y="338" class="st5" width="94.9" height="2.8"/>
				<rect x="626" y="344.1" class="st5" width="84.1" height="2.8"/>
				<circle class="st6" cx="606.1" cy="408.8" r="7.5"/>
				<rect x="626" y="401.4" class="st5" width="94.9" height="2.8"/>
				<rect x="626" y="407.4" class="st5" width="94.9" height="2.8"/>
				<rect x="626" y="413.5" class="st5" width="84.1" height="2.8"/>
				<circle class="st6" cx="606.1" cy="373.9" r="7.5"/>
				<rect x="626" y="366.4" class="st5" width="94.9" height="2.8"/>
				<rect x="626" y="372.5" class="st5" width="94.9" height="2.8"/>
				<rect x="626" y="378.6" class="st5" width="84.1" height="2.8"/>
			</g>
			<g>
				<g class="st7">
					<path class="st8" d="M577.1,329.4v147.4H435.7V329.4H577.1 M581.1,325.4H431.8v155.3h149.3V325.4L581.1,325.4z"/>
				</g>
				<rect x="439.7" y="333.9" class="st6" width="132.4" height="11"/>
				<rect x="529.3" y="461.8" class="st6" width="43.2" height="7.5"/>
				<rect x="439.7" y="353.9" class="st5" width="62.4" height="3"/>
				<rect x="508.7" y="353.9" class="st5" width="63.9" height="3"/>
				<rect x="439.7" y="360.4" class="st5" width="62.4" height="3"/>
				<rect x="508.7" y="360.4" class="st5" width="63.9" height="3"/>
				<rect x="439.7" y="366.9" class="st5" width="62.4" height="3"/>
				<rect x="508.7" y="366.9" class="st5" width="63.9" height="3"/>
				<rect x="439.7" y="373.4" class="st5" width="62.4" height="3"/>
				<rect x="508.7" y="373.4" class="st5" width="63.9" height="3"/>
				<rect x="439.7" y="379.9" class="st5" width="62.4" height="3"/>
				<rect x="508.7" y="379.9" class="st5" width="63.9" height="3"/>
				<rect x="439.7" y="386.4" class="st5" width="62.4" height="3"/>
				<rect x="508.7" y="386.4" class="st5" width="63.9" height="3"/>
				<rect x="439.7" y="392.9" class="st5" width="62.4" height="3"/>
				<rect x="508.7" y="392.9" class="st5" width="63.9" height="3"/>
				<rect x="439.7" y="399.4" class="st5" width="62.4" height="3"/>
				<rect x="508.7" y="399.4" class="st5" width="63.9" height="3"/>
				<rect x="439.7" y="405.8" class="st5" width="62.4" height="3"/>
				<rect x="508.7" y="405.8" class="st5" width="63.9" height="3"/>
				<rect x="439.7" y="412.3" class="st5" width="62.4" height="3"/>
				<rect x="508.7" y="412.3" class="st5" width="63.9" height="3"/>
				<rect x="439.7" y="418.8" class="st5" width="62.4" height="3"/>
				<rect x="508.7" y="418.8" class="st5" width="63.9" height="3"/>
				<rect x="439.7" y="425.3" class="st5" width="62.4" height="3"/>
				<rect x="508.7" y="425.3" class="st5" width="63.9" height="3"/>
				<rect x="439.7" y="431.8" class="st5" width="62.4" height="3"/>
				<rect x="508.7" y="431.8" class="st5" width="63.9" height="3"/>
				<rect x="439.7" y="438.3" class="st5" width="62.4" height="3"/>
				<rect x="508.7" y="438.3" class="st5" width="63.9" height="3"/>
				<rect x="439.7" y="444.8" class="st5" width="62.4" height="3"/>
				<rect x="508.7" y="444.8" class="st5" width="63.9" height="3"/>
				<rect x="439.7" y="451.3" class="st5" width="62.4" height="3"/>
				<rect x="508.7" y="451.3" class="st5" width="51.1" height="3"/>
			</g>
			<g>
				<rect x="419.8" y="281.5" class="st5" width="318.7" height="32.5"/>
				<circle class="st2" cx="435.3" cy="297" r="7.5"/>
				<rect x="450.7" y="289.5" class="st2" width="256.2" height="15"/>
				<rect x="716.9" y="289.5" class="st2" width="15" height="3"/>
				<rect x="716.9" y="301.5" class="st2" width="15" height="3"/>
				<rect x="716.9" y="295.5" class="st2" width="15" height="3"/>
			</g>
			<g>
				<g class="st7">
					<path class="st2" d="M723.5,433.8v43h-121v-43H723.5 M727.4,429.8H598.6v50.9h128.9V429.8L727.4,429.8z"/>
				</g>
				
					<rect x="613.8" y="444.5" transform="matrix(0.7071 -0.7071 0.7071 0.7071 -139.0929 575.2359)" class="st9" width="22" height="22"/>
				
					<rect x="629.3" y="444.5" transform="matrix(0.7071 -0.7071 0.7071 0.7071 -134.5579 586.1843)" class="st9" width="22" height="22"/>
				
					<rect x="644.3" y="444.5" transform="matrix(0.7071 -0.7071 0.7071 0.7071 -130.1692 596.7795)" class="st9" width="22" height="22"/>
				
					<rect x="659.8" y="444.5" transform="matrix(0.7071 -0.7071 0.7071 0.7071 -125.6343 607.7279)" class="st9" width="22" height="22"/>
				
					<rect x="675.3" y="444.5" transform="matrix(0.7071 -0.7071 0.7071 0.7071 -121.0993 618.6763)" class="st9" width="22" height="22"/>
				
					<rect x="690.3" y="444.5" transform="matrix(0.7071 -0.7071 0.7071 0.7071 -116.7106 629.2715)" class="st9" width="22" height="22"/>
			</g>
		</g>
	</g>
	<g>
		<g>
			<path class="st2" d="M905.9,370.7h-0.8c-0.2,0-0.4-0.2-0.4-0.4v-10.7c0-0.2,0.2-0.4,0.4-0.4h0.8c0.2,0,0.4,0.2,0.4,0.4v10.7
				C906.3,370.5,906.1,370.7,905.9,370.7z"/>
			<path class="st2" d="M821.9,383.2h-0.7c-0.2,0-0.4-0.2-0.4-0.4v-22c0-0.2,0.2-0.4,0.4-0.4h0.7c0.2,0,0.4,0.2,0.4,0.4v22
				C822.3,383,822.2,383.2,821.9,383.2z"/>
			<path class="st2" d="M821.9,404.8h-0.7c-0.2,0-0.4-0.2-0.4-0.4v-10.4c0-0.2,0.2-0.4,0.4-0.4h0.7c0.2,0,0.4,0.2,0.4,0.4v10.4
				C822.3,404.6,822.2,404.8,821.9,404.8z"/>
			<path class="st2" d="M898,329.4h-68.9c-4.2,0-7.7,3.4-7.7,7.7v163.8c0,4.2,3.4,7.7,7.7,7.7H898c4.2,0,7.7-3.4,7.7-7.7V337.1
				C905.7,332.8,902.2,329.4,898,329.4z M904.7,496.3c0,3.8-3.1,6.9-6.9,6.9h-68.7c-3.8,0-6.9-3.1-6.9-6.9V340
				c0-3.8,3.1-6.9,6.9-6.9h68.7c3.8,0,6.9,3.1,6.9,6.9V496.3z"/>
			<path class="st2" d="M896.3,335.8h-8c-1.5,0-2.6,1.2-2.6,2.6l0,0c0,1.5,1.2,2.6,2.6,2.6h8c1.5,0,2.6-1.2,2.6-2.6l0,0
				C899,337,897.8,335.8,896.3,335.8z M888.7,340.4c-1.1,0-1.9-0.9-1.9-1.9s0.9-1.9,1.9-1.9s1.9,0.9,1.9,1.9
				S889.8,340.4,888.7,340.4z M896.1,340c-0.8,0-1.4-0.6-1.4-1.4c0-0.8,0.6-1.4,1.4-1.4s1.4,0.6,1.4,1.4
				C897.5,339.3,896.9,340,896.1,340z"/>
		</g>
		<g>
			<rect x="845.2" y="443.3" class="st5" width="52.1" height="1.5"/>
			<g>
				<circle class="st6" cx="834.3" cy="447.5" r="4.1"/>
				<rect x="845.2" y="446.7" class="st5" width="52.1" height="1.5"/>
				<rect x="845.2" y="450" class="st5" width="46.2" height="1.5"/>
				<circle class="st6" cx="834.3" cy="476.1" r="4.1"/>
				<rect x="845.2" y="472" class="st5" width="52.1" height="1.5"/>
				<rect x="845.2" y="475.3" class="st5" width="52.1" height="1.5"/>
				<rect x="845.2" y="478.7" class="st5" width="46.2" height="1.5"/>
				<circle class="st6" cx="834.3" cy="461.6" r="4.1"/>
				<rect x="845.2" y="457.5" class="st5" width="52.1" height="1.5"/>
				<rect x="845.2" y="460.9" class="st5" width="52.1" height="1.5"/>
				<rect x="845.2" y="464.2" class="st5" width="46.2" height="1.5"/>
			</g>
			<g class="st7">
				<path class="st2" d="M897.8,364.7v70.8h-68v-70.8H897.8 M898.9,363.5h-70.4v73.2h70.4V363.5L898.9,363.5z"/>
			</g>
			<rect x="832.3" y="367.5" class="st6" width="62.4" height="5.2"/>
			<rect x="874.5" y="427.8" class="st6" width="20.4" height="3.5"/>
			<rect x="832.3" y="376.9" class="st5" width="62.7" height="1.4"/>
			<rect x="832.3" y="380" class="st5" width="62.7" height="1.4"/>
			<rect x="832.3" y="383" class="st5" width="62.7" height="1.4"/>
			<rect x="832.3" y="386.1" class="st5" width="62.7" height="1.4"/>
			<rect x="832.3" y="389.2" class="st5" width="62.7" height="1.4"/>
			<rect x="832.3" y="392.2" class="st5" width="62.7" height="1.4"/>
			<rect x="832.3" y="395.3" class="st5" width="62.7" height="1.4"/>
			<rect x="832.3" y="398.3" class="st5" width="62.7" height="1.4"/>
			<rect x="832.3" y="401.4" class="st5" width="62.7" height="1.4"/>
			<rect x="832.3" y="404.5" class="st5" width="62.7" height="1.4"/>
			<rect x="832.3" y="407.5" class="st5" width="62.7" height="1.4"/>
			<rect x="832.3" y="410.6" class="st5" width="62.7" height="1.4"/>
			<rect x="832.3" y="413.6" class="st5" width="62.7" height="1.4"/>
			<rect x="832.3" y="416.7" class="st5" width="62.7" height="1.4"/>
			<rect x="832.3" y="419.8" class="st5" width="62.7" height="1.4"/>
			<rect x="832.3" y="422.8" class="st5" width="51.6" height="1.4"/>
			<g>
				<rect x="821.4" y="343.6" class="st5" width="83.8" height="14.2"/>
				<ellipse class="st2" cx="830.1" cy="350.5" rx="4.2" ry="4.1"/>
				<rect x="892.9" y="346.7" class="st2" width="8" height="1.6"/>
				<rect x="892.9" y="353.1" class="st2" width="8" height="1.6"/>
				<rect x="892.9" y="349.9" class="st2" width="8" height="1.6"/>
			</g>
			<g>
				<defs>
					<rect id="SVGID_1_" x="825.4" y="485.9" width="75.1" height="19.8"/>
				</defs>
				<clipPath id="SVGID_2_">
					<use xlink:href="#SVGID_1_"  style="overflow:visible;"/>
				</clipPath>
				<g class="st10">
					<g class="st7">
						<path class="st2" d="M897.6,488.4v25.1h-67.6v-25.1H897.6 M898.9,487h-70.4v27.8h70.4V487L898.9,487z"/>
					</g>
					
						<rect x="836.9" y="495" transform="matrix(0.7071 -0.7071 0.7071 0.7071 -107.4088 742.7726)" class="st11" width="12" height="12"/>
					
						<rect x="845.4" y="495" transform="matrix(0.7071 -0.7071 0.7071 0.7071 -104.9322 748.7517)" class="st11" width="12" height="12"/>
					
						<rect x="853.5" y="495" transform="matrix(0.7071 -0.7071 0.7071 0.7071 -102.5354 754.5379)" class="st11" width="12" height="12"/>
					
						<rect x="862" y="495" transform="matrix(0.7071 -0.7071 0.7071 0.7071 -100.0588 760.517)" class="st11" width="12" height="12"/>
					
						<rect x="870.5" y="495" transform="matrix(0.7071 -0.7071 0.7071 0.7071 -97.5822 766.4962)" class="st11" width="12" height="12"/>
					
						<rect x="878.6" y="495" transform="matrix(0.7071 -0.7071 0.7071 0.7071 -95.1854 772.2823)" class="st11" width="12" height="12"/>
				</g>
			</g>
		</g>
	</g>
	<g>
		<g>
			<rect x="881" y="536.2" class="st2" width="12.2" height="1.2"/>
			<rect x="906.3" y="557.4" class="st2" width="1.3" height="10.4"/>
			<rect x="906.3" y="569.9" class="st2" width="1.3" height="10.4"/>
			<path class="st2" d="M893.7,536.8H732.4c-7.4,0-13.3,6-13.3,13.3v233.2c0,7.4,6,13.3,13.3,13.3h161.4c7.4,0,13.3-6,13.3-13.3
				V550.2C907.1,542.8,901.1,536.8,893.7,536.8z M826.7,539.1c1.2,0,2.2,1,2.2,2.2s-1,2.2-2.2,2.2s-2.2-1-2.2-2.2
				S825.5,539.1,826.7,539.1z M813.1,539.7c0.9,0,1.6,0.7,1.6,1.6c0,0.9-0.7,1.6-1.6,1.6c-0.9,0-1.6-0.7-1.6-1.6
				C811.5,540.4,812.2,539.7,813.1,539.7z M805.8,539.1c1.2,0,2.2,1,2.2,2.2s-1,2.2-2.2,2.2s-2.2-1-2.2-2.2S804.6,539.1,805.8,539.1
				z M798.9,539.1c0.9,0,1.6,0.7,1.6,1.6c0,0.9-0.7,1.6-1.6,1.6s-1.6-0.7-1.6-1.6C797.3,539.9,798,539.1,798.9,539.1z M897.5,783.5
				c0,2.1-1.7,3.7-3.7,3.7H732.3c-2.1,0-3.7-1.7-3.7-3.7V549.7c0-2.1,1.7-3.7,3.7-3.7h161.4c2.1,0,3.7,1.7,3.7,3.7V783.5z"/>
		</g>
		<g>
			<rect x="772.5" y="736.1" class="st5" width="112.2" height="3.3"/>
			<g>
				<circle class="st6" cx="748.9" cy="744.9" r="8.9"/>
				<rect x="772.5" y="743.3" class="st5" width="112.2" height="3.3"/>
				<rect x="772.5" y="750.5" class="st5" width="99.5" height="3.3"/>
				<circle class="st6" cx="748.9" cy="773.8" r="8.9"/>
				<rect x="772.5" y="765" class="st5" width="112.2" height="3.3"/>
				<rect x="772.5" y="772.2" class="st5" width="112.2" height="3.3"/>
				<rect x="772.5" y="779.4" class="st5" width="99.5" height="3.3"/>
			</g>
			<g>
				<g class="st7">
					<path class="st2" d="M886.1,572.4V726H738.6V572.4H886.1 M888.7,569.8H736.1v158.7h152.6V569.8L888.7,569.8z"/>
				</g>
				<rect x="744.2" y="578.5" class="st6" width="135.3" height="11.2"/>
				<rect x="835.7" y="709.1" class="st6" width="44.2" height="7.7"/>
				<rect x="744.2" y="598.9" class="st5" width="63.8" height="3.1"/>
				<rect x="814.7" y="598.9" class="st5" width="65.3" height="3.1"/>
				<rect x="744.2" y="605.5" class="st5" width="63.8" height="3.1"/>
				<rect x="814.7" y="605.5" class="st5" width="65.3" height="3.1"/>
				<rect x="744.2" y="612.2" class="st5" width="63.8" height="3.1"/>
				<rect x="814.7" y="612.2" class="st5" width="65.3" height="3.1"/>
				<rect x="744.2" y="618.8" class="st5" width="63.8" height="3.1"/>
				<rect x="814.7" y="618.8" class="st5" width="65.3" height="3.1"/>
				<rect x="744.2" y="625.4" class="st5" width="63.8" height="3.1"/>
				<rect x="814.7" y="625.4" class="st5" width="65.3" height="3.1"/>
				<rect x="744.2" y="632.1" class="st5" width="63.8" height="3.1"/>
				<rect x="814.7" y="632.1" class="st5" width="65.3" height="3.1"/>
				<rect x="744.2" y="638.7" class="st5" width="63.8" height="3.1"/>
				<rect x="814.7" y="638.7" class="st5" width="65.3" height="3.1"/>
				<rect x="744.2" y="645.4" class="st5" width="63.8" height="3.1"/>
				<rect x="814.7" y="645.4" class="st5" width="65.3" height="3.1"/>
				<rect x="744.2" y="652" class="st5" width="63.8" height="3.1"/>
				<rect x="814.7" y="652" class="st5" width="65.3" height="3.1"/>
				<rect x="744.2" y="658.6" class="st5" width="63.8" height="3.1"/>
				<rect x="814.7" y="658.6" class="st5" width="65.3" height="3.1"/>
				<rect x="744.2" y="665.3" class="st5" width="63.8" height="3.1"/>
				<rect x="814.7" y="665.3" class="st5" width="65.3" height="3.1"/>
				<rect x="744.2" y="671.9" class="st5" width="63.8" height="3.1"/>
				<rect x="814.7" y="671.9" class="st5" width="65.3" height="3.1"/>
				<rect x="744.2" y="678.5" class="st5" width="63.8" height="3.1"/>
				<rect x="814.7" y="678.5" class="st5" width="65.3" height="3.1"/>
				<rect x="744.2" y="685.2" class="st5" width="63.8" height="3.1"/>
				<rect x="814.7" y="685.2" class="st5" width="65.3" height="3.1"/>
				<rect x="744.2" y="691.8" class="st5" width="63.8" height="3.1"/>
				<rect x="814.7" y="691.8" class="st5" width="65.3" height="3.1"/>
				<rect x="744.2" y="698.4" class="st5" width="63.8" height="3.1"/>
				<rect x="814.7" y="698.4" class="st5" width="42.9" height="3.1"/>
			</g>
			<g>
				<rect x="727.4" y="546" class="st5" width="170" height="14.2"/>
				<ellipse class="st2" cx="736.1" cy="552.9" rx="4.2" ry="4.1"/>
				<rect x="885" y="549.2" class="st2" width="8" height="1.6"/>
				<rect x="885" y="555.5" class="st2" width="8" height="1.6"/>
				<rect x="885" y="552.3" class="st2" width="8" height="1.6"/>
			</g>
			<rect x="773.9" y="549.9" class="st2" width="77.6" height="4.5"/>
		</g>
	</g>
	<g class="st0">
		<g class="st12">
			<polygon class="st13" points="890.8,1197.9 890.8,1222.1 893.2,1222.1 893.2,1219.9 893.2,1219.9 893.2,1211 893.2,1211 
				893.2,1208.8 893.2,1208.8 893.2,1200.1 907.2,1200.1 907.2,1197.9 			"/>
			<rect x="896.3" y="1219.9" class="st13" width="10.9" height="2.2"/>
			<rect x="896.3" y="1208.8" class="st13" width="10.9" height="2.2"/>
		</g>
		<path class="st14" d="M885.7,1211L885.7,1211c-0.7-0.8-1.6-1.4-2.7-1.9c1.7-1.1,2.6-2.7,2.6-4.8c0-2.2-0.9-3.9-2.6-5.2
			c-1.2-0.8-3.2-1.3-6.1-1.3h-6.5v24.2h2.4v-2.2h0v-9.3h0v-2.2h0v-8.3h4c2.1,0,3,0.1,3.4,0.2c0.8,0.2,1.5,0.7,2,1.5
			c0.6,0.8,0.8,1.6,0.8,2.4c0,1.3-0.5,2.3-1.5,3c-1.1,0.8-2.6,1.1-4.5,1.1H876v2.2h1.3c1.9,0,2.6,0,2.9,0.1c0.4,0.1,0.9,0.2,1.5,0.4
			c1,0.4,1.8,1,2.4,1.8c0.6,0.8,0.9,1.6,0.9,2.4c0,1.6-0.7,2.8-2.1,3.7l0,0c-0.9,0.6-2.5,0.9-4.6,0.9H876v2.2h2.1
			c1.4,0,2.4-0.1,3.2-0.2c1.8-0.3,3.3-1.1,4.4-2.3c1.1-1.2,1.7-2.6,1.7-4.3C887.4,1213.7,886.8,1212.2,885.7,1211z"/>
		<path class="st14" d="M929.8,1205.6c0-1.4-0.4-2.8-1.2-4c-0.8-1.3-1.9-2.2-3.1-2.8l0,0c-1.4-0.6-3.9-0.9-7.5-0.9H911v24.2h2.4v-22
			h4.5c1.8,0,3,0,3.5,0.1c1.3,0.1,2.3,0.4,3.1,0.8c0.9,0.5,1.6,1.1,2.1,2c0.5,0.9,0.8,1.8,0.8,2.7c0,2.1-0.9,3.6-2.8,4.7
			c-1,0.6-2.7,0.9-4.9,0.9h-3.2l9.2,10.8h3.2l-7.4-8.6c2.3-0.1,4.3-0.8,5.8-2.2C929,1209.8,929.8,1207.9,929.8,1205.6z"/>
		<path class="st14" d="M948.8,1213.4c0,1.6-0.1,2.4-0.2,2.7c-0.2,0.8-0.6,1.6-1.3,2.3c-1.3,1.3-2.9,1.9-5.2,1.9
			c-2.2,0-3.9-0.7-5.2-2.1c-0.6-0.7-1.1-1.5-1.2-2.3c-0.1-0.5-0.2-1.4-0.2-2.7v-15.2h-2.4v15.2c0,2.5,0.4,4.3,1.2,5.5
			c0.8,1.2,1.9,2.2,3.3,2.8c1.4,0.7,2.9,1,4.5,1c2.8,0,5.1-0.8,6.8-2.5c0.8-0.8,1.4-1.7,1.8-2.7c0.3-1,0.5-2.2,0.5-3.9v-15.5h-2.4
			V1213.4z"/>
		<path class="st14" d="M966.4,1197.5c-3.5,0-6.5,1.2-8.8,3.7c-2.4,2.4-3.6,5.4-3.6,8.9c0,3.4,1.2,6.4,3.6,8.8
			c2.4,2.4,5.4,3.6,8.9,3.6c3.5,0,6.5-1.2,8.9-3.6c2.4-2.4,3.6-5.4,3.6-8.8c0-3.5-1.2-6.5-3.6-8.9
			C972.9,1198.7,969.9,1197.5,966.4,1197.5z M966.5,1220.3c-2.9,0-5.3-1-7.3-3c-2-2-3-4.4-3-7.4c0-2.9,1-5.3,3-7.3c2-2,4.4-3,7.3-3
			c2.9,0,5.3,1,7.3,3c2,2,3,4.4,3,7.3c0,2.9-1,5.3-3,7.3C971.8,1219.3,969.4,1220.3,966.5,1220.3z"/>
		<g class="st12">
			<polygon class="st13" points="984.5,1220 984.5,1197.9 982.1,1197.9 982.1,1222.1 984.5,1222.1 984.5,1220 			"/>
			<polygon class="st13" points="1002.6,1197.9 1002.6,1218.4 987.6,1201.2 987.6,1204.9 1002.6,1222.1 1005,1222.1 1005,1197.9 			
				"/>
		</g>
	</g>
</g>
<g id="Trazo">
	<g>
		<g>
			<polyline class="st45" points="286.9,145 75,145 75,1075 1005,1075 1005,145 793.1,145 			"/>
			<g>
				<rect x="283.8" y="124.7" class="st46" width="6.3" height="40.6"/>
			</g>
			<g>
				<rect x="790" y="124.7" class="st46" width="6.3" height="40.6"/>
			</g>
		</g>
	</g>
	<g class="st47">
		<g>
			<line class="st48" x1="720.5" y1="820.5" x2="905.5" y2="820.5"/>
			<g>
				<rect x="719" y="810.8" class="st2" width="3" height="19.5"/>
			</g>
			<g>
				<rect x="904" y="810.8" class="st2" width="3" height="19.5"/>
			</g>
		</g>
	</g>
	<g class="st47">
		<g>
			<line class="st48" x1="822.5" y1="306.5" x2="905.5" y2="306.5"/>
			<g>
				<rect x="821" y="296.8" class="st2" width="3" height="19.5"/>
			</g>
			<g>
				<rect x="904" y="296.8" class="st2" width="3" height="19.5"/>
			</g>
		</g>
	</g>
	<g class="st47">
		<g>
			<line class="st48" x1="339.5" y1="271.5" x2="338.5" y2="509.5"/>
			<g>
				
					<rect x="338" y="261.8" transform="matrix(4.150392e-03 -1 1 4.150392e-03 66.5871 609.864)" class="st2" width="3" height="19.5"/>
			</g>
			<g>
				
					<rect x="337" y="499.8" transform="matrix(4.150397e-03 -1 1 4.150397e-03 -172.3943 845.8887)" class="st2" width="3" height="19.5"/>
			</g>
		</g>
	</g>
	<g class="st47">
		<g>
			<line class="st48" x1="147.5" y1="536.5" x2="146.5" y2="892.5"/>
			<g>
				
					<rect x="146" y="526.8" transform="matrix(2.787261e-03 -1 1 2.787261e-03 -389.4132 682.4999)" class="st2" width="3" height="19.5"/>
			</g>
			<g>
				
					<rect x="145" y="882.8" transform="matrix(2.787261e-03 -1 1 2.787261e-03 -746.4007 1036.516)" class="st2" width="3" height="19.5"/>
			</g>
		</g>
	</g>
	<g class="st47">
		<circle class="st48" cx="230" cy="393" r="28.5"/>
		<g>
			<g>
				<line class="st48" x1="229.9" y1="335.5" x2="229.9" y2="338"/>
				<line class="st49" x1="229.9" y1="346.5" x2="229.9" y2="367.6"/>
				<line class="st50" x1="229.9" y1="371.8" x2="229.9" y2="443.8"/>
				<line class="st48" x1="229.9" y1="448" x2="229.9" y2="450.5"/>
			</g>
		</g>
		<g>
			<g>
				<line class="st48" x1="172" y1="393" x2="174.5" y2="393"/>
				<line class="st49" x1="183" y1="393" x2="204.1" y2="393"/>
				<line class="st50" x1="208.3" y1="393" x2="280.3" y2="393"/>
				<line class="st48" x1="284.5" y1="393" x2="287" y2="393"/>
			</g>
		</g>
	</g>
	<g class="st47">
		<circle class="st48" cx="815" cy="903" r="28.5"/>
		<g>
			<g>
				<line class="st48" x1="814.9" y1="845.5" x2="814.9" y2="848"/>
				<line class="st49" x1="814.9" y1="856.5" x2="814.9" y2="877.6"/>
				<line class="st50" x1="814.9" y1="881.8" x2="814.9" y2="953.8"/>
				<line class="st48" x1="814.9" y1="958" x2="814.9" y2="960.5"/>
			</g>
		</g>
		<g>
			<g>
				<line class="st48" x1="757" y1="903" x2="759.5" y2="903"/>
				<line class="st49" x1="768" y1="903" x2="789.1" y2="903"/>
				<line class="st50" x1="793.3" y1="903" x2="865.3" y2="903"/>
				<line class="st48" x1="869.5" y1="903" x2="872" y2="903"/>
			</g>
		</g>
	</g>
</g>
<g id="Texto">
	<g>
		<path class="st2" d="M372.7,113h8.7v41.7c0,5.4-1.8,9.9-5.5,13.5c-4.1,4-9.1,6-14.8,6c-5.6,0-10.4-1.9-14.2-5.6
			c-3.8-3.7-5.8-8.4-5.8-13.9V113h8.7v40.5c0,3.9,1,7,3.1,9.3c2,2.3,4.8,3.4,8.4,3.4c4.7,0,8.1-1.9,10.2-5.9
			c0.8-1.4,1.2-3.7,1.2-6.8V113z"/>
		<path class="st2" d="M449.6,113v60h-9.1l-29.9-46.4V173h-8.7v-60h9.5l29.3,45.7V113H449.6z"/>
		<path class="st2" d="M479.3,113v60h-8.7v-60H479.3z"/>
		<path class="st2" d="M515.7,121.1V173h-8.8v-51.9h-11.5V113h31.8v8.1H515.7z"/>
		<path class="st2" d="M564.5,113l22.8,60H578l-6.7-17.7h-21.6l-6.7,17.7h-9.3l22.8-60H564.5z M552.9,147.3h15.4l-7.7-22.9
			L552.9,147.3z"/>
		<path class="st2" d="M631.8,165v8h-29.5v-60h8.7v52H631.8z"/>
		<path class="st2" d="M677.9,165v8h-29.5v-60h8.7v52H677.9z"/>
		<path class="st2" d="M721.4,113l22.8,60h-9.3l-6.7-17.7h-21.6L700,173h-9.3l22.8-60H721.4z M709.8,147.3h15.4l-7.7-22.9
			L709.8,147.3z"/>
	</g>
	<g>
		<path class="st46" d="M222,1152.8h-2.8v-25.6h-5.7v-2.8h14.2v2.8H222V1152.8z"/>
		<path class="st46" d="M229.8,1124.4h2.8v18c0,1.4,0.1,2.4,0.2,3.1c0.1,0.7,0.3,1.3,0.6,1.8c0.5,1.1,1.3,1.9,2.2,2.5
			c1,0.6,2.1,0.9,3.3,0.9c2.1,0,3.7-0.7,4.8-2.2c1-1.5,1.5-3.7,1.5-6.8v-17.4h2.8v18.1c0,3.7-0.7,6.4-2.2,8.2
			c-1.5,1.8-3.7,2.7-6.7,2.7c-3.2,0-5.5-0.9-7-2.7c-1.5-1.8-2.2-4.5-2.2-8.3V1124.4z"/>
		<path class="st46" d="M263.8,1124.4h6c1.7,0,3.1,0.1,4.2,0.3c1,0.2,1.9,0.5,2.6,0.9c1.3,0.8,2.2,1.7,2.9,2.9c0.7,1.2,1,2.6,1,4.1
			c0,1.4-0.3,2.8-0.9,4c-0.6,1.2-1.4,2.2-2.5,2.9c-0.8,0.5-1.7,0.9-2.7,1.1c-1,0.2-2.4,0.3-4,0.3h-3.7v12h-2.8V1124.4z
			 M266.6,1127.2v10.8h4.1c2.3,0,4-0.4,5.1-1.3c1.1-0.9,1.6-2.2,1.6-4c0-1.9-0.6-3.3-1.7-4.2c-1.1-0.9-2.9-1.3-5.3-1.3H266.6z"/>
		<path class="st46" d="M281,1152.8h-2.9l11-28.4h3.4l11,28.4h-3l-3.4-8.9h-12.7L281,1152.8z M296.1,1141.4l-5.4-14.3l-5.3,14.3
			H296.1z M290.1,1121.6h-1.8l4.1-6.8h3L290.1,1121.6z"/>
		<path class="st46" d="M314.2,1139.2h17.7c-0.2,4.1-1.7,7.5-4.5,10.2c-2.7,2.7-6.1,4-10.1,4c-4.1,0-7.5-1.4-10.3-4.3
			c-2.8-2.9-4.2-6.4-4.2-10.7c0-2,0.4-3.9,1.1-5.7c0.8-1.8,1.9-3.4,3.3-4.8c1.4-1.4,3-2.4,4.7-3.1c1.7-0.7,3.6-1,5.7-1
			c2.8,0,5.2,0.7,7.4,2c2.2,1.3,4,3.2,5.3,5.7h-3.4c-1.3-1.7-2.8-3-4.3-3.8c-1.5-0.8-3.2-1.2-5.1-1.2c-3.3,0-6,1.2-8.3,3.5
			c-2.3,2.3-3.4,5.1-3.4,8.4c0,3.5,1.1,6.4,3.4,8.7c2.3,2.3,5,3.5,8.3,3.5c2.6,0,4.9-0.8,7-2.5c2.1-1.7,3.4-3.8,4-6.5h-14.4V1139.2z
			"/>
		<path class="st46" d="M338.1,1152.8h-2.8v-28.4h2.8V1152.8z"/>
		<path class="st46" d="M362.3,1149.4l-0.3-25h2.8v28.4h-3.4l-15.6-25.1l0.3,25.1h-2.8v-28.4h3.4L362.3,1149.4z"/>
		<path class="st46" d="M369.4,1152.8h-2.9l11-28.4h3.4l11,28.4h-3l-3.4-8.9h-12.7L369.4,1152.8z M384.5,1141.4l-5.4-14.3l-5.3,14.3
			H384.5z"/>
		<path class="st2" d="M408.1,1137.2h12v2.8h-12v10.1h12v2.8h-14.8v-28.4h14.8v2.8h-12V1137.2z"/>
		<path class="st2" d="M443.4,1149.4l-0.3-25h2.8v28.4h-3.4l-15.6-25.1l0.3,25.1h-2.8v-28.4h3.4L443.4,1149.4z"/>
		<path class="st2" d="M485.2,1131.8c-1.3-1.8-2.7-3.1-4.3-3.9c-1.6-0.8-3.4-1.3-5.4-1.3c-3.2,0-5.9,1.2-8.1,3.5s-3.4,5.1-3.4,8.4
			c0,3.4,1.1,6.3,3.3,8.7c2.2,2.4,4.9,3.5,8.1,3.5c2,0,3.7-0.4,5.3-1.2c1.6-0.8,3-2,4.1-3.7h3.3c-1.3,2.4-3,4.3-5.2,5.6
			c-2.2,1.3-4.6,2-7.4,2c-4.2,0-7.7-1.4-10.5-4.3s-4.2-6.4-4.2-10.7c0-2,0.4-3.9,1.1-5.7c0.8-1.8,1.9-3.4,3.3-4.8
			c1.4-1.4,2.9-2.4,4.6-3.1c1.7-0.7,3.5-1,5.5-1c2.8,0,5.4,0.7,7.6,2.1c2.3,1.4,4,3.3,5.4,5.9H485.2z"/>
		<path class="st2" d="M491.5,1124.4h2.8v18c0,1.4,0.1,2.4,0.2,3.1c0.1,0.7,0.3,1.3,0.6,1.8c0.5,1.1,1.3,1.9,2.2,2.5
			c1,0.6,2.1,0.9,3.3,0.9c2.1,0,3.7-0.7,4.8-2.2c1-1.5,1.5-3.7,1.5-6.8v-17.4h2.8v18.1c0,3.7-0.7,6.4-2.2,8.2
			c-1.5,1.8-3.7,2.7-6.7,2.7c-3.2,0-5.5-0.9-7-2.7c-1.5-1.8-2.2-4.5-2.2-8.3V1124.4z"/>
		<path class="st2" d="M513.1,1152.8h-2.9l11-28.4h3.4l11,28.4h-3l-3.4-8.9h-12.7L513.1,1152.8z M528.2,1141.4l-5.4-14.3l-5.3,14.3
			H528.2z"/>
		<path class="st2" d="M550.4,1152.8h-12.8v-28.4h2.8v25.7h10V1152.8z"/>
		<path class="st2" d="M574.4,1149.4c0.6,0.4,1.2,0.7,2,0.8s1.6,0.3,2.6,0.3h0.4v2.5c-0.1,0-0.1,0-0.3,0c-0.6,0-0.9,0.1-1.2,0.1
			c-0.9,0-1.9-0.2-2.9-0.5c-1-0.3-2-0.8-2.9-1.5c-1.2,0.8-2.4,1.3-3.7,1.7c-1.3,0.4-2.7,0.6-4.1,0.6c-4.1,0-7.5-1.4-10.3-4.3
			c-2.8-2.9-4.2-6.4-4.2-10.7c0-2,0.4-3.9,1.1-5.7s1.9-3.4,3.3-4.8c1.4-1.4,2.9-2.4,4.6-3.1c1.7-0.7,3.5-1,5.4-1
			c4.2,0,7.6,1.4,10.4,4.3c2.8,2.8,4.1,6.4,4.1,10.8c0,2.1-0.4,4-1.1,5.8C577.1,1146.4,576,1148,574.4,1149.4z M572.2,1147.7
			c1.3-1.3,2.2-2.7,2.9-4.3s1-3.3,1-5c0-3.2-1.1-6-3.4-8.3c-2.3-2.3-5.1-3.5-8.3-3.5c-3.1,0-5.8,1.2-8.1,3.5
			c-2.3,2.4-3.4,5.1-3.4,8.2c0,0.6,0,1.2,0.1,1.8s0.2,1.2,0.4,1.8c1-0.5,2-0.8,3-1.1c1-0.2,2-0.3,3.1-0.3c2.2,0,4.3,0.5,6.2,1.5
			C567.5,1143.1,569.7,1145,572.2,1147.7z M570,1149.4c-2.4-2.5-4.3-4.1-5.8-4.9c-1.5-0.8-3.1-1.2-5-1.2c-0.7,0-1.5,0.1-2.3,0.3
			c-0.8,0.2-1.6,0.5-2.5,0.9c1.1,2,2.5,3.5,4.3,4.6c1.8,1.1,3.8,1.7,5.9,1.7c0.9,0,1.7-0.1,2.6-0.4
			C568.1,1150.2,569,1149.8,570,1149.4z"/>
		<path class="st2" d="M582.5,1124.4h2.8v18c0,1.4,0.1,2.4,0.2,3.1c0.1,0.7,0.3,1.3,0.6,1.8c0.5,1.1,1.3,1.9,2.2,2.5
			c1,0.6,2.1,0.9,3.3,0.9c2.1,0,3.7-0.7,4.8-2.2c1-1.5,1.5-3.7,1.5-6.8v-17.4h2.8v18.1c0,3.7-0.7,6.4-2.2,8.2
			c-1.5,1.8-3.7,2.7-6.7,2.7c-3.2,0-5.5-0.9-7-2.7c-1.5-1.8-2.2-4.5-2.2-8.3V1124.4z"/>
		<path class="st2" d="M608.5,1152.8h-2.8v-28.4h2.8V1152.8z"/>
		<path class="st2" d="M616.5,1137.2h12v2.8h-12v10.1h12v2.8h-14.8v-28.4h14.8v2.8h-12V1137.2z"/>
		<path class="st2" d="M635.5,1127.2v25.6h-2.8v-28.4h7.6c1.7,0,3,0.1,4.1,0.4c1,0.3,1.9,0.7,2.8,1.3c1.1,0.8,2,1.9,2.7,3.2
			c0.7,1.3,1,2.7,1,4.2c0,2.2-0.7,4.1-2,5.7c-1.3,1.6-2.9,2.5-4.9,2.6l6.9,11.1h-3.3l-8.4-13.7h2.7c1.8,0,3.3-0.5,4.4-1.6
			c1.1-1.1,1.7-2.4,1.7-4.1c0-1-0.2-1.9-0.5-2.7c-0.3-0.8-0.9-1.5-1.5-2.1c-0.6-0.5-1.2-0.9-2-1.1c-0.8-0.2-2.2-0.3-4.2-0.3H635.5z"
			/>
		<path class="st2" d="M666.7,1124.4h8.1c2.2,0,4.1,0.2,5.6,0.7c1.5,0.4,2.9,1.2,4,2.1c1.6,1.4,2.9,3,3.8,5c0.9,2,1.3,4.1,1.3,6.3
			c0,2.5-0.5,4.8-1.5,6.9c-1,2.1-2.4,3.7-4.2,5c-1.2,0.8-2.5,1.5-3.9,1.8c-1.4,0.4-3.5,0.5-6.4,0.5h-6.8V1124.4z M669.4,1127.1v23
			h5.8c3.6,0,6.4-1,8.4-3s2.9-4.9,2.9-8.6c0-1.9-0.3-3.6-1-5.2c-0.7-1.6-1.6-2.9-2.9-4c-0.9-0.8-2-1.4-3.1-1.7
			c-1.1-0.3-2.8-0.5-5-0.5H669.4z"/>
		<path class="st2" d="M696,1152.8h-2.8v-28.4h2.8V1152.8z"/>
		<path class="st2" d="M699.7,1144.7h2.7c0.1,1.8,0.5,3.2,1.5,4.2c0.9,1,2.2,1.6,3.7,1.6c1.7,0,3-0.5,3.9-1.6c1-1,1.5-2.4,1.5-4.2
			c0-2.6-2-4.5-6-5.8c-0.3-0.1-0.5-0.2-0.7-0.2c-2.1-0.7-3.6-1.6-4.5-2.7c-0.9-1.1-1.4-2.5-1.4-4.3c0-2.3,0.7-4.1,2.1-5.6
			c1.4-1.4,3.2-2.2,5.5-2.2c2.1,0,3.8,0.7,5.1,2c1.3,1.3,1.9,3.2,2.1,5.5h-2.6c-0.1-1.5-0.6-2.7-1.4-3.6s-1.8-1.3-3.1-1.3
			c-1.4,0-2.6,0.5-3.4,1.4c-0.9,0.9-1.3,2.1-1.3,3.5c0,0.7,0.1,1.4,0.4,1.9c0.3,0.5,0.7,1,1.3,1.5c0.6,0.4,1.7,0.9,3.4,1.5
			c1,0.3,1.7,0.6,2.2,0.8c1.8,0.7,3.2,1.6,4,2.7c0.8,1.1,1.2,2.6,1.2,4.4c0,2.8-0.8,5-2.3,6.7c-1.5,1.7-3.5,2.5-6,2.5
			c-2.3,0-4.2-0.8-5.6-2.4C700.5,1149.4,699.8,1147.3,699.7,1144.7z"/>
		<path class="st2" d="M719.7,1124.4h6c1.7,0,3.1,0.1,4.2,0.3c1,0.2,1.9,0.5,2.6,0.9c1.3,0.8,2.2,1.7,2.9,2.9c0.7,1.2,1,2.6,1,4.1
			c0,1.4-0.3,2.8-0.9,4c-0.6,1.2-1.4,2.2-2.5,2.9c-0.8,0.5-1.7,0.9-2.7,1.1c-1,0.2-2.4,0.3-4,0.3h-3.7v12h-2.8V1124.4z
			 M722.5,1127.2v10.8h4.1c2.3,0,4-0.4,5.1-1.3c1.1-0.9,1.6-2.2,1.6-4c0-1.9-0.6-3.3-1.7-4.2c-1.1-0.9-2.9-1.3-5.3-1.3H722.5z"/>
		<path class="st2" d="M738.2,1138.4c0-2,0.4-3.9,1.1-5.7s1.9-3.4,3.3-4.8c1.4-1.4,2.9-2.4,4.6-3.1c1.7-0.7,3.5-1,5.4-1
			c2,0,3.8,0.3,5.5,1c1.7,0.7,3.3,1.7,4.7,3.1c1.4,1.4,2.5,3,3.3,4.8c0.7,1.8,1.1,3.7,1.1,5.7c0,2-0.3,3.9-0.9,5.6
			c-0.6,1.7-1.6,3.2-2.8,4.6c-1.4,1.6-3.1,2.8-4.9,3.6c-1.8,0.8-3.8,1.2-5.9,1.2c-4.1,0-7.5-1.4-10.3-4.3S738.2,1142.7,738.2,1138.4
			z M741.1,1138.5c0,3.5,1.1,6.4,3.4,8.7c2.3,2.3,5,3.5,8.3,3.5c3.2,0,6-1.2,8.2-3.6c2.2-2.4,3.3-5.3,3.3-8.8c0-3.2-1.1-6-3.4-8.3
			c-2.3-2.3-5.1-3.5-8.3-3.5c-1.3,0-2.6,0.2-3.8,0.7c-1.2,0.4-2.3,1.1-3.4,2c-1.4,1.1-2.4,2.5-3.2,4.2
			C741.5,1135.1,741.1,1136.8,741.1,1138.5z"/>
		<path class="st2" d="M769.1,1144.7h2.7c0.1,1.8,0.5,3.2,1.5,4.2c0.9,1,2.2,1.6,3.7,1.6c1.7,0,3-0.5,3.9-1.6c1-1,1.5-2.4,1.5-4.2
			c0-2.6-2-4.5-6-5.8c-0.3-0.1-0.5-0.2-0.7-0.2c-2.1-0.7-3.6-1.6-4.5-2.7c-0.9-1.1-1.4-2.5-1.4-4.3c0-2.3,0.7-4.1,2.1-5.6
			c1.4-1.4,3.2-2.2,5.5-2.2c2.1,0,3.8,0.7,5.1,2c1.3,1.3,1.9,3.2,2.1,5.5H782c-0.1-1.5-0.6-2.7-1.4-3.6s-1.8-1.3-3.1-1.3
			c-1.4,0-2.6,0.5-3.4,1.4c-0.9,0.9-1.3,2.1-1.3,3.5c0,0.7,0.1,1.4,0.4,1.9c0.3,0.5,0.7,1,1.3,1.5c0.6,0.4,1.7,0.9,3.4,1.5
			c1,0.3,1.7,0.6,2.2,0.8c1.8,0.7,3.2,1.6,4,2.7c0.8,1.1,1.2,2.6,1.2,4.4c0,2.8-0.8,5-2.3,6.7c-1.5,1.7-3.5,2.5-6,2.5
			c-2.3,0-4.2-0.8-5.6-2.4C769.9,1149.4,769.1,1147.3,769.1,1144.7z"/>
		<path class="st2" d="M792,1152.8h-2.8v-28.4h2.8V1152.8z"/>
		<path class="st2" d="M802.8,1152.8H800v-25.6h-5.7v-2.8h14.2v2.8h-5.7V1152.8z"/>
		<path class="st2" d="M813.6,1152.8h-2.8v-28.4h2.8V1152.8z"/>
		<path class="st2" d="M815.5,1124.4h2.8l9,24.2l9-24.2h2.8l-10.7,28.4h-2.2L815.5,1124.4z"/>
		<path class="st2" d="M838.4,1138.4c0-2,0.4-3.9,1.1-5.7s1.9-3.4,3.3-4.8c1.4-1.4,2.9-2.4,4.6-3.1c1.7-0.7,3.5-1,5.4-1
			c2,0,3.8,0.3,5.5,1c1.7,0.7,3.3,1.7,4.7,3.1c1.4,1.4,2.5,3,3.3,4.8c0.7,1.8,1.1,3.7,1.1,5.7c0,2-0.3,3.9-0.9,5.6
			c-0.6,1.7-1.6,3.2-2.8,4.6c-1.4,1.6-3.1,2.8-4.9,3.6c-1.8,0.8-3.8,1.2-5.9,1.2c-4.1,0-7.5-1.4-10.3-4.3S838.4,1142.7,838.4,1138.4
			z M841.3,1138.5c0,3.5,1.1,6.4,3.4,8.7c2.3,2.3,5,3.5,8.3,3.5c3.2,0,6-1.2,8.2-3.6c2.2-2.4,3.3-5.3,3.3-8.8c0-3.2-1.1-6-3.4-8.3
			c-2.3-2.3-5.1-3.5-8.3-3.5c-1.3,0-2.6,0.2-3.8,0.7c-1.2,0.4-2.3,1.1-3.4,2c-1.4,1.1-2.4,2.5-3.2,4.2
			C841.7,1135.1,841.3,1136.8,841.3,1138.5z"/>
	</g>
	<rect x="75" y="1190.3" class="st52" width="440.9" height="39.5"/>
	<text transform="matrix(1 0 0 1 75 1198.7849)" class="st0"><tspan x="0" y="0" class="st14 st53 st54">contacto@beruon.com</tspan><tspan x="0" y="15" class="st14 st53 st54">www.beruon.com</tspan><tspan x="0" y="30" class="st14 st53 st54">55-6498-8988</tspan></text>
</g>
</svg>
