<?xml version="1.0" encoding="utf-8"?>
<!-- Generator: Adobe Illustrator 24.0.1, SVG Export Plug-In . SVG Version: 6.00 Build 0)  -->
<svg version="1.1" xmlns="http://www.w3.org/2000/svg" xmlns:xlink="http://www.w3.org/1999/xlink" x="0px" y="0px"
	 viewBox="0 0 1080 1255" style="enable-background:new 0 0 1080 1255;" xml:space="preserve">
<style type="text/css">
	.st0{display:none;}
	.st1{display:inline;fill:#191919;}
	.st2{fill:#F54B4B;}
	.st3{opacity:0.1;fill:#F54B4B;}
	.st4{opacity:0.2;fill:#F54B4B;}
	.st5{opacity:0.3;fill:#F54B4B;}
	.st6{opacity:0.7;fill:#F54B4B;}
	.st7{opacity:0.3;}
	.st8{fill:#FF0000;}
	.st9{fill:none;stroke:#F54B4B;stroke-width:0.7907;stroke-miterlimit:10;}
	.st10{clip-path:url(#SVGID_2_);}
	.st11{fill:none;stroke:#F54B4B;stroke-width:0.2728;stroke-miterlimit:10;}
	.st12{display:inline;}
	.st13{fill:#FFFFFF;}
	.st14{display:inline;fill:#FFFFFF;}
	.st15{fill:#50C87D;}
	.st16{font-family:'AvantGardeMdITCTT';}
	.st17{font-size:56.0699px;}
	.st18{letter-spacing:2;}
	.st19{opacity:0.75;fill:#50C87D;}
	.st20{opacity:0.75;}
	.st21{fill:#50C87D;stroke:#50C87D;stroke-width:5;stroke-linejoin:bevel;stroke-miterlimit:10;}
	.st22{opacity:0.7;fill:#50C87D;}
	.st23{opacity:0.25;fill:#50C87D;}
	.st24{fill:none;stroke:#50C87D;stroke-width:3;stroke-miterlimit:10;}
	.st25{font-size:39.4574px;}
	.st26{letter-spacing:1;}
	.st27{fill:none;stroke:#50C87D;stroke-width:2.5;stroke-miterlimit:10;}
	.st28{font-size:37.2447px;}
	.st29{font-size:25px;}
	.st30{font-family:'AvantGardeITCTTDemi';}
	.st31{font-size:20.6318px;}
	.st32{opacity:0.4;fill:#50C87D;}
	.st33{opacity:0.6;fill:#50C87D;}
	.st34{fill:#50C87D;stroke:#FFFFFF;stroke-width:5;stroke-miterlimit:10;}
	.st35{opacity:0.4;fill:#50C87D;stroke:#FFFFFF;stroke-width:5;stroke-miterlimit:10;}
	.st36{opacity:0.6;fill:#50C87D;stroke:#FFFFFF;stroke-width:5;stroke-miterlimit:10;}
	.st37{opacity:0.8;fill:#50C87D;stroke:#FFFFFF;stroke-width:5;stroke-miterlimit:10;}
	.st38{opacity:0.8;fill:#50C87D;}
	.st39{opacity:0.5;fill:#50C87D;}
	.st40{opacity:0.5;}
	.st41{fill:none;stroke:#50C87D;stroke-width:5;stroke-miterlimit:10;}
	.st42{fill:none;stroke:#50C87D;stroke-width:5;stroke-miterlimit:10;stroke-dasharray:4.6642,9.3285;}
	.st43{fill-rule:evenodd;clip-rule:evenodd;fill:#50C87D;}
	.st44{opacity:0.3;fill:#509BC8;}
	.st45{opacity:0.7;fill:#509BC8;}
	.st46{fill:#509BC8;}
	.st47{fill:none;stroke:#509BC8;stroke-width:0.7907;stroke-miterlimit:10;}
	.st48{fill:none;stroke:#FFFFFF;stroke-width:5;stroke-miterlimit:10;}
	.st49{opacity:0.5;fill:#509BC8;}
	.st50{opacity:0.3;fill:none;stroke:#509BC8;stroke-width:2;stroke-miterlimit:10;}
	.st51{opacity:0.7;}
	.st52{fill:none;stroke:#509BC8;stroke-width:8;stroke-miterlimit:10;}
	.st53{opacity:0.75;fill:#509BC8;}
	.st54{fill:none;stroke:#191919;stroke-width:5;stroke-miterlimit:10;}
	.st55{fill:#191919;}
	.st56{opacity:0.9;}
	.st57{fill:none;stroke:#F54B4B;stroke-width:3;stroke-miterlimit:10;}
	.st58{fill:none;stroke:#F54B4B;stroke-width:3;stroke-miterlimit:10;stroke-dasharray:16.9231,8.4615;}
	.st59{fill:none;stroke:#F54B4B;stroke-width:3;stroke-miterlimit:10;stroke-dasharray:4.2308,8.4615,16.9231,8.4615;}
	.st60{fill:none;stroke:#509BC8;stroke-width:4;stroke-miterlimit:10;}
	.st61{fill:#194B4B;}
	.st62{fill:none;}
	.st63{font-family:'AvantGardeITCbyBT-Book';}
	.st64{font-size:12px;}
</style>
<g id="Guias" class="st0">
</g>
<g id="fondo" class="st0">
	<rect y="1165" class="st1" width="1080" height="90"/>
</g>
<g id="Gráfico">
	<g class="st0">
		<g class="st12">
			<polygon class="st13" points="890.8,1197.9 890.8,1222.1 893.2,1222.1 893.2,1219.9 893.2,1219.9 893.2,1211 893.2,1211 
				893.2,1208.8 893.2,1208.8 893.2,1200.1 907.2,1200.1 907.2,1197.9 			"/>
			<rect x="896.3" y="1219.9" class="st13" width="10.9" height="2.2"/>
			<rect x="896.3" y="1208.8" class="st13" width="10.9" height="2.2"/>
		</g>
		<path class="st14" d="M885.7,1211L885.7,1211c-0.7-0.8-1.6-1.4-2.7-1.9c1.7-1.1,2.6-2.7,2.6-4.8c0-2.2-0.9-3.9-2.6-5.2
			c-1.2-0.8-3.2-1.3-6.1-1.3h-6.5v24.2h2.4v-2.2h0v-9.3h0v-2.2h0v-8.3h4c2.1,0,3,0.1,3.4,0.2c0.8,0.2,1.5,0.7,2,1.5
			c0.6,0.8,0.8,1.6,0.8,2.4c0,1.3-0.5,2.3-1.5,3c-1.1,0.8-2.6,1.1-4.5,1.1H876v2.2h1.3c1.9,0,2.6,0,2.9,0.1c0.4,0.1,0.9,0.2,1.5,0.4
			c1,0.4,1.8,1,2.4,1.8c0.6,0.8,0.9,1.6,0.9,2.4c0,1.6-0.7,2.8-2.1,3.7l0,0c-0.9,0.6-2.5,0.9-4.6,0.9H876v2.2h2.1
			c1.4,0,2.4-0.1,3.2-0.2c1.8-0.3,3.3-1.1,4.4-2.3c1.1-1.2,1.7-2.6,1.7-4.3C887.4,1213.7,886.8,1212.2,885.7,1211z"/>
		<path class="st14" d="M929.8,1205.6c0-1.4-0.4-2.8-1.2-4c-0.8-1.3-1.9-2.2-3.1-2.8l0,0c-1.4-0.6-3.9-0.9-7.5-0.9H911v24.2h2.4v-22
			h4.5c1.8,0,3,0,3.5,0.1c1.3,0.1,2.3,0.4,3.1,0.8c0.9,0.5,1.6,1.1,2.1,2c0.5,0.9,0.8,1.8,0.8,2.7c0,2.1-0.9,3.6-2.8,4.7
			c-1,0.6-2.7,0.9-4.9,0.9h-3.2l9.2,10.8h3.2l-7.4-8.6c2.3-0.1,4.3-0.8,5.8-2.2C929,1209.8,929.8,1207.9,929.8,1205.6z"/>
		<path class="st14" d="M948.8,1213.4c0,1.6-0.1,2.4-0.2,2.7c-0.2,0.8-0.6,1.6-1.3,2.3c-1.3,1.3-2.9,1.9-5.2,1.9
			c-2.2,0-3.9-0.7-5.2-2.1c-0.6-0.7-1.1-1.5-1.2-2.3c-0.1-0.5-0.2-1.4-0.2-2.7v-15.2h-2.4v15.2c0,2.5,0.4,4.3,1.2,5.5
			c0.8,1.2,1.9,2.2,3.3,2.8c1.4,0.7,2.9,1,4.5,1c2.8,0,5.1-0.8,6.8-2.5c0.8-0.8,1.4-1.7,1.8-2.7c0.3-1,0.5-2.2,0.5-3.9v-15.5h-2.4
			V1213.4z"/>
		<path class="st14" d="M966.4,1197.5c-3.5,0-6.5,1.2-8.8,3.7c-2.4,2.4-3.6,5.4-3.6,8.9c0,3.4,1.2,6.4,3.6,8.8
			c2.4,2.4,5.4,3.6,8.9,3.6c3.5,0,6.5-1.2,8.9-3.6c2.4-2.4,3.6-5.4,3.6-8.8c0-3.5-1.2-6.5-3.6-8.9
			C972.9,1198.7,969.9,1197.5,966.4,1197.5z M966.5,1220.3c-2.9,0-5.3-1-7.3-3c-2-2-3-4.4-3-7.4c0-2.9,1-5.3,3-7.3c2-2,4.4-3,7.3-3
			c2.9,0,5.3,1,7.3,3c2,2,3,4.4,3,7.3c0,2.9-1,5.3-3,7.3C971.8,1219.3,969.4,1220.3,966.5,1220.3z"/>
		<g class="st12">
			<polygon class="st13" points="984.5,1220 984.5,1197.9 982.1,1197.9 982.1,1222.1 984.5,1222.1 984.5,1220 			"/>
			<polygon class="st13" points="1002.6,1197.9 1002.6,1218.4 987.6,1201.2 987.6,1204.9 1002.6,1222.1 1005,1222.1 1005,1197.9 			
				"/>
		</g>
	</g>
	<g>
		<g>
			<g>
				<path class="st15" d="M946,233.5v775H556v-775H946 M951,228.5H551v785h400V228.5L951,228.5z"/>
			</g>
			<g>
				<text transform="matrix(1 0 0 1 584.2578 560.7344)" class="st15 st16 st17 st18">texto</text>
			</g>
			<g>
				<rect x="734" y="522" class="st19" width="188.5" height="6"/>
				<rect x="734" y="535" class="st19" width="188.5" height="6"/>
				<rect x="734" y="548" class="st19" width="188.5" height="6"/>
				<rect x="734" y="561" class="st19" width="188.5" height="6"/>
				<rect x="577" y="574" class="st19" width="345.5" height="6"/>
				<rect x="577" y="587" class="st19" width="345.5" height="6"/>
				<rect x="577" y="600" class="st19" width="345.5" height="6"/>
				<rect x="577" y="613" class="st19" width="305" height="6"/>
			</g>
			<g>
				<rect x="577" y="639" class="st19" width="168" height="6"/>
				<rect x="577" y="652" class="st19" width="168" height="6"/>
				<rect x="577" y="665" class="st19" width="168" height="6"/>
				<rect x="577" y="678" class="st19" width="168" height="6"/>
				<rect x="577" y="691" class="st19" width="168" height="6"/>
				<rect x="577" y="704" class="st19" width="168" height="6"/>
				<rect x="577" y="717" class="st19" width="168" height="6"/>
				<rect x="755" y="639" class="st19" width="168" height="6"/>
				<rect x="755" y="652" class="st19" width="168" height="6"/>
				<rect x="755" y="665" class="st19" width="168" height="6"/>
				<rect x="755" y="678" class="st19" width="168" height="6"/>
				<rect x="755" y="691" class="st19" width="168" height="6"/>
				<rect x="755" y="704" class="st19" width="168" height="6"/>
				<rect x="755" y="717" class="st19" width="168" height="6"/>
				<rect x="577" y="730" class="st19" width="168" height="6"/>
				<rect x="755" y="730" class="st19" width="127" height="6"/>
			</g>
		</g>
		<g>
			<g>
				<text transform="matrix(1 0 0 1 572.6797 294.7344)" class="st15 st16 st17 st18">layout</text>
			</g>
			<g class="st20">
				<g>
					<path class="st15" d="M731,324v149H582V324H731 M736,319H577v159h159V319L736,319z"/>
				</g>
				<line class="st21" x1="582" y1="324" x2="731" y2="473"/>
				<line class="st21" x1="731" y1="324" x2="582" y2="473"/>
			</g>
			<g>
				<rect x="762.5" y="285" class="st19" width="160" height="9.5"/>
				<rect x="762.5" y="270" class="st19" width="160" height="9.5"/>
				<rect x="762.5" y="255" class="st19" width="160" height="9.5"/>
			</g>
			<g>
				<circle class="st22" cx="898.5" cy="343.5" r="24.5"/>
				<path class="st23" d="M922,480H762V319h80.5c0,43.9,35.6,79.5,79.5,79.5V480z"/>
			</g>
		</g>
		<line class="st24" x1="577" y1="501" x2="922" y2="501"/>
		<g>
			<g>
				<text transform="matrix(1 0 0 1 641.5313 839.8877)" class="st15 st16 st25 st26">multimedia</text>
			</g>
			<g>
				<g class="st20">
					<path class="st15" d="M917,762v204H583V762H917 M923,756H577v216h346V756L923,756z"/>
				</g>
				<g>
					<path class="st15" d="M749.8,861c-13.5,0-24.5,11-24.5,24.5c0,13.5,11,24.5,24.5,24.5s24.5-11,24.5-24.5
						C774.3,872,763.3,861,749.8,861z M741,899.6v-28.9l25,14.5L741,899.6z"/>
				</g>
			</g>
		</g>
	</g>
	<g>
		<path class="st15" d="M511,234v230H135V234H511 M516,229H130v240h386V229L516,229z"/>
	</g>
	<g class="st20">
		<path class="st15" d="M299.2,438h46.1c3.2,0,5.9-2.6,5.9-5.9v-14.3c0-3.2-2.6-5.9-5.9-5.9h-46.1c-3.2,0-5.9,2.6-5.9,5.9v14.3
			C293.4,435.4,296,438,299.2,438z"/>
	</g>
	<g class="st20">
		<path class="st27" d="M351.5,292.4c0.2,15.8-13.1,28.4-28.3,28.3c-14.8,0-28.3-12-28.4-28.4c0-15.6,12.8-28.4,28.4-28.4
			C339.8,264,351.9,277.9,351.5,292.4z M323.2,264.9c-15.1,0-27.5,12.3-27.5,27.5c0,14.4,11.3,27.5,27.5,27.6
			c15.3,0,27.5-11.9,27.5-27.5C350.8,276.5,338,264.8,323.2,264.9z"/>
		<path class="st27" d="M335.6,283.5c-0.2,0.2-0.4,0.5-0.6,0.7c-5.7,5.7-11.4,11.4-17,17.2c-0.6,0.6-1.1,0.7-1.7,0.1
			c-2-2.1-4.1-4.1-6.1-6.2c-0.3-0.3-0.8-0.7-0.4-1c0.5-0.5,0.8,0.1,1.1,0.4c1.6,1.6,3.2,3.2,4.8,4.8c1.5,1.5,1.5,1.5,3,0
			c5.2-5.2,10.3-10.4,15.5-15.5c0.3-0.3,0.6-0.6,0.9-0.8C335.4,282.8,335.6,283,335.6,283.5z"/>
	</g>
	<g>
		<text transform="matrix(1 0 0 1 230.3741 383.3372)" class="st15 st16 st17 st18">alertas</text>
	</g>
	<g>
		<text transform="matrix(1 0 0 1 172.4707 543.043)" class="st15 st16 st28 st26">datos</text>
	</g>
	<g>
		<text transform="matrix(1 0 0 1 218.5127 841.043)" class="st15 st16 st29">color</text>
	</g>
	<g>
		<text transform="matrix(1 0 0 1 185.6006 1003.043)" class="st15 st16 st29">animación</text>
	</g>
	<g>
		<text transform="matrix(1 0 0 1 346.1885 1003.043)" class="st15 st16 st29">interacción</text>
	</g>
	<g>
		<text transform="matrix(1 0 0 1 365.5137 845.043)" class="st15 st16 st29">imagen</text>
	</g>
	<g>
		<text transform="matrix(1 0 0 1 308.1143 432.1963)" class="st13 st30 st31">OK</text>
	</g>
	<g>
		<rect x="209.5" y="559.2" class="st32" width="25.9" height="116.4"/>
		<rect x="247.3" y="586.5" class="st33" width="25.9" height="89"/>
		<polygon class="st34" points="374.5,614.3 375,613.8 374.3,613.6 		"/>
		<path class="st35" d="M433.1,555.7c-20.3-20.2-50.5-29.4-80.1-21.5l21.3,79.4l0.8,0.2l79.7,21.3c3.5-13.4,3.7-27.9-0.2-42.3
			C450.6,578.3,443.1,565.6,433.1,555.7z"/>
		<path class="st36" d="M294.5,592.2c-3.8,13.8-4.1,28.7-0.2,43.5c3.9,14.6,11.5,27.2,21.5,37.2l58.6-58.6l-0.2-0.8L353,534.2
			C323.6,542.1,302.1,564.8,294.5,592.2z"/>
		<path class="st34" d="M381.5,621.4l21.4,80c29.9-8,51.5-31.3,58.8-59.2L382,620.8L381.5,621.4z"/>
		<path class="st37" d="M315.9,673c20.3,20.2,50.4,29.4,80.1,21.4l-21.4-80L315.9,673z"/>
		<path class="st33" d="M351.3,531.3V510h-25.9v33.8C333.1,538.3,341.9,534,351.3,531.3z"/>
		<path class="st33" d="M289,614c0-22.7,8.8-43.4,23.3-58.8V539h-25.9v136.5h25.9v-2.8C297.8,657.4,289,636.7,289,614z"/>
	</g>
	<g>
		<circle class="st32" cx="242.5" cy="759.5" r="26.5"/>
		<circle class="st33" cx="261" cy="778" r="26.5"/>
		<circle class="st38" cx="234.5" cy="784.5" r="26.5"/>
	</g>
	<g>
		<path class="st15" d="M446,744v62H371v-62H446 M449,741H368v68H449V741L449,741z"/>
	</g>
	<path class="st39" d="M446.9,786.8h-12c-2.2,0-4.4-1.4-6-3.8l-0.6-0.9c-3.3-5.1-8.6-5.1-11.9,0v0c-1.6,2.5-3.7,3.8-6,3.8h-39.9
		v20.9h76.3V786.8z"/>
	<circle class="st19" cx="388.4" cy="761.5" r="8.3"/>
	<g class="st40">
		<g>
			<line class="st41" x1="198.4" y1="966.5" x2="200.9" y2="966.5"/>
			<line class="st42" x1="210.2" y1="966.5" x2="289.5" y2="966.5"/>
			<line class="st41" x1="294.1" y1="966.5" x2="296.6" y2="966.5"/>
			<g>
				<circle class="st15" cx="198.6" cy="966.5" r="5.6"/>
			</g>
			<g>
				<circle class="st15" cx="296.4" cy="966.5" r="5.6"/>
			</g>
		</g>
	</g>
	<g>
		<ellipse class="st15" cx="259.1" cy="874.9" rx="6.9" ry="6.9"/>
		<path class="st15" d="M287.1,890.3c-1-0.7-2.3-0.6-3.2,0.2l-4.8,4.3c-1.2,1.1-3.1,0.8-5-0.3l-8.1-10.3c-0.4-0.4-0.9-0.7-1.5-0.7
			c0,0-0.1,0-0.1,0h-12c-0.3,0-0.6,0-0.8,0.1l0,0l-16.3,3.4c-2.1,0.7-3.4,1.8-3.3,3.3l0.3,13.7c0,1.3,1.1,2.5,2.4,2.6
			c1.5,0.1,2.7-1.2,2.7-2.6l-0.3-6.5c-0.1-1.6,1.4-2.9,3.4-3.7l4.8,0.1c0.6,0,1,0.6,0.8,1.1l-5.1,13.7c0,0-0.3,1.8,1.8,1.8l12.5,0.1
			c1.1,0,2.1-0.6,2.6-1.6l4-12.1c0.2-0.6,0.9-0.9,1.5-0.5l8.9,6.5c1.9,1.2,3.6,1.4,4.7,0.4l10.3-9.1
			C288.5,893.2,288.5,891.3,287.1,890.3z"/>
		<path class="st15" d="M265.3,929.3l-7.3-14.6c-0.7-1.3-2-2.2-3.5-2.2h-5.2v0h-6.9c-1.1,0-2,0.8-2.3,1.9L226.6,947
			c-0.5,2.2,1.2,4.3,3.5,4.3c1.6,0,3-1,3.4-2.6c0,0,10.6-20.1,13.7-25.6c0.5-0.9,1.4-1.4,2.4-1.4h0c1.2,0,2.3,0.5,3.1,1.5l3.4,5.7
			c1,1.2,1.1,2.8,0.4,4.2l-3.3,8.9c-1,2-0.1,4.5,2,5.4c2,0.9,4.4-0.2,5.2-2.3l5-12.6C265.8,931.5,265.8,930.3,265.3,929.3z"/>
	</g>
	<path class="st43" d="M433.7,926.9v-3.4h-3.4v-3.4h-6.8v-3.4h-10.2v-3.4h-6.8v-16.9h-3.4V893h-6.9v3.4h-3.4v16.9v0.2v3.2v0.2v3.2
		v0.2v3.2v0.2v3.2v0.2v3.2v0.2v3.2h-3.2v-3.4h-3.4v-3.4h-10.3v3.4v0.2v3.2v0.2v3.4h3.4v3.2v0.2v3.4h3.4v6.8h3.4v6.8h3.4v3.4h3.4v6.6
		v0.2v3.4h37.4v-3.4v-0.2v-6.6h3.4v-3.4v-0.2v-6.6h3.4v-6.8v-0.2v-3.2v-0.2v-3.2V937v-3.2v-0.2v-3.2v-0.2v-3.4H433.7z M433.5,930.4
		v3.2v0.2v3.2v0.2v3.2v0.2v3.2v0.2v6.6h-3.4v6.8v0.2v3.2h-3.4v6.8h-30.3v-6.8H393v-3.4h-3.4v-6.8h-3.4v-6.8h-3.4v-3.2v-0.2V937h-3.4
		v-3.2v-0.2v-3.2h6.6v3.4h3.4v3.4h3.4v3.4h3.6v-3.4V937v-3.2v-0.2v-3.2v-0.2V927v-0.2v-3.2v-0.2v-3.2v-0.2v-3.2v-0.2v-3.2v-0.2
		v-16.8h6.6v16.8v0.2v3.2v0.2v3.2v0.2v3.2v0.2v3.2v0.2v3.4h3.6V927v-0.2v-3.2v-0.2v-3.2v-0.2v-3.2h6.6v3.2v0.2v3.2v0.2v3.2v0.2v3.2
		v0.2v3.4h3.6v-3.4v-0.2V927v-0.2v-3.2v-0.2v-3.2h6.6v3.2v0.2v3.2v0.2v3.2v0.2v3.2v0.2v3.4h3.6v-3.4v-0.2v-3.2v-0.2V927v-0.2v-3.2
		h3.2v3.4h3.4v3.2V930.4z"/>
</g>
<g id="Trazo">
	<g>
		<g>
			<polyline class="st54" points="236.9,145 75,145 75,1075 1005,1075 1005,145 843.1,145 			"/>
			<g>
				<rect x="233.8" y="124.7" class="st55" width="6.3" height="40.6"/>
			</g>
			<g>
				<rect x="840" y="124.7" class="st55" width="6.3" height="40.6"/>
			</g>
		</g>
	</g>
</g>
<g id="Texto">
	<g>
		<path class="st15" d="M284.1,149.4h-8.6V173h-8.7v-60h20.9c5.2,0,9.4,1.7,12.7,5c3.3,3.4,4.9,7.7,4.9,12.9c0,5-1.6,9.2-4.7,12.5
			c-2,2.2-4.3,3.8-6.8,4.6C291.4,148.9,288.2,149.4,284.1,149.4z M275.5,121.1v20.3h9c3.7,0,6.6-0.9,8.8-2.8
			c2.1-1.9,3.2-4.4,3.2-7.6c0-6.5-4-9.8-12.1-9.8H275.5z"/>
		<path class="st15" d="M350.2,165v8h-32.4v-60h32.4v8.1h-23.7v17.6h23.7v8h-23.7V165H350.2z"/>
		<path class="st15" d="M387.4,150.7l16.8,22.3h-11l-20-27.9V173h-8.7v-60H383c7.1,0,12.5,1.7,16.1,5.1c3.6,3.4,5.4,8.1,5.4,14.1
			c0,7-2.5,12-7.6,15.2C394.5,149.1,391.3,150.2,387.4,150.7z M373.2,121.1V144h6c11,0,16.6-3.9,16.6-11.7c0-3.4-1.2-6.1-3.6-8.1
			c-2.4-2-5.7-3.1-9.7-3.1H373.2z"/>
		<path class="st15" d="M449.7,128.6h-8.9c-0.2-2.6-1-4.8-2.5-6.3c-1.5-1.6-3.4-2.4-5.6-2.4c-2.2,0-4,0.8-5.7,2.5
			c-1.6,1.7-2.4,3.6-2.4,5.8c0,2.3,0.7,4.1,2.1,5.4c1.4,1.2,4,2.4,7.8,3.5c3.8,1.1,6.6,2.1,8.4,3.1c1.8,1,3.3,2.5,4.7,4.5
			c2.1,3,3.2,6.5,3.2,10.4c0,5.5-1.8,10-5.3,13.7c-3.5,3.7-8,5.5-13.2,5.5c-5.4,0-9.8-1.8-13.3-5.3c-3.5-3.5-5.3-8.1-5.4-13.6h8.6
			c0.7,7.3,4.1,10.9,10.2,10.9c2.8,0,5.1-1,6.9-2.9c1.9-1.9,2.8-4.3,2.8-7.1c0-4.3-2.5-7.2-7.5-8.9l-2.2-0.7l-2.5-0.8
			c-3.4-1.1-5.6-1.9-6.7-2.4c-1-0.5-2.1-1.5-3.2-2.8c-2.7-3-4.1-6.7-4.1-11.1c0-5.1,1.6-9.3,4.9-12.6c3.3-3.3,7.4-5,12.4-5
			c4.7,0,8.5,1.5,11.6,4.6C447.8,119.6,449.5,123.6,449.7,128.6z"/>
		<path class="st15" d="M492.5,111.8c8.7,0,16.1,3,22.1,9.1c6.1,6.1,9.1,13.4,9.1,22.1c0,8.6-3,15.9-9.1,22
			c-6.1,6.1-13.5,9.1-22.1,9.1c-8.6,0-16-3-22.1-9.1c-6.1-6.1-9.1-13.4-9.1-22c0-8.7,3-16.1,9.1-22.1
			C476.4,114.9,483.8,111.8,492.5,111.8z M492.5,166.2c6.4,0,11.7-2.2,16-6.7c4.3-4.4,6.4-10,6.4-16.6c0-6.5-2.2-12-6.5-16.4
			c-4.3-4.5-9.6-6.7-15.9-6.7c-6.3,0-11.6,2.2-15.9,6.7c-4.3,4.5-6.5,9.9-6.5,16.4c0,6.5,2.2,12,6.5,16.5
			C480.9,164,486.2,166.2,492.5,166.2z"/>
		<path class="st15" d="M584.9,113v60h-9.1l-29.9-46.4V173h-8.7v-60h9.5l29.3,45.7V113H584.9z"/>
		<path class="st15" d="M626,113l22.8,60h-9.3l-6.7-17.7h-21.6l-6.7,17.7h-9.3l22.8-60H626z M614.4,147.3h15.4l-7.7-22.9
			L614.4,147.3z"/>
		<path class="st15" d="M688.9,165v8h-29.5v-60h8.7v52H688.9z"/>
		<path class="st15" d="M709.6,113v60h-8.7v-60H709.6z"/>
		<path class="st15" d="M759.1,165v8h-36.9v-8l26.1-43.9h-24.7V113h34.4v8.1L732.2,165H759.1z"/>
		<path class="st15" d="M796.5,113l22.8,60H810l-6.7-17.7h-21.6l-6.7,17.7h-9.3l22.8-60H796.5z M784.9,147.3h15.4l-7.7-22.9
			L784.9,147.3z"/>
	</g>
	<g>
		<path class="st61" d="M361.4,1152.8h-2.8v-25.6h-5.7v-2.8H367v2.8h-5.7V1152.8z"/>
		<path class="st61" d="M369.2,1124.4h2.8v18c0,1.4,0.1,2.4,0.2,3.1c0.1,0.7,0.3,1.3,0.6,1.8c0.5,1.1,1.3,1.9,2.2,2.5
			c1,0.6,2.1,0.9,3.3,0.9c2.1,0,3.7-0.7,4.8-2.2c1-1.5,1.5-3.7,1.5-6.8v-17.4h2.8v18.1c0,3.7-0.7,6.4-2.2,8.2
			c-1.5,1.8-3.7,2.7-6.7,2.7c-3.2,0-5.5-0.9-7-2.7c-1.5-1.8-2.2-4.5-2.2-8.3V1124.4z"/>
		<path class="st61" d="M403.2,1124.4h6c1.7,0,3.1,0.1,4.2,0.3c1,0.2,1.9,0.5,2.6,0.9c1.3,0.8,2.2,1.7,2.9,2.9c0.7,1.2,1,2.6,1,4.1
			c0,1.4-0.3,2.8-0.9,4c-0.6,1.2-1.4,2.2-2.5,2.9c-0.8,0.5-1.7,0.9-2.7,1.1c-1,0.2-2.4,0.3-4,0.3H406v12h-2.8V1124.4z M406,1127.2
			v10.8h4.1c2.3,0,4-0.4,5.1-1.3c1.1-0.9,1.6-2.2,1.6-4c0-1.9-0.6-3.3-1.7-4.2c-1.1-0.9-2.9-1.3-5.3-1.3H406z"/>
		<path class="st61" d="M420.4,1152.8h-2.9l11-28.4h3.4l11,28.4h-3l-3.4-8.9h-12.7L420.4,1152.8z M435.5,1141.4l-5.4-14.3l-5.3,14.3
			H435.5z M429.5,1121.6h-1.8l4.1-6.8h3L429.5,1121.6z"/>
		<path class="st61" d="M453.5,1139.2h17.7c-0.2,4.1-1.7,7.5-4.5,10.2c-2.7,2.7-6.1,4-10.1,4c-4.1,0-7.5-1.4-10.3-4.3
			c-2.8-2.9-4.2-6.4-4.2-10.7c0-2,0.4-3.9,1.1-5.7c0.8-1.8,1.9-3.4,3.3-4.8c1.4-1.4,3-2.4,4.7-3.1c1.7-0.7,3.6-1,5.7-1
			c2.8,0,5.2,0.7,7.4,2c2.2,1.3,4,3.2,5.3,5.7h-3.4c-1.3-1.7-2.8-3-4.3-3.8c-1.5-0.8-3.2-1.2-5.1-1.2c-3.3,0-6,1.2-8.3,3.5
			c-2.3,2.3-3.4,5.1-3.4,8.4c0,3.5,1.1,6.4,3.4,8.7c2.3,2.3,5,3.5,8.3,3.5c2.6,0,4.9-0.8,7-2.5c2.1-1.7,3.4-3.8,4-6.5h-14.4V1139.2z
			"/>
		<path class="st61" d="M477.4,1152.8h-2.8v-28.4h2.8V1152.8z"/>
		<path class="st61" d="M501.6,1149.4l-0.3-25h2.8v28.4h-3.4l-15.6-25.1l0.3,25.1h-2.8v-28.4h3.4L501.6,1149.4z"/>
		<path class="st61" d="M508.8,1152.8h-2.9l11-28.4h3.4l11,28.4h-3l-3.4-8.9h-12.7L508.8,1152.8z M523.9,1141.4l-5.4-14.3l-5.3,14.3
			H523.9z"/>
		<path class="st15" d="M544,1152.8H541l11-28.4h3.4l11,28.4h-3l-3.4-8.9h-12.7L544,1152.8z M559,1141.4l-5.4-14.3l-5.3,14.3H559z"
			/>
		<path class="st15" d="M585.9,1152.8h-2.8v-25.6h-5.7v-2.8h14.2v2.8h-5.7V1152.8z"/>
		<path class="st15" d="M593.7,1124.4h2.8v18c0,1.4,0.1,2.4,0.2,3.1c0.1,0.7,0.3,1.3,0.6,1.8c0.5,1.1,1.3,1.9,2.2,2.5
			c1,0.6,2.1,0.9,3.3,0.9c2.1,0,3.7-0.7,4.8-2.2c1-1.5,1.5-3.7,1.5-6.8v-17.4h2.8v18.1c0,3.7-0.7,6.4-2.2,8.2
			c-1.5,1.8-3.7,2.7-6.7,2.7c-3.2,0-5.5-0.9-7-2.7c-1.5-1.8-2.2-4.5-2.2-8.3V1124.4z"/>
		<path class="st15" d="M630.8,1137.2h12v2.8h-12v10.1h12v2.8H628v-28.4h14.8v2.8h-12V1137.2z"/>
		<path class="st15" d="M645,1144.7h2.7c0.1,1.8,0.5,3.2,1.5,4.2c0.9,1,2.2,1.6,3.7,1.6c1.7,0,3-0.5,3.9-1.6c1-1,1.5-2.4,1.5-4.2
			c0-2.6-2-4.5-6-5.8c-0.3-0.1-0.5-0.2-0.7-0.2c-2.1-0.7-3.6-1.6-4.5-2.7c-0.9-1.1-1.4-2.5-1.4-4.3c0-2.3,0.7-4.1,2.1-5.6
			c1.4-1.4,3.2-2.2,5.5-2.2c2.1,0,3.8,0.7,5.1,2c1.3,1.3,1.9,3.2,2.1,5.5h-2.6c-0.1-1.5-0.6-2.7-1.4-3.6s-1.8-1.3-3.1-1.3
			c-1.4,0-2.6,0.5-3.4,1.4c-0.9,0.9-1.3,2.1-1.3,3.5c0,0.7,0.1,1.4,0.4,1.9c0.3,0.5,0.7,1,1.3,1.5c0.6,0.4,1.7,0.9,3.4,1.5
			c1,0.3,1.7,0.6,2.2,0.8c1.8,0.7,3.2,1.6,4,2.7c0.8,1.1,1.2,2.6,1.2,4.4c0,2.8-0.8,5-2.3,6.7c-1.5,1.7-3.5,2.5-6,2.5
			c-2.3,0-4.2-0.8-5.6-2.4C645.8,1149.4,645.1,1147.3,645,1144.7z"/>
		<path class="st15" d="M670.6,1152.8h-2.8v-25.6h-5.7v-2.8h14.2v2.8h-5.7V1152.8z"/>
		<path class="st15" d="M681.4,1152.8h-2.8v-28.4h2.8V1152.8z"/>
		<path class="st15" d="M699.5,1152.8h-12.8v-28.4h2.8v25.7h10V1152.8z"/>
		<path class="st15" d="M699.1,1138.4c0-2,0.4-3.9,1.1-5.7s1.9-3.4,3.3-4.8c1.4-1.4,2.9-2.4,4.6-3.1c1.7-0.7,3.5-1,5.4-1
			c2,0,3.8,0.3,5.5,1c1.7,0.7,3.3,1.7,4.7,3.1c1.4,1.4,2.5,3,3.3,4.8c0.7,1.8,1.1,3.7,1.1,5.7c0,2-0.3,3.9-0.9,5.6
			c-0.6,1.7-1.6,3.2-2.8,4.6c-1.4,1.6-3.1,2.8-4.9,3.6c-1.8,0.8-3.8,1.2-5.9,1.2c-4.1,0-7.5-1.4-10.3-4.3S699.1,1142.7,699.1,1138.4
			z M702,1138.5c0,3.5,1.1,6.4,3.4,8.7c2.3,2.3,5,3.5,8.3,3.5c3.2,0,6-1.2,8.2-3.6c2.2-2.4,3.3-5.3,3.3-8.8c0-3.2-1.1-6-3.4-8.3
			c-2.3-2.3-5.1-3.5-8.3-3.5c-1.3,0-2.6,0.2-3.8,0.7c-1.2,0.4-2.3,1.1-3.4,2c-1.4,1.1-2.4,2.5-3.2,4.2
			C702.4,1135.1,702,1136.8,702,1138.5z"/>
	</g>
	<rect x="75" y="1190.3" class="st62" width="440.9" height="39.5"/>
	<text transform="matrix(1 0 0 1 75 1198.7849)" class="st0"><tspan x="0" y="0" class="st14 st63 st64">contacto@beruon.com</tspan><tspan x="0" y="15" class="st14 st63 st64">www.beruon.com</tspan><tspan x="0" y="30" class="st14 st63 st64">55-6498-8988</tspan></text>
</g>
</svg>
