<?xml version="1.0" encoding="utf-8"?>
<!-- Generator: Adobe Illustrator 24.0.1, SVG Export Plug-In . SVG Version: 6.00 Build 0)  -->
<svg version="1.1" xmlns="http://www.w3.org/2000/svg" xmlns:xlink="http://www.w3.org/1999/xlink" x="0px" y="0px"
	 viewBox="0 0 1080 1255" style="enable-background:new 0 0 1080 1255;" xml:space="preserve">
<style type="text/css">
	.st0{display:none;}
	.st1{display:inline;fill:#191919;}
	.st2{fill:#F54B4B;}
	.st3{opacity:0.1;fill:#F54B4B;}
	.st4{opacity:0.2;fill:#F54B4B;}
	.st5{opacity:0.3;fill:#F54B4B;}
	.st6{opacity:0.7;fill:#F54B4B;}
	.st7{opacity:0.3;}
	.st8{fill:#FF0000;}
	.st9{fill:none;stroke:#F54B4B;stroke-width:0.7907;stroke-miterlimit:10;}
	.st10{clip-path:url(#SVGID_2_);}
	.st11{fill:none;stroke:#F54B4B;stroke-width:0.2728;stroke-miterlimit:10;}
	.st12{display:inline;}
	.st13{fill:#FFFFFF;}
	.st14{display:inline;fill:#FFFFFF;}
	.st15{fill:#50C87D;}
	.st16{opacity:0.75;fill:#50C87D;}
	.st17{opacity:0.75;}
	.st18{fill:#50C87D;stroke:#50C87D;stroke-width:5;stroke-linejoin:bevel;stroke-miterlimit:10;}
	.st19{opacity:0.7;fill:#50C87D;}
	.st20{opacity:0.25;fill:#50C87D;}
	.st21{fill:none;stroke:#50C87D;stroke-width:3;stroke-miterlimit:10;}
	.st22{fill:none;stroke:#50C87D;stroke-width:2.5;stroke-miterlimit:10;}
	.st23{opacity:0.4;fill:#50C87D;}
	.st24{opacity:0.6;fill:#50C87D;}
	.st25{fill:#50C87D;stroke:#FFFFFF;stroke-width:5;stroke-miterlimit:10;}
	.st26{opacity:0.4;fill:#50C87D;stroke:#FFFFFF;stroke-width:5;stroke-miterlimit:10;}
	.st27{opacity:0.6;fill:#50C87D;stroke:#FFFFFF;stroke-width:5;stroke-miterlimit:10;}
	.st28{opacity:0.8;fill:#50C87D;stroke:#FFFFFF;stroke-width:5;stroke-miterlimit:10;}
	.st29{opacity:0.8;fill:#50C87D;}
	.st30{opacity:0.5;fill:#50C87D;}
	.st31{opacity:0.5;}
	.st32{fill:none;stroke:#50C87D;stroke-width:5;stroke-miterlimit:10;}
	.st33{fill:none;stroke:#50C87D;stroke-width:5;stroke-miterlimit:10;stroke-dasharray:4.6642,9.3285;}
	.st34{fill-rule:evenodd;clip-rule:evenodd;fill:#50C87D;}
	.st35{opacity:0.3;fill:#509BC8;}
	.st36{opacity:0.7;fill:#509BC8;}
	.st37{fill:#509BC8;}
	.st38{fill:none;stroke:#509BC8;stroke-width:0.7907;stroke-miterlimit:10;}
	.st39{fill:none;stroke:#FFFFFF;stroke-width:5;stroke-miterlimit:10;}
	.st40{opacity:0.5;fill:#509BC8;}
	.st41{opacity:0.3;fill:none;stroke:#509BC8;stroke-width:2;stroke-miterlimit:10;}
	.st42{opacity:0.7;}
	.st43{font-family:'AvantGardeMdITCTT';}
	.st44{font-size:40px;}
	.st45{letter-spacing:2;}
	.st46{fill:none;stroke:#509BC8;stroke-width:8;stroke-miterlimit:10;}
	.st47{opacity:0.75;fill:#509BC8;}
	.st48{fill:none;stroke:#191919;stroke-width:5;stroke-miterlimit:10;}
	.st49{fill:#191919;}
	.st50{opacity:0.9;}
	.st51{fill:none;stroke:#F54B4B;stroke-width:3;stroke-miterlimit:10;}
	.st52{fill:none;stroke:#F54B4B;stroke-width:3;stroke-miterlimit:10;stroke-dasharray:16.9231,8.4615;}
	.st53{fill:none;stroke:#F54B4B;stroke-width:3;stroke-miterlimit:10;stroke-dasharray:4.2308,8.4615,16.9231,8.4615;}
	.st54{fill:none;stroke:#509BC8;stroke-width:4;stroke-miterlimit:10;}
	.st55{fill:#194B4B;}
	.st56{fill:none;}
	.st57{font-family:'AvantGardeITCbyBT-Book';}
	.st58{font-size:12px;}
</style>
<g id="Guias" class="st0">
</g>
<g id="fondo" class="st0">
	<rect y="1165" class="st1" width="1080" height="90"/>
</g>
<g id="Gráfico">
	<g class="st0">
		<g class="st12">
			<polygon class="st13" points="890.8,1197.9 890.8,1222.1 893.2,1222.1 893.2,1219.9 893.2,1219.9 893.2,1211 893.2,1211 
				893.2,1208.8 893.2,1208.8 893.2,1200.1 907.2,1200.1 907.2,1197.9 			"/>
			<rect x="896.3" y="1219.9" class="st13" width="10.9" height="2.2"/>
			<rect x="896.3" y="1208.8" class="st13" width="10.9" height="2.2"/>
		</g>
		<path class="st14" d="M885.7,1211L885.7,1211c-0.7-0.8-1.6-1.4-2.7-1.9c1.7-1.1,2.6-2.7,2.6-4.8c0-2.2-0.9-3.9-2.6-5.2
			c-1.2-0.8-3.2-1.3-6.1-1.3h-6.5v24.2h2.4v-2.2h0v-9.3h0v-2.2h0v-8.3h4c2.1,0,3,0.1,3.4,0.2c0.8,0.2,1.5,0.7,2,1.5
			c0.6,0.8,0.8,1.6,0.8,2.4c0,1.3-0.5,2.3-1.5,3c-1.1,0.8-2.6,1.1-4.5,1.1H876v2.2h1.3c1.9,0,2.6,0,2.9,0.1c0.4,0.1,0.9,0.2,1.5,0.4
			c1,0.4,1.8,1,2.4,1.8c0.6,0.8,0.9,1.6,0.9,2.4c0,1.6-0.7,2.8-2.1,3.7l0,0c-0.9,0.6-2.5,0.9-4.6,0.9H876v2.2h2.1
			c1.4,0,2.4-0.1,3.2-0.2c1.8-0.3,3.3-1.1,4.4-2.3c1.1-1.2,1.7-2.6,1.7-4.3C887.4,1213.7,886.8,1212.2,885.7,1211z"/>
		<path class="st14" d="M929.8,1205.6c0-1.4-0.4-2.8-1.2-4c-0.8-1.3-1.9-2.2-3.1-2.8l0,0c-1.4-0.6-3.9-0.9-7.5-0.9H911v24.2h2.4v-22
			h4.5c1.8,0,3,0,3.5,0.1c1.3,0.1,2.3,0.4,3.1,0.8c0.9,0.5,1.6,1.1,2.1,2c0.5,0.9,0.8,1.8,0.8,2.7c0,2.1-0.9,3.6-2.8,4.7
			c-1,0.6-2.7,0.9-4.9,0.9h-3.2l9.2,10.8h3.2l-7.4-8.6c2.3-0.1,4.3-0.8,5.8-2.2C929,1209.8,929.8,1207.9,929.8,1205.6z"/>
		<path class="st14" d="M948.8,1213.4c0,1.6-0.1,2.4-0.2,2.7c-0.2,0.8-0.6,1.6-1.3,2.3c-1.3,1.3-2.9,1.9-5.2,1.9
			c-2.2,0-3.9-0.7-5.2-2.1c-0.6-0.7-1.1-1.5-1.2-2.3c-0.1-0.5-0.2-1.4-0.2-2.7v-15.2h-2.4v15.2c0,2.5,0.4,4.3,1.2,5.5
			c0.8,1.2,1.9,2.2,3.3,2.8c1.4,0.7,2.9,1,4.5,1c2.8,0,5.1-0.8,6.8-2.5c0.8-0.8,1.4-1.7,1.8-2.7c0.3-1,0.5-2.2,0.5-3.9v-15.5h-2.4
			V1213.4z"/>
		<path class="st14" d="M966.4,1197.5c-3.5,0-6.5,1.2-8.8,3.7c-2.4,2.4-3.6,5.4-3.6,8.9c0,3.4,1.2,6.4,3.6,8.8
			c2.4,2.4,5.4,3.6,8.9,3.6c3.5,0,6.5-1.2,8.9-3.6c2.4-2.4,3.6-5.4,3.6-8.8c0-3.5-1.2-6.5-3.6-8.9
			C972.9,1198.7,969.9,1197.5,966.4,1197.5z M966.5,1220.3c-2.9,0-5.3-1-7.3-3c-2-2-3-4.4-3-7.4c0-2.9,1-5.3,3-7.3c2-2,4.4-3,7.3-3
			c2.9,0,5.3,1,7.3,3c2,2,3,4.4,3,7.3c0,2.9-1,5.3-3,7.3C971.8,1219.3,969.4,1220.3,966.5,1220.3z"/>
		<g class="st12">
			<polygon class="st13" points="984.5,1220 984.5,1197.9 982.1,1197.9 982.1,1222.1 984.5,1222.1 984.5,1220 			"/>
			<polygon class="st13" points="1002.6,1197.9 1002.6,1218.4 987.6,1201.2 987.6,1204.9 1002.6,1222.1 1005,1222.1 1005,1197.9 			
				"/>
		</g>
	</g>
	<g>
		<g>
			<rect x="342" y="710.3" class="st35" width="94.4" height="2.8"/>
			<g>
				<circle class="st36" cx="322.1" cy="717.8" r="7.5"/>
				<rect x="342" y="716.4" class="st35" width="94.4" height="2.8"/>
				<rect x="342" y="722.4" class="st35" width="83.7" height="2.8"/>
				<circle class="st36" cx="322.1" cy="786.8" r="7.5"/>
				<rect x="342" y="779.4" class="st35" width="94.4" height="2.8"/>
				<rect x="342" y="785.4" class="st35" width="94.4" height="2.8"/>
				<rect x="342" y="791.5" class="st35" width="83.7" height="2.8"/>
				<circle class="st36" cx="322.1" cy="752.1" r="7.5"/>
				<rect x="342" y="744.6" class="st35" width="94.4" height="2.8"/>
				<rect x="342" y="750.7" class="st35" width="94.4" height="2.8"/>
				<rect x="342" y="756.7" class="st35" width="83.7" height="2.8"/>
			</g>
			<rect x="342" y="816.4" class="st35" width="94.4" height="2.8"/>
			<circle class="st36" cx="322.1" cy="823.9" r="7.5"/>
			<rect x="342" y="822.5" class="st35" width="94.4" height="2.8"/>
			<rect x="342" y="828.5" class="st35" width="83.7" height="2.8"/>
			<circle class="st36" cx="322.1" cy="858.2" r="7.5"/>
			<rect x="342" y="850.7" class="st35" width="94.4" height="2.8"/>
			<rect x="342" y="856.8" class="st35" width="94.4" height="2.8"/>
			<rect x="342" y="862.8" class="st35" width="83.7" height="2.8"/>
		</g>
		<g>
			<g class="st7">
				<path class="st37" d="M293.3,707.8V935H152.7V707.8H293.3 M297.3,703.9H148.7v235.1h148.6V703.9L297.3,703.9z"/>
			</g>
			<rect x="156.7" y="712.3" class="st36" width="131.7" height="10.9"/>
			<rect x="245.7" y="920.1" class="st36" width="43" height="7.5"/>
			<rect x="156.7" y="732.2" class="st35" width="131.8" height="3"/>
			<rect x="156.7" y="738.7" class="st35" width="131.8" height="3"/>
			<rect x="156.7" y="745.1" class="st35" width="131.8" height="3"/>
			<rect x="156.7" y="751.6" class="st35" width="131.8" height="3"/>
			<rect x="156.7" y="758" class="st35" width="131.8" height="3"/>
			<rect x="156.7" y="764.5" class="st35" width="131.8" height="3"/>
			<rect x="156.7" y="770.9" class="st35" width="131.8" height="3"/>
			<rect x="156.7" y="777.4" class="st35" width="131.8" height="3"/>
			<rect x="156.7" y="783.9" class="st35" width="131.8" height="3"/>
			<rect x="156.7" y="796.8" class="st35" width="62.1" height="3"/>
			<rect x="225.2" y="796.8" class="st35" width="63.6" height="3"/>
			<rect x="156.7" y="803.2" class="st35" width="62.1" height="3"/>
			<rect x="225.2" y="803.2" class="st35" width="63.6" height="3"/>
			<rect x="156.7" y="809.7" class="st35" width="62.1" height="3"/>
			<rect x="225.2" y="809.7" class="st35" width="63.6" height="3"/>
			<rect x="156.7" y="816.2" class="st35" width="62.1" height="3"/>
			<rect x="225.2" y="816.2" class="st35" width="63.6" height="3"/>
			<rect x="156.7" y="822.6" class="st35" width="62.1" height="3"/>
			<rect x="225.2" y="822.6" class="st35" width="63.6" height="3"/>
			<rect x="156.7" y="836.1" class="st35" width="62.1" height="3"/>
			<rect x="225.2" y="836.1" class="st35" width="63.6" height="3"/>
			<rect x="156.7" y="829.6" class="st35" width="62.1" height="3"/>
			<rect x="225.2" y="829.6" class="st35" width="63.6" height="3"/>
			<rect x="156.7" y="842.6" class="st35" width="62.1" height="3"/>
			<rect x="225.2" y="842.6" class="st35" width="63.6" height="3"/>
			<rect x="156.7" y="849.1" class="st35" width="62.1" height="3"/>
			<rect x="225.2" y="849.1" class="st35" width="63.6" height="3"/>
			<rect x="156.7" y="855.5" class="st35" width="62.1" height="3"/>
			<rect x="225.2" y="855.5" class="st35" width="63.6" height="3"/>
			<rect x="156.7" y="869" class="st35" width="62.1" height="3"/>
			<rect x="225.2" y="869" class="st35" width="63.6" height="3"/>
			<rect x="156.7" y="862.5" class="st35" width="62.1" height="3"/>
			<rect x="225.2" y="862.5" class="st35" width="63.6" height="3"/>
			<rect x="156.7" y="875.5" class="st35" width="62.1" height="3"/>
			<rect x="225.2" y="875.5" class="st35" width="63.6" height="3"/>
			<rect x="156.7" y="882" class="st35" width="62.1" height="3"/>
			<rect x="225.2" y="882" class="st35" width="63.6" height="3"/>
			<rect x="156.7" y="888.4" class="st35" width="62.1" height="3"/>
			<rect x="225.2" y="888.4" class="st35" width="63.6" height="3"/>
			<rect x="156.7" y="895" class="st35" width="62.1" height="3"/>
			<rect x="225.2" y="895" class="st35" width="63.6" height="3"/>
			<rect x="156.7" y="901.6" class="st35" width="62.1" height="3"/>
			<rect x="225.2" y="901.6" class="st35" width="63.6" height="3"/>
			<rect x="156.7" y="908" class="st35" width="62.1" height="3"/>
			<rect x="225.2" y="908" class="st35" width="41.7" height="3"/>
		</g>
		<g>
			<rect x="136.8" y="660.1" class="st35" width="317" height="32.3"/>
			<circle class="st37" cx="152.2" cy="675.6" r="7.5"/>
			<rect x="167.6" y="668.1" class="st37" width="254.9" height="14.9"/>
			<rect x="432.4" y="668.1" class="st37" width="14.9" height="3"/>
			<rect x="432.4" y="680" class="st37" width="14.9" height="3"/>
			<rect x="432.4" y="674.1" class="st37" width="14.9" height="3"/>
		</g>
		<g>
			<g class="st7">
				<path class="st37" d="M438.9,892.3V935H318.6v-42.8H438.9 M442.9,888.3H314.7V939h128.2V888.3L442.9,888.3z"/>
			</g>
			
				<rect x="329.9" y="902.9" transform="matrix(0.7071 -0.7071 0.7071 0.7071 -546.3962 508.6444)" class="st38" width="21.9" height="21.9"/>
			
				<rect x="345.3" y="902.9" transform="matrix(0.7071 -0.7071 0.7071 0.7071 -541.8849 519.5356)" class="st38" width="21.9" height="21.9"/>
			
				<rect x="360.2" y="902.9" transform="matrix(0.7071 -0.7071 0.7071 0.7071 -537.5191 530.0756)" class="st38" width="21.9" height="21.9"/>
			
				<rect x="375.6" y="902.9" transform="matrix(0.7071 -0.7071 0.7071 0.7071 -533.0078 540.9668)" class="st38" width="21.9" height="21.9"/>
			
				<rect x="391" y="902.9" transform="matrix(0.7071 -0.7071 0.7071 0.7071 -528.4965 551.858)" class="st38" width="21.9" height="21.9"/>
			
				<rect x="405.9" y="902.9" transform="matrix(0.7071 -0.7071 0.7071 0.7071 -524.1307 562.3979)" class="st38" width="21.9" height="21.9"/>
		</g>
	</g>
	<g>
		<g class="st17">
			<path class="st37" d="M342.7,357.3c-0.2-0.6-0.5-1.3-0.7-1.9c-4.9-11.8-14.1-21.3-25.7-26.5c-0.9,0.8-1.8,1.5-2.8,2.3
				c-5.5,4.7-10.8,9.7-15.8,14.9c-5.1,5.2-9.9,10.7-14.6,16.2c-4.7,5.6-9.2,11.3-13.4,17.2c-2.1,3-4.2,5.9-6.2,8.9
				c-2,3-3.9,6.1-5.7,9.2c-1.1,1.8-2.1,3.7-3.1,5.6c6.9,9.9,17.3,17.1,29.4,20c0.8,0.2,1.5,0.3,2.3,0.5c3,0.6,6.1,0.9,9.3,0.9
				c27.7,0,50.1-22.4,50.1-50.1C345.7,368.4,344.6,362.6,342.7,357.3z"/>
			<path class="st37" d="M298.2,324.5c-0.9,0-1.7-0.1-2.6-0.1c-27.7,0-50.1,22.4-50.1,50.1c0,4.3,0.5,8.5,1.6,12.4
				c6.6-12.8,14.8-24.7,24-35.6C279.3,341.5,288.3,332.5,298.2,324.5z"/>
		</g>
		
			<ellipse transform="matrix(0.8304 -0.5571 0.5571 0.8304 -157.8864 228.6773)" class="st39" cx="296.7" cy="373.7" rx="51.5" ry="50.1"/>
		<path class="st39" d="M320.4,409.2c0,0-28.5,7.9-50.6-4.6c-22-12.5-23.9-34.1-23.9-34.1"/>
		<path class="st39" d="M320.6,409.3c0,0-0.8,5.9-7.9,11.9"/>
		<path class="st39" d="M320.6,409.3c0,0,5.9-2.1,15.6-12.7c9.7-10.6,11.1-17.6,11.1-17.6"/>
		<path class="st39" d="M320.6,409.3c0,0,3.2-24.1-13.8-55.5c-17-31.5-28.9-26.6-28.9-26.6"/>
		<path class="st40" d="M355.8,316.6c-0.3-1.1-0.7-2.2-1.3-3.3c-0.6-1.1-1.4-2.1-2.3-3c-0.9-0.9-2.1-1.6-3.2-2.1
			c-1.1-0.5-2.3-0.8-3.5-1c-2.3-0.4-4.6-0.3-6.7,0c-2.1,0.3-4.1,0.8-6.1,1.4c-2,0.6-3.8,1.3-5.7,2.1c-3.7,1.6-7.1,3.4-10.5,5.4
			c-3.3,2-6.6,4.1-9.7,6.4c-1.1,0.8-2.2,1.6-3.3,2.4c-11.2,8.6-21.1,18.5-30.1,29.1c-9.6,11.5-18.1,23.9-24.9,37.4
			c-0.2,0.3-0.3,0.6-0.5,0.9c-1.7,3.5-3.3,7-4.6,10.7c-1.4,3.6-2.6,7.4-3.5,11.3c-0.5,1.9-0.8,3.9-1.1,6c-0.3,2-0.4,4.1-0.3,6.2
			c0.1,2.1,0.4,4.4,1.2,6.6c0.4,1.1,0.9,2.2,1.6,3.3c0.7,1,1.6,2,2.6,2.8c1,0.8,2.2,1.4,3.3,1.8c1.2,0.4,2.3,0.6,3.5,0.7
			c2.3,0.2,4.4-0.1,6.4-0.6c4-1,7.5-2.7,10.9-4.5c3.4-1.9,6.5-4,9.6-6.2c3-2.2,5.9-4.5,8.7-6.8c-0.8-0.1-1.6-0.3-2.3-0.5
			c-2.6,1.8-5.2,3.5-7.8,5.1c-3.2,1.9-6.5,3.6-9.8,5c-3.3,1.4-6.8,2.5-10.2,2.9c-1.7,0.2-3.3,0.2-4.8-0.1c-1.4-0.3-2.6-0.9-3.4-1.7
			c-0.8-0.8-1.3-1.9-1.7-3.3c-0.3-1.3-0.3-2.9-0.2-4.5c0.2-3.2,1.2-6.5,2.3-9.8c1.6-4.7,3.8-9.2,6.2-13.7c1-1.9,2-3.7,3.1-5.6
			c1.8-3.1,3.8-6.2,5.7-9.2c2-3,4.1-6,6.2-8.9c4.3-5.9,8.8-11.6,13.4-17.2c4.7-5.6,9.5-11,14.6-16.2c5-5.2,10.3-10.2,15.8-14.9
			c0.9-0.8,1.8-1.5,2.8-2.3c0.5-0.4,0.9-0.8,1.4-1.1c1.4-1.1,2.8-2.2,4.3-3.3c2.9-2.1,5.8-4.1,8.9-5.8c3-1.7,6.2-3.2,9.3-4
			c1.5-0.4,3.1-0.6,4.5-0.5c1.4,0.1,2.6,0.4,3.5,1.1c1,0.7,1.7,1.7,2.3,3.1c0.5,1.4,0.8,3,0.9,4.7c0.1,1.7,0,3.4-0.2,5.2
			c-0.2,1.8-0.5,3.5-0.9,5.3c-0.8,3.5-1.9,7.1-3.2,10.5c-1.3,3.5-2.8,6.9-4.4,10.2c-0.2,0.4-0.4,0.8-0.6,1.1
			c0.3,0.6,0.5,1.3,0.7,1.9c0.5-0.7,0.9-1.5,1.3-2.3c3.8-6.5,7.2-13.2,9.8-20.5c1.2-3.6,2.3-7.4,2.5-11.5
			C356.4,321,356.3,318.8,355.8,316.6z"/>
	</g>
	<g>
		<g>
			<rect x="795.6" y="727" class="st36" width="71.6" height="9.3"/>
			<rect x="795.6" y="849.6" class="st36" width="39.9" height="12.5"/>
			<rect x="796.4" y="758.6" class="st35" width="53.3" height="2.6"/>
			<rect x="813" y="822" class="st35" width="36.7" height="2.6"/>
			<rect x="797.2" y="881.1" class="st35" width="111.7" height="2.6"/>
			<rect x="797.2" y="885.3" class="st35" width="111.7" height="2.6"/>
			<rect x="797.2" y="889.5" class="st35" width="111.7" height="2.6"/>
			<rect x="797.2" y="893.6" class="st35" width="111.7" height="2.6"/>
			<rect x="796.4" y="767.1" class="st41" width="112.5" height="9.2"/>
			<rect x="796.4" y="791.1" class="st35" width="53.3" height="2.6"/>
			<rect x="796.4" y="799.6" class="st41" width="112.5" height="9.2"/>
			<rect x="799.7" y="817.1" class="st41" width="6.7" height="6.7"/>
			<g class="st7">
				<path class="st37" d="M923,711.3V904H780.4V711.3H923 M927,707.3H776.5v200.6H927V707.3L927,707.3z"/>
			</g>
		</g>
		<g>
			<rect x="617.7" y="663" class="st35" width="321.2" height="32.7"/>
			<circle class="st37" cx="633.3" cy="678.6" r="7.6"/>
			<rect x="917.2" y="671.1" class="st37" width="15.1" height="3"/>
			<rect x="917.2" y="683.1" class="st37" width="15.1" height="3"/>
			<rect x="917.2" y="677.1" class="st37" width="15.1" height="3"/>
		</g>
		<g>
			<rect x="640.6" y="850.3" class="st36" width="110" height="7.6"/>
			<rect x="640.6" y="867.8" class="st35" width="110" height="2.6"/>
			<rect x="640.6" y="874.5" class="st35" width="110" height="2.6"/>
			<rect x="640.6" y="881.1" class="st35" width="110" height="2.6"/>
			<rect x="640.6" y="887.8" class="st35" width="110" height="2.6"/>
			<g>
				<g class="st42">
					<g>
						<path class="st37" d="M695.6,734.6c27.6,0,50,22.4,50,50s-22.4,50-50,50s-50-22.4-50-50S668,734.6,695.6,734.6 M695.6,729.6
							c-30.4,0-55,24.6-55,55c0,30.4,24.6,55,55,55c30.4,0,55-24.6,55-55C750.6,754.2,725.9,729.6,695.6,729.6L695.6,729.6z"/>
					</g>
				</g>
				<g class="st31">
					<g>
						<path class="st37" d="M688.9,788c-0.3,0-0.5,0-0.8-0.1c-0.1,0-0.2-0.1-0.2-0.3s0.1-0.2,0.2-0.2c0,0,0,0,0,0
							c0.7,0,1.3-0.2,1.9-0.6c0.3-0.2,0.5-0.4,0.7-0.7c0.2-0.3,0.4-0.5,0.5-0.8c0.1-0.1,0.2-0.4,0.3-0.6c0.1-0.2,0.2-0.3,0.3-0.5
							c0.2-0.3,0.5-0.6,0.7-0.9c0.5-0.6,1-1.1,1.6-1.7c1.1-1.1,2.4-2,3.7-2.8c1.4-0.8,2.8-1.5,4.2-1.9c1.5-0.5,3-0.7,4.4-0.7l0.2,0
							c1.6,0,3.2,0.4,4.6,0.9c1.3,0.5,2.7,1.3,3.9,2.4c1.1,1,2.2,2.1,3,3.4c0.1,0.1,0.1,0.2,0,0.3c0,0-0.1,0.1-0.2,0.1
							c-0.1,0-0.1,0-0.2-0.1c-0.1-0.1-0.2-0.2-0.3-0.3c-0.2-0.2-0.3-0.3-0.5-0.4l-0.4-0.4l-0.4-0.4c-0.5-0.5-1.1-0.9-1.7-1.3
							c-1.2-0.9-2.5-1.5-3.8-1.9c-1.3-0.4-2.6-0.6-4-0.6l-0.1,0c-1.3,0-2.7,0.3-4.1,0.7c-1.3,0.4-2.6,1-3.9,1.7
							c-0.7,0.4-1.3,0.8-1.8,1.2c-0.6,0.4-1.2,0.9-1.7,1.3c-0.6,0.5-1.1,1-1.6,1.5c-0.2,0.3-0.5,0.5-0.7,0.8
							c-0.1,0.1-0.2,0.3-0.3,0.4c-0.1,0.1-0.1,0.2-0.2,0.3l-0.1,0.1c-0.4,0.8-1.1,1.4-1.8,1.8C690,787.9,689.4,788,688.9,788z"/>
						<path class="st37" d="M706.4,776.5c0.1,0,0.2,0,0.2,0c1.6,0,3.1,0.3,4.5,0.9c1.4,0.6,2.7,1.4,3.9,2.4c1.1,1,2.1,2.1,3,3.3
							c-0.3-0.3-0.5-0.5-0.8-0.8l-0.4-0.4l-0.4-0.4c-0.6-0.5-1.1-0.9-1.7-1.4c-1.2-0.8-2.5-1.5-3.8-2c-1.3-0.4-2.7-0.7-4-0.7
							c-0.1,0-0.1,0-0.2,0c-1.4,0-2.8,0.3-4.2,0.7c-1.4,0.4-2.7,1-3.9,1.8c-0.6,0.4-1.2,0.8-1.8,1.2c-0.6,0.4-1.2,0.9-1.7,1.3
							c-0.6,0.5-1.1,1-1.6,1.5c-0.3,0.3-0.5,0.5-0.7,0.8c-0.1,0.1-0.2,0.3-0.3,0.4c-0.1,0.1-0.2,0.3-0.3,0.5c-0.4,0.7-1,1.3-1.7,1.7
							c-0.5,0.2-1,0.4-1.5,0.4c-0.2,0-0.5,0-0.7-0.1c0,0,0,0,0,0c0.7,0,1.4-0.2,2-0.6c0.3-0.2,0.5-0.5,0.7-0.7
							c0.2-0.3,0.4-0.6,0.5-0.9c0.1-0.1,0.2-0.4,0.3-0.5c0.1-0.2,0.2-0.3,0.3-0.5c0.2-0.3,0.5-0.6,0.7-0.9c0.5-0.6,1-1.1,1.6-1.7
							c1.1-1,2.3-2,3.6-2.8c1.3-0.8,2.7-1.5,4.2-1.9C703.4,776.7,704.9,776.5,706.4,776.5 M706.4,776c-1.5,0-3,0.2-4.5,0.7
							c-1.4,0.4-2.9,1.1-4.3,2c-1.3,0.8-2.5,1.7-3.7,2.8c-0.6,0.6-1.1,1.1-1.6,1.7c-0.2,0.3-0.5,0.6-0.7,1c-0.1,0.2-0.2,0.3-0.3,0.5
							c-0.1,0.2-0.2,0.5-0.3,0.6c-0.1,0.3-0.3,0.5-0.5,0.8c-0.2,0.2-0.4,0.5-0.6,0.6c-0.5,0.4-1.1,0.6-1.7,0.6
							c-0.3,0-0.5,0.2-0.5,0.4c0,0.3,0.1,0.5,0.4,0.5c0.3,0.1,0.6,0.1,0.8,0.1c0.6,0,1.2-0.1,1.8-0.4c0.8-0.4,1.4-1,1.9-1.9l0.1-0.1
							c0.1-0.1,0.1-0.2,0.2-0.3c0.1-0.1,0.2-0.3,0.3-0.4c0.2-0.3,0.5-0.5,0.7-0.8c0.5-0.5,1-1,1.6-1.4c0.5-0.4,1.1-0.9,1.7-1.3
							c0.5-0.4,1.1-0.8,1.8-1.2c1.3-0.7,2.6-1.3,3.8-1.7c1.4-0.4,2.7-0.7,4.1-0.7l0.1,0c1.3,0,2.6,0.2,3.9,0.6
							c1.2,0.4,2.5,1.1,3.7,1.9c0.6,0.4,1.2,0.9,1.7,1.3l0.4,0.4l0.4,0.4c0.2,0.1,0.3,0.3,0.5,0.4c0.1,0.1,0.2,0.2,0.3,0.3
							c0.1,0.1,0.2,0.1,0.3,0.1c0.1,0,0.2,0,0.3-0.1c0.2-0.2,0.2-0.5,0.1-0.7c-0.9-1.3-1.9-2.4-3.1-3.4c-1.3-1.1-2.7-1.9-4-2.5
							c-1.5-0.6-3.1-0.9-4.7-1L706.4,776L706.4,776z"/>
					</g>
					<g>
						<path class="st37" d="M685.7,786.7c-0.1,0-0.2-0.1-0.2-0.2c-0.1-0.4-0.1-0.7-0.1-1.1c0-0.2,0-0.4,0-0.5c0-0.3-0.1-0.5-0.1-0.8
							l0-0.2c0-0.1,0-0.1,0-0.2l-0.1-0.4c0-0.3-0.1-0.5-0.1-0.8c0-0.2-0.1-0.4-0.1-0.6l-0.1-0.6l-0.1-0.7c0-0.2-0.1-0.3-0.1-0.5
							c-0.2-1-0.4-1.9-0.8-3c-0.3-1.1-0.7-2.1-1.1-3c0-0.1,0-0.2,0.1-0.3c0,0,0.1,0,0.1,0c0.1,0,0.1,0,0.2,0.1
							c0.8,0.6,1.4,1.5,2,2.7c0.5,1,0.9,2.1,1.1,3.2c0,0.2,0.1,0.4,0.1,0.6l0.1,0.7c0,0.2,0,0.3,0,0.4l0,0.2c0,0.2,0,0.4,0,0.6
							c0,0.3,0,0.6,0,0.8c0,0.3,0,0.6-0.1,0.9c0,0.3-0.1,0.5-0.1,0.8c0,0.1-0.1,0.3-0.1,0.4c0,0.2-0.1,0.3-0.1,0.4
							c-0.1,0.3-0.2,0.5-0.3,0.8C685.9,786.6,685.8,786.7,685.7,786.7C685.7,786.7,685.7,786.7,685.7,786.7z"/>
						<path class="st37" d="M683,774.2c0.8,0.7,1.5,1.7,2,2.6c0.5,1,0.9,2.1,1.1,3.1c0.1,0.3,0.1,0.5,0.1,0.8l0.1,0.4
							c0,0.1,0,0.3,0,0.4c0,0.3,0,0.6,0,0.8c0,0.3,0,0.6,0,0.8c0,0.3,0,0.6-0.1,0.8c0,0.3-0.1,0.5-0.1,0.8c0,0.1-0.1,0.3-0.1,0.4
							c0,0.1-0.1,0.3-0.1,0.4c-0.1,0.3-0.2,0.5-0.3,0.8c-0.1-0.6-0.1-1.1-0.2-1.6c0-0.3-0.1-0.5-0.1-0.8c0-0.1,0-0.3,0-0.4
							c0-0.1,0-0.3-0.1-0.4c0-0.3-0.1-0.5-0.1-0.8c0-0.3-0.1-0.5-0.1-0.8l-0.1-0.4l-0.1-0.4c0-0.3-0.1-0.5-0.1-0.8
							c-0.2-1-0.5-2-0.8-3C683.8,776.2,683.5,775.2,683,774.2 M683,773.7c-0.1,0-0.2,0-0.3,0.1c-0.2,0.1-0.3,0.4-0.2,0.6
							c0.4,0.9,0.7,1.9,1.1,3c0.3,1,0.6,2,0.8,3c0,0.2,0.1,0.3,0.1,0.5c0,0.1,0,0.2,0.1,0.3l0.1,0.4l0,0.4l0,0.2
							c0,0.2,0.1,0.4,0.1,0.6c0,0.2,0,0.5,0.1,0.8c0,0.1,0,0.2,0,0.3l0,0.1c0,0.1,0,0.1,0,0.2c0,0.1,0,0.1,0,0.2
							c0,0.3,0,0.5,0.1,0.8c0,0.2,0,0.4,0,0.5c0,0.4,0.1,0.7,0.1,1.1c0,0.2,0.2,0.4,0.4,0.4c0,0,0,0,0.1,0c0.2,0,0.4-0.1,0.5-0.3
							c0.1-0.3,0.2-0.5,0.3-0.8c0-0.1,0.1-0.2,0.1-0.3l0-0.1c0-0.1,0.1-0.3,0.1-0.5c0-0.3,0.1-0.5,0.1-0.8c0.1-0.3,0.1-0.6,0.1-0.9
							c0-0.3,0-0.6,0-0.8c0-0.2,0-0.4,0-0.6l0-0.2c0-0.1,0-0.3,0-0.4l-0.1-0.4l0-0.3c0-0.2-0.1-0.4-0.1-0.6
							c-0.2-1.1-0.6-2.2-1.1-3.3c-0.6-1.2-1.3-2.1-2.1-2.8C683.3,773.7,683.2,773.7,683,773.7L683,773.7z"/>
					</g>
					<g>
						<path class="st37" d="M687.1,756.5c-0.1,0-0.2,0-0.2-0.1c-0.1-0.1-0.2-0.3-0.3-0.4c-0.1-0.1-0.1-0.2-0.2-0.3l0.2-0.2l-0.2,0.1
							c-0.1-0.1-0.1-0.2-0.2-0.3c0,0-0.1-0.1-0.1-0.1l-0.1-0.1l0.1-0.3l-0.2,0.2c-0.2-0.2-0.4-0.3-0.7-0.4c-0.2-0.1-0.5-0.2-0.8-0.3
							l-0.1,0c-0.1,0-0.1-0.1-0.2-0.2c0-0.1,0-0.2,0.1-0.2c0.3-0.3,0.7-0.4,1.2-0.4c0.5,0,0.9,0.2,1.3,0.4c0.1,0,0.1,0.1,0.1,0.1
							l0.1,0.1c0.1,0.1,0.2,0.2,0.2,0.3c0.1,0.1,0.1,0.2,0.1,0.3c0,0.1,0.1,0.2,0.1,0.3c0,0.1,0,0.2,0,0.3c0,0.1,0,0.2,0,0.3
							c0,0.1,0,0.2-0.1,0.3c0,0.1-0.1,0.2-0.1,0.3C687.3,756.4,687.2,756.5,687.1,756.5C687.1,756.5,687.1,756.5,687.1,756.5z"/>
						<path class="st37" d="M685.5,753.8c0.4,0,0.8,0.1,1.1,0.4c0,0,0.1,0.1,0.1,0.1l0.1,0.1c0.1,0.1,0.1,0.2,0.2,0.2
							c0,0.1,0.1,0.2,0.1,0.3c0,0.1,0.1,0.2,0.1,0.3c0,0.1,0,0.2,0,0.3c0,0.1,0,0.2,0,0.3c0,0.1,0,0.2-0.1,0.3
							c0,0.1-0.1,0.2-0.1,0.3c-0.1-0.2-0.2-0.3-0.3-0.4c0-0.1-0.1-0.1-0.1-0.2c0,0,0-0.1-0.1-0.1c0,0,0-0.1-0.1-0.1
							c0-0.1-0.1-0.1-0.1-0.2c0,0-0.1-0.1-0.1-0.1c0-0.1-0.1-0.1-0.1-0.1l-0.1-0.1c0,0-0.1,0-0.1-0.1c-0.2-0.2-0.4-0.3-0.7-0.4
							c-0.3-0.1-0.6-0.2-0.9-0.3C684.7,753.9,685.1,753.8,685.5,753.8C685.5,753.8,685.5,753.8,685.5,753.8 M685.5,753.3
							L685.5,753.3c-0.5,0-1,0.2-1.3,0.5c-0.1,0.1-0.2,0.3-0.2,0.5c0,0.2,0.2,0.3,0.3,0.4l0.1,0c0.3,0.1,0.5,0.2,0.8,0.3
							c0.2,0.1,0.4,0.2,0.6,0.3c0,0,0.1,0,0.1,0l0,0l0.1,0.1c0,0,0,0,0,0c0,0.1,0.1,0.1,0.1,0.1c0,0.1,0.1,0.1,0.1,0.2
							c0,0,0,0,0,0.1c0,0,0,0.1,0.1,0.1c0,0.1,0.1,0.1,0.1,0.2l0,0c0.1,0.1,0.2,0.3,0.3,0.4c0.1,0.1,0.2,0.2,0.4,0.2c0,0,0,0,0.1,0
							c0.2,0,0.3-0.1,0.4-0.3c0.1-0.1,0.1-0.2,0.1-0.3c0-0.1,0.1-0.2,0.1-0.3c0-0.1,0-0.2,0-0.3c0-0.1,0-0.3-0.1-0.4
							c0-0.1,0-0.2-0.1-0.3c0,0,0,0,0,0c0-0.1-0.1-0.2-0.1-0.3l0,0c0-0.1-0.1-0.2-0.2-0.3l0,0l-0.1-0.1c-0.1-0.1-0.1-0.1-0.1-0.1
							C686.5,753.5,686,753.3,685.5,753.3L685.5,753.3z"/>
					</g>
					<g>
						<path class="st37" d="M671.1,759.6c0,0-0.1,0-0.1,0c-0.6-0.3-1-0.7-1.3-1.3c-0.4-0.6-0.5-1.3-0.3-2c0.2-0.6,0.5-1.2,1.1-1.6
							c0.5-0.4,1.1-0.6,1.7-0.7c0,0,0,0,0,0c0.1,0,0.2,0.1,0.2,0.1c0,0.1,0,0.2-0.1,0.3c-0.4,0.4-0.8,0.7-1.1,1.1
							c-0.3,0.4-0.5,0.8-0.6,1.1c-0.1,0.4-0.1,0.8,0.1,1.2c0.1,0.4,0.3,0.7,0.5,1.1l0.1,0.3c0,0.1,0,0.2-0.1,0.3
							C671.2,759.6,671.2,759.6,671.1,759.6z"/>
						<path class="st37" d="M672.1,754.3c-0.4,0.4-0.8,0.7-1.1,1.1c-0.3,0.4-0.5,0.8-0.6,1.2c-0.1,0.4-0.1,0.9,0.1,1.3
							c0.1,0.5,0.4,0.9,0.6,1.5c-0.5-0.3-0.9-0.7-1.2-1.2c-0.3-0.5-0.5-1.2-0.3-1.8c0.2-0.6,0.6-1.1,1-1.5
							C671,754.6,671.6,754.4,672.1,754.3 M672.1,753.8C672.1,753.8,672.1,753.8,672.1,753.8c-0.7,0.1-1.3,0.3-1.9,0.7
							c-0.6,0.5-1.1,1.1-1.2,1.8c-0.2,0.7,0,1.5,0.4,2.2c0.3,0.6,0.8,1,1.4,1.3c0.1,0,0.2,0.1,0.2,0.1c0.1,0,0.2,0,0.3-0.1
							c0.2-0.1,0.2-0.4,0.1-0.6l-0.1-0.3c-0.2-0.4-0.4-0.8-0.5-1.1c-0.1-0.4-0.1-0.7-0.1-1.1c0.1-0.3,0.3-0.6,0.5-1
							c0.3-0.4,0.7-0.7,1.1-1.1c0.2-0.1,0.2-0.4,0.1-0.6C672.5,753.9,672.3,753.8,672.1,753.8L672.1,753.8z"/>
					</g>
					<g>
						<path class="st37" d="M679.2,763.5c-0.5,0-0.9-0.2-1.3-0.5c-0.3-0.3-0.5-0.8-0.5-1.7c0-0.1,0-0.1,0.1-0.2c0,0,0.1-0.1,0.2-0.1
							c0,0,0,0,0,0c0.1,0,1.7,0.2,2.6,1.7c0.1,0.1,0,0.2,0,0.3C680.1,763.4,679.7,763.5,679.2,763.5z"/>
						<path class="st37" d="M677.8,761.3c0,0,1.6,0.2,2.5,1.6c-0.2,0.2-0.6,0.4-1,0.4C678.5,763.3,677.7,762.7,677.8,761.3
							 M677.8,760.8c-0.1,0-0.2,0-0.3,0.1c-0.1,0.1-0.2,0.2-0.2,0.3c-0.1,1,0.2,1.6,0.5,1.9c0.4,0.4,0.9,0.6,1.4,0.6
							c0.5,0,1-0.2,1.3-0.5c0.2-0.2,0.2-0.4,0.1-0.6C679.7,761.1,677.9,760.8,677.8,760.8C677.8,760.8,677.8,760.8,677.8,760.8
							L677.8,760.8z"/>
					</g>
					<g>
						<path class="st37" d="M680.6,770.8c-0.2,0-0.4,0-0.5,0c-0.5-0.1-1.1-0.2-1.7-0.5c-0.5-0.2-1-0.5-1.4-0.9
							c-0.5-0.4-0.8-0.7-1.2-1.1c-0.1-0.1-0.1-0.2,0-0.3c0-0.1,0.1-0.1,0.2-0.1c0.1,0,0.1,0,0.1,0c0.9,0.6,1.7,1.1,2.6,1.3
							c0.4,0.1,0.9,0.2,1.3,0.2c0.5,0,0.9-0.1,1.4-0.2c0.5-0.1,0.9-0.3,1.3-0.4c0.5-0.2,0.8-0.4,1.1-0.7c0.4-0.3,0.7-0.6,0.9-1
							c0.1-0.1,0.2-0.3,0.3-0.4l0.1-0.2c0-0.1,0.1-0.1,0.1-0.2l0.1-0.2c0-0.1,0.1-0.1,0.1-0.2l0.1-0.3c-0.9-0.2-1.2-0.8-1.3-1.1
							c-0.1-0.1,0-0.3,0.1-0.4c0.1-0.1,0.3-0.1,1-0.1c0,0,0,0,0,0c-0.4-0.6-0.6-1.3-0.6-2c0-0.2,0-0.3,0.1-0.5c0,0,0.1-0.3,0.1-0.3
							c0.1-0.2,0.1-0.4,0.1-0.7c0.1-0.9,0-1.8-0.4-2.7c-0.3-0.8-0.9-1.6-1.7-2.3c-0.1-0.1-0.1-0.2,0-0.3c0-0.1,0.1-0.1,0.2-0.1
							c0,0,0.1,0,0.1,0l0.1,0.1c0.2,0.1,0.4,0.2,0.6,0.4l0.2,0.1c0.2,0.1,0.3,0.2,0.4,0.4c0,0,0.2,0.2,0.3,0.3l0.3,0.3
							c0.1,0.1,0.2,0.2,0.3,0.3l0.1,0.1c0.1,0.1,0.1,0.2,0.2,0.2c0.6,0.9,0.9,2.1,0.9,3.3c0,0.3,0,0.6-0.1,0.9c0,0.1,0,0.1,0,0.2
							l0,0.2c0,0.1,0,0.2,0,0.2c0,0.3,0.1,0.7,0.3,0.9c0,0,0.1,0.1,0.1,0.1l0.1,0.1l-0.1,0.3l0.2-0.2l0.1,0.1
							c0.1,0.1,0.1,0.2,0.2,0.3c0.2,0.4,0.4,0.8,0.3,1.3l0,0.2c0,0.1,0,0.1,0,0.2l-0.2,0.6c0,0.1-0.1,0.2-0.1,0.3l-0.2,0.5
							c-0.3,0.8-1,2-2.1,2.8c-0.4,0.3-0.9,0.6-1.5,0.8c-0.3,0.1-0.5,0.2-0.8,0.3c-0.3,0.1-0.6,0.1-0.8,0.2c-0.1,0-0.3,0-0.4,0
							c-0.1,0-0.3,0-0.4,0C680.8,770.8,680.7,770.8,680.6,770.8z"/>
						<path class="st37" d="M683,755.4c0.2,0.1,0.4,0.3,0.7,0.4c0.2,0.2,0.4,0.3,0.6,0.5c0.1,0.1,0.2,0.2,0.3,0.3l0.3,0.3
							c0.1,0.1,0.2,0.2,0.2,0.3c0.1,0.1,0.2,0.2,0.2,0.3c0.6,0.9,0.9,2,0.9,3.1c0,0.3,0,0.6-0.1,0.8c0,0.1,0,0.1,0,0.2l0,0.2
							c0,0.1,0,0.2,0,0.3c0,0.4,0.1,0.8,0.4,1.1c0,0,0.1,0.1,0.1,0.1l0.1,0.1l0.1,0.1c0,0,0.1,0.1,0.1,0.1c0.1,0.1,0.1,0.1,0.2,0.2
							c0.2,0.3,0.3,0.7,0.3,1.1c0,0,0,0.1,0,0.1c0,0,0,0.1,0,0.1l-0.1,0.2l-0.1,0.4c0,0.1-0.1,0.3-0.1,0.4l-0.1,0.4
							c-0.4,1-1.1,2-2,2.7c-0.4,0.3-1,0.6-1.5,0.8c-0.3,0.1-0.5,0.2-0.8,0.3c-0.3,0.1-0.5,0.1-0.8,0.2c-0.1,0-0.3,0-0.4,0
							c-0.1,0-0.3,0-0.4,0c-0.1,0-0.2,0-0.3,0c-0.2,0-0.3,0-0.5,0c-0.6-0.1-1.1-0.2-1.6-0.4c-0.5-0.2-0.9-0.5-1.4-0.8
							c-0.4-0.3-0.8-0.7-1.1-1.1c0.8,0.6,1.7,1.1,2.7,1.3c0.4,0.1,0.9,0.2,1.3,0.2c0,0,0.1,0,0.1,0c0.4,0,1-0.1,1.4-0.2
							c0.5-0.1,0.9-0.3,1.3-0.5c0.4-0.2,0.8-0.4,1.2-0.7c0.3-0.3,0.7-0.6,0.9-1c0.1-0.2,0.2-0.4,0.4-0.6c0.1-0.1,0.1-0.2,0.2-0.3
							c0-0.1,0.1-0.2,0.1-0.3l0.1-0.3c0-0.1,0.1-0.2,0.1-0.3c-1,0-1.3-0.8-1.5-1.1c0.1-0.1,0.5-0.1,0.9-0.1c0.2,0,0.4,0,0.5,0
							l-0.1-0.1c0-0.1-0.1-0.1-0.1-0.2c-0.1-0.1-0.1-0.1-0.2-0.2c-0.4-0.5-0.6-1.2-0.5-1.8c0-0.2,0-0.3,0.1-0.5l0-0.2
							c0-0.1,0-0.1,0-0.2c0.1-0.2,0.1-0.5,0.1-0.7c0.1-0.9,0-1.9-0.4-2.8C684.4,756.9,683.8,756.1,683,755.4 M683,754.9
							c-0.1,0-0.3,0.1-0.4,0.2c-0.2,0.2-0.1,0.5,0,0.7c0.8,0.7,1.3,1.5,1.6,2.3c0.3,0.8,0.5,1.7,0.4,2.6c0,0.2-0.1,0.4-0.1,0.6
							c0,0.1,0,0.1,0,0.2l0,0.2c0,0.2-0.1,0.3-0.1,0.6c0,0.6,0.1,1.2,0.4,1.8c-0.4,0-0.6,0.1-0.7,0.1c-0.2,0.1-0.3,0.4-0.2,0.7
							l0,0.1c0.1,0.3,0.5,0.9,1.2,1.2l0,0.1c0,0.1,0,0.1-0.1,0.2l-0.1,0.1c0,0,0,0.1-0.1,0.1c0,0,0,0.1-0.1,0.1l-0.1,0.2
							c-0.1,0.1-0.1,0.3-0.2,0.4c-0.2,0.3-0.5,0.6-0.8,0.9c-0.3,0.2-0.6,0.4-1.1,0.7c-0.4,0.2-0.8,0.3-1.2,0.4
							c-0.5,0.1-1,0.2-1.3,0.2l-0.1,0c-0.4,0-0.8-0.1-1.2-0.2c-0.8-0.2-1.7-0.7-2.5-1.3c-0.1-0.1-0.2-0.1-0.3-0.1
							c-0.1,0-0.3,0.1-0.4,0.2c-0.2,0.2-0.2,0.5,0,0.7c0.3,0.4,0.7,0.8,1.2,1.2c0.5,0.4,0.9,0.7,1.5,0.9c0.6,0.3,1.2,0.4,1.7,0.5
							c0.2,0,0.4,0,0.6,0c0.1,0,0.2,0,0.3,0c0.1,0,0.3,0,0.4,0c0.1,0,0.3,0,0.4-0.1c0.3,0,0.5-0.1,0.8-0.2c0.3-0.1,0.6-0.2,0.9-0.3
							c0.6-0.2,1.1-0.5,1.6-0.9c0.9-0.7,1.7-1.7,2.2-2.9l0.1-0.4l0-0.1c0-0.1,0.1-0.2,0.1-0.4l0.1-0.4l0.1-0.2c0,0,0-0.1,0-0.1
							c0-0.1,0-0.2,0-0.2c0-0.5-0.1-1-0.4-1.4c-0.1-0.1-0.1-0.2-0.2-0.3c0,0-0.1-0.1-0.1-0.1l-0.1-0.1l-0.1-0.1c0,0,0,0,0-0.1
							c-0.2-0.2-0.3-0.5-0.3-0.8c0-0.1,0-0.1,0-0.2l0-0.2c0-0.1,0-0.2,0-0.2c0-0.3,0.1-0.6,0.1-0.9c0-1.2-0.3-2.4-0.9-3.4
							c0-0.1-0.1-0.2-0.2-0.2l-0.1-0.1c-0.1-0.1-0.2-0.3-0.3-0.4l-0.3-0.3c-0.1-0.1-0.2-0.2-0.3-0.2l-0.1-0.1
							c-0.1-0.1-0.3-0.3-0.5-0.4c-0.1,0-0.1-0.1-0.2-0.1c-0.2-0.2-0.4-0.3-0.6-0.4l-0.1-0.1C683.2,754.9,683.1,754.9,683,754.9
							L683,754.9z"/>
					</g>
					<g>
						<path class="st37" d="M684,801c-0.1,0-0.1,0-0.2-0.1c-0.5-0.5-1.1-1-1.6-1.4c-0.1-0.1-0.3-0.2-0.4-0.3l-1.3-1
							c-0.1-0.1-0.2-0.2-0.4-0.3l-0.9-0.8c-0.1-0.1-0.3-0.2-0.4-0.4l-0.1-0.1c-0.5-0.5-1-1-1.4-1.5c-0.9-1-1.8-2.2-2.6-3.6l-0.4-0.6
							c-0.1-0.1-0.1-0.2-0.2-0.4l-0.5-1c0,0,0-0.1,0-0.1c-0.3-0.6-0.6-1.3-0.8-2c-1-2.8-1.4-5.9-1.3-8.8c0.1-1.4,0.3-2.9,0.6-4.4
							c0.4-1.7,0.9-3,1.5-4.2c0-0.1,0.1-0.1,0.2-0.1c0,0,0.1,0,0.1,0c0.1,0,0.2,0.2,0.1,0.3c-0.4,1.3-0.7,2.7-0.9,4.2
							c-0.2,1.4-0.3,2.8-0.3,4.2c0,2.9,0.5,5.6,1.5,8.2c0.5,1.4,1.1,2.6,1.7,3.8l0.3,0.5l0.6,1c0.1,0.1,0.1,0.2,0.2,0.3l0.8,1.1
							l0.5,0.6c0.3,0.4,0.6,0.8,0.9,1.1c0.1,0.2,0.3,0.3,0.4,0.5c0.1,0.1,0.2,0.3,0.3,0.4l0.6,0.7c0.2,0.2,0.3,0.3,0.5,0.5l1.2,1.1
							c0.1,0.1,0.3,0.3,0.4,0.4c0.5,0.5,0.9,1.1,1.4,1.7c0.1,0.1,0.1,0.2,0,0.3C684.1,801,684.1,801,684,801z"/>
						<path class="st37" d="M673.8,770.2c-0.4,1.4-0.7,2.8-0.9,4.2c-0.2,1.4-0.3,2.8-0.3,4.3c0,2.8,0.5,5.7,1.5,8.3
							c0.5,1.3,1,2.6,1.7,3.8c0.1,0.2,0.2,0.3,0.3,0.5l0.3,0.4l0.3,0.5c0.1,0.2,0.2,0.3,0.3,0.4l0.6,0.9c0.1,0.1,0.1,0.1,0.2,0.2
							l0.2,0.2l0.3,0.4c0.4,0.6,0.9,1.1,1.4,1.6c0.1,0.1,0.2,0.3,0.4,0.4l0.4,0.4c0.2,0.3,0.5,0.5,0.7,0.8l0.8,0.7l0.4,0.4
							c0.1,0.1,0.3,0.3,0.4,0.4c0.5,0.5,1,1.1,1.4,1.7c-0.5-0.5-1.1-1-1.6-1.4c-0.1-0.1-0.3-0.2-0.4-0.3l-0.4-0.3l-0.9-0.7
							c-0.1-0.1-0.3-0.2-0.4-0.4l-0.4-0.4l-0.4-0.4c-0.1-0.1-0.3-0.2-0.4-0.4c-0.5-0.5-1-1-1.5-1.6c-1-1.1-1.9-2.3-2.6-3.6l-0.3-0.5
							c-0.1-0.2-0.2-0.3-0.3-0.5l-0.5-1c-0.3-0.7-0.6-1.4-0.8-2.1c-1-2.8-1.4-5.8-1.3-8.7c0.1-1.5,0.3-2.9,0.6-4.4
							C672.7,772.9,673.2,771.5,673.8,770.2 M673.8,769.7c-0.2,0-0.4,0.1-0.4,0.3c-0.6,1.2-1.1,2.5-1.5,4.2c-0.4,1.5-0.6,3-0.6,4.5
							c-0.2,3,0.3,6.1,1.3,8.9c0.2,0.7,0.5,1.4,0.8,2l0,0.1l0.5,1c0.1,0.1,0.1,0.3,0.2,0.4l0.1,0.1l0.3,0.5c0.9,1.4,1.7,2.6,2.7,3.7
							c0.4,0.5,0.9,1,1.4,1.5l0.1,0.1c0.1,0.1,0.3,0.3,0.4,0.4l0.4,0.4l0.4,0.4l0.1,0.1c0.1,0.1,0.2,0.2,0.4,0.3l0.9,0.7l0.4,0.3
							c0.1,0.1,0.3,0.2,0.4,0.3c0.5,0.4,1.1,0.9,1.6,1.4c0.1,0.1,0.2,0.1,0.3,0.1c0.1,0,0.2,0,0.3-0.1c0.2-0.2,0.2-0.5,0.1-0.7
							c-0.5-0.7-0.9-1.2-1.4-1.7c-0.1-0.1-0.3-0.3-0.4-0.4l-0.4-0.4l-0.8-0.7c-0.2-0.2-0.3-0.3-0.5-0.5c-0.1-0.1-0.2-0.2-0.3-0.3
							l-0.4-0.4c-0.1-0.1-0.2-0.2-0.3-0.4c-0.2-0.2-0.3-0.4-0.4-0.5c-0.3-0.4-0.6-0.7-0.9-1.1l-0.3-0.4l-0.2-0.2c0,0,0-0.1-0.1-0.1
							l-0.1-0.1l-0.6-0.9c-0.1-0.1-0.1-0.2-0.2-0.3l-0.1-0.1l-0.3-0.5l-0.3-0.5c0-0.1-0.1-0.2-0.2-0.3l-0.1-0.2
							c-0.7-1.2-1.2-2.4-1.7-3.8c-0.9-2.6-1.4-5.3-1.4-8.1c0-1.4,0.1-2.8,0.2-4.2c0.2-1.5,0.5-2.9,0.9-4.1c0.1-0.2-0.1-0.5-0.3-0.6
							C673.9,769.7,673.9,769.7,673.8,769.7L673.8,769.7z"/>
					</g>
					<g>
						<path class="st37" d="M672.1,815.4c-0.3,0-0.5,0-0.8-0.1c-0.4-0.1-0.7-0.3-1-0.6c-0.1-0.1-0.1-0.1-0.2-0.2
							c0,0-0.1-0.1-0.1-0.1c0-0.1-0.1-0.1-0.1-0.2c-0.1-0.2-0.1-0.5-0.1-0.8c0-0.1,0.1-0.3,0.1-0.4c0-0.1,0.1-0.1,0.1-0.2
							c0,0,0.5-0.6,0.5-0.6l0.3-0.5l0.1-0.2c0.1-0.2,0.2-0.3,0.3-0.5l0.1-0.2c0-0.1,0.1-0.1,0.1-0.2l0.2-0.4c0.2-0.5,0.4-1,0.5-1.5
							c0.2-1,0.3-2,0.2-3.1c-0.1-1-0.3-2-0.8-3c-0.1-0.2-0.2-0.5-0.3-0.8l-0.2-0.4c0-0.1-0.1-0.2-0.1-0.3l0-0.2
							c-0.2-0.6-0.3-1.2-0.3-1.8c-0.2-2.4,0.7-4.9,2.4-6.7c0-0.1,0.1-0.1,0.2-0.1c0.1,0,0.1,0,0.2,0.1c0.1,0.1,0.1,0.2,0.1,0.3
							c-1.2,2-1.6,4.2-1.3,6.2c0.1,0.5,0.2,1,0.4,1.5c0,0,0.1,0.3,0.1,0.4l0.2,0.4c0.1,0.2,0.2,0.5,0.4,0.7c0.3,0.5,0.5,1.1,0.7,1.7
							c0.2,0.6,0.3,1.2,0.3,1.8c0.1,0.6,0.1,1.2,0,1.8c0,0.7-0.1,1.3-0.3,1.8c-0.2,0.6-0.4,1.2-0.7,1.8c-0.3,0.5-0.6,1-1,1.6
							l-0.5,0.5l-0.5,0.5c0,0-0.1,0.1-0.1,0.1c0,0.1,0.1,0.1,0.1,0.1c0.1,0.2,0.3,0.3,0.5,0.4c0.2,0.1,0.4,0.1,0.6,0.2
							c0.1,0,0.1,0,0.1,0l0.1,0l0.3,0c0.1,0,0.1,0,0.2,0c0.6-0.1,1.1-0.3,1.6-0.4c0,0,0.1,0,0.1,0c0.1,0,0.2,0.1,0.2,0.1
							c0.1,0.1,0,0.3-0.1,0.3c-0.6,0.4-1.1,0.6-1.6,0.8c-0.1,0-0.2,0.1-0.3,0.1l-0.1,0l-0.2,0c-0.1,0-0.2,0-0.3,0
							C672.3,815.4,672.2,815.4,672.1,815.4z"/>
						<path class="st37" d="M673.2,792.8c-1.2,2-1.7,4.2-1.4,6.4c0.1,0.5,0.2,1.1,0.4,1.6c0,0.1,0.1,0.3,0.1,0.4l0.2,0.4
							c0.1,0.2,0.2,0.5,0.4,0.8c0.3,0.5,0.5,1.1,0.6,1.7c0.2,0.6,0.3,1.2,0.3,1.8c0.1,0.6,0.1,1.2,0,1.8c0,0.6-0.1,1.2-0.3,1.8
							c-0.2,0.6-0.4,1.2-0.6,1.7c-0.3,0.5-0.6,1.1-1,1.5l-0.3,0.3l-0.1,0.2l-0.2,0.2l-0.3,0.3l0,0c0,0,0,0,0,0c0,0,0,0.1,0,0.1
							c0,0.1,0,0.1,0,0.2c0,0,0,0,0,0c0,0,0,0,0,0.1c0,0,0.1,0.1,0.1,0.1c0.1,0.2,0.3,0.3,0.5,0.4c0.2,0.1,0.5,0.2,0.7,0.2
							c0.1,0,0.1,0,0.2,0c0,0,0,0,0,0c0,0,0,0,0,0c0,0,0.1,0,0.1,0c0,0,0.1,0,0.1,0c0.1,0,0.3,0,0.4,0c0.5-0.1,1.1-0.2,1.6-0.4
							c-0.5,0.3-1,0.6-1.6,0.8c-0.1,0.1-0.3,0.1-0.4,0.1c-0.1,0-0.1,0-0.2,0c-0.1,0-0.2,0-0.2,0c-0.1,0-0.1,0-0.2,0
							c-0.2,0-0.5,0-0.7-0.1c-0.3-0.1-0.6-0.3-0.9-0.5c-0.1-0.1-0.1-0.1-0.2-0.2c0,0-0.1-0.1-0.1-0.1c0,0-0.1-0.1-0.1-0.1
							c-0.1-0.2-0.1-0.4-0.1-0.6c0-0.1,0.1-0.2,0.1-0.3c0,0,0.1-0.1,0.1-0.1c0,0,0,0,0.1-0.1l0-0.1l0.3-0.3l0.1-0.2l0.1-0.2l0.2-0.3
							c0.1-0.2,0.3-0.4,0.4-0.7c0.1-0.1,0.1-0.2,0.2-0.4l0.2-0.4c0.2-0.5,0.4-1,0.5-1.5c0.2-1,0.3-2.1,0.2-3.2
							c-0.1-1.1-0.4-2.1-0.8-3.1c-0.1-0.2-0.2-0.5-0.3-0.8l-0.2-0.4c0-0.1-0.1-0.3-0.1-0.4c-0.2-0.6-0.3-1.2-0.3-1.8
							C670.7,796.9,671.6,794.4,673.2,792.8 M673.2,792.3c-0.1,0-0.3,0.1-0.4,0.2c-1.7,1.8-2.6,4.4-2.4,6.9c0,0.6,0.2,1.3,0.3,1.9
							l0,0.2c0,0.1,0.1,0.2,0.1,0.3l0.2,0.4c0.1,0.3,0.3,0.6,0.4,0.8c0.4,1,0.7,2,0.8,2.9c0.1,1.1,0,2.1-0.2,3.1
							c-0.1,0.5-0.3,0.9-0.5,1.4l-0.2,0.3c0,0.1-0.1,0.1-0.1,0.2c0,0.1-0.1,0.1-0.1,0.2c-0.1,0.2-0.2,0.3-0.3,0.4
							c0,0.1-0.1,0.1-0.1,0.2l-0.2,0.3l-0.1,0.2l-0.1,0.1l-0.3,0.3l0,0c0,0-0.1,0.1-0.1,0.1c0,0-0.1,0.1-0.1,0.2
							c-0.1,0.1-0.1,0.3-0.2,0.5c-0.1,0.3,0,0.6,0.1,0.9c0,0.1,0.1,0.1,0.1,0.2c0.1,0.1,0.1,0.2,0.1,0.2c0,0.1,0.1,0.1,0.2,0.2
							c0.3,0.3,0.6,0.5,1.1,0.6c0.3,0.1,0.6,0.1,0.9,0.1c0.1,0,0.2,0,0.3,0c0.1,0,0.2,0,0.3,0l0.1,0c0.1,0,0.1,0,0.2,0l0.1,0
							c0.1,0,0.2-0.1,0.4-0.1c0.5-0.2,1.1-0.4,1.7-0.8c0.2-0.1,0.3-0.4,0.2-0.6c-0.1-0.2-0.3-0.3-0.4-0.3c-0.1,0-0.1,0-0.2,0
							c-0.5,0.2-1,0.3-1.5,0.4c-0.1,0-0.1,0-0.2,0c-0.1,0-0.1,0-0.2,0l0,0l-0.1,0l-0.1,0c0,0-0.1,0-0.1,0c-0.2,0-0.4-0.1-0.6-0.1
							c-0.2-0.1-0.3-0.2-0.4-0.3c0,0,0,0,0,0l0.3-0.3l0.2-0.2l0.2-0.2l0.3-0.3c0.4-0.6,0.8-1.1,1.1-1.6c0.3-0.6,0.5-1.2,0.7-1.8
							c0.2-0.6,0.3-1.2,0.3-1.9c0-0.6,0-1.3,0-1.9c-0.1-0.6-0.2-1.3-0.3-1.9c-0.2-0.6-0.4-1.2-0.7-1.8c-0.1-0.3-0.2-0.5-0.4-0.7
							l-0.1-0.4c0-0.1-0.1-0.1-0.1-0.2l-0.1-0.1c-0.2-0.5-0.3-1-0.4-1.5c-0.3-2,0.2-4.1,1.3-6c0.1-0.2,0.1-0.5-0.1-0.7
							C673.4,792.3,673.3,792.3,673.2,792.3L673.2,792.3z"/>
					</g>
					<g>
						<path class="st37" d="M685.5,816.2c-0.3,0-0.6,0-0.9-0.1c-0.5-0.2-0.9-0.5-1.2-0.9c-0.1-0.1-0.2-0.2-0.2-0.3
							c-0.1-0.1-0.1-0.2-0.2-0.3c0-0.1-0.1-0.1-0.1-0.2c-0.1-0.2-0.1-0.4-0.2-0.5c-0.1-0.6,0-1.2,0.3-1.7c0-0.1,0.1-0.1,0.1-0.2
							l0.2-0.3c0.1-0.1,0.2-0.2,0.2-0.3l0.1-0.1c0.1-0.1,0.2-0.3,0.3-0.4c0.1-0.2,0.2-0.3,0.2-0.4l0.1-0.1c0.6-1.3,1-2.6,1-4.1
							c0-0.7-0.1-1.4-0.2-2.2c-0.1-0.8-0.3-1.5-0.6-2.2c0-0.1,0-0.2,0.1-0.3c0,0,0.1,0,0.1,0c0.1,0,0.1,0,0.2,0.1
							c0.2,0.3,0.5,0.6,0.7,1c0.2,0.3,0.4,0.7,0.5,1.1c0.3,0.8,0.5,1.6,0.6,2.4c0.2,1.7-0.1,3.4-0.9,4.9c-0.1,0.2-0.2,0.4-0.3,0.6
							c-0.1,0.2-0.2,0.4-0.3,0.5l-0.1,0.1c-0.1,0.1-0.2,0.3-0.3,0.4l-0.3,0.4c-0.1,0.1-0.1,0.3-0.1,0.5c0,0,0,0.1,0,0.1
							c0,0.1,0.1,0.2,0.1,0.2c0,0.1,0.1,0.1,0.1,0.2c0,0.1,0.1,0.1,0.1,0.1c0.2,0.3,0.4,0.5,0.6,0.6c0.2,0.1,0.5,0.2,0.9,0.2
							c0.1,0,0.1,0,0.2,0c0.3,0,0.5,0,0.8-0.1l0.6-0.1c0,0,0.4-0.1,0.6-0.2c0,0,0,0,0.1,0c0.1,0,0.2,0.1,0.2,0.1
							c0.1,0.1,0,0.2-0.1,0.3c-0.8,0.6-1.5,0.9-2.3,1C685.8,816.2,685.7,816.2,685.5,816.2z"/>
						<path class="st37" d="M684.5,801.8c0.3,0.3,0.5,0.6,0.7,1c0.2,0.3,0.4,0.7,0.5,1.1c0.3,0.7,0.5,1.5,0.6,2.3
							c0.2,1.6-0.1,3.3-0.9,4.8c-0.1,0.2-0.2,0.4-0.3,0.5c-0.1,0.2-0.2,0.4-0.3,0.5c-0.1,0.2-0.2,0.3-0.4,0.5l-0.3,0.4
							c-0.1,0.2-0.2,0.4-0.2,0.7c0,0.1,0,0.1,0,0.2c0,0.1,0.1,0.2,0.1,0.2c0,0.1,0.1,0.1,0.1,0.2c0,0.1,0.1,0.1,0.1,0.2
							c0.2,0.3,0.4,0.5,0.7,0.6c0.3,0.1,0.6,0.2,1,0.2c0.1,0,0.1,0,0.2,0c0.3,0,0.6,0,0.9-0.1c0.2,0,0.4-0.1,0.6-0.1
							c0.2-0.1,0.4-0.1,0.6-0.2c-0.6,0.5-1.3,0.8-2.2,1c-0.2,0-0.3,0-0.5,0c-0.3,0-0.6,0-0.8-0.1c-0.4-0.1-0.8-0.4-1.1-0.8
							c-0.1-0.1-0.1-0.2-0.2-0.3c-0.1-0.1-0.1-0.2-0.2-0.3c-0.1-0.1-0.1-0.2-0.1-0.3c0-0.1-0.1-0.2-0.1-0.4c-0.1-0.5,0-1.1,0.2-1.5
							c0-0.1,0.1-0.1,0.1-0.2l0.1-0.1l0.2-0.2c0.1-0.1,0.2-0.3,0.3-0.5c0.1-0.2,0.2-0.3,0.3-0.5c0.1-0.2,0.2-0.3,0.3-0.5
							c0.7-1.3,1-2.7,1-4.2c0-0.7-0.1-1.5-0.2-2.2C684.9,803.2,684.7,802.5,684.5,801.8 M684.5,801.3c-0.1,0-0.2,0-0.3,0.1
							c-0.2,0.1-0.3,0.4-0.2,0.6c0.3,0.7,0.5,1.4,0.6,2.1c0.1,0.7,0.2,1.4,0.2,2.1c0,1.4-0.3,2.7-0.9,4l-0.1,0.1
							c-0.1,0.1-0.1,0.2-0.2,0.3l0,0.1c-0.1,0.1-0.1,0.3-0.2,0.4l-0.1,0.1c-0.1,0.1-0.1,0.2-0.2,0.3l-0.2,0.2l-0.1,0.1
							c0,0.1-0.1,0.1-0.1,0.2c-0.3,0.6-0.5,1.3-0.3,1.9c0,0.2,0.1,0.3,0.2,0.4l0,0.1c0,0.1,0.1,0.2,0.1,0.3c0.1,0.1,0.1,0.2,0.2,0.3
							c0,0.1,0.1,0.2,0.2,0.3c0,0,0,0,0,0c0.4,0.4,0.9,0.8,1.4,0.9c0.3,0.1,0.6,0.2,1,0.2c0.2,0,0.4,0,0.6,0
							c0.8-0.1,1.6-0.5,2.4-1.1c0.2-0.1,0.3-0.4,0.2-0.6c-0.1-0.2-0.3-0.3-0.5-0.3c0,0-0.1,0-0.1,0c-0.1,0-0.3,0.1-0.4,0.1l-0.2,0.1
							c-0.1,0-0.2,0.1-0.3,0.1l-0.2,0l0,0c-0.3,0-0.5,0.1-0.8,0.1c-0.1,0-0.1,0-0.2,0c-0.3,0-0.6-0.1-0.8-0.2
							c-0.2-0.1-0.4-0.3-0.5-0.5l0,0c0,0,0-0.1-0.1-0.1c0-0.1-0.1-0.1-0.1-0.2c0-0.1,0-0.1-0.1-0.1l0-0.1c0,0,0,0,0-0.1
							c0-0.1,0-0.3,0.1-0.3l0.3-0.4c0.1-0.1,0.2-0.3,0.3-0.4l0.1-0.1c0.1-0.2,0.2-0.3,0.3-0.5l0-0.1c0.1-0.2,0.2-0.3,0.3-0.5l0-0.1
							c0.8-1.6,1.1-3.4,0.9-5.1c-0.1-0.8-0.3-1.7-0.6-2.5c-0.2-0.4-0.4-0.8-0.6-1.1c-0.3-0.4-0.5-0.8-0.7-1
							C684.7,801.3,684.6,801.3,684.5,801.3L684.5,801.3z"/>
					</g>
					<g>
						<path class="st37" d="M712.7,816.2c-0.2,0-0.3,0-0.5,0c-0.3-0.1-0.7-0.2-1-0.4c-0.1-0.1-0.2-0.1-0.2-0.2
							c-0.1-0.1-0.2-0.2-0.3-0.3c-0.2-0.2-0.2-0.5-0.2-0.8c0-0.3,0.1-0.5,0.3-0.8c0,0,0.1-0.1,0.1-0.1l0.3-0.3
							c0.2-0.2,0.3-0.4,0.5-0.5l0.1-0.1c0.4-0.5,0.8-1,1-1.4c0.3-0.5,0.5-1,0.5-1.6c0.1-0.5,0.1-1.1,0-1.6c-0.2-1-0.7-2.1-1.4-3
							c-0.2-0.2-0.4-0.4-0.6-0.6l-0.5-0.5c-0.1-0.1-0.2-0.2-0.2-0.2c-0.4-0.5-0.9-1-1.3-1.6c-0.2-0.2-0.3-0.5-0.4-0.7
							c-0.1,0.1-0.2,0.1-0.3,0.2c-0.4,0.2-0.7,0.4-1.1,0.5c-0.7,0.3-1.5,0.6-2.3,0.8c-1.5,0.5-3.1,0.8-4.7,1
							c-0.8,0.1-1.6,0.1-2.4,0.2l-0.4,0c-0.7,0-1.4,0-2.1-0.1c-1.6-0.1-3.2-0.5-4.7-0.9c-0.1,0-0.2-0.2-0.2-0.3
							c0-0.1,0.1-0.2,0.2-0.2c0,0,0,0,0.1,0c1.5,0.4,3.1,0.6,4.6,0.6l0.5,0c0.6,0,1.2,0,1.9-0.1c0.8-0.1,1.6-0.2,2.3-0.3
							c1.5-0.3,3-0.7,4.4-1.3c0.7-0.3,1.4-0.6,2.1-0.9c0.3-0.2,0.7-0.4,1-0.5c0.1-0.1,0.3-0.2,0.4-0.3c0,0-0.2-0.6-0.2-0.6l-0.1-0.5
							c0-0.1,0-0.2,0-0.4l0-0.2c-0.1-0.7,0-1.4,0.1-2.1c0.1-0.7,0.4-1.3,0.7-1.9c0.3-0.6,0.7-1.2,1.1-1.7c0.5-0.6,0.9-1,1.4-1.4
							c0,0,0.1-0.1,0.2-0.1c0.1,0,0.1,0,0.2,0.1c0.1,0.1,0.1,0.2,0,0.3c-0.2,0.2-0.4,0.5-0.6,0.7c-0.2,0.3-0.3,0.5-0.5,0.8
							c-0.3,0.6-0.6,1.1-0.8,1.6c-0.4,1.1-0.5,2.3-0.4,3.4c0.1,0.5,0.2,1.1,0.5,1.6l0.1,0.2l0.2,0.3c0,0.1,0.1,0.1,0.1,0.2l0.1,0.2
							c0.1,0.2,0.2,0.4,0.4,0.6c0.4,0.5,0.8,1,1.1,1.4l0.7,0.6c0.3,0.3,0.5,0.5,0.7,0.8c0.4,0.6,0.8,1.2,1.1,1.8
							c0.3,0.7,0.5,1.4,0.6,2.1c0.1,0.8,0.1,1.5-0.1,2.2c-0.2,0.7-0.4,1.3-0.8,2c-0.4,0.6-0.8,1.1-1.3,1.6l-0.1,0.1
							c-0.2,0.2-0.4,0.4-0.7,0.6l-0.3,0.2c-0.1,0.1-0.1,0.1-0.1,0.1c0,0,0,0.1,0,0.1c0.1,0.1,0.1,0.1,0.2,0.2
							c0.2,0.2,0.4,0.3,0.7,0.4c0.2,0.1,0.5,0.1,0.8,0.1c0.3,0,0.6,0,0.9-0.1c0,0,0,0,0.1,0c0.1,0,0.2,0.1,0.2,0.2
							c0,0.1,0,0.3-0.1,0.3C713.7,816.1,713.2,816.2,712.7,816.2z"/>
						<path class="st37" d="M711.3,791.4c-0.2,0.2-0.4,0.5-0.6,0.8c-0.2,0.3-0.3,0.5-0.5,0.8c-0.3,0.5-0.6,1.1-0.8,1.7
							c-0.4,1.2-0.6,2.4-0.4,3.5c0.1,0.6,0.3,1.2,0.5,1.7l0.1,0.2l0.1,0.2c0.1,0.1,0.1,0.3,0.2,0.4c0.2,0.3,0.3,0.5,0.5,0.8
							c0.3,0.5,0.7,0.9,1.2,1.4l0.7,0.7c0.3,0.3,0.5,0.5,0.7,0.8c0.4,0.5,0.8,1.1,1.1,1.7c0.3,0.6,0.5,1.3,0.6,2
							c0.1,0.7,0.1,1.4-0.1,2.1c-0.2,0.7-0.4,1.3-0.8,1.9c-0.4,0.6-0.8,1.1-1.3,1.6c-0.2,0.2-0.5,0.4-0.7,0.6l-0.2,0.2l-0.1,0.1
							c0,0,0,0-0.1,0c-0.1,0.1-0.1,0.1-0.1,0.2c0,0.1,0,0.2,0,0.3c0,0,0,0.1,0.1,0.1c0,0,0.1,0.1,0.2,0.1c0.2,0.2,0.5,0.3,0.8,0.4
							c0.3,0.1,0.6,0.1,0.9,0.1c0.3,0,0.6,0,1-0.1c-0.4,0.2-0.9,0.4-1.5,0.4c-0.1,0-0.3,0-0.5,0c-0.3-0.1-0.7-0.2-1-0.4
							c-0.1,0-0.1-0.1-0.2-0.1c-0.1-0.1-0.2-0.1-0.2-0.2c-0.1-0.2-0.2-0.4-0.2-0.6c0-0.2,0.1-0.4,0.2-0.6c0,0,0.1-0.1,0.1-0.1
							l0.1-0.1l0.2-0.2c0.2-0.2,0.4-0.4,0.6-0.7c0.4-0.5,0.7-1,1-1.5c0.3-0.5,0.5-1.1,0.6-1.6c0.1-0.6,0.1-1.1,0-1.7
							c-0.2-1.1-0.7-2.2-1.5-3.1c-0.2-0.2-0.4-0.5-0.6-0.7l-0.3-0.3c-0.1-0.1-0.2-0.2-0.3-0.3c-0.4-0.5-0.9-1-1.2-1.6
							c-0.2-0.3-0.3-0.6-0.5-0.9c0,0,0,0,0,0c-0.2,0.1-0.4,0.2-0.5,0.3c-0.4,0.2-0.7,0.3-1.1,0.5c-0.7,0.3-1.5,0.6-2.3,0.8
							c-1.5,0.5-3.1,0.8-4.7,1c-0.8,0.1-1.6,0.1-2.4,0.2c-0.1,0-0.2,0-0.3,0c-0.7,0-1.4,0-2-0.1c-1.6-0.1-3.2-0.5-4.7-0.9
							c1.5,0.4,3.1,0.6,4.7,0.6c0.2,0,0.3,0,0.5,0c0.6,0,1.3,0,1.9-0.1c0.8-0.1,1.6-0.2,2.3-0.3c1.5-0.3,3-0.7,4.5-1.3
							c0.7-0.3,1.4-0.6,2.1-0.9c0.3-0.2,0.7-0.4,1-0.5c0.2-0.1,0.3-0.2,0.5-0.3c0,0,0.1,0,0.1-0.1c0-0.1-0.1-0.2-0.1-0.3l-0.1-0.5
							l-0.1-0.5c0-0.2,0-0.3-0.1-0.5c-0.1-0.7,0-1.4,0.1-2c0.1-0.7,0.4-1.3,0.6-1.9c0.3-0.6,0.6-1.1,1-1.6
							C710.4,792.2,710.8,791.8,711.3,791.4 M711.3,790.9c-0.1,0-0.2,0-0.3,0.1c-0.5,0.4-1,0.9-1.4,1.5c-0.4,0.5-0.8,1.1-1.1,1.7
							c-0.3,0.6-0.5,1.3-0.7,2c-0.1,0.7-0.2,1.4-0.1,2.2l0,0.2c0,0.1,0,0.3,0,0.4l0.1,0.5l0.1,0.5c-0.1,0.1-0.2,0.1-0.3,0.2
							c-0.3,0.2-0.7,0.4-1,0.5c-0.7,0.3-1.4,0.6-2.1,0.9c-1.4,0.5-2.9,1-4.4,1.3c-0.7,0.1-1.5,0.2-2.3,0.3c-0.6,0-1.3,0.1-1.8,0.1
							c-0.1,0-0.3,0-0.4,0c-1.5,0-3-0.2-4.6-0.6c0,0-0.1,0-0.1,0c-0.2,0-0.4,0.1-0.5,0.4c-0.1,0.3,0.1,0.5,0.3,0.6
							c1.6,0.5,3.2,0.8,4.8,0.9c0.7,0.1,1.4,0.1,2.1,0.1l0.4,0c0.9,0,1.7-0.1,2.4-0.2c1.6-0.2,3.3-0.6,4.8-1
							c0.8-0.3,1.6-0.5,2.3-0.9c0.3-0.1,0.7-0.3,1.1-0.5c0,0,0.1,0,0.1-0.1c0.1,0.2,0.2,0.3,0.3,0.5c0.4,0.6,0.8,1.1,1.3,1.6
							c0.1,0.1,0.2,0.2,0.3,0.3l0.1,0.1l0.3,0.3c0.2,0.2,0.4,0.4,0.5,0.6c0.7,0.9,1.2,1.9,1.4,2.9c0.1,0.5,0.1,1,0,1.5
							c-0.1,0.5-0.3,1-0.5,1.5c-0.2,0.4-0.5,0.9-1,1.4l-0.1,0.1c-0.2,0.2-0.3,0.4-0.5,0.5l-0.2,0.2l-0.1,0.1
							c-0.1,0.1-0.1,0.1-0.2,0.2c-0.2,0.2-0.3,0.6-0.3,0.9c0,0.3,0.1,0.7,0.2,0.9c0.1,0.2,0.2,0.3,0.3,0.4c0.1,0.1,0.2,0.1,0.3,0.2
							c0.4,0.2,0.8,0.4,1.1,0.4c0.2,0,0.3,0,0.5,0c0.5,0,1.1-0.1,1.7-0.4c0.2-0.1,0.3-0.4,0.3-0.6c-0.1-0.2-0.3-0.3-0.5-0.3
							c0,0-0.1,0-0.1,0c-0.3,0.1-0.6,0.1-0.8,0.1c-0.3,0-0.5,0-0.7-0.1c-0.2-0.1-0.4-0.2-0.6-0.3c0,0-0.1,0-0.1-0.1l0,0l0.1-0.1
							l0.2-0.2c0.2-0.2,0.4-0.4,0.7-0.6l0.1-0.1c0.5-0.5,1-1.1,1.4-1.7c0.4-0.7,0.7-1.3,0.9-2.1c0.2-0.7,0.2-1.5,0.1-2.3
							c-0.1-0.7-0.3-1.4-0.6-2.1c-0.3-0.6-0.7-1.3-1.1-1.8c-0.2-0.3-0.5-0.6-0.7-0.8l-0.7-0.7c-0.3-0.4-0.8-0.8-1.1-1.3
							c-0.1-0.2-0.3-0.4-0.4-0.6l-0.1-0.2c0-0.1-0.1-0.1-0.1-0.2c0-0.1-0.1-0.1-0.1-0.2l-0.1-0.2l-0.1-0.2c-0.2-0.5-0.4-1.1-0.5-1.6
							c-0.2-1.1,0-2.2,0.3-3.3c0.2-0.5,0.4-1.1,0.7-1.6c0.1-0.2,0.3-0.5,0.5-0.8c0.2-0.3,0.4-0.5,0.5-0.7c0.2-0.2,0.2-0.5,0-0.7
							C711.6,790.9,711.5,790.9,711.3,790.9L711.3,790.9z"/>
					</g>
					<g>
						<path class="st37" d="M719.6,799c-0.1,0-0.2-0.1-0.2-0.1c-0.2-0.3-0.3-0.7-0.4-1.2c-0.1-0.4-0.1-0.8-0.1-1.2
							c0-0.4,0-0.8,0.1-1.3c0-0.1,0.1-0.2,0.1-0.3l0.2-0.5c0,0,0.1-0.2,0.1-0.2c0.1-0.3,0.2-0.7,0.2-1c0-0.2,0.2-1.1,0.2-1.1
							c0.1-0.7,0.3-1.5,0.5-2.3c0-0.1,0.1-0.2,0.2-0.2c0,0,0,0,0,0c0.1,0,0.2,0.1,0.2,0.2c0.3,0.7,0.4,1.4,0.5,2.4
							c0,0.5,0,0.8,0,1.2c0,0.1,0,0.3,0,0.4l0,0.2l0,0.2c0,0.2-0.1,0.3-0.1,0.5c0,0.2-0.1,0.2-0.1,0.3l-0.1,0.3l-0.1,0.3
							c0,0.1,0,0.1-0.1,0.2c-0.1,0.4-0.2,0.7-0.3,1.1c-0.1,0.5-0.2,1.1-0.3,1.6l-0.1,0.5C719.8,798.9,719.7,799,719.6,799
							C719.6,799,719.6,799,719.6,799z"/>
						<path class="st37" d="M720.5,789.8c0.3,0.7,0.4,1.5,0.5,2.3c0,0.4,0,0.8,0,1.2c0,0.2,0,0.4-0.1,0.6c0,0.2-0.1,0.4-0.1,0.6
							c0,0.1-0.1,0.2-0.1,0.3l-0.1,0.3l-0.1,0.2c0,0.1-0.1,0.2-0.1,0.2c-0.1,0.3-0.2,0.7-0.3,1c-0.2,0.7-0.3,1.4-0.4,2.2
							c-0.2-0.4-0.3-0.7-0.4-1.1c-0.1-0.4-0.1-0.8-0.1-1.2c0-0.4,0-0.8,0.1-1.2c0-0.1,0-0.2,0.1-0.3l0.1-0.3l0.1-0.2
							c0-0.1,0-0.2,0.1-0.2c0.1-0.3,0.2-0.7,0.2-1c0.1-0.4,0.1-0.7,0.2-1.1C720.1,791.3,720.3,790.6,720.5,789.8 M720.5,789.3
							C720.5,789.3,720.5,789.3,720.5,789.3c-0.2,0-0.4,0.2-0.5,0.4c-0.2,0.8-0.4,1.5-0.5,2.2c0,0.2-0.1,0.4-0.1,0.5
							c0,0.2-0.1,0.4-0.1,0.6c-0.1,0.4-0.1,0.7-0.2,1l0,0.1c0,0,0,0.1,0,0.1l-0.1,0.2l-0.1,0.3c0,0.1-0.1,0.2-0.1,0.4
							c-0.1,0.4-0.2,0.9-0.1,1.3c0,0.4,0,0.9,0.1,1.3c0.1,0.5,0.2,0.9,0.4,1.3c0.1,0.2,0.3,0.3,0.4,0.3c0,0,0,0,0.1,0
							c0.2,0,0.4-0.2,0.4-0.4l0.1-0.5c0.1-0.6,0.2-1.1,0.3-1.6c0.1-0.4,0.2-0.7,0.3-1l0-0.1c0,0,0-0.1,0-0.1l0.1-0.3l0.1-0.3
							c0-0.1,0.1-0.2,0.1-0.3l0-0.1c0-0.2,0.1-0.3,0.1-0.5l0-0.1l0-0.2c0-0.1,0-0.3,0-0.4c0-0.4,0-0.8,0-1.2c-0.1-1-0.2-1.7-0.5-2.5
							C720.9,789.4,720.7,789.3,720.5,789.3L720.5,789.3z"/>
					</g>
					<g>
						<path class="st37" d="M720.8,783.2c-0.1,0-0.2-0.1-0.2-0.1c0-0.1,0-0.2,0.1-0.3c0.4-0.3,0.8-0.6,1.3-0.9
							c0.4-0.3,0.8-0.7,1.1-1.1c0.7-0.7,1.3-1.5,1.9-2.4c0.5-0.8,0.9-1.7,1.2-2.7c0.3-0.9,0.5-1.9,0.5-2.9c0.1-0.7,0.3-1.3,0.4-1.9
							c0.2-0.6,0.5-1.2,0.8-1.7c0.3-0.5,0.7-1,1.2-1.4c0.4-0.4,0.9-0.8,1.4-1.1c0,0,0.1,0,0.1,0c0.1,0,0.1,0,0.2,0.1
							c0.1,0.1,0.1,0.2,0,0.3c-0.3,0.4-0.7,0.9-1,1.4c-0.3,0.5-0.6,1-0.8,1.4c-0.2,0.5-0.4,1-0.5,1.5c-0.1,0.5-0.2,0.9-0.3,1.6
							c0,1.1-0.2,2.3-0.5,3.3c-0.4,1.1-0.9,2.1-1.5,3.1c-0.7,0.9-1.5,1.8-2.4,2.4c-0.5,0.4-1,0.7-1.4,0.9
							C721.9,782.9,721.4,783.1,720.8,783.2C720.9,783.2,720.9,783.2,720.8,783.2z"/>
						<path class="st37" d="M730.7,766.8c-0.4,0.5-0.7,0.9-1,1.4c-0.3,0.5-0.6,1-0.8,1.5c-0.2,0.5-0.4,1-0.5,1.6
							c-0.1,0.5-0.2,1.1-0.3,1.6c0,0,0,0,0,0l0,0.1c0,0,0,0,0,0c0,1.1-0.2,2.2-0.5,3.3c-0.3,1.1-0.8,2.1-1.5,3
							c-0.6,0.9-1.4,1.7-2.3,2.4c-0.4,0.3-0.9,0.6-1.4,0.9c-0.5,0.2-1,0.5-1.5,0.6c0.5-0.3,0.9-0.6,1.3-1c0.4-0.3,0.8-0.7,1.1-1.1
							c0.7-0.7,1.4-1.6,1.9-2.4c0.5-0.9,0.9-1.8,1.2-2.8c0.3-1,0.5-2,0.6-3l0,0l0,0c0.1-0.6,0.2-1.2,0.4-1.8
							c0.2-0.6,0.5-1.1,0.8-1.7c0.3-0.5,0.7-1,1.1-1.4C729.7,767.5,730.2,767.1,730.7,766.8 M730.7,766.3c-0.1,0-0.2,0-0.3,0.1
							c-0.5,0.3-1,0.7-1.4,1.2c-0.5,0.5-0.9,1-1.2,1.5c-0.3,0.5-0.6,1.1-0.8,1.8c-0.2,0.5-0.3,1.1-0.4,1.8c0,0,0,0.1,0,0.1
							c-0.1,1-0.3,2-0.5,2.9c-0.3,1-0.7,1.9-1.2,2.6c-0.5,0.8-1.1,1.6-1.8,2.3c-0.3,0.4-0.7,0.7-1.1,1c-0.4,0.4-0.8,0.7-1.2,0.9
							c-0.2,0.1-0.3,0.4-0.2,0.6c0.1,0.2,0.3,0.3,0.5,0.3c0,0,0.1,0,0.1,0c0.5-0.1,1-0.3,1.6-0.6c0.5-0.3,1-0.6,1.5-0.9
							c0.9-0.7,1.8-1.5,2.4-2.5c0.7-1,1.2-2,1.6-3.1c0.3-1.1,0.5-2.3,0.5-3.4c0.1-0.6,0.1-1.1,0.2-1.5c0.1-0.5,0.3-1,0.5-1.5
							c0.2-0.5,0.5-0.9,0.8-1.4c0.3-0.5,0.7-0.9,1-1.4c0.2-0.2,0.1-0.5,0-0.6C731,766.3,730.8,766.3,730.7,766.3L730.7,766.3z"/>
					</g>
				</g>
			</g>
		</g>
		<path class="st40" d="M617.7,926.3v16.1h321.2v-16.1H617.7z M627.2,937.9c-1.8,0-3.3-1.5-3.3-3.3c0-1.8,1.5-3.3,3.3-3.3
			c1.8,0,3.3,1.5,3.3,3.3C630.6,936.5,629.1,937.9,627.2,937.9z M637.2,937.9c-1.8,0-3.3-1.5-3.3-3.3c0-1.8,1.5-3.3,3.3-3.3
			s3.3,1.5,3.3,3.3C640.6,936.5,639.1,937.9,637.2,937.9z M648.1,937.9c-1.8,0-3.3-1.5-3.3-3.3c0-1.8,1.5-3.3,3.3-3.3
			c1.8,0,3.3,1.5,3.3,3.3C651.4,936.5,649.9,937.9,648.1,937.9z"/>
	</g>
	<text transform="matrix(1 0 0 1 257.8293 295.6107)" class="st37 st43 st44 st45">web</text>
	<text transform="matrix(1 0 0 1 220.5099 988.6108)" class="st37 st43 st44 st45">estática</text>
	<text transform="matrix(1 0 0 1 683.3909 988.6108)" class="st37 st43 st44 st45">dinámica</text>
	<g>
		<g>
			<line class="st46" x1="297" y1="617" x2="297" y2="475.1"/>
			<g>
				<path class="st37" d="M307.5,616.5c0,5.8-4.7,10.5-10.5,10.5s-10.5-4.7-10.5-10.5c0-5.8,4.7-10.5,10.5-10.5
					S307.5,610.7,307.5,616.5z"/>
			</g>
			<g>
				<g>
					<path class="st13" d="M304.5,475.5c0-4.2-3.4-7.5-7.5-7.5s-7.5,3.4-7.5,7.5c0,4.2,3.4,7.5,7.5,7.5S304.5,479.7,304.5,475.5z"/>
					<path class="st37" d="M305.5,475.5c0,4.7-3.8,8.5-8.5,8.5s-8.5-3.8-8.5-8.5c0-4.7,3.8-8.5,8.5-8.5S305.5,470.8,305.5,475.5
						C305.5,480.2,305.5,470.8,305.5,475.5z M290.5,475.5c0,3.6,2.9,6.5,6.5,6.5s6.5-2.9,6.5-6.5c0-3.6-2.9-6.5-6.5-6.5
						S290.5,471.9,290.5,475.5C290.5,479.1,290.5,471.9,290.5,475.5z"/>
				</g>
			</g>
		</g>
	</g>
	<g>
		<g class="st17">
			<path class="st37" d="M693.7,357.3c-0.2-0.6-0.5-1.3-0.7-1.9c-4.9-11.8-14.1-21.3-25.7-26.5c-0.9,0.8-1.8,1.5-2.8,2.3
				c-5.5,4.7-10.8,9.7-15.8,14.9c-5.1,5.2-9.9,10.7-14.6,16.2c-4.7,5.6-9.2,11.3-13.4,17.2c-2.1,3-4.2,5.9-6.2,8.9
				c-2,3-3.9,6.1-5.7,9.2c-1.1,1.8-2.1,3.7-3.1,5.6c6.9,9.9,17.3,17.1,29.4,20c0.8,0.2,1.5,0.3,2.3,0.5c3,0.6,6.1,0.9,9.3,0.9
				c27.7,0,50.1-22.4,50.1-50.1C696.7,368.4,695.6,362.6,693.7,357.3z"/>
			<path class="st37" d="M649.2,324.5c-0.9,0-1.7-0.1-2.6-0.1c-27.7,0-50.1,22.4-50.1,50.1c0,4.3,0.5,8.5,1.6,12.4
				c6.6-12.8,14.8-24.7,24-35.6C630.3,341.5,639.3,332.5,649.2,324.5z"/>
		</g>
		
			<ellipse transform="matrix(0.8304 -0.5571 0.5571 0.8304 -98.3701 424.2234)" class="st39" cx="647.7" cy="373.7" rx="51.5" ry="50.1"/>
		<path class="st39" d="M671.4,409.2c0,0-28.5,7.9-50.6-4.6c-22-12.5-23.9-34.1-23.9-34.1"/>
		<path class="st39" d="M671.6,409.3c0,0-0.8,5.9-7.9,11.9"/>
		<path class="st39" d="M671.6,409.3c0,0,5.9-2.1,15.6-12.7c9.7-10.6,11.1-17.6,11.1-17.6"/>
		<path class="st39" d="M671.6,409.3c0,0,3.2-24.1-13.8-55.5s-28.9-26.6-28.9-26.6"/>
		<path class="st40" d="M706.8,316.6c-0.3-1.1-0.7-2.2-1.3-3.3c-0.6-1.1-1.4-2.1-2.3-3c-0.9-0.9-2.1-1.6-3.2-2.1
			c-1.1-0.5-2.3-0.8-3.5-1c-2.3-0.4-4.6-0.3-6.7,0c-2.1,0.3-4.1,0.8-6.1,1.4c-1.9,0.6-3.8,1.3-5.7,2.1c-3.7,1.6-7.1,3.4-10.5,5.4
			c-3.3,2-6.6,4.1-9.7,6.4c-1.1,0.8-2.2,1.6-3.3,2.4c-11.2,8.6-21.1,18.5-30.1,29.1c-9.6,11.5-18.1,23.9-24.9,37.4
			c-0.2,0.3-0.3,0.6-0.5,0.9c-1.7,3.5-3.3,7-4.6,10.7c-1.4,3.6-2.6,7.4-3.5,11.3c-0.5,1.9-0.8,3.9-1.1,6c-0.3,2-0.4,4.1-0.3,6.2
			c0.1,2.1,0.4,4.4,1.2,6.6c0.4,1.1,0.9,2.2,1.6,3.3c0.7,1,1.6,2,2.6,2.8c1,0.8,2.2,1.4,3.3,1.8c1.2,0.4,2.3,0.6,3.5,0.7
			c2.3,0.2,4.4-0.1,6.4-0.6c4-1,7.5-2.7,10.9-4.5c3.4-1.9,6.5-4,9.6-6.2c3-2.2,5.9-4.5,8.7-6.8c-0.8-0.1-1.6-0.3-2.3-0.5
			c-2.6,1.8-5.2,3.5-7.8,5.1c-3.2,1.9-6.5,3.6-9.8,5c-3.3,1.4-6.8,2.5-10.2,2.9c-1.7,0.2-3.3,0.2-4.8-0.1c-1.4-0.3-2.6-0.9-3.4-1.7
			c-0.8-0.8-1.3-1.9-1.7-3.3c-0.3-1.3-0.3-2.9-0.2-4.5c0.2-3.2,1.2-6.5,2.3-9.8c1.6-4.7,3.8-9.2,6.2-13.7c1-1.9,2-3.7,3.1-5.6
			c1.8-3.1,3.8-6.2,5.7-9.2c2-3,4.1-6,6.2-8.9c4.3-5.9,8.8-11.6,13.4-17.2c4.7-5.6,9.5-11,14.6-16.2c5-5.2,10.3-10.2,15.8-14.9
			c0.9-0.8,1.8-1.5,2.8-2.3c0.5-0.4,0.9-0.8,1.4-1.1c1.4-1.1,2.8-2.2,4.3-3.3c2.9-2.1,5.8-4.1,8.9-5.8c3-1.7,6.2-3.2,9.3-4
			c1.5-0.4,3.1-0.6,4.5-0.5c1.4,0.1,2.6,0.4,3.5,1.1c1,0.7,1.7,1.7,2.3,3.1c0.5,1.4,0.8,3,0.9,4.7c0.1,1.7,0,3.4-0.2,5.2
			c-0.2,1.8-0.5,3.5-0.9,5.3c-0.8,3.5-1.9,7.1-3.2,10.5c-1.3,3.5-2.8,6.9-4.4,10.2c-0.2,0.4-0.4,0.8-0.6,1.1
			c0.3,0.6,0.5,1.3,0.7,1.9c0.5-0.7,0.9-1.5,1.3-2.3c3.8-6.5,7.2-13.2,9.8-20.5c1.2-3.6,2.3-7.4,2.5-11.5
			C707.4,321,707.3,318.8,706.8,316.6z"/>
	</g>
	<text transform="matrix(1 0 0 1 608.8293 295.6107)" class="st37 st43 st44 st45">web</text>
	<text transform="matrix(1 0 0 1 851.7502 295.6107)" class="st37 st43 st44 st45">datos</text>
	<g>
		<g>
			<line class="st46" x1="648" y1="617" x2="648" y2="475.1"/>
			<g>
				<path class="st37" d="M658.5,616.5c0,5.8-4.7,10.5-10.5,10.5s-10.5-4.7-10.5-10.5c0-5.8,4.7-10.5,10.5-10.5
					S658.5,610.7,658.5,616.5z"/>
			</g>
			<g>
				<g>
					<path class="st13" d="M655.5,475.5c0-4.2-3.4-7.5-7.5-7.5s-7.5,3.4-7.5,7.5c0,4.2,3.4,7.5,7.5,7.5S655.5,479.7,655.5,475.5z"/>
					<path class="st37" d="M656.5,475.5c0,4.7-3.8,8.5-8.5,8.5s-8.5-3.8-8.5-8.5c0-4.7,3.8-8.5,8.5-8.5S656.5,470.8,656.5,475.5
						C656.5,480.2,656.5,470.8,656.5,475.5z M641.5,475.5c0,3.6,2.9,6.5,6.5,6.5s6.5-2.9,6.5-6.5c0-3.6-2.9-6.5-6.5-6.5
						S641.5,471.9,641.5,475.5C641.5,479.1,641.5,471.9,641.5,475.5z"/>
				</g>
			</g>
		</g>
	</g>
	<g>
		<g>
			<line class="st46" x1="821" y1="393.2" x2="740.4" y2="393.9"/>
			<g>
				<path class="st37" d="M820.4,382.6c5.8-0.1,10.6,4.6,10.6,10.4s-4.6,10.6-10.4,10.6s-10.6-4.6-10.6-10.4
					C809.9,387.4,814.6,382.7,820.4,382.6z"/>
			</g>
			<g>
				<g>
					<path class="st13" d="M740.8,386.3c-4.2,0-7.5,3.4-7.5,7.6c0,4.2,3.4,7.5,7.6,7.5c4.2,0,7.5-3.4,7.5-7.6
						C748.3,389.6,744.9,386.3,740.8,386.3z"/>
					<path class="st37" d="M740.8,385.3c4.7,0,8.6,3.7,8.6,8.4c0,4.7-3.7,8.6-8.4,8.6c-4.7,0-8.6-3.7-8.6-8.4
						C732.3,389.2,736.1,385.4,740.8,385.3C745.5,385.3,736.1,385.4,740.8,385.3z M740.9,400.4c3.6,0,6.5-3,6.5-6.6
						c0-3.6-3-6.5-6.6-6.5c-3.6,0-6.5,3-6.5,6.6C734.4,397.5,737.3,400.4,740.9,400.4C744.5,400.3,737.3,400.4,740.9,400.4z"/>
				</g>
			</g>
		</g>
	</g>
	<g>
		<g>
			<line class="st46" x1="741.8" y1="346.3" x2="822.4" y2="345.6"/>
			<g>
				<path class="st37" d="M742.4,356.9c-5.8,0.1-10.6-4.6-10.6-10.4c-0.1-5.8,4.6-10.6,10.4-10.6c5.8-0.1,10.6,4.6,10.6,10.4
					C752.9,352.1,748.2,356.8,742.4,356.9z"/>
			</g>
			<g>
				<g>
					<path class="st13" d="M822,353.2c4.2,0,7.5-3.4,7.5-7.6c0-4.2-3.4-7.5-7.6-7.5c-4.2,0-7.5,3.4-7.5,7.6
						C814.5,349.9,817.9,353.2,822,353.2z"/>
					<path class="st37" d="M822,354.2c-4.7,0-8.6-3.7-8.6-8.4s3.7-8.6,8.4-8.6c4.7,0,8.6,3.7,8.6,8.4S826.7,354.1,822,354.2
						C817.3,354.2,826.7,354.1,822,354.2z M821.9,339.1c-3.6,0-6.5,3-6.5,6.6c0,3.6,3,6.5,6.6,6.5c3.6,0,6.5-3,6.5-6.6
						C828.4,342,825.5,339.1,821.9,339.1C818.3,339.2,825.5,339.1,821.9,339.1z"/>
				</g>
			</g>
		</g>
	</g>
	<ellipse class="st37" cx="905.5" cy="336" rx="38.2" ry="16"/>
	<path class="st47" d="M905.5,355.4c-21.1,0-38.2-7.2-38.2-16v18.3c0,8.8,17.1,16,38.2,16s38.2-7.2,38.2-16v-18.3
		C943.7,348.2,926.6,355.4,905.5,355.4z"/>
	<path class="st40" d="M905.5,377.1c-21.1,0-38.2-7.2-38.2-16v18.3c0,8.8,17.1,16,38.2,16s38.2-7.2,38.2-16v-18.3
		C943.7,369.9,926.6,377.1,905.5,377.1z"/>
	<path class="st47" d="M905.5,398.7c-21.1,0-38.2-7.2-38.2-16V401c0,8.8,17.1,16,38.2,16s38.2-7.2,38.2-16v-18.3
		C943.7,391.6,926.6,398.7,905.5,398.7z"/>
</g>
<g id="Trazo">
	<g>
		<g>
			<polyline class="st48" points="236.9,145 75,145 75,1075 1005,1075 1005,145 843.1,145 			"/>
			<g>
				<rect x="233.8" y="124.7" class="st49" width="6.3" height="40.6"/>
			</g>
			<g>
				<rect x="840" y="124.7" class="st49" width="6.3" height="40.6"/>
			</g>
		</g>
	</g>
	<line class="st54" x1="541" y1="214" x2="540" y2="1048"/>
</g>
<g id="Texto">
	<g>
		<path class="st37" d="M332.6,112.5v60h-8.7v-50.7l-20.4,50.7h-5.3l-20.4-50.7v50.7H269v-60h13.8l18,46l18.1-46H332.6z"/>
		<path class="st37" d="M377.3,111.3c8.7,0,16.1,3,22.1,9.1c6.1,6.1,9.1,13.4,9.1,22.1c0,8.6-3,15.9-9.1,22
			c-6.1,6.1-13.5,9.1-22.1,9.1c-8.6,0-16-3-22.1-9.1c-6.1-6.1-9.1-13.4-9.1-22c0-8.7,3-16.1,9.1-22.1
			C361.2,114.4,368.6,111.3,377.3,111.3z M377.3,165.7c6.4,0,11.7-2.2,16-6.7c4.3-4.4,6.4-10,6.4-16.6c0-6.5-2.2-12-6.5-16.4
			c-4.3-4.5-9.6-6.7-15.9-6.7c-6.3,0-11.6,2.2-15.9,6.7c-4.3,4.5-6.5,9.9-6.5,16.4c0,6.5,2.2,12,6.5,16.5
			C365.7,163.5,371,165.7,377.3,165.7z"/>
		<path class="st37" d="M466.7,112.5l-24,60h-5.3l-24.2-60h9.5l17.5,45l17.4-45H466.7z"/>
		<path class="st37" d="M485.6,112.5v60h-8.7v-60H485.6z"/>
		<path class="st37" d="M565.8,112.5v60h-8.7v-50.7l-20.4,50.7h-5.3l-20.4-50.7v50.7h-8.7v-60h13.8l18,46l18.1-46H565.8z"/>
		<path class="st37" d="M591.1,112.5v60h-8.7v-60H591.1z"/>
		<path class="st37" d="M640,164.5v8h-32.4v-60H640v8.1h-23.7v17.6H640v8h-23.7v18.3H640z"/>
		<path class="st37" d="M702,112.5v60H693l-29.9-46.4v46.4h-8.7v-60h9.5l29.3,45.7v-45.7H702z"/>
		<path class="st37" d="M733.8,120.6v51.9H725v-51.9h-11.5v-8.1h31.8v8.1H733.8z"/>
		<path class="st37" d="M782.9,111.3c8.7,0,16.1,3,22.1,9.1c6.1,6.1,9.1,13.4,9.1,22.1c0,8.6-3,15.9-9.1,22
			c-6.1,6.1-13.5,9.1-22.1,9.1c-8.6,0-16-3-22.1-9.1c-6.1-6.1-9.1-13.4-9.1-22c0-8.7,3-16.1,9.1-22.1
			C766.8,114.4,774.2,111.3,782.9,111.3z M782.9,165.7c6.4,0,11.7-2.2,16-6.7c4.3-4.4,6.4-10,6.4-16.6c0-6.5-2.2-12-6.5-16.4
			c-4.3-4.5-9.6-6.7-15.9-6.7c-6.3,0-11.6,2.2-15.9,6.7c-4.3,4.5-6.5,9.9-6.5,16.4c0,6.5,2.2,12,6.5,16.5
			C771.3,163.5,776.6,165.7,782.9,165.7z"/>
	</g>
	<g>
		<path class="st55" d="M291.7,1152.8h-2.8v-25.6h-5.7v-2.8h14.2v2.8h-5.7V1152.8z"/>
		<path class="st55" d="M299.5,1124.4h2.8v18c0,1.4,0.1,2.4,0.2,3.1c0.1,0.7,0.3,1.3,0.6,1.8c0.5,1.1,1.3,1.9,2.2,2.5
			c1,0.6,2.1,0.9,3.3,0.9c2.1,0,3.7-0.7,4.8-2.2c1-1.5,1.5-3.7,1.5-6.8v-17.4h2.8v18.1c0,3.7-0.7,6.4-2.2,8.2
			c-1.5,1.8-3.7,2.7-6.7,2.7c-3.2,0-5.5-0.9-7-2.7c-1.5-1.8-2.2-4.5-2.2-8.3V1124.4z"/>
		<path class="st55" d="M333.5,1124.4h6c1.7,0,3.1,0.1,4.2,0.3c1,0.2,1.9,0.5,2.6,0.9c1.3,0.8,2.2,1.7,2.9,2.9c0.7,1.2,1,2.6,1,4.1
			c0,1.4-0.3,2.8-0.9,4c-0.6,1.2-1.4,2.2-2.5,2.9c-0.8,0.5-1.7,0.9-2.7,1.1c-1,0.2-2.4,0.3-4,0.3h-3.7v12h-2.8V1124.4z
			 M336.3,1127.2v10.8h4.1c2.3,0,4-0.4,5.1-1.3c1.1-0.9,1.6-2.2,1.6-4c0-1.9-0.6-3.3-1.7-4.2c-1.1-0.9-2.9-1.3-5.3-1.3H336.3z"/>
		<path class="st55" d="M350.7,1152.8h-2.9l11-28.4h3.4l11,28.4h-3l-3.4-8.9h-12.7L350.7,1152.8z M365.8,1141.4l-5.4-14.3l-5.3,14.3
			H365.8z M359.8,1121.6H358l4.1-6.8h3L359.8,1121.6z"/>
		<path class="st55" d="M383.8,1139.2h17.7c-0.2,4.1-1.7,7.5-4.5,10.2c-2.7,2.7-6.1,4-10.1,4c-4.1,0-7.5-1.4-10.3-4.3
			c-2.8-2.9-4.2-6.4-4.2-10.7c0-2,0.4-3.9,1.1-5.7c0.8-1.8,1.9-3.4,3.3-4.8c1.4-1.4,3-2.4,4.7-3.1c1.7-0.7,3.6-1,5.7-1
			c2.8,0,5.2,0.7,7.4,2c2.2,1.3,4,3.2,5.3,5.7h-3.4c-1.3-1.7-2.8-3-4.3-3.8c-1.5-0.8-3.2-1.2-5.1-1.2c-3.3,0-6,1.2-8.3,3.5
			c-2.3,2.3-3.4,5.1-3.4,8.4c0,3.5,1.1,6.4,3.4,8.7c2.3,2.3,5,3.5,8.3,3.5c2.6,0,4.9-0.8,7-2.5c2.1-1.7,3.4-3.8,4-6.5h-14.4V1139.2z
			"/>
		<path class="st55" d="M407.7,1152.8h-2.8v-28.4h2.8V1152.8z"/>
		<path class="st55" d="M431.9,1149.4l-0.3-25h2.8v28.4H431l-15.6-25.1l0.3,25.1H413v-28.4h3.4L431.9,1149.4z"/>
		<path class="st55" d="M439.1,1152.8h-2.9l11-28.4h3.4l11,28.4h-3l-3.4-8.9h-12.7L439.1,1152.8z M454.2,1141.4l-5.4-14.3l-5.3,14.3
			H454.2z"/>
		<path class="st37" d="M497.6,1131.8c-1.3-1.8-2.7-3.1-4.3-3.9c-1.6-0.8-3.4-1.3-5.4-1.3c-3.2,0-5.9,1.2-8.1,3.5s-3.4,5.1-3.4,8.4
			c0,3.4,1.1,6.3,3.3,8.7c2.2,2.4,4.9,3.5,8.1,3.5c2,0,3.7-0.4,5.3-1.2c1.6-0.8,3-2,4.1-3.7h3.3c-1.3,2.4-3,4.3-5.2,5.6
			c-2.2,1.3-4.6,2-7.4,2c-4.2,0-7.7-1.4-10.5-4.3s-4.2-6.4-4.2-10.7c0-2,0.4-3.9,1.1-5.7c0.8-1.8,1.9-3.4,3.3-4.8
			c1.4-1.4,2.9-2.4,4.6-3.1c1.7-0.7,3.5-1,5.5-1c2.8,0,5.4,0.7,7.6,2.1c2.3,1.4,4,3.3,5.4,5.9H497.6z"/>
		<path class="st37" d="M502.5,1138.4c0-2,0.4-3.9,1.1-5.7s1.9-3.4,3.3-4.8c1.4-1.4,2.9-2.4,4.6-3.1c1.7-0.7,3.5-1,5.4-1
			c2,0,3.8,0.3,5.5,1c1.7,0.7,3.3,1.7,4.7,3.1c1.4,1.4,2.5,3,3.3,4.8c0.7,1.8,1.1,3.7,1.1,5.7c0,2-0.3,3.9-0.9,5.6
			c-0.6,1.7-1.6,3.2-2.8,4.6c-1.4,1.6-3.1,2.8-4.9,3.6c-1.8,0.8-3.8,1.2-5.9,1.2c-4.1,0-7.5-1.4-10.3-4.3S502.5,1142.7,502.5,1138.4
			z M505.4,1138.5c0,3.5,1.1,6.4,3.4,8.7c2.3,2.3,5,3.5,8.3,3.5c3.2,0,6-1.2,8.2-3.6c2.2-2.4,3.3-5.3,3.3-8.8c0-3.2-1.1-6-3.4-8.3
			c-2.3-2.3-5.1-3.5-8.3-3.5c-1.3,0-2.6,0.2-3.8,0.7c-1.2,0.4-2.3,1.1-3.4,2c-1.4,1.1-2.4,2.5-3.2,4.2
			C505.8,1135.1,505.4,1136.8,505.4,1138.5z"/>
		<path class="st37" d="M535.3,1152.8v-28.4h4.1l9.8,24.7l9.8-24.7h4.1v28.4h-2.7v-25.1l-10,25.1H548l-10-25.1v25.1H535.3z"/>
		<path class="st37" d="M568.1,1124.4h2.8v18c0,1.4,0.1,2.4,0.2,3.1c0.1,0.7,0.3,1.3,0.6,1.8c0.5,1.1,1.3,1.9,2.2,2.5
			c1,0.6,2.1,0.9,3.3,0.9c2.1,0,3.7-0.7,4.8-2.2c1-1.5,1.5-3.7,1.5-6.8v-17.4h2.8v18.1c0,3.7-0.7,6.4-2.2,8.2
			c-1.5,1.8-3.7,2.7-6.7,2.7c-3.2,0-5.5-0.9-7-2.7c-1.5-1.8-2.2-4.5-2.2-8.3V1124.4z"/>
		<path class="st37" d="M610.2,1149.4l-0.3-25h2.8v28.4h-3.4l-15.6-25.1l0.3,25.1h-2.8v-28.4h3.4L610.2,1149.4z"/>
		<path class="st37" d="M620.7,1152.8h-2.8v-28.4h2.8V1152.8z"/>
		<path class="st37" d="M648.5,1131.8c-1.3-1.8-2.7-3.1-4.3-3.9c-1.6-0.8-3.4-1.3-5.4-1.3c-3.2,0-5.9,1.2-8.1,3.5s-3.4,5.1-3.4,8.4
			c0,3.4,1.1,6.3,3.3,8.7c2.2,2.4,4.9,3.5,8.1,3.5c2,0,3.7-0.4,5.3-1.2s3-2,4.1-3.7h3.3c-1.3,2.4-3,4.3-5.2,5.6
			c-2.2,1.3-4.6,2-7.4,2c-4.2,0-7.7-1.4-10.5-4.3s-4.2-6.4-4.2-10.7c0-2,0.4-3.9,1.1-5.7c0.8-1.8,1.9-3.4,3.3-4.8
			c1.4-1.4,2.9-2.4,4.6-3.1c1.7-0.7,3.5-1,5.5-1c2.8,0,5.4,0.7,7.6,2.1c2.3,1.4,4,3.3,5.4,5.9H648.5z"/>
		<path class="st37" d="M654.5,1152.8h-2.9l11-28.4h3.4l11,28.4h-3l-3.4-8.9h-12.7L654.5,1152.8z M669.6,1141.4l-5.4-14.3l-5.3,14.3
			H669.6z"/>
		<path class="st37" d="M697.9,1149.4l-0.3-25h2.8v28.4H697l-15.6-25.1l0.3,25.1h-2.8v-28.4h3.4L697.9,1149.4z"/>
		<path class="st37" d="M705.6,1124.4h8.1c2.2,0,4.1,0.2,5.6,0.7c1.5,0.4,2.9,1.2,4,2.1c1.6,1.4,2.9,3,3.8,5c0.9,2,1.3,4.1,1.3,6.3
			c0,2.5-0.5,4.8-1.5,6.9c-1,2.1-2.4,3.7-4.2,5c-1.2,0.8-2.5,1.5-3.9,1.8c-1.4,0.4-3.5,0.5-6.4,0.5h-6.8V1124.4z M708.4,1127.1v23
			h5.8c3.6,0,6.4-1,8.4-3s2.9-4.9,2.9-8.6c0-1.9-0.3-3.6-1-5.2c-0.7-1.6-1.6-2.9-2.9-4c-0.9-0.8-2-1.4-3.1-1.7
			c-1.1-0.3-2.8-0.5-5-0.5H708.4z"/>
		<path class="st37" d="M730.6,1138.4c0-2,0.4-3.9,1.1-5.7s1.9-3.4,3.3-4.8c1.4-1.4,2.9-2.4,4.6-3.1c1.7-0.7,3.5-1,5.4-1
			c2,0,3.8,0.3,5.5,1c1.7,0.7,3.3,1.7,4.7,3.1c1.4,1.4,2.5,3,3.3,4.8c0.7,1.8,1.1,3.7,1.1,5.7c0,2-0.3,3.9-0.9,5.6
			c-0.6,1.7-1.6,3.2-2.8,4.6c-1.4,1.6-3.1,2.8-4.9,3.6c-1.8,0.8-3.8,1.2-5.9,1.2c-4.1,0-7.5-1.4-10.3-4.3S730.6,1142.7,730.6,1138.4
			z M733.5,1138.5c0,3.5,1.1,6.4,3.4,8.7c2.3,2.3,5,3.5,8.3,3.5c3.2,0,6-1.2,8.2-3.6c2.2-2.4,3.3-5.3,3.3-8.8c0-3.2-1.1-6-3.4-8.3
			c-2.3-2.3-5.1-3.5-8.3-3.5c-1.3,0-2.6,0.2-3.8,0.7c-1.2,0.4-2.3,1.1-3.4,2c-1.4,1.1-2.4,2.5-3.2,4.2
			C733.9,1135.1,733.5,1136.8,733.5,1138.5z"/>
		<path class="st37" d="M761.5,1144.7h2.7c0.1,1.8,0.5,3.2,1.5,4.2c0.9,1,2.2,1.6,3.7,1.6c1.7,0,3-0.5,3.9-1.6c1-1,1.5-2.4,1.5-4.2
			c0-2.6-2-4.5-6-5.8c-0.3-0.1-0.5-0.2-0.7-0.2c-2.1-0.7-3.6-1.6-4.5-2.7c-0.9-1.1-1.4-2.5-1.4-4.3c0-2.3,0.7-4.1,2.1-5.6
			c1.4-1.4,3.2-2.2,5.5-2.2c2.1,0,3.8,0.7,5.1,2c1.3,1.3,1.9,3.2,2.1,5.5h-2.6c-0.1-1.5-0.6-2.7-1.4-3.6s-1.8-1.3-3.1-1.3
			c-1.4,0-2.6,0.5-3.4,1.4c-0.9,0.9-1.3,2.1-1.3,3.5c0,0.7,0.1,1.4,0.4,1.9c0.3,0.5,0.7,1,1.3,1.5c0.6,0.4,1.7,0.9,3.4,1.5
			c1,0.3,1.7,0.6,2.2,0.8c1.8,0.7,3.2,1.6,4,2.7c0.8,1.1,1.2,2.6,1.2,4.4c0,2.8-0.8,5-2.3,6.7c-1.5,1.7-3.5,2.5-6,2.5
			c-2.3,0-4.2-0.8-5.6-2.4C762.2,1149.4,761.5,1147.3,761.5,1144.7z"/>
		<path class="st37" d="M784.4,1137.2h12v2.8h-12v10.1h12v2.8h-14.8v-28.4h14.8v2.8h-12V1137.2z"/>
	</g>
	<rect x="75" y="1190.3" class="st56" width="440.9" height="39.5"/>
	<text transform="matrix(1 0 0 1 75 1198.7849)" class="st0"><tspan x="0" y="0" class="st14 st57 st58">contacto@beruon.com</tspan><tspan x="0" y="15" class="st14 st57 st58">www.beruon.com</tspan><tspan x="0" y="30" class="st14 st57 st58">55-6498-8988</tspan></text>
</g>
</svg>
