<svg xmlns="http://www.w3.org/2000/svg" viewBox="0 0 2500 2499.99"><defs><style>.cls-1{fill:#c8c8c8;}</style></defs><title>Recurso 1</title><g id="Capa_2" data-name="Capa 2"><g id="Capa_1-2" data-name="Capa 1"><path class="cls-1" d="M1250,0C559.64,0,0,559.64,0,1250c0,613.43,441.88,1123.64,1024.7,1229.73A1257.31,1257.31,0,0,0,1248.54,2500h2.92a1261.07,1261.07,0,0,0,162.87-10.72C2027,2408.81,2500,1884.65,2500,1250,2500,559.64,1940.36,0,1250,0ZM2336.38,1708.9a1178.56,1178.56,0,0,1-848.7,696.15q-36.36,7.44-73.35,12.58V1531.87h325L1788,1154.56H1414.32V913.67c0-109.23,30.34-183.67,187-183.67l199.79-.1V392.45c-34.56-4.59-153.16-14.87-291.13-14.87-288.06,0-485.27,175.83-485.27,498.74v278.24H698.9v377.31h325.8V2407.5q-6.21-1.2-12.38-2.45a1172.13,1172.13,0,0,1-421.46-177.36A1182.67,1182.67,0,0,1,163.62,1708.9,1173.09,1173.09,0,0,1,95,1487.68a1191.39,1191.39,0,0,1,0-475.37A1172.18,1172.18,0,0,1,272.31,590.86,1182.67,1182.67,0,0,1,791.1,163.62,1173.09,1173.09,0,0,1,1012.32,95a1191.34,1191.34,0,0,1,475.36,0,1172.13,1172.13,0,0,1,421.46,177.36A1182.67,1182.67,0,0,1,2336.38,791.1a1173.22,1173.22,0,0,1,68.67,221.21,1191.39,1191.39,0,0,1,0,475.37A1173.09,1173.09,0,0,1,2336.38,1708.9Z"/></g></g></svg>