<svg xmlns="http://www.w3.org/2000/svg" viewBox="0 0 49.46 50"><defs><style>.cls-1{fill:none;}.cls-2{fill:#fff;}</style></defs><title>Recurso 3</title><g id="Capa_2" data-name="Capa 2"><g id="Capa_1-2" data-name="Capa 1"><rect class="cls-1" width="49.46" height="49.46"/><path class="cls-2" d="M47.55,17.79a12.8,12.8,0,0,0-3.42-8.92A11.87,11.87,0,0,0,43.81.08S41-.82,34.68,3.48A31.74,31.74,0,0,0,18,3.48C11.69-.82,8.9.08,8.9.08a12,12,0,0,0-.33,8.79,12.89,12.89,0,0,0-3.42,8.92c0,12.73,7.76,15.58,15.14,16.42a7.1,7.1,0,0,0-2.11,4.45c-1.9.85-6.71,2.31-9.67-2.77,0,0-1.76-3.19-5.09-3.42,0,0-3.25,0-.23,2,0,0,2.18,1,3.69,4.86,0,0,2,5.93,11.19,3.92,0,2.78.05,5.4.05,6.19A2,2,0,0,1,18,50H34.67a2,2,0,0,1-.07-.54c0-1.09,0-4.67,0-9.12,0-3.1-1.06-5.12-2.25-6.15C39.78,33.36,47.55,30.55,47.55,17.79Zm-42,15.84h0c-.07.17-.33.22-.57.1s-.38-.33-.3-.49.33-.22.57-.11S5.65,33.47,5.57,33.63ZM7.2,35.09h0c-.15.15-.46.08-.67-.15a.51.51,0,0,1-.1-.69c.16-.15.46-.08.68.15s.26.54.09.69ZM8.33,37h0c-.21.14-.54,0-.75-.29s-.2-.65,0-.79.53,0,.74.28A.6.6,0,0,1,8.33,37Zm1.89,2.16h0c-.18.2-.57.15-.85-.13a.64.64,0,0,1-.19-.85c.18-.2.57-.14.86.13S10.42,38.92,10.22,39.12Zm2.45.73h0c-.08.26-.45.38-.83.27s-.62-.42-.54-.68.45-.39.83-.27S12.75,39.58,12.67,39.85Zm2.79.31c0,.27-.31.5-.7.5s-.72-.21-.72-.48.31-.5.7-.51.72.22.72.49Zm2.12.51c-.38.07-.74-.1-.79-.36s.23-.55.62-.62.74.09.79.36h0C18.25,40.32,18,40.6,17.58,40.67Z"/></g></g></svg>