<?xml version="1.0" encoding="utf-8"?>
<!-- Generator: Adobe Illustrator 24.0.1, SVG Export Plug-In . SVG Version: 6.00 Build 0)  -->
<svg version="1.1" id="Capa_1" xmlns="http://www.w3.org/2000/svg" xmlns:xlink="http://www.w3.org/1999/xlink" x="0px" y="0px"
	 viewBox="0 0 149.8 149.8" style="enable-background:new 0 0 149.8 149.8;" xml:space="preserve">
<style type="text/css">
	.st0{display:none;}
	.st1{fill:none;}
	.st2{fill:#333333;}
</style>
<g id="Guias" class="st0">
</g>
<g id="fondo" class="st0">
</g>
<g id="Gráfico">
	<g>
		<rect class="st1" width="149.8" height="149.8"/>
		<g>
			<ellipse class="st2" cx="74.9" cy="29.8" rx="52.5" ry="21.9"/>
			<path class="st2" d="M74.9,56.5c-29,0-52.5-9.8-52.5-21.9v25.1c0,12.1,23.5,21.9,52.5,21.9s52.5-9.8,52.5-21.9V34.5
				C127.4,46.6,103.9,56.5,74.9,56.5z"/>
			<path class="st2" d="M74.9,86.2c-29,0-52.5-9.8-52.5-21.9v25.1c0,12.1,23.5,21.9,52.5,21.9s52.5-9.8,52.5-21.9V64.3
				C127.4,76.4,103.9,86.2,74.9,86.2z"/>
			<path class="st2" d="M74.9,116c-29,0-52.5-9.8-52.5-21.9v25.1c0,12.1,23.5,21.9,52.5,21.9s52.5-9.8,52.5-21.9V94.1
				C127.4,106.2,103.9,116,74.9,116z"/>
		</g>
	</g>
</g>
<g id="Trazo">
</g>
<g id="Texto">
</g>
</svg>
