<?xml version="1.0" encoding="utf-8"?>
<!-- Generator: Adobe Illustrator 24.0.1, SVG Export Plug-In . SVG Version: 6.00 Build 0)  -->
<svg version="1.1" id="Capa_1" xmlns="http://www.w3.org/2000/svg" xmlns:xlink="http://www.w3.org/1999/xlink" x="0px" y="0px"
	 viewBox="0 0 30 30" style="enable-background:new 0 0 30 30;" xml:space="preserve">
<style type="text/css">
	.st0{fill:#333333;}
</style>
<title>Recurso 6</title>
<g id="Capa_2_1_">
	<g id="imago">
		<path class="st0" d="M21.8,13.6c-0.4-0.4-0.8-0.6-1.3-0.8c-0.5-0.2-1-0.3-1.5-0.3h-0.1c-0.5,0-1,0.1-1.5,0.2
			c-0.5,0.2-1,0.4-1.4,0.6c-0.4,0.3-0.9,0.6-1.2,0.9c-0.2,0.2-0.4,0.4-0.5,0.6c-0.1,0.1-0.2,0.2-0.3,0.3l-0.1,0.2l-0.1,0.2
			c0,0.1-0.1,0.2-0.2,0.3c-0.1,0.1-0.1,0.2-0.2,0.2c-0.2,0.1-0.4,0.2-0.6,0.2c-0.1,0-0.1,0-0.1,0.1c0,0,0,0,0,0c0,0,0,0.1,0.1,0.1
			c0,0,0,0,0,0c0.1,0,0.2,0,0.3,0c0.2,0,0.4,0,0.6-0.1c0.3-0.1,0.5-0.3,0.6-0.6l0,0c0,0,0-0.1,0.1-0.1l0.1-0.1
			c0.1-0.1,0.1-0.2,0.2-0.3c0.2-0.2,0.3-0.3,0.5-0.5l0.6-0.4c0.2-0.1,0.4-0.3,0.6-0.4c0.4-0.2,0.8-0.4,1.3-0.6
			c0.4-0.1,0.9-0.2,1.4-0.2H19c0.4,0,0.9,0.1,1.3,0.2c0.5,0.2,0.9,0.4,1.3,0.6c0.2,0.1,0.4,0.3,0.6,0.4l0.1,0.1l0.1,0.1l0.1,0.1
			l0.1,0.1c0,0,0.1,0,0.1,0c0.1,0,0.1-0.1,0.1-0.1c0,0,0,0,0-0.1C22.6,14.3,22.2,14,21.8,13.6z M20.5,12.9c-0.3-0.1-0.5-0.2-0.8-0.2
			C19.9,12.7,20.2,12.8,20.5,12.9z M18.9,12.6c-0.2,0-0.4,0-0.5,0C18.5,12.6,18.7,12.6,18.9,12.6L18.9,12.6z M17.4,12.8
			c0.2-0.1,0.5-0.1,0.7-0.2C17.9,12.7,17.6,12.8,17.4,12.8c-0.2,0.1-0.5,0.2-0.7,0.3C16.9,13,17.2,12.9,17.4,12.8z M14.8,14.4
			L14.8,14.4c-0.2,0.2-0.4,0.4-0.5,0.6C14.4,14.8,14.6,14.6,14.8,14.4z M13.5,16.3c-0.1,0.1-0.2,0.1-0.3,0.1
			C13.3,16.4,13.4,16.3,13.5,16.3z M14,15.3C13.9,15.4,13.9,15.4,14,15.3c-0.1,0.1-0.1,0.2-0.1,0.2C13.9,15.5,13.9,15.5,14,15.3
			C13.9,15.4,14,15.4,14,15.3L14,15.3z M13.1,16.3H13H13.1z M12.7,16.4c0.1,0,0.2,0,0.3,0h0C12.9,16.4,12.8,16.4,12.7,16.4
			L12.7,16.4z M15,14.7c-0.2,0.2-0.4,0.3-0.5,0.5l-0.2,0.3l-0.1,0.1l-0.1,0.1l0.1-0.1l0.1-0.1l0.2-0.3C14.6,15,14.8,14.8,15,14.7
			l0.3-0.2L15,14.7z M17.5,13.2c-0.2,0.1-0.5,0.2-0.7,0.3C17.1,13.4,17.3,13.3,17.5,13.2c0.5-0.2,0.9-0.2,1.4-0.2l0,0
			C18.5,13,18,13.1,17.5,13.2L17.5,13.2z M19.4,13h0.2H19.4z M22.5,14.6l-0.1-0.1l-0.1-0.1c-0.2-0.2-0.4-0.3-0.6-0.5
			c-0.2-0.1-0.4-0.3-0.6-0.4c-0.2-0.1-0.4-0.2-0.7-0.3l0,0c0.2,0.1,0.4,0.2,0.7,0.3c0.2,0.1,0.4,0.2,0.6,0.4
			c0.2,0.1,0.4,0.3,0.6,0.5l0.1,0.1L22.5,14.6L22.5,14.6L22.5,14.6z M22.8,14.8c-0.3-0.4-0.6-0.8-1-1.1C22.1,14,22.5,14.4,22.8,14.8
			z"/>
		<path class="st0" d="M12.2,14.2V14v-0.1v-0.2c-0.1-0.4-0.2-0.7-0.4-1.1c-0.2-0.3-0.4-0.7-0.7-0.9h-0.1H11c0,0,0,0.1,0,0.1
			c0.1,0.3,0.3,0.7,0.4,1c0.1,0.3,0.2,0.7,0.3,1c0,0.1,0,0.1,0,0.2v0.1v0.1v0.2v0.2v0.3v0.3c0,0.1,0,0.2,0,0.3c0,0.1,0,0.1,0,0.2V16
			c0,0,0.1,0.1,0.1,0.1l0,0c0,0.1,0.1,0.1,0.2,0.1c0.1,0,0.1-0.1,0.1-0.2l0,0l0.1-0.3v-0.1l0,0v-0.1c0-0.1,0-0.2,0-0.3
			c0-0.1,0-0.2,0-0.3c0-0.1,0-0.2,0-0.3s0-0.1,0-0.2v-0.1C12.1,14.3,12.2,14.2,12.2,14.2z M11.9,13.2c-0.1-0.2-0.1-0.4-0.2-0.5
			c-0.1-0.1-0.1-0.2-0.2-0.3c0.1,0.1,0.1,0.2,0.2,0.3C11.8,12.9,11.8,13.1,11.9,13.2z M11.4,12.8c-0.1-0.3-0.2-0.7-0.4-1l0,0
			C11.1,12.2,11.3,12.5,11.4,12.8c0.1,0.3,0.2,0.7,0.3,1C11.6,13.5,11.5,13.2,11.4,12.8z M11.7,14.4L11.7,14.4v0.2V14.4z M11.7,14.8
			c0,0.1,0,0.1,0,0.1l0,0C11.7,14.9,11.8,14.8,11.7,14.8L11.7,14.8z M11.8,15.4v-0.3l0,0V15.4c0,0.2,0,0.4,0.1,0.5l0,0
			C11.9,15.8,11.9,15.6,11.8,15.4L11.8,15.4z M12,15.6v0.1c0,0,0,0.1,0,0.1s0-0.1,0-0.1V15.6c0,0,0-0.1,0-0.1v-0.2v0.2
			C12,15.5,12,15.5,12,15.6L12,15.6z M12.1,14.9c0,0,0,0.1,0,0.1S12.1,14.9,12.1,14.9c0-0.1,0-0.2,0-0.3
			C12.1,14.7,12.1,14.8,12.1,14.9L12.1,14.9z M12.1,14.6L12.1,14.6z"/>
		<path class="st0" d="M11.5,5.2l0.3,0.1c0.1,0,0.1,0.1,0.2,0.1l0,0l0,0l0,0l0,0H12l0,0h0.1l0,0l0,0l0,0l0,0l0,0l0,0v0.1V5.4l0,0
			l0,0L12,5.5l0,0v0.1l0,0c0,0,0.1,0.1,0.1,0.1c0,0,0.1,0,0.1,0l0,0c0,0,0.1,0,0.1-0.1c0,0,0-0.1,0-0.1c0,0,0-0.1,0-0.1v0.1
			c0,0,0-0.1,0-0.1c0,0,0-0.1,0-0.1c0,0,0-0.1-0.1-0.1c0,0,0-0.1-0.1-0.1l0,0l0,0l0,0C12,5,11.9,5,11.7,5l0,0c-0.1,0-0.3,0-0.4,0.1
			c0,0,0,0.1,0,0.1c0,0,0,0.1,0.1,0.1L11.5,5.2z M12.1,5.4L12.1,5.4L12.1,5.4L12.1,5.4z M12,5l0.1,0.1L12,5z M12.3,5.7l0.1,0.1l0,0
			L12.3,5.7z M12.4,5.5L12.4,5.5c0,0.1,0,0.2,0,0.2l0,0C12.4,5.7,12.4,5.6,12.4,5.5L12.4,5.5C12.4,5.5,12.4,5.5,12.4,5.5L12.4,5.5
			C12.4,5.5,12.4,5.5,12.4,5.5L12.4,5.5z M12.3,5.2L12.3,5.2L12.3,5.2L12.3,5.2L12.3,5.2L12.3,5.2z M11.9,5L11.9,5z M11.5,5.1
			l0.3,0.1l0.1,0.1l-0.1-0.1L11.5,5.1z"/>
		<path class="st0" d="M6.9,7L6.9,7C7,7,7.1,7,7.1,7c0,0,0-0.1,0-0.1V6.8C7,6.7,7,6.5,6.9,6.4c0-0.1,0-0.3,0-0.4
			C7,5.9,7,5.8,7.1,5.7c0.1-0.1,0.2-0.3,0.4-0.4c0,0,0-0.1,0-0.1c0-0.1,0-0.1,0-0.2c0,0-0.1,0-0.1,0l0,0C7.1,5,6.9,5.1,6.8,5.2
			C6.6,5.4,6.4,5.6,6.4,5.8c0,0.2,0,0.5,0.1,0.7C6.6,6.7,6.7,6.9,6.9,7z M6.8,6.7l0.1,0.1L6.8,6.7z M6.8,5.9c0,0,0,0.1,0,0.1
			S6.8,6,6.8,5.9c0-0.1,0.1-0.2,0.1-0.3C6.8,5.7,6.8,5.8,6.8,5.9z M7.2,5.3l0.1-0.1l0,0L7.2,5.3z M6.8,5.4L6.8,5.4L6.8,5.4L6.8,5.4
			L6.8,5.4z M6.5,6.2c0,0.1,0.1,0.2,0.1,0.3c0,0.1,0.1,0.1,0.2,0.2C6.7,6.6,6.6,6.5,6.6,6.5C6.5,6.4,6.5,6.3,6.5,6.2z"/>
		<path class="st0" d="M9.7,8.3c0.1,0,0.3-0.1,0.4-0.2c0,0,0-0.1,0-0.1C9.9,7.7,9.6,7.5,9.2,7.4l0,0c0,0,0,0-0.1,0c0,0,0,0,0,0.1
			c0,0.2,0,0.4,0.2,0.6C9.4,8.2,9.6,8.3,9.7,8.3z M9.4,8L9.4,8C9.4,8,9.4,8,9.4,8z M9.7,8.2L9.7,8.2z M9.9,8.1L9.9,8.1z M9.2,7.8
			L9.2,7.8L9.2,7.8z"/>
		<path class="st0" d="M9.4,10.6c0.2,0.1,0.4,0.1,0.6,0.2h0.6h0.3l0.3-0.1c0.2-0.1,0.4-0.2,0.5-0.3c0.3-0.2,0.6-0.6,0.7-0.9l0.1-0.1
			l0,0V9.1V9V8.8l0,0c0,0,0,0,0-0.1c0-0.2,0-0.3-0.1-0.4c0,0,0-0.1-0.1-0.1l0,0l0,0l0,0l0,0c-0.1-0.1-0.1-0.2-0.1-0.3c0,0,0,0,0-0.1
			V7.6c0,0,0,0,0-0.1c0-0.1,0-0.2,0-0.3c0-0.4-0.1-0.8-0.3-1.1V6.1l0,0c0,0-0.1-0.1-0.1-0.1l-0.1-0.1l-0.1-0.1l0,0l-0.1-0.1h-0.1
			l-0.2-0.1l0,0h-0.1c0,0-0.1,0-0.1,0.1c0,0,0,0.1,0,0.1c0.2,0.2,0.4,0.5,0.6,0.8c0.1,0.3,0.2,0.6,0.1,0.9c0,0.1,0,0.1,0,0.2l0,0
			v0.1c0,0.1,0,0.1,0,0.2c0,0.2,0,0.5,0.2,0.6c-0.1,0-0.2,0-0.3,0c0,0-0.1,0-0.1,0.1c0,0,0,0.1,0,0.1c0.1,0.2,0.2,0.3,0.3,0.4v0.1
			c0,0,0,0,0,0.1l0,0l0,0l0,0v0.1c0,0,0,0.1-0.1,0.1c-0.1,0.1-0.2,0.2-0.3,0.3c-0.1,0.1-0.2,0.2-0.4,0.2c-0.1,0.1-0.3,0.1-0.4,0.1
			c-0.2,0-0.3,0.1-0.5,0.1l0,0c-0.1,0-0.3,0-0.4-0.1C9.4,9.9,9.1,9.8,8.9,9.6H8.8c0,0-0.1,0-0.1,0c0,0,0,0.1,0,0.1
			C8.8,9.9,9,10,9.1,10.1C9.2,10.3,9.3,10.4,9.4,10.6z M10.4,10.6L10.4,10.6h0.1H10.4z M11.1,10.4l-0.2,0.1L11.1,10.4
			c0.1-0.1,0.3-0.1,0.4-0.2C11.4,10.3,11.2,10.4,11.1,10.4L11.1,10.4z M11.7,7.7L11.7,7.7c0-0.1,0-0.1,0-0.2l0,0
			C11.6,7.6,11.6,7.7,11.7,7.7L11.7,7.7z M11.8,8.5L11.8,8.5z M11.3,9.9L11.3,9.9L11.3,9.9z M12.3,8.9L12.3,8.9L12.3,8.9L12.3,8.9z
			 M12.2,8.2L12.2,8.2L12.2,8.2z M11.6,6c0,0,0.1,0.1,0.1,0.1l0.1,0.1c0.1,0.1,0.1,0.3,0.2,0.4c0-0.1-0.1-0.3-0.2-0.4l-0.1-0.1
			C11.7,6.1,11.6,6,11.6,6L11.6,6z M11.6,6.3c-0.1-0.2-0.1-0.3-0.3-0.4c-0.1-0.1-0.2-0.3-0.4-0.4l0.2,0.1l0.2,0.2l-0.2-0.2L11,5.5
			c0.1,0.1,0.2,0.2,0.3,0.4C11.4,6,11.5,6.2,11.6,6.3c0,0.1,0.1,0.3,0.1,0.5c0,0.2,0,0.3,0,0.5c0,0,0,0.1,0,0.1s0-0.1,0-0.1
			c0-0.2,0-0.3,0-0.5C11.7,6.6,11.7,6.5,11.6,6.3L11.6,6.3z M11.5,8.6L11.5,8.6c0,0.1,0.1,0.2,0.1,0.2C11.5,8.7,11.5,8.6,11.5,8.6
			L11.5,8.6z M11.6,8.6L11.6,8.6z M11.8,9.4c0,0,0-0.1,0.1-0.1V9.2l0,0l0,0v0.1C11.8,9.3,11.8,9.3,11.8,9.4L11.8,9.4L11.8,9.4z
			 M9.6,10.3L9.6,10.3c-0.2-0.1-0.3-0.1-0.5-0.2C9.2,10.2,9.4,10.2,9.6,10.3L9.6,10.3z M8.7,9.9C8.7,9.9,8.8,10,8.9,10
			S8.7,9.9,8.7,9.9z"/>
		<path class="st0" d="M11.3,20.9c0.1,0,0.1-0.1,0.1-0.1c0,0,0,0,0-0.1c-0.1-0.2-0.3-0.4-0.5-0.6c0,0-0.1-0.1-0.1-0.1l-0.1-0.1
			l-0.3-0.3l-0.2-0.2l-0.1-0.1L10,19.2c0,0-0.1-0.1-0.1-0.1l-0.1-0.2l-0.3-0.4l-0.1-0.1v-0.1l0,0l0,0L9.1,18L9,17.9l0,0l-0.1-0.1
			l-0.1-0.1l-0.1-0.1v0c-0.2-0.4-0.4-0.8-0.6-1.3c-0.3-0.9-0.5-1.8-0.5-2.8c0-0.5,0-0.9,0.1-1.4c0-0.5,0.1-1,0.2-1.4
			c0-0.1,0-0.1-0.1-0.1c0,0,0,0,0,0l0,0c0,0-0.1,0-0.1,0.1c-0.2,0.4-0.4,0.9-0.5,1.4c-0.1,0.5-0.2,1-0.2,1.5c0,1,0.1,2,0.4,3
			c0.1,0.2,0.2,0.5,0.3,0.7l0,0L8,17.4c0,0,0,0.1,0.1,0.1l0,0l0.1,0.2c0.3,0.4,0.6,0.8,0.9,1.2c0.1,0.2,0.3,0.3,0.5,0.5l0,0l0.1,0.1
			l0.1,0.1l0.1,0.1l0,0l0.1,0.1l0.3,0.2l0.1,0.1l0.1,0.1l0.5,0.5c0,0,0,0.1,0,0.1C11.3,20.9,11.3,20.9,11.3,20.9z M11.1,20.6
			l0.2,0.2l0,0L11.1,20.6z M10.1,19.4c0.1,0.1,0.2,0.2,0.3,0.3l0.3,0.3l0,0l0,0l-0.3-0.3C10.3,19.6,10.2,19.5,10.1,19.4L10,19.4
			L10.1,19.4z M9.3,18.4L9.3,18.4L9.3,18.4L9.3,18.4z M8.6,17.4c0,0,0.1,0.1,0.1,0.1l0.1,0.1l0.1,0.2C8.9,18,9,18,9,18
			c0,0-0.1-0.1-0.1-0.1l-0.1-0.2l-0.1-0.1C8.7,17.5,8.7,17.5,8.6,17.4c-0.1-0.2-0.2-0.4-0.3-0.6C8.4,17,8.5,17.2,8.6,17.4L8.6,17.4z
			 M7.9,10.5L7.9,10.5c-0.1,0.2-0.2,0.4-0.3,0.7C7.7,10.9,7.8,10.7,7.9,10.5z M7.2,13.3c0-0.5,0.1-0.9,0.2-1.3
			C7.3,12.4,7.2,12.9,7.2,13.3c0,0.6,0,1.2,0.1,1.9C7.2,14.6,7.2,14,7.2,13.3z M7.9,17c0-0.1-0.1-0.2-0.1-0.3
			C7.8,16.8,7.9,16.9,7.9,17L8,17.2L7.9,17z M8.2,17.5l-0.1-0.1L8.2,17.5l0.1,0.1L8.2,17.5z M9.9,19.6l-0.1-0.1l-0.1-0.1l0.1,0.1
			L9.9,19.6L9.9,19.6L9.9,19.6z M10.5,20.1l0.1,0.1l0,0l0,0L10.5,20.1z"/>
		<path class="st0" d="M8.2,25.2L8.2,25.2c-0.2,0.1-0.3,0.1-0.5,0.1H7.4c-0.1,0-0.1,0-0.2,0c-0.1,0-0.1-0.1-0.2-0.1l0,0L7.2,25v0
			l0.1-0.1l0.1-0.1c0.1-0.2,0.2-0.3,0.3-0.5c0.1-0.2,0.2-0.4,0.2-0.6C7.9,23.4,8,23.2,8,23c0-0.2,0-0.4,0-0.6c0-0.2-0.1-0.4-0.1-0.6
			c-0.1-0.2-0.1-0.4-0.2-0.6L7.6,21l-0.1-0.1v-0.1v0c-0.1-0.2-0.1-0.3-0.1-0.5c-0.1-0.7,0.1-1.5,0.4-2.1c0,0,0-0.1,0-0.1
			c0,0,0,0-0.1,0c0,0,0,0-0.1,0c-0.6,0.6-0.9,1.4-0.8,2.3c0,0.2,0.1,0.4,0.1,0.6v0v0.1v0.1c0,0.1,0.1,0.2,0.1,0.3
			c0.1,0.3,0.2,0.7,0.3,1c0,0.4,0,0.7-0.1,1c0,0.2-0.1,0.3-0.2,0.5l-0.1,0.1v0.1v0L7,24.4v0.1l-0.1,0.1v0.1l0,0l-0.1,0.1l0.1,0.1
			l-0.1-0.1l0,0v0.1c0,0,0,0.1,0,0.1c0,0.1,0,0.2,0,0.3v0.1c0,0,0,0,0,0.1l0.1,0.1c0.1,0.1,0.2,0.2,0.3,0.2c0.1,0,0.2,0,0.3,0h0.3
			h0.1c0.2-0.1,0.4-0.1,0.5-0.3c0,0,0-0.1,0-0.1c0,0,0,0,0,0c0-0.1,0-0.1-0.1-0.1S8.2,25.1,8.2,25.2L8.2,25.2z M7.7,25.5l0.2,0
			L7.7,25.5L7.7,25.5z M7.5,25.5L7.5,25.5z M6.9,25.1L6.9,25.1L6.9,25.1L6.9,25.1C7,25.1,7,25.1,6.9,25.1L6.9,25.1
			C7,25.2,6.9,25.1,6.9,25.1L6.9,25.1z M6.9,25L7,24.9l0,0L6.9,25z M7.6,24.2c-0.1,0.2-0.2,0.4-0.3,0.5C7.4,24.6,7.5,24.4,7.6,24.2
			c0.1-0.2,0.2-0.4,0.2-0.6c0-0.1,0-0.2,0-0.3c0,0.1,0,0.2,0,0.3C7.7,23.9,7.7,24,7.6,24.2L7.6,24.2z M7.2,19.7c0,0.2,0,0.4,0,0.5
			c0,0.2,0.1,0.4,0.1,0.5c-0.1-0.2-0.1-0.3-0.1-0.5C7.1,20.1,7.1,19.9,7.2,19.7c0-0.6,0.2-1.1,0.5-1.6l0,0
			C7.4,18.6,7.2,19.1,7.2,19.7L7.2,19.7z M7.2,21.5c0-0.1-0.1-0.2-0.1-0.3V21l0-0.2c-0.1-0.2-0.1-0.4-0.1-0.6c0,0.2,0,0.4,0.1,0.6
			L7.1,21v0.1C7.1,21.3,7.1,21.4,7.2,21.5c0.2,0.3,0.2,0.6,0.3,1C7.4,22.1,7.4,21.8,7.2,21.5L7.2,21.5z M7.2,24.3l0.1-0.1L7.3,24
			c0.1-0.2,0.1-0.3,0.2-0.5c0-0.2,0.1-0.4,0.1-0.5c0,0.2,0,0.4-0.1,0.5c0,0.2-0.1,0.3-0.2,0.5l-0.1,0.1L7.2,24.3
			c0,0.1-0.1,0.1-0.1,0.2v0.1v-0.1C7.1,24.5,7.1,24.4,7.2,24.3z M6.9,24.7L6.9,24.7L6.9,24.7L6.9,24.7L6.9,24.7z M6.8,24.9L6.8,24.9
			z M7.4,25.6L7.4,25.6c-0.1,0-0.2,0-0.3,0c-0.1,0-0.2-0.1-0.3-0.2l-0.1-0.1l0.1,0.1c0.1,0.1,0.2,0.1,0.3,0.2
			C7.2,25.6,7.3,25.6,7.4,25.6L7.4,25.6z M7.7,25.6H7.6H7.7c0.2-0.1,0.4-0.1,0.5-0.3l0,0C8.1,25.4,7.9,25.5,7.7,25.6z"/>
		<path class="st0" d="M12.7,25.4h-0.1h-0.1h-0.1h-0.1H12h0c-0.1,0-0.2,0-0.3-0.1c-0.1,0-0.1-0.1-0.2-0.2l0,0v-0.1c0,0,0,0,0,0
			s0,0,0-0.1c0-0.1,0-0.1,0-0.2l0.1-0.1c0,0,0.1-0.1,0.1-0.1l0,0c0,0,0.1-0.1,0.1-0.2l0,0l0.1-0.2c0.3-0.5,0.4-1.1,0.3-1.7
			c0-0.3-0.1-0.6-0.2-0.8c-0.1-0.1-0.1-0.3-0.2-0.4c-0.1-0.1-0.2-0.2-0.2-0.3c0,0-0.1,0-0.1,0c0,0,0,0-0.1,0c0,0,0,0.1,0,0.1
			c0.1,0.2,0.2,0.5,0.2,0.7c0,0.2,0.1,0.5,0.1,0.7c0,0.5-0.2,1-0.4,1.4l0,0l-0.1,0.1l-0.1,0.1l0,0l-0.1,0.1L11,24.5l0,0v0.1
			c-0.1,0.2-0.1,0.4-0.1,0.6c0,0,0,0.1,0,0.1l0,0c0,0,0,0.1,0,0.1l0.1,0.1l0.1,0.1c0.1,0.1,0.3,0.2,0.4,0.3c0.1,0,0.2,0,0.3,0L12,26
			c0.3,0,0.6-0.2,0.8-0.3C12.8,25.6,12.8,25.6,12.7,25.4C12.8,25.5,12.7,25.5,12.7,25.4L12.7,25.4z M11.3,25.1L11.3,25.1L11.3,25.1
			L11.3,25.1L11.3,25.1z M11.4,25.4L11.4,25.4z M11.8,24.2l-0.1,0.2l-0.1,0.2c0,0.1-0.1,0.1-0.1,0.2l-0.1,0.1c0,0,0,0.1,0,0.1
			c0,0,0-0.1,0-0.1l0.1-0.1c0-0.1,0.1-0.1,0.1-0.2l0.1-0.2L11.8,24.2c0.1-0.1,0.1-0.2,0.2-0.4C11.9,23.9,11.9,24.1,11.8,24.2z
			 M11.9,21.8c0.1,0.3,0.2,0.5,0.2,0.8c0,0.1,0,0.1,0,0.2c0-0.1,0-0.1,0-0.2C12,22.3,12,22,11.9,21.8c-0.1-0.1-0.1-0.2-0.2-0.4
			C11.8,21.5,11.8,21.7,11.9,21.8z M11.5,21.1L11.5,21.1c0.1,0.2,0.2,0.5,0.2,0.7c0,0.1,0,0.3,0,0.4c0-0.1,0-0.3,0-0.4
			C11.6,21.6,11.6,21.4,11.5,21.1z M11.1,24.5L11.1,24.5c0-0.1,0-0.1,0.1-0.1C11.1,24.4,11.1,24.5,11.1,24.5L11.1,24.5L11.1,24.5z
			 M10.9,25.2c0-0.2,0-0.3,0.1-0.5C10.9,24.8,10.9,25,10.9,25.2C10.9,25.2,10.9,25.2,10.9,25.2C10.9,25.2,10.9,25.2,10.9,25.2z
			 M11.4,25.8h0.1l0,0H11.4z M11.8,25.9L11.8,25.9z M12.2,25.8c0.2-0.1,0.4-0.1,0.5-0.3l0,0C12.6,25.7,12.4,25.7,12.2,25.8z"/>
		<path class="st0" d="M21.5,22.5c-0.1-0.2-0.2-0.4-0.4-0.6c-0.1-0.1-0.2-0.2-0.2-0.3l-0.2-0.2c-0.1-0.1-0.3-0.3-0.4-0.5
			c0-0.1-0.1-0.1-0.1-0.2l0,0v-0.1v0v-0.1v-0.1c-0.1-0.2-0.1-0.4-0.2-0.5c-0.1-0.4-0.1-0.8,0-1.2c0.1-0.2,0.2-0.4,0.3-0.5
			c0.1-0.1,0.1-0.2,0.2-0.3l0.2-0.3c0,0,0-0.1,0-0.1c0,0-0.1,0-0.1,0h-0.1c-0.2,0.1-0.3,0.3-0.5,0.5c-0.1,0.2-0.3,0.4-0.4,0.6
			c-0.1,0.2-0.2,0.4-0.2,0.6c0,0.2,0,0.5,0,0.7V20c0,0,0,0.1,0,0.1v0.2l0,0.2l0,0c0,0-0.1,0.1-0.1,0.1L19,20.7
			c-0.2,0.1-0.5,0.2-0.7,0.3c-0.5,0.2-1,0.3-1.5,0.4c-0.2,0-0.5,0.1-0.8,0.1h-0.6h-0.1c-0.5,0-1-0.1-1.6-0.2l0,0c0,0-0.1,0-0.1,0.1
			c0,0.1,0,0.1,0.1,0.1c0.5,0.2,1,0.3,1.6,0.3c0.2,0,0.5,0,0.7,0h0c0.3,0,0.6,0,0.8-0.1c0.5-0.1,1.1-0.2,1.6-0.4
			c0.3-0.1,0.5-0.2,0.8-0.3l0.4-0.2h0.1c0,0.1,0.1,0.1,0.1,0.2c0.1,0.2,0.3,0.4,0.4,0.5l0.1,0.1l0,0l0.1,0.1
			c0.1,0.1,0.1,0.1,0.2,0.2c0.2,0.3,0.4,0.6,0.5,1c0,0.2,0,0.4,0,0.5c0,0.2-0.1,0.4-0.2,0.5c-0.1,0.2-0.2,0.3-0.3,0.5l0,0l-0.2,0.2
			l-0.1,0l0,0h0c-0.1,0.1-0.1,0.2-0.1,0.3c0,0.1,0,0.2,0.1,0.3c0,0,0.1,0.1,0.1,0.1l0.1,0.1c0.1,0.1,0.2,0.1,0.4,0.1H21
			c0.2,0,0.4,0,0.5-0.1c0.1,0,0.1-0.1,0.1-0.1c0,0,0,0,0,0c0,0-0.1-0.1-0.1-0.1l0,0c-0.1,0-0.2,0-0.3,0c-0.1,0-0.2,0-0.3,0
			c-0.1,0-0.2-0.1-0.2-0.1l0,0l0,0l0,0l0,0l0.1,0l0.2-0.2l0,0c0.2-0.2,0.3-0.3,0.5-0.5c0.1-0.2,0.2-0.4,0.3-0.7c0-0.2,0-0.5,0-0.7
			C21.7,22.9,21.6,22.7,21.5,22.5z M20.9,21.7c0.1,0.1,0.2,0.2,0.2,0.3c0.1,0.1,0.2,0.3,0.2,0.4c-0.1-0.1-0.2-0.3-0.2-0.4
			C21,21.8,20.9,21.8,20.9,21.7l-0.2-0.2l-0.1-0.1l0.1,0.1L20.9,21.7z M19.7,20.9L19.7,20.9z M20.1,20.7l0.1,0.1L20.1,20.7L20,20.6
			L20.1,20.7z M19.9,20.5L19.9,20.5v0.1V20.5L19.9,20.5c0-0.1-0.1-0.2-0.1-0.3C19.9,20.3,19.9,20.4,19.9,20.5z M19.9,18.7
			c0,0,0,0.1,0,0.1S19.9,18.8,19.9,18.7c0.1-0.2,0.2-0.4,0.3-0.6l0.1-0.1l-0.1,0.1C20.1,18.3,20,18.5,19.9,18.7L19.9,18.7z
			 M20.5,17.8l0.1-0.1l0,0L20.5,17.8z M20.1,18.1c0.1-0.1,0.2-0.2,0.3-0.3C20.3,17.9,20.2,18,20.1,18.1c-0.1,0.1-0.2,0.3-0.3,0.5
			C19.9,18.4,20,18.2,20.1,18.1L20.1,18.1z M19.7,18.8c-0.1,0.1-0.1,0.3-0.1,0.4c0,0.1,0,0.2,0,0.3c0-0.1,0-0.2,0-0.3
			C19.6,19.1,19.6,19,19.7,18.8L19.7,18.8z M19.5,20.1v0.2v0.2l0,0l0,0v-0.2V20.1C19.5,20.1,19.5,20,19.5,20.1
			C19.5,20,19.5,20.1,19.5,20.1L19.5,20.1z M19.1,20.8l0.4-0.2L19.1,20.8l-0.2,0.1L19.1,20.8z M16.9,21.6l0.4-0.1L16.9,21.6h-0.3
			H16.9z M16.9,21.8c-0.3,0-0.5,0.1-0.8,0.1h-0.1c-0.2,0-0.5,0-0.7,0c-0.5,0-1.1-0.1-1.6-0.3l0,0c0.5,0.2,1,0.3,1.6,0.3
			c0.3,0,0.5,0,0.8,0C16.3,21.9,16.6,21.8,16.9,21.8h0.2H16.9z M18.4,21.5l-0.3,0.1L18.4,21.5l0.3-0.1L18.4,21.5z M19.6,21l-0.3,0.1
			L19.6,21l0.1-0.1L19.6,21z M20.8,22.2L20.8,22.2L20.8,22.2c0.2,0.3,0.4,0.7,0.5,1.1c0,0.1,0,0.2,0,0.3c0-0.1,0-0.2,0-0.3
			C21.2,22.9,21,22.5,20.8,22.2L20.8,22.2z M20.8,25.9c-0.1,0-0.2-0.1-0.3-0.1l-0.1,0l-0.1-0.1c0-0.1-0.1-0.1,0-0.2
			c0-0.1,0-0.2,0.1-0.2l0,0l0,0l0.1-0.1c0,0,0,0,0.1-0.1c0,0,0,0-0.1,0.1l-0.1,0.1l0,0l0,0c-0.1,0.1-0.1,0.1-0.1,0.2
			c0,0.1,0,0.1,0,0.2l0.1,0.1l0.1,0C20.6,25.8,20.7,25.9,20.8,25.9c0.1,0,0.2,0,0.3,0H21H20.8z M20.5,25.6L20.5,25.6L20.5,25.6
			L20.5,25.6z M21.2,25.9c0.1,0,0.2,0,0.3-0.1l0,0C21.4,25.8,21.3,25.8,21.2,25.9L21.2,25.9z M21.4,25.8c-0.1,0-0.2,0-0.3,0
			C21.2,25.8,21.3,25.8,21.4,25.8L21.4,25.8z M20.8,25.8L20.8,25.8L20.8,25.8L20.8,25.8z M20.7,25.3L20.7,25.3L20.7,25.3L20.7,25.3
			L20.7,25.3L20.7,25.3l0.1-0.1L20.7,25.3z M21.4,24.3c0.1-0.1,0.1-0.2,0.1-0.3C21.5,24.1,21.5,24.2,21.4,24.3z M21.6,23.2
			c0-0.2-0.1-0.3-0.1-0.5C21.6,22.9,21.6,23,21.6,23.2c0,0.1,0,0.2,0,0.4C21.6,23.4,21.6,23.3,21.6,23.2z"/>
		<path class="st0" d="M23.6,17L23.6,17c0,0-0.1,0-0.1,0.1c-0.1,0.2-0.1,0.5-0.2,0.7V18c0,0.1,0,0.1,0,0.2c0,0.1,0,0.2-0.1,0.3l0,0
			l0,0v0.1v0.1v0.1c0,0.1,0,0.3,0,0.4c0,0.1,0,0.3,0,0.4c0,0.1,0.1,0.3,0.1,0.4c0,0,0,0.1,0.1,0.1l0,0c0,0,0.1,0,0.1-0.1v-0.2
			c0-0.2,0.1-0.4,0.1-0.5s0.1-0.2,0.1-0.3l0,0l0,0v-0.1v-0.1v-0.1l0,0c0-0.1,0-0.1,0-0.2v-0.1c0,0,0-0.1,0-0.1c0-0.1,0-0.3,0-0.4
			C23.7,17.6,23.7,17.3,23.6,17C23.6,17.1,23.6,17,23.6,17z M23.6,17.1L23.6,17.1c0,0.1,0,0.2-0.1,0.3
			C23.6,17.3,23.6,17.2,23.6,17.1L23.6,17.1z M23.4,18.1c0,0,0,0.1,0,0.1v0.1v-0.1C23.4,18.2,23.4,18.1,23.4,18.1L23.4,18.1z
			 M23.3,18.7L23.3,18.7L23.3,18.7L23.3,18.7z M23.1,19.1c0,0.1,0,0.1,0,0.2l0,0C23.1,19.3,23.1,19.2,23.1,19.1L23.1,19.1z
			 M23.3,20.1L23.3,20.1c0-0.3,0.1-0.5,0.1-0.7C23.4,19.6,23.4,19.8,23.3,20.1L23.3,20.1z M23.6,18.8L23.6,18.8L23.6,18.8
			C23.6,18.8,23.6,18.8,23.6,18.8C23.6,18.7,23.7,18.7,23.6,18.8L23.6,18.8z M23.7,18.5C23.7,18.5,23.7,18.5,23.7,18.5
			C23.7,18.6,23.7,18.6,23.7,18.5v-0.2l0,0V18.5z"/>
		<path class="st0" d="M27.1,9.3C27.1,9.3,27,9.3,27.1,9.3H27c-0.2,0.1-0.3,0.2-0.5,0.4c-0.2,0.1-0.3,0.3-0.4,0.5
			c-0.1,0.2-0.2,0.4-0.3,0.6c-0.1,0.2-0.1,0.4-0.1,0.6l0,0c0,0.3-0.1,0.7-0.2,1c-0.1,0.3-0.2,0.6-0.4,0.9c-0.2,0.3-0.4,0.6-0.6,0.8
			c-0.1,0.1-0.2,0.2-0.4,0.4c-0.1,0.1-0.3,0.2-0.4,0.3c0,0,0,0.1,0,0.1c0,0,0,0.1,0.1,0.1l0,0c0.2-0.1,0.4-0.1,0.5-0.2
			c0.2-0.1,0.3-0.2,0.5-0.3c0.3-0.2,0.6-0.5,0.8-0.8c0.2-0.3,0.4-0.6,0.5-1c0.1-0.4,0.2-0.8,0.2-1.1c0-0.2,0-0.3,0.1-0.5
			c0-0.2,0.1-0.3,0.2-0.5c0.1-0.2,0.2-0.3,0.3-0.5c0.1-0.2,0.2-0.3,0.3-0.5C27.2,9.4,27.2,9.4,27.1,9.3C27.1,9.3,27.1,9.3,27.1,9.3z
			 M25.9,10.7c0.1-0.2,0.1-0.4,0.3-0.6c0-0.1,0.1-0.1,0.1-0.2c0,0-0.1,0.1-0.1,0.1C26.1,10.3,26,10.5,25.9,10.7
			c-0.1,0.1-0.1,0.3-0.1,0.5C25.8,11.1,25.9,10.9,25.9,10.7z M26.1,11.4L26.1,11.4c0,0.1,0,0.2,0,0.4C26.1,11.6,26.1,11.5,26.1,11.4
			z M25.9,12.7c-0.1,0.2-0.1,0.3-0.2,0.4C25.7,13,25.8,12.9,25.9,12.7z M25.6,12.4c0.1-0.2,0.1-0.3,0.1-0.5
			C25.7,12,25.6,12.2,25.6,12.4c0,0.1-0.1,0.3-0.1,0.4C25.5,12.6,25.5,12.5,25.6,12.4z M24.6,14.1c0.2-0.2,0.5-0.5,0.6-0.8
			c0.1-0.1,0.1-0.2,0.2-0.3c0,0.1-0.1,0.2-0.2,0.3C25,13.6,24.8,13.9,24.6,14.1l-0.1,0.1L24.6,14.1z M24.3,14.6
			c-0.2,0.1-0.3,0.1-0.5,0.2l0,0C23.9,14.7,24.1,14.7,24.3,14.6c0.2-0.1,0.3-0.2,0.5-0.3l0,0l0,0C24.6,14.4,24.4,14.5,24.3,14.6
			L24.3,14.6z M26,12.4c0-0.2,0.1-0.3,0.1-0.5C26.1,12.1,26,12.3,26,12.4z M26.7,9.8c-0.1,0.2-0.2,0.3-0.3,0.5
			c-0.1,0.2-0.1,0.3-0.2,0.5c0,0,0,0,0,0.1c0,0,0,0,0-0.1c0-0.2,0.1-0.4,0.2-0.5C26.5,10.1,26.6,10,26.7,9.8
			c0.1-0.2,0.2-0.3,0.3-0.5l0,0C26.9,9.5,26.8,9.6,26.7,9.8L26.7,9.8z"/>
		<path class="st0" d="M15,0C6.7,0,0,6.7,0,15s6.7,15,15,15s15-6.7,15-15S23.3,0,15,0z M15,29.3C7.1,29.3,0.8,22.9,0.8,15
			S7.1,0.8,15,0.8S29.3,7.1,29.3,15C29.2,22.9,22.9,29.2,15,29.3z"/>
	</g>
</g>
</svg>
