<svg xmlns="http://www.w3.org/2000/svg" viewBox="0 0 432.5 500"><defs><style>.cls-1{fill:#fff;}</style></defs><title>Recurso 1</title><g id="Capa_2" data-name="Capa 2"><g id="imago"><polygon class="cls-1" points="65.32 420.93 65.32 498.68 73.15 498.68 73.15 491.64 73.15 491.64 73.15 463.05 73.15 463.05 73.15 456.01 73.15 456.01 73.15 427.97 117.88 427.97 117.88 420.93 65.32 420.93"/><rect class="cls-1" x="82.95" y="491.64" width="34.93" height="7.04"/><rect class="cls-1" x="82.95" y="456.01" width="34.93" height="7.04"/><path class="cls-1" d="M48.89,463.11h0a23.77,23.77,0,0,0-8.6-6,17.46,17.46,0,0,0,8.45-15.54c0-7.1-2.8-12.7-8.32-16.65-3.85-2.71-10.27-4-19.61-4H0v77.75H7.83v-7h0v-30h0v-7h0V428h13c6.61,0,9.57.44,10.87.8a12.15,12.15,0,0,1,6.56,4.71,12.86,12.86,0,0,1,2.67,7.85,11,11,0,0,1-4.76,9.58c-3.39,2.44-8.24,3.67-14.42,3.67h-4.1v7h4.15a92.71,92.71,0,0,1,9.32.26,21.94,21.94,0,0,1,4.84,1.36,17.35,17.35,0,0,1,7.72,5.63,12.59,12.59,0,0,1,2.79,7.87c0,5.14-2.23,9.08-6.81,12.06h0c-2.89,1.89-7.92,2.84-14.95,2.84H17.63v7H24.5a69.36,69.36,0,0,0,10.23-.57A23.23,23.23,0,0,0,49,490.58a20.29,20.29,0,0,0-.07-27.47Z"/><path class="cls-1" d="M190.73,445.79a24.74,24.74,0,0,0-14-21.8h0c-4.55-2.06-12.49-3.06-24.26-3.06H130.24v77.75h7.83V428h14.48c5.72,0,9.49.07,11.19.22a25.48,25.48,0,0,1,9.84,2.49,18.23,18.23,0,0,1,6.73,6.48,16.17,16.17,0,0,1,2.59,8.74c0,6.59-3,11.54-9,15.13-3.35,2-8.68,3-15.83,3h-10.2l29.48,34.64h10.28L164,471.06a28.35,28.35,0,0,0,18.68-7.14A23.49,23.49,0,0,0,190.73,445.79Z"/><path class="cls-1" d="M251.65,470.82c0,5.23-.33,7.63-.61,8.76a15.2,15.2,0,0,1-4.2,7.32c-4,4.08-9.47,6.06-16.62,6.06s-12.56-2.21-16.67-6.76a16.83,16.83,0,0,1-4-7.44,53.49,53.49,0,0,1-.48-8.82v-49h-7.83v48.94c0,8,1.23,13.79,3.78,17.74a25.31,25.31,0,0,0,10.67,9.15A33.43,33.43,0,0,0,230.22,500c8.9,0,16.29-2.72,22-8.08a21.64,21.64,0,0,0,5.71-8.7,39.86,39.86,0,0,0,1.57-12.47V420.93h-7.83Z"/><path class="cls-1" d="M308.41,419.61A38.54,38.54,0,0,0,280,431.38a39.51,39.51,0,0,0-11.58,28.7,38.58,38.58,0,0,0,11.7,28.28,40.83,40.83,0,0,0,57.1,0A38.69,38.69,0,0,0,348.88,460a40,40,0,0,0-40.47-40.36ZM308.8,493c-9.47,0-17.19-3.12-23.62-9.56s-9.54-14.17-9.54-23.65,3.11-17.11,9.49-23.54a31.35,31.35,0,0,1,23.34-9.56,33.31,33.31,0,0,1,23.6,56.65A31.21,31.21,0,0,1,308.8,493Z"/><polygon class="cls-1" points="366.65 492.08 366.65 420.93 358.82 420.93 358.82 498.68 366.65 498.68 366.65 492.08 366.65 492.08"/><polygon class="cls-1" points="424.67 420.93 424.67 486.66 376.45 431.41 376.45 443.3 424.81 498.68 432.5 498.68 432.5 420.93 424.67 420.93"/><path class="cls-1" d="M149.17,212.16a21.5,21.5,0,0,0,12.68-4,20.52,20.52,0,0,0,4.6-4.56,27.55,27.55,0,0,0,3.23-5.6,28.76,28.76,0,0,1,1.59-3.32c.62-1.1,1.28-2.12,2-3.13a71,71,0,0,1,4.41-5.71,131.62,131.62,0,0,1,9.83-10.34,139.18,139.18,0,0,1,22.67-17.27,117.12,117.12,0,0,1,26.06-12,90.3,90.3,0,0,1,28.58-4.3,78.11,78.11,0,0,1,28.29,5.79,88.24,88.24,0,0,1,24.26,15,114.69,114.69,0,0,1,18.77,20.9c-1.7-1.61-3.27-3.31-5-4.86l-2.54-2.38L326,174a129,129,0,0,0-10.85-8.49,95.69,95.69,0,0,0-24.07-12.38,80.13,80.13,0,0,0-26.28-4.1,91.29,91.29,0,0,0-26.25,4.45A122.36,122.36,0,0,0,214,164.58c-3.9,2.28-7.72,4.72-11.41,7.36s-7.3,5.4-10.76,8.35a124.73,124.73,0,0,0-10,9.26c-1.56,1.63-3.05,3.33-4.45,5-.69.85-1.38,1.73-2,2.6s-1,1.65-1.69,2.83a25.92,25.92,0,0,1-10.49,10.37A20.66,20.66,0,0,1,149.17,212.16Z"/><path class="cls-1" d="M117.28,127.49c5.31,4.46,9.26,10.34,12.42,16.49a77.7,77.7,0,0,1,6.77,19.64c.36,1.69.55,3.42.83,5.14l.35,2.57c.08.87.14,1.73.18,2.6.09,1.73.21,3.46.25,5.18s-.11,3.47-.19,5.19a40.56,40.56,0,0,1-.47,5.15c-.25,1.71-.52,3.41-.82,5.1a20.15,20.15,0,0,1-.56,2.51c-.23.84-.44,1.67-.69,2.5-.48,1.65-1,3.29-1.58,4.9-.52-3.45-.62-6.8-.94-10.13-.18-1.67-.34-3.32-.47-5-.09-.82-.1-1.64-.21-2.46s-.22-1.64-.31-2.45c-.2-1.64-.38-3.26-.53-4.89s-.49-3.22-.73-4.83l-.33-2.42-.46-2.39c-.3-1.59-.5-3.21-.87-4.79a189.72,189.72,0,0,0-4.81-18.87A188.34,188.34,0,0,0,117.28,127.49Z"/><path class="cls-1" d="M126.08,2.12A10.27,10.27,0,0,1,132.53,0a11.17,11.17,0,0,1,6.86,2.36c.25.2.51.39.74.6l.65.7a8.49,8.49,0,0,1,1.13,1.51c.3.55.61,1.09.86,1.65s.35,1.16.49,1.74a5.75,5.75,0,0,1,.23,1.74,16.41,16.41,0,0,1,0,1.72,9.65,9.65,0,0,1-.35,1.68,10.71,10.71,0,0,1-.56,1.62,27.52,27.52,0,0,1-1.73-2.75q-.43-.63-.81-1.23c-.13-.2-.24-.4-.35-.6s-.29-.36-.42-.54c-.27-.35-.52-.7-.74-1s-.56-.6-.82-.9a5.42,5.42,0,0,0-.84-.82l-.4-.41c-.14-.12-.31-.22-.46-.33a17.82,17.82,0,0,0-4.23-2.45C130.11,3.53,128.26,2.89,126.08,2.12Z"/><path class="cls-1" d="M49.1,3.22a75.56,75.56,0,0,0-6.88,7.09,19.32,19.32,0,0,0-4,7.48A15.48,15.48,0,0,0,38.7,26a71.52,71.52,0,0,0,3.8,9.07,19.63,19.63,0,0,1-7.73-7.28,15.11,15.11,0,0,1-1.94-11.32,16.91,16.91,0,0,1,6.44-9.34A20,20,0,0,1,49.1,3.22Z"/><path class="cls-1" d="M84.29,47.21s9.9,1.1,15.39,9.9C95.28,61.51,83.19,60.41,84.29,47.21Z"/><path class="cls-1" d="M141.66,62.71a11.52,11.52,0,0,0-1.09-1.41c-.19-.21-.44-.45-.6-.61l-.38-.38-.73-.73c-.2-.22-.41-.43-.59-.67a10.58,10.58,0,0,1-2.34-6.62,10.06,10.06,0,0,1,.16-1.81l.22-1.21c.08-.43.16-.86.21-1.29a42.84,42.84,0,0,0,.39-5.18,36.33,36.33,0,0,0-5.33-19.59c-.41-.74-1-1.4-1.42-2.09a17.33,17.33,0,0,0-1.54-2L127,17.25c-.59-.58-1.2-1.14-1.8-1.7a45,45,0,0,0-3.8-3.12c-1.33-.94-2.73-1.77-4.1-2.61A47.73,47.73,0,0,1,128.23,25a35.17,35.17,0,0,1,2.63,17.51,33.55,33.55,0,0,1-.7,4.36c-.08.36-.16.72-.26,1.07L129.62,49a17.38,17.38,0,0,0-.47,3,17.19,17.19,0,0,0,3.31,11.33c.29.42.62.8.94,1.19s.62.66.93,1l.4.42c-3.48-.11-7.92-.12-9.2.52,1,2,2.81,6.46,9.29,6.73-.17.62-.4,1.21-.62,1.82l-.75,2.08c-.26.69-.6,1.33-.89,2s-.56,1.35-.94,2a35,35,0,0,1-2.27,3.66A29.7,29.7,0,0,1,123.59,91a31.8,31.8,0,0,1-7.32,4.56,41.07,41.07,0,0,1-8.44,2.84,49.18,49.18,0,0,1-8.89,1.3,30.72,30.72,0,0,1-8.84-1.23A54.57,54.57,0,0,1,73.29,90.1a42,42,0,0,0,7,6.76,41.5,41.5,0,0,0,8.5,5.15,32.31,32.31,0,0,0,9.9,2.73,39.14,39.14,0,0,0,5.18.06c.83,0,1.67-.09,2.51-.17s1.68-.15,2.52-.3c1.68-.21,3.35-.58,5-1a44.28,44.28,0,0,0,4.94-1.58,35.73,35.73,0,0,0,9.22-5.08A39.26,39.26,0,0,0,140.59,80l.87-2.44a22.59,22.59,0,0,0,.78-2.46l.65-2.48.32-1.24c0-.16.12-.54.17-.82s.08-.61.1-.91A11.17,11.17,0,0,0,141.66,62.71Z"/><path class="cls-1" d="M59.55,102.74a170.46,170.46,0,0,0-5.48,26.43,192.6,192.6,0,0,0-1.59,26.68,161.38,161.38,0,0,0,9.17,52,147.79,147.79,0,0,0,10.88,24.06c.53,1,1,1.95,1.59,2.91l1.75,2.81,1.74,2.83c.58.94,1.14,1.9,1.79,2.79l3.79,5.46c.32.46.62.93,1,1.37l1,1.32,2,2.64c2.62,3.61,5.66,6.86,8.52,10.3.71.87,1.47,1.68,2.25,2.48l2.3,2.44c1.56,1.6,3,3.31,4.66,4.84l4.82,4.68,2.43,2.34c.9.8,1.69,1.62,2.49,2.45a105,105,0,0,1,8.68,10.57c-3.31-3.11-6.63-6.2-10.12-9-.88-.69-1.78-1.38-2.64-2L107.84,281l-5.45-4.18c-.93-.68-1.77-1.45-2.63-2.2l-2.58-2.27-2.58-2.27c-.87-.75-1.73-1.51-2.53-2.33-3.25-3.23-6.54-6.45-9.51-10A140.25,140.25,0,0,1,66.2,235.51l-1.75-3c-.57-1-1.18-2-1.68-3l-3.13-6.22c-1.87-4.24-3.76-8.48-5.25-12.88a141.1,141.1,0,0,1-7.89-54.63,153,153,0,0,1,3.87-27.26C52.61,119.61,55.37,110.84,59.55,102.74Z"/><path class="cls-1" d="M55.7,244.05c-7.34,12.27-10.55,26.51-8.49,39.83a57.32,57.32,0,0,0,2.47,9.75c.29.78.55,1.58.88,2.36l1,2.32c.73,1.54,1.42,2.95,2.28,4.7a67.65,67.65,0,0,1,4,10.54,61,61,0,0,1,2.06,11.17A71.71,71.71,0,0,1,60,336a64.69,64.69,0,0,1-1.8,11.2,58.89,58.89,0,0,1-4,10.65,54,54,0,0,1-6.14,9.53l-1.86,2.13-.93,1.06-1,1-2,2-.29.27-.19.21a2.25,2.25,0,0,0-.29.5,2.07,2.07,0,0,0-.08,1.21,1.6,1.6,0,0,0,.1.31,1.85,1.85,0,0,0,.19.37,9.31,9.31,0,0,0,.61.89A9,9,0,0,0,45.76,380a12.08,12.08,0,0,0,4.56,1.16,7.26,7.26,0,0,0,1.24.06h1.25c.84-.11,1.71-.1,2.56-.25a55.19,55.19,0,0,0,10.22-2.72,41.85,41.85,0,0,1-9.74,4.8,27.55,27.55,0,0,1-2.7.73c-.47.09-.94.15-1.41.22a11.17,11.17,0,0,1-1.43.16,15.52,15.52,0,0,1-5.92-.63,12.75,12.75,0,0,1-5.32-3.3,10,10,0,0,1-1-1.2,7.08,7.08,0,0,1-.54-.75,8.55,8.55,0,0,1-.45-.91,6.91,6.91,0,0,1-.38-4.05,7,7,0,0,1,.72-2,5.82,5.82,0,0,1,.58-.88c.1-.15.22-.27.33-.41l.28-.31,1.66-1.93.83-1,.75-1,1.5-2c.87-1.44,1.85-2.81,2.58-4.32.38-.74.84-1.44,1.17-2.21L48.1,355a58.84,58.84,0,0,0,3-9.51,66.27,66.27,0,0,0,1.1-20,60.71,60.71,0,0,0-5.06-19.37c-.65-1.48-1.45-3.3-2.17-5l-1-2.66c-.3-.89-.55-1.8-.83-2.71A53.72,53.72,0,0,1,55.7,244.05Z"/><path class="cls-1" d="M126.08,300.13a38.64,38.64,0,0,1,4.21,6.07,52.53,52.53,0,0,1,3.27,6.7,55.84,55.84,0,0,1,3.73,14.61,53.23,53.23,0,0,1-5.32,30c-.59,1.14-1.16,2.3-1.84,3.39s-1.3,2.22-2,3.26-1.44,2.12-2.25,3.1l-2.07,2.65a6.18,6.18,0,0,0-1,4.34,5.39,5.39,0,0,0,.27,1.18c.19.47.34,1,.56,1.43a12.31,12.31,0,0,0,.65,1.37,11.73,11.73,0,0,0,.77,1.28,11.41,11.41,0,0,0,4.25,3.91,14.4,14.4,0,0,0,6,1.5,31.14,31.14,0,0,0,6.87-.52c1.15-.26,2.33-.5,3.5-.79s2.32-.68,3.52-1a31.52,31.52,0,0,1-13.68,6.07,17.4,17.4,0,0,1-8.18-.6,17.08,17.08,0,0,1-8.39-6.56,16.8,16.8,0,0,1-1.13-1.79c-.36-.6-.63-1.24-.93-1.87a12.59,12.59,0,0,1-.78-2.29A12.88,12.88,0,0,1,117.6,366a12,12,0,0,1,.7-1.05l.53-.74,1-1.39c.69-.91,1.28-1.88,1.89-2.84s1.2-1.93,1.76-2.91,1.08-2,1.59-3a58.29,58.29,0,0,0,6.19-26.2A71.14,71.14,0,0,0,130,314,81.53,81.53,0,0,0,126.08,300.13Z"/><path class="cls-1" d="M294.75,379.3a2.22,2.22,0,0,1,.33-.28l.58-.46,1.2-1c1.63-1.24,3.13-2.65,4.66-4a52.77,52.77,0,0,0,7.93-9.72,37.66,37.66,0,0,0,5-11.88,37.19,37.19,0,0,0,.59-13.05,44.8,44.8,0,0,0-3.65-12.42,56.27,56.27,0,0,0-6.64-10.87,54.33,54.33,0,0,0-4.25-4.84l-4.18-4.09a74.33,74.33,0,0,1-7.23-8.67,54.15,54.15,0,0,1-3-4.69c-.48-.8-.85-1.65-1.3-2.46l-.64-1.24-.53-1.27a42.28,42.28,0,0,1-3.13-10.59,45.73,45.73,0,0,1,2.33-22.2A60.93,60.93,0,0,1,287.62,245c1-1.72,2-3.37,3.13-5a58.58,58.58,0,0,1,3.58-4.76,52,52,0,0,0-8.46,8.57,56.92,56.92,0,0,0-6.55,10.3,51.56,51.56,0,0,0-4,11.74,44.71,44.71,0,0,0-.76,12.61c.12,1,.17,2.12.36,3.16l.56,3.15.83,3.08a17.87,17.87,0,0,0,.57,1.75l-.72.44q-1.51.94-3.09,1.83c-2.09,1.19-4.21,2.34-6.38,3.42-4.32,2.19-8.76,4.15-13.29,5.92a157,157,0,0,1-28.07,8.07c-4.8.89-9.66,1.52-14.54,2s-9.79.55-14.71.45a138.41,138.41,0,0,1-29.28-3.87,139.3,139.3,0,0,0,29.18,5.79,149.15,149.15,0,0,0,15,.51c5-.12,10-.45,15-1a161.78,161.78,0,0,0,29.42-6.42c4.8-1.53,9.54-3.27,14.19-5.26,2.33-1,4.64-2,6.93-3.15,1.12-.55,2.25-1.12,3.37-1.71l.07.14a61.61,61.61,0,0,0,3.21,5.44,75.29,75.29,0,0,0,7.75,9.81c.7.75,1.44,1.45,2.16,2.17l2.13,2.1a48.55,48.55,0,0,1,3.57,4.14A44.7,44.7,0,0,1,307.81,340a32.41,32.41,0,0,1,0,10.63,35.5,35.5,0,0,1-3.54,10.24,53.31,53.31,0,0,1-6.39,9.24c-1.28,1.42-2.53,2.87-3.94,4.19l-1,1-.53.53a6.89,6.89,0,0,0-2.19,4.63,6.53,6.53,0,0,0,1.05,3.9,6.45,6.45,0,0,0,1.37,1.48,15,15,0,0,0,1.38.92,16.66,16.66,0,0,0,6,2.23,20,20,0,0,0,11.95-2,20.79,20.79,0,0,1-11.45-.09,15.58,15.58,0,0,1-4.81-2.61,12.53,12.53,0,0,1-1-.87,3.46,3.46,0,0,1-.54-.79,3,3,0,0,1-.2-1.82A2.86,2.86,0,0,1,294.75,379.3Z"/><path class="cls-1" d="M351.51,225.36a48.33,48.33,0,0,1,2.89,14.37,55,55,0,0,1-.08,7.37c-.06,1.23-.28,2.47-.43,3.72s-.43,2.48-.79,3.75c-.18.62-.34,1.24-.55,1.88l-.7,1.89-.61,1.52c-.22.47-.37,1-.56,1.48a62.09,62.09,0,0,0-1.87,6.28c-1.07,4.37-1.85,8.94-2.8,13.82a27.4,27.4,0,0,1-2.43-7.05,36.93,36.93,0,0,1-.78-7.45,32.61,32.61,0,0,1,.87-7.63,14.48,14.48,0,0,1,.52-1.9l.58-1.82.48-1.46c.16-.49.27-1,.41-1.54.57-2.06,1-4.24,1.44-6.46s.83-4.49,1.28-6.76A139.34,139.34,0,0,1,351.51,225.36Z"/><path class="cls-1" d="M353.71,182.47a84.13,84.13,0,0,0,8-6,93.35,93.35,0,0,0,7.18-6.71,85.4,85.4,0,0,0,11.8-15.2,78.51,78.51,0,0,0,7.76-17.3,90.46,90.46,0,0,0,3.51-18.72l0-.3v0a72.56,72.56,0,0,1,2.69-11,46.15,46.15,0,0,1,12-19,60.78,60.78,0,0,1,8.62-6.88C413,84.18,410.82,87,408.86,90a58.81,58.81,0,0,0-5.06,9.16,54.63,54.63,0,0,0-3.15,9.75A100.82,100.82,0,0,0,399,119.19l0-.34a74.44,74.44,0,0,1-3.29,20.68,67.72,67.72,0,0,1-9.34,18.8,66.76,66.76,0,0,1-14.54,14.85,64.38,64.38,0,0,1-8.72,5.48A48.8,48.8,0,0,1,353.71,182.47Z"/></g></g></svg>