<svg xmlns="http://www.w3.org/2000/svg" viewBox="0 0 85.04 85.04"><defs><style>.cls-1{fill:#c8c8c8;}</style></defs><title>Recurso 1</title><g id="Capa_2" data-name="Capa 2"><g id="Capa_1-2" data-name="Capa 1"><path class="cls-1" d="M74.22,6A4.82,4.82,0,0,1,79,10.81V74.22A4.82,4.82,0,0,1,74.22,79H10.81A4.82,4.82,0,0,1,6,74.22V10.81A4.82,4.82,0,0,1,10.81,6H74.22m0-6H10.81A10.81,10.81,0,0,0,0,10.81V74.22A10.81,10.81,0,0,0,10.81,85H74.22A10.81,10.81,0,0,0,85,74.22V10.81A10.81,10.81,0,0,0,74.22,0Z"/><path class="cls-1" d="M72,6,41.72,41.55,12.66,6H72m5.09-6H7.7A3.65,3.65,0,0,0,4.87,6l34,41.56a3.66,3.66,0,0,0,5.61.06L79.91,6a3.65,3.65,0,0,0-2.78-6Z"/></g></g></svg>