<?xml version="1.0" encoding="utf-8"?>
<!-- Generator: Adobe Illustrator 24.0.1, SVG Export Plug-In . SVG Version: 6.00 Build 0)  -->
<svg version="1.1" id="Capa_1" xmlns="http://www.w3.org/2000/svg" xmlns:xlink="http://www.w3.org/1999/xlink" x="0px" y="0px"
	 viewBox="0 0 1674.1 2399.6" style="enable-background:new 0 0 1674.1 2399.6;" xml:space="preserve">
<style type="text/css">
	.st0{fill:#C8C8C8;}
</style>
<g id="Capa_2_1_">
	<g id="Capa_1-2">
		<g>
			<path class="st0" d="M837.6,200c56.5,0,112.6,7.4,167,22.2l24.6,7.8c39.8,12.6,78.6,29.3,115.2,49.5
				c36.2,20,70.7,43.6,102.4,70.3c31.7,26.6,60.9,56.5,86.8,88.8c26.2,32.6,49.2,67.9,68.5,105l10.8,20.8
				c18.4,38.8,32.8,79.5,43,121.2c12,49.4,18.1,100.2,18,151v0.2v0.2c0,70.4-7.4,134.2-22.6,195.2c-13.6,54.5-33.6,107-61.1,160.5
				c-56,108.8-136.7,210-230.1,327.1c-80.6,101.1-172,215.6-259.1,351.7c-25,38.7-46,75.6-63.9,110.2
				c-17.8-34.5-38.7-71.1-63.6-109.6c-43.1-67.7-91.1-135.8-151-214.2l-60-78.6H561c-16-20.3-31.9-40.2-47.5-59.8
				c-98.7-124-184.6-231.8-240.8-348.9l-7.6-16.9c-21.3-47.1-36.9-94-47.6-143.3C205.7,955.7,200,899,200,836.8v-0.1v-0.1
				c-0.1-74.5,12.8-147.7,38.3-217.7c25.5-70,62.8-134.3,110.7-191.3c29.4-34.9,62.5-66.7,98.4-94.5c36.2-28,75.3-52.1,116.4-71.7
				c41.8-19.9,85.8-35.2,130.8-45.5c46.4-10.6,94.3-16,142.5-16H837.6 M837.6,0c-0.1,0-0.2,0-0.3,0C580.1,0,350,116,196.1,298.8
				C69.3,449.4-0.2,640,0,836.8C0,994,31.3,1121.9,82.9,1236v0.5c87.1,192.8,231.6,347.6,380.3,542.7h0.5
				c47.4,62,95.2,127.9,141.6,200.8c169.5,262.4,122.7,419.6,232,419.6c109.3,0,62.5-157.7,232-420
				c279.4-436.6,604.8-635.1,604.8-1142.7c0.2-134.4-32.1-266.8-94.2-386l-0.3,0.4c-102.3-196.7-278.4-344.8-489.8-411.9l0.4-0.5
				C1008.4,13.1,923.3,0,837.6,0L837.6,0z"/>
		</g>
	</g>
</g>
<circle class="st0" cx="837" cy="845.4" r="320.3"/>
</svg>
