<?xml version="1.0" encoding="utf-8"?>
<!-- Generator: Adobe Illustrator 24.0.1, SVG Export Plug-In . SVG Version: 6.00 Build 0)  -->
<svg version="1.1" id="Capa_1" xmlns="http://www.w3.org/2000/svg" xmlns:xlink="http://www.w3.org/1999/xlink" x="0px" y="0px"
	 viewBox="0 0 224 225.7" style="enable-background:new 0 0 224 225.7;" xml:space="preserve">
<style type="text/css">
	.st0{fill:#C8C8C8;}
</style>
<title>Recurso 1</title>
<g id="Capa_2_1_">
	<g id="Capa_1-2">
		<g>
			<path class="st0" d="M112,10c56.2,0,102,42.4,102,94.5S168.2,199,112,199h-0.1c-10.3,0-20.5-1.4-30.3-4.3l-4-1.2l-3.7,2.1
				l-22.6,12.9v-23v-5l-3.9-3c-23.7-18-37.3-44.6-37.3-73C10,52.4,55.8,10,112,10 M112,0C50.1,0,0,46.8,0,104.5
				c0,32.7,16.1,61.9,41.3,81v40.2l37.6-21.4c10.8,3.1,21.9,4.7,33.1,4.7c0,0,0,0,0.1,0c61.9,0,112-46.8,112-104.5S173.9,0,112,0
				L112,0z"/>
		</g>
	</g>
</g>
<polygon class="st0" points="100.5,75.8 40.1,139.8 95.1,109.7 123.8,139.8 183.9,75.8 129.5,105.5 "/>
</svg>
