<?xml version="1.0" encoding="utf-8"?>
<!-- Generator: Adobe Illustrator 24.0.1, SVG Export Plug-In . SVG Version: 6.00 Build 0)  -->
<svg version="1.1" id="Capa_1" xmlns="http://www.w3.org/2000/svg" xmlns:xlink="http://www.w3.org/1999/xlink" x="0px" y="0px"
	 viewBox="0 0 149.8 149.8" style="enable-background:new 0 0 149.8 149.8;" xml:space="preserve">
<style type="text/css">
	.st0{display:none;}
	.st1{fill:none;}
	.st2{fill:#333333;}
</style>
<g id="Guias" class="st0">
</g>
<g id="fondo" class="st0">
</g>
<g id="Gráfico">
	<g>
		<rect class="st1" width="149.8" height="149.8"/>
		<g>
			<path class="st2" d="M103,115.6c-0.3,0.9-0.7,2.2-1.5,3.7c0.7-0.4,1.4-0.9,2-1.3c6.3-4.2,11.5-9.5,15.5-15.6
				C111.2,110.7,105.5,114.3,103,115.6z"/>
			<path class="st2" d="M23.3,80.8c6.5-11.2,14-21.8,22.3-31.7C51.5,42,57.9,35.3,64.7,29c-5.4-4.2-9-4.3-10.1-4.1
				c-3.4,1.4-6.7,3.2-9.9,5.3c-12.1,8.1-20.4,20.3-23.3,34.3c-0.4,1.9-0.7,3.8-0.9,5.7h0.1C20.6,70.7,21,75,23.3,80.8z"/>
			<path class="st2" d="M74.1,20.8c-3.4,0.1-6.7,0.5-10,1.2c1.5,0.8,3,1.9,4.7,3.3C70.6,23.7,72.3,22.2,74.1,20.8z"/>
			<path class="st2" d="M139.7,10.7c-0.3-1.2-0.8-2.5-1.4-3.6c-0.7-1.2-1.5-2.3-2.6-3.3s-2.3-1.7-3.6-2.3s-2.6-0.9-3.9-1.2
				c-2.6-0.4-5.1-0.3-7.4,0c-2.4,0.3-4.6,0.9-6.8,1.5c-2.2,0.7-4.3,1.4-6.3,2.3c-4.1,1.8-7.9,3.8-11.7,6c-3.7,2.2-7.3,4.6-10.8,7.1
				c-1.2,0.9-2.4,1.8-3.6,2.7c-12.4,9.5-23.5,20.5-33.4,32.4C37.6,65.1,28.1,78.9,20.6,93.9c-0.2,0.3-0.4,0.7-0.5,1
				c-1.9,3.8-3.6,7.8-5.2,11.9c-1.6,4-2.9,8.2-3.9,12.5c-0.5,2.2-0.9,4.4-1.2,6.6c-0.3,2.3-0.4,4.6-0.3,6.9c0.1,2.4,0.4,4.8,1.3,7.3
				c0.4,1.2,1,2.5,1.8,3.6c0.8,1.2,1.8,2.2,2.9,3.1c1.1,0.9,2.4,1.5,3.7,2c1.3,0.4,2.6,0.7,3.9,0.8c2.5,0.2,4.9-0.2,7.1-0.7
				c4.4-1.1,8.4-2.9,12.1-5c3.7-2.1,7.3-4.4,10.7-6.9c3.3-2.4,6.5-5,9.7-7.6c-0.9-0.2-1.7-0.3-2.6-0.5c-2.8,2-5.7,3.9-8.7,5.7
				c-3.5,2.1-7.2,4-10.9,5.6c-3.7,1.6-7.6,2.8-11.3,3.3c-1.9,0.2-3.7,0.2-5.3-0.1c-1.6-0.3-2.9-1-3.8-1.9s-1.5-2.1-1.8-3.6
				s-0.4-3.2-0.3-5c0.3-3.6,1.3-7.3,2.5-10.9c1.8-5.2,4.2-10.2,6.8-15.2c0.5-0.9,1-1.8,1.4-2.6c0.1,0.1,0.1,0.2,0.2,0.2
				c7.9,11.7,19.9,19.6,34,22.1c9.3,1.7,18.6,0.9,27.4-2c3-2.6,4.9-5.2,5.9-7.2c-4.2,0.8-10.9,1.8-18.6,1.8
				c-10.7,0-23.4-1.8-34.8-8.3c-5-2.9-9.1-6.1-12.5-9.5c0.1-0.2,0.3-0.5,0.4-0.7c0.8-1.4,1.7-2.8,2.6-4.2c3.2,3.4,7.3,6.7,12.3,9.6
				c20.1,11.4,45.7,6.8,52.4,5.3c0.3-6.7,0.2-29.7-15.1-58c-2.3-4.3-4.5-7.9-6.6-11c1.3-1.3,2.6-2.7,4-4c2.4,3.5,4.9,7.6,7.5,12.4
				c14.4,26.6,16,48.4,15.9,58.1c2.8-1.9,7-5.3,12.2-11c10-10.9,11.6-18.1,11.6-18.2h0.1c0.8-5.9,0.6-11.8-0.6-17.5
				c-0.4-2.1-1-4.2-1.7-6.3c0.5-0.8,0.9-1.6,1.4-2.4c4.2-7.2,8-14.7,10.8-22.8c1.4-4,2.5-8.2,2.8-12.8
				C140.4,15.5,140.3,13.1,139.7,10.7z M134.5,23.5c-0.2,2-0.6,3.9-1,5.9c-0.9,3.9-2.1,7.8-3.6,11.7c-1.5,3.8-3.1,7.6-4.9,11.3
				c-0.2,0.4-0.4,0.7-0.5,1.1c-1.3-3.4-3-6.6-5.1-9.7c-3.8-5.6-8.5-10.3-13.9-14c-3.1-2.1-6.4-3.9-10-5.3c0.1-0.1,0.2-0.2,0.4-0.3
				c0.5-0.4,1-0.9,1.6-1.3c1.6-1.2,3.1-2.5,4.8-3.6c3.2-2.3,6.5-4.5,9.9-6.4s6.9-3.5,10.3-4.4c1.7-0.4,3.4-0.7,4.9-0.6
				c1.5,0.1,2.8,0.4,3.9,1.2c1.1,0.7,1.9,1.9,2.5,3.4s0.9,3.3,1,5.2C134.8,19.6,134.7,21.6,134.5,23.5z"/>
		</g>
	</g>
</g>
<g id="Trazo">
</g>
<g id="Texto">
</g>
</svg>
