<svg xmlns="http://www.w3.org/2000/svg" viewBox="0 0 685.33 685.33"><defs><style>.cls-1{opacity:0.25;}.cls-2{fill:gray;}.cls-3{fill:none;}</style></defs><title>Recurso 8</title><g id="Capa_2" data-name="Capa 2"><g id="texo"><g class="cls-1"><path class="cls-2" d="M43.35,484.29c-.76,15.92-23.57,15.2-24.21,0C19.9,468.38,42.71,469.1,43.35,484.29Z"/><path class="cls-2" d="M100,484.29c0,15.93-24.26,15.22-24.21,0C75.82,468.37,100,469.08,100,484.29Z"/><path class="cls-2" d="M156.63,484.29c0,15.93-24.26,15.22-24.22,0C132.46,468.37,156.67,469.08,156.63,484.29Z"/><path class="cls-2" d="M213.27,484.29c-.05,15.93-24.26,15.22-24.22,0C189.1,468.37,213.31,469.08,213.27,484.29Z"/><path class="cls-2" d="M269.91,484.29c-.05,15.93-24.26,15.22-24.22,0C245.74,468.37,270,469.08,269.91,484.29Z"/><path class="cls-2" d="M326.55,484.29c-.05,15.93-24.26,15.22-24.22,0C302.38,468.37,326.59,469.08,326.55,484.29Z"/><path class="cls-2" d="M383.18,484.29c0,15.93-24.25,15.22-24.21,0C359,468.37,383.23,469.08,383.18,484.29Z"/><path class="cls-2" d="M439.82,484.29c0,15.93-24.25,15.22-24.21,0C415.65,468.37,439.87,469.08,439.82,484.29Z"/><path class="cls-2" d="M496.46,484.29c0,15.93-24.25,15.22-24.21,0C472.29,468.37,496.5,469.08,496.46,484.29Z"/><path class="cls-2" d="M553.1,484.29c0,15.93-24.26,15.22-24.21,0C528.93,468.37,553.14,469.08,553.1,484.29Z"/><path class="cls-2" d="M609.74,484.29c0,15.93-24.26,15.22-24.21,0C585.57,468.37,609.78,469.08,609.74,484.29Z"/><path class="cls-2" d="M666.38,484.29c-.76,15.92-23.57,15.2-24.22,0C642.92,468.38,665.74,469.1,666.38,484.29Z"/></g><g class="cls-1"><path class="cls-2" d="M43.35,541c-.76,15.91-23.57,15.19-24.21,0C19.9,525,42.71,525.75,43.35,541Z"/><path class="cls-2" d="M100,541c0,15.93-24.26,15.21-24.21,0C75.82,525,100,525.74,100,541Z"/><path class="cls-2" d="M156.63,541c0,15.93-24.26,15.21-24.22,0C132.46,525,156.67,525.74,156.63,541Z"/><path class="cls-2" d="M213.27,541c-.05,15.93-24.26,15.21-24.22,0C189.1,525,213.31,525.74,213.27,541Z"/><path class="cls-2" d="M269.91,541c-.05,15.93-24.26,15.21-24.22,0C245.74,525,270,525.74,269.91,541Z"/><path class="cls-2" d="M326.55,541c-.05,15.93-24.26,15.21-24.22,0C302.38,525,326.59,525.74,326.55,541Z"/><path class="cls-2" d="M383.18,541c0,15.93-24.25,15.21-24.21,0C359,525,383.23,525.74,383.18,541Z"/><path class="cls-2" d="M439.82,541c0,15.93-24.25,15.21-24.21,0C415.65,525,439.87,525.74,439.82,541Z"/><path class="cls-2" d="M496.46,541c0,15.93-24.25,15.21-24.21,0C472.29,525,496.5,525.74,496.46,541Z"/><path class="cls-2" d="M553.1,541c0,15.93-24.26,15.21-24.21,0C528.93,525,553.14,525.74,553.1,541Z"/><path class="cls-2" d="M609.74,541c0,15.93-24.26,15.21-24.21,0C585.57,525,609.78,525.74,609.74,541Z"/><path class="cls-2" d="M666.38,541c-.76,15.91-23.57,15.19-24.22,0C642.92,525,665.74,525.75,666.38,541Z"/></g><g class="cls-1"><path class="cls-2" d="M43.35,597.6c-.76,15.91-23.57,15.2-24.21,0C19.9,581.69,42.71,582.4,43.35,597.6Z"/><path class="cls-2" d="M100,597.6c0,15.93-24.26,15.21-24.21,0C75.82,581.67,100,582.39,100,597.6Z"/><path class="cls-2" d="M156.63,597.6c0,15.93-24.26,15.21-24.22,0C132.46,581.67,156.67,582.39,156.63,597.6Z"/><path class="cls-2" d="M213.27,597.6c-.05,15.93-24.26,15.21-24.22,0C189.1,581.67,213.31,582.39,213.27,597.6Z"/><path class="cls-2" d="M269.91,597.6c-.05,15.93-24.26,15.21-24.22,0C245.74,581.67,270,582.39,269.91,597.6Z"/><path class="cls-2" d="M326.55,597.6c-.05,15.93-24.26,15.21-24.22,0C302.38,581.67,326.59,582.39,326.55,597.6Z"/><path class="cls-2" d="M383.18,597.6c0,15.93-24.25,15.21-24.21,0C359,581.67,383.23,582.39,383.18,597.6Z"/><path class="cls-2" d="M439.82,597.6c0,15.93-24.25,15.21-24.21,0C415.65,581.67,439.87,582.39,439.82,597.6Z"/><path class="cls-2" d="M496.46,597.6c0,15.93-24.25,15.21-24.21,0C472.29,581.67,496.5,582.39,496.46,597.6Z"/><path class="cls-2" d="M553.1,597.6c0,15.93-24.26,15.21-24.21,0C528.93,581.67,553.14,582.39,553.1,597.6Z"/><path class="cls-2" d="M609.74,597.6c0,15.93-24.26,15.21-24.21,0C585.57,581.67,609.78,582.39,609.74,597.6Z"/><path class="cls-2" d="M666.38,597.6c-.76,15.91-23.57,15.2-24.22,0C642.92,581.69,665.74,582.4,666.38,597.6Z"/></g><g class="cls-1"><path class="cls-2" d="M43.35,654.25c-.76,15.91-23.57,15.2-24.21,0C19.9,638.34,42.71,639.06,43.35,654.25Z"/><path class="cls-2" d="M100,654.25c0,15.93-24.26,15.21-24.21,0C75.82,638.32,100,639,100,654.25Z"/><path class="cls-2" d="M156.63,654.25c0,15.93-24.26,15.21-24.22,0C132.46,638.32,156.67,639,156.63,654.25Z"/><path class="cls-2" d="M213.27,654.25c-.05,15.93-24.26,15.21-24.22,0C189.1,638.32,213.31,639,213.27,654.25Z"/><path class="cls-2" d="M269.91,654.25c-.05,15.93-24.26,15.21-24.22,0C245.74,638.32,270,639,269.91,654.25Z"/><path class="cls-2" d="M326.55,654.25c-.05,15.93-24.26,15.21-24.22,0C302.38,638.32,326.59,639,326.55,654.25Z"/><path class="cls-2" d="M383.18,654.25c0,15.93-24.25,15.21-24.21,0C359,638.32,383.23,639,383.18,654.25Z"/><path class="cls-2" d="M439.82,654.25c0,15.93-24.25,15.21-24.21,0C415.65,638.32,439.87,639,439.82,654.25Z"/><path class="cls-2" d="M496.46,654.25c0,15.93-24.25,15.21-24.21,0C472.29,638.32,496.5,639,496.46,654.25Z"/><path class="cls-2" d="M553.1,654.25c0,15.93-24.26,15.21-24.21,0C528.93,638.32,553.14,639,553.1,654.25Z"/><path class="cls-2" d="M609.74,654.25c0,15.93-24.26,15.21-24.21,0C585.57,638.32,609.78,639,609.74,654.25Z"/><path class="cls-2" d="M666.38,654.25c-.76,15.91-23.57,15.2-24.22,0C642.92,638.34,665.74,639.06,666.38,654.25Z"/></g><g class="cls-1"><path class="cls-2" d="M43.35,257.68c-.76,15.92-23.57,15.2-24.21,0C19.9,241.77,42.71,242.49,43.35,257.68Z"/><path class="cls-2" d="M100,257.68c0,15.93-24.26,15.21-24.21,0C75.82,241.75,100,242.47,100,257.68Z"/><path class="cls-2" d="M156.63,257.68c0,15.93-24.26,15.21-24.22,0C132.46,241.75,156.67,242.47,156.63,257.68Z"/><path class="cls-2" d="M213.27,257.68c-.05,15.93-24.26,15.21-24.22,0C189.1,241.75,213.31,242.47,213.27,257.68Z"/><path class="cls-2" d="M269.91,257.68c-.05,15.93-24.26,15.21-24.22,0C245.74,241.75,270,242.47,269.91,257.68Z"/><path class="cls-2" d="M326.55,257.68c-.05,15.93-24.26,15.21-24.22,0C302.38,241.75,326.59,242.47,326.55,257.68Z"/><path class="cls-2" d="M383.18,257.68c0,15.93-24.25,15.21-24.21,0C359,241.75,383.23,242.47,383.18,257.68Z"/><path class="cls-2" d="M439.82,257.68c0,15.93-24.25,15.21-24.21,0C415.65,241.75,439.87,242.47,439.82,257.68Z"/><path class="cls-2" d="M496.46,257.68c0,15.93-24.25,15.21-24.21,0C472.29,241.75,496.5,242.47,496.46,257.68Z"/><path class="cls-2" d="M553.1,257.68c0,15.93-24.26,15.21-24.21,0C528.93,241.75,553.14,242.47,553.1,257.68Z"/><path class="cls-2" d="M609.74,257.68c0,15.93-24.26,15.21-24.21,0C585.57,241.75,609.78,242.47,609.74,257.68Z"/><path class="cls-2" d="M666.38,257.68c-.76,15.92-23.57,15.2-24.22,0C642.92,241.77,665.74,242.49,666.38,257.68Z"/></g><g class="cls-1"><path class="cls-2" d="M43.35,314.34c-.76,15.91-23.57,15.19-24.21,0C19.9,298.43,42.71,299.14,43.35,314.34Z"/><path class="cls-2" d="M100,314.34c0,15.93-24.26,15.21-24.21,0C75.82,298.41,100,299.13,100,314.34Z"/><path class="cls-2" d="M156.63,314.34c0,15.93-24.26,15.21-24.22,0C132.46,298.41,156.67,299.13,156.63,314.34Z"/><path class="cls-2" d="M213.27,314.34c-.05,15.93-24.26,15.21-24.22,0C189.1,298.41,213.31,299.13,213.27,314.34Z"/><path class="cls-2" d="M269.91,314.34c-.05,15.93-24.26,15.21-24.22,0C245.74,298.41,270,299.13,269.91,314.34Z"/><path class="cls-2" d="M326.55,314.34c-.05,15.93-24.26,15.21-24.22,0C302.38,298.41,326.59,299.13,326.55,314.34Z"/><path class="cls-2" d="M383.18,314.34c0,15.93-24.25,15.21-24.21,0C359,298.41,383.23,299.13,383.18,314.34Z"/><path class="cls-2" d="M439.82,314.34c0,15.93-24.25,15.21-24.21,0C415.65,298.41,439.87,299.13,439.82,314.34Z"/><path class="cls-2" d="M496.46,314.34c0,15.93-24.25,15.21-24.21,0C472.29,298.41,496.5,299.13,496.46,314.34Z"/><path class="cls-2" d="M553.1,314.34c0,15.93-24.26,15.21-24.21,0C528.93,298.41,553.14,299.13,553.1,314.34Z"/><path class="cls-2" d="M609.74,314.34c0,15.93-24.26,15.21-24.21,0C585.57,298.41,609.78,299.13,609.74,314.34Z"/><path class="cls-2" d="M666.38,314.34c-.76,15.91-23.57,15.19-24.22,0C642.92,298.43,665.74,299.14,666.38,314.34Z"/></g><g class="cls-1"><path class="cls-2" d="M43.35,371c-.76,15.91-23.57,15.2-24.21,0C19.9,355.08,42.71,355.79,43.35,371Z"/><path class="cls-2" d="M100,371c0,15.93-24.26,15.21-24.21,0C75.82,355.06,100,355.78,100,371Z"/><path class="cls-2" d="M156.63,371c0,15.93-24.26,15.21-24.22,0C132.46,355.06,156.67,355.78,156.63,371Z"/><path class="cls-2" d="M213.27,371c-.05,15.93-24.26,15.21-24.22,0C189.1,355.06,213.31,355.78,213.27,371Z"/><path class="cls-2" d="M269.91,371c-.05,15.93-24.26,15.21-24.22,0C245.74,355.06,270,355.78,269.91,371Z"/><path class="cls-2" d="M326.55,371c-.05,15.93-24.26,15.21-24.22,0C302.38,355.06,326.59,355.78,326.55,371Z"/><path class="cls-2" d="M383.18,371c0,15.93-24.25,15.21-24.21,0C359,355.06,383.23,355.78,383.18,371Z"/><path class="cls-2" d="M439.82,371c0,15.93-24.25,15.21-24.21,0C415.65,355.06,439.87,355.78,439.82,371Z"/><path class="cls-2" d="M496.46,371c0,15.93-24.25,15.21-24.21,0C472.29,355.06,496.5,355.78,496.46,371Z"/><path class="cls-2" d="M553.1,371c0,15.93-24.26,15.21-24.21,0C528.93,355.06,553.14,355.78,553.1,371Z"/><path class="cls-2" d="M609.74,371c0,15.93-24.26,15.21-24.21,0C585.57,355.06,609.78,355.78,609.74,371Z"/><path class="cls-2" d="M666.38,371c-.76,15.91-23.57,15.2-24.22,0C642.92,355.08,665.74,355.79,666.38,371Z"/></g><g class="cls-1"><path class="cls-2" d="M43.35,427.64c-.76,15.91-23.57,15.2-24.21,0C19.9,411.73,42.71,412.45,43.35,427.64Z"/><path class="cls-2" d="M100,427.64c0,15.93-24.26,15.21-24.21,0C75.82,411.71,100,412.43,100,427.64Z"/><path class="cls-2" d="M156.63,427.64c0,15.93-24.26,15.21-24.22,0C132.46,411.71,156.67,412.43,156.63,427.64Z"/><path class="cls-2" d="M213.27,427.64c-.05,15.93-24.26,15.21-24.22,0C189.1,411.71,213.31,412.43,213.27,427.64Z"/><path class="cls-2" d="M269.91,427.64c-.05,15.93-24.26,15.21-24.22,0C245.74,411.71,270,412.43,269.91,427.64Z"/><path class="cls-2" d="M326.55,427.64c-.05,15.93-24.26,15.21-24.22,0C302.38,411.71,326.59,412.43,326.55,427.64Z"/><path class="cls-2" d="M383.18,427.64c0,15.93-24.25,15.21-24.21,0C359,411.71,383.23,412.43,383.18,427.64Z"/><path class="cls-2" d="M439.82,427.64c0,15.93-24.25,15.21-24.21,0C415.65,411.71,439.87,412.43,439.82,427.64Z"/><path class="cls-2" d="M496.46,427.64c0,15.93-24.25,15.21-24.21,0C472.29,411.71,496.5,412.43,496.46,427.64Z"/><path class="cls-2" d="M553.1,427.64c0,15.93-24.26,15.21-24.21,0C528.93,411.71,553.14,412.43,553.1,427.64Z"/><path class="cls-2" d="M609.74,427.64c0,15.93-24.26,15.21-24.21,0C585.57,411.71,609.78,412.43,609.74,427.64Z"/><path class="cls-2" d="M666.38,427.64c-.76,15.91-23.57,15.2-24.22,0C642.92,411.73,665.74,412.45,666.38,427.64Z"/></g><g class="cls-1"><path class="cls-2" d="M43.35,31.07c-.76,15.92-23.57,15.2-24.21,0C19.9,15.16,42.71,15.88,43.35,31.07Z"/><path class="cls-2" d="M100,31.07c0,15.93-24.26,15.21-24.21,0C75.82,15.14,100,15.86,100,31.07Z"/><path class="cls-2" d="M156.63,31.07c0,15.93-24.26,15.21-24.22,0C132.46,15.14,156.67,15.86,156.63,31.07Z"/><path class="cls-2" d="M213.27,31.07c-.05,15.93-24.26,15.21-24.22,0C189.1,15.14,213.31,15.86,213.27,31.07Z"/><path class="cls-2" d="M269.91,31.07c-.05,15.93-24.26,15.21-24.22,0C245.74,15.14,270,15.86,269.91,31.07Z"/><path class="cls-2" d="M326.55,31.07c-.05,15.93-24.26,15.21-24.22,0C302.38,15.14,326.59,15.86,326.55,31.07Z"/><path class="cls-2" d="M383.18,31.07c0,15.93-24.25,15.21-24.21,0C359,15.14,383.23,15.86,383.18,31.07Z"/><path class="cls-2" d="M439.82,31.07c0,15.93-24.25,15.21-24.21,0C415.65,15.14,439.87,15.86,439.82,31.07Z"/><path class="cls-2" d="M496.46,31.07c0,15.93-24.25,15.21-24.21,0C472.29,15.14,496.5,15.86,496.46,31.07Z"/><path class="cls-2" d="M553.1,31.07c0,15.93-24.26,15.21-24.21,0C528.93,15.14,553.14,15.86,553.1,31.07Z"/><path class="cls-2" d="M609.74,31.07c0,15.93-24.26,15.21-24.21,0C585.57,15.14,609.78,15.86,609.74,31.07Z"/><path class="cls-2" d="M666.38,31.07c-.76,15.92-23.57,15.2-24.22,0C642.92,15.16,665.74,15.88,666.38,31.07Z"/></g><g class="cls-1"><path class="cls-2" d="M43.35,87.73c-.76,15.91-23.57,15.19-24.21,0C19.9,71.81,42.71,72.53,43.35,87.73Z"/><path class="cls-2" d="M100,87.73c0,15.93-24.26,15.21-24.21,0C75.82,71.8,100,72.52,100,87.73Z"/><path class="cls-2" d="M156.63,87.73c0,15.93-24.26,15.21-24.22,0C132.46,71.8,156.67,72.52,156.63,87.73Z"/><path class="cls-2" d="M213.27,87.73c-.05,15.93-24.26,15.21-24.22,0C189.1,71.8,213.31,72.52,213.27,87.73Z"/><path class="cls-2" d="M269.91,87.73c-.05,15.93-24.26,15.21-24.22,0C245.74,71.8,270,72.52,269.91,87.73Z"/><path class="cls-2" d="M326.55,87.73c-.05,15.93-24.26,15.21-24.22,0C302.38,71.8,326.59,72.52,326.55,87.73Z"/><path class="cls-2" d="M383.18,87.73c0,15.93-24.25,15.21-24.21,0C359,71.8,383.23,72.52,383.18,87.73Z"/><path class="cls-2" d="M439.82,87.73c0,15.93-24.25,15.21-24.21,0C415.65,71.8,439.87,72.52,439.82,87.73Z"/><path class="cls-2" d="M496.46,87.73c0,15.93-24.25,15.21-24.21,0C472.29,71.8,496.5,72.52,496.46,87.73Z"/><path class="cls-2" d="M553.1,87.73c0,15.93-24.26,15.21-24.21,0C528.93,71.8,553.14,72.52,553.1,87.73Z"/><path class="cls-2" d="M609.74,87.73c0,15.93-24.26,15.21-24.21,0C585.57,71.8,609.78,72.52,609.74,87.73Z"/><path class="cls-2" d="M666.38,87.73c-.76,15.91-23.57,15.19-24.22,0C642.92,71.81,665.74,72.53,666.38,87.73Z"/></g><g class="cls-1"><path class="cls-2" d="M43.35,144.38c-.76,15.91-23.57,15.2-24.21,0C19.9,128.47,42.71,129.18,43.35,144.38Z"/><path class="cls-2" d="M100,144.38c0,15.93-24.26,15.21-24.21,0C75.82,128.45,100,129.17,100,144.38Z"/><path class="cls-2" d="M156.63,144.38c0,15.93-24.26,15.21-24.22,0C132.46,128.45,156.67,129.17,156.63,144.38Z"/><path class="cls-2" d="M213.27,144.38c-.05,15.93-24.26,15.21-24.22,0C189.1,128.45,213.31,129.17,213.27,144.38Z"/><path class="cls-2" d="M269.91,144.38c-.05,15.93-24.26,15.21-24.22,0C245.74,128.45,270,129.17,269.91,144.38Z"/><path class="cls-2" d="M326.55,144.38c-.05,15.93-24.26,15.21-24.22,0C302.38,128.45,326.59,129.17,326.55,144.38Z"/><path class="cls-2" d="M383.18,144.38c0,15.93-24.25,15.21-24.21,0C359,128.45,383.23,129.17,383.18,144.38Z"/><path class="cls-2" d="M439.82,144.38c0,15.93-24.25,15.21-24.21,0C415.65,128.45,439.87,129.17,439.82,144.38Z"/><path class="cls-2" d="M496.46,144.38c0,15.93-24.25,15.21-24.21,0C472.29,128.45,496.5,129.17,496.46,144.38Z"/><path class="cls-2" d="M553.1,144.38c0,15.93-24.26,15.21-24.21,0C528.93,128.45,553.14,129.17,553.1,144.38Z"/><path class="cls-2" d="M609.74,144.38c0,15.93-24.26,15.21-24.21,0C585.57,128.45,609.78,129.17,609.74,144.38Z"/><path class="cls-2" d="M666.38,144.38c-.76,15.91-23.57,15.2-24.22,0C642.92,128.47,665.74,129.18,666.38,144.38Z"/></g><g class="cls-1"><path class="cls-2" d="M43.35,201c-.76,15.91-23.57,15.2-24.21,0C19.9,185.12,42.71,185.83,43.35,201Z"/><path class="cls-2" d="M100,201c0,15.93-24.26,15.21-24.21,0C75.82,185.1,100,185.82,100,201Z"/><path class="cls-2" d="M156.63,201c0,15.93-24.26,15.21-24.22,0C132.46,185.1,156.67,185.82,156.63,201Z"/><path class="cls-2" d="M213.27,201c-.05,15.93-24.26,15.21-24.22,0C189.1,185.1,213.31,185.82,213.27,201Z"/><path class="cls-2" d="M269.91,201c-.05,15.93-24.26,15.21-24.22,0C245.74,185.1,270,185.82,269.91,201Z"/><path class="cls-2" d="M326.55,201c-.05,15.93-24.26,15.21-24.22,0C302.38,185.1,326.59,185.82,326.55,201Z"/><path class="cls-2" d="M383.18,201c0,15.93-24.25,15.21-24.21,0C359,185.1,383.23,185.82,383.18,201Z"/><path class="cls-2" d="M439.82,201c0,15.93-24.25,15.21-24.21,0C415.65,185.1,439.87,185.82,439.82,201Z"/><path class="cls-2" d="M496.46,201c0,15.93-24.25,15.21-24.21,0C472.29,185.1,496.5,185.82,496.46,201Z"/><path class="cls-2" d="M553.1,201c0,15.93-24.26,15.21-24.21,0C528.93,185.1,553.14,185.82,553.1,201Z"/><path class="cls-2" d="M609.74,201c0,15.93-24.26,15.21-24.21,0C585.57,185.1,609.78,185.82,609.74,201Z"/><path class="cls-2" d="M666.38,201c-.76,15.91-23.57,15.2-24.22,0C642.92,185.12,665.74,185.83,666.38,201Z"/></g><rect class="cls-3" width="685.33" height="685.33"/></g></g></svg>