<?xml version="1.0" encoding="utf-8"?>
<!-- Generator: Adobe Illustrator 24.0.1, SVG Export Plug-In . SVG Version: 6.00 Build 0)  -->
<svg version="1.1" id="Capa_1" xmlns="http://www.w3.org/2000/svg" xmlns:xlink="http://www.w3.org/1999/xlink" x="0px" y="0px"
	 viewBox="0 0 149.8 149.8" style="enable-background:new 0 0 149.8 149.8;" xml:space="preserve">
<style type="text/css">
	.st0{display:none;}
	.st1{fill:none;}
	.st2{fill:#333333;}
</style>
<g id="Guias" class="st0">
</g>
<g id="fondo" class="st0">
</g>
<g id="Gráfico">
	<g>
		<rect class="st1" width="149.8" height="149.8"/>
		<g>
			<path class="st2" d="M124.8,58.4c-0.4-1.8-1.6-2.3-3.3-2.6c-12.8-2.3-21.8-12.5-22.6-25.4c-0.1-1.8-0.8-2.9-2.4-3.5
				c-3.5-1.1-6.9-2.3-10.4-3.4c-0.5-0.2-1-0.2-1.4-0.2c-1.1,0-2.1,0.5-2.9,1.6c-1.3,1.7-2.6,3.4-4.4,4.5c-5.5,3.4-11.2,5.6-17,5.6
				c-3.9,0-7.9-1-12-3.2c-0.7-0.4-1.3-0.6-1.9-0.6c-0.9,0-1.7,0.4-2.5,1.1c-2.7,2.4-5.3,4.8-8,7.1c-1.4,1.2-1.6,2.6-1,4.3
				c4.5,12.9,0.7,24.4-10.6,32.4c-1.5,1.1-2.2,2.3-1.8,4.1c0.8,3.5,1.5,7,2.2,10.5c0.4,1.8,1.4,2.8,3.2,3.1
				c13.4,2.7,21.9,12.2,22.9,25.6c0.1,1.7,0.8,2.7,2.4,3.3c3.6,1.2,7.3,2.4,10.9,3.6c0.4,0.1,0.9,0.2,1.3,0.2c1,0,1.7-0.5,2.3-1.4
				c3.9-6.6,13.6-10.3,22.2-10.3c4.4,0,8.5,1,11.5,3.1c0.6,0.4,1.3,0.7,1.9,0.7c0.8,0,1.6-0.3,2.3-1c2.7-2.4,5.5-4.9,8.2-7.3
				c1.3-1.2,1.8-2.6,0.9-4.4c-2.3-4.7-2.4-9.6-1.3-14.5c1.7-7.7,5-14.4,12.5-18.2c1.1-0.6,1.2-1.6,1.5-2.9
				C126.6,66.5,125.7,62.4,124.8,58.4z M81.1,96.2c-1.1,0.2-2.3,0.4-3.4,0.7c-0.9,0.1-1.8,0.2-2.7,0.2c0,0,0,0-0.1,0
				c-9.5,0-17.5-5.9-20.8-14.2c-0.1-1-0.4-1.9-0.9-2.8c-0.4-1.7-0.6-3.5-0.6-5.3c0-12.2,10-22.3,22.3-22.3l0,0
				c12.3,0,22.2,9.9,22.2,22.2C97.1,85,90.4,93.5,81.1,96.2z"/>
			<path class="st2" d="M145.1,63.1c-3-16.9-11.7-32.1-24.5-42.9C107.9,9.6,91.7,3.7,75.1,3.7l0,0c-4.9,0-9.9,0.5-14.8,1.5
				c-37.1,7.5-61.5,43-55.7,80.7c1.9,12.1,6.6,23,14.2,32.6c-2.3,2.6-4.9,5.8-7.5,9.1c-2.2,2.8-2.9,6.1-2.1,9.3
				c0.8,3.2,3.2,5.8,6.5,7.3c1.4,0.6,2.8,1,4.3,1.2c2.7,0.4,5.4,0.6,8.1,0.6c7.4,0,14.9-1.4,22.2-4.3c0.2-0.1,0.3-0.1,0.4-0.1
				c0,0,0.1,0,0.3,0.1c7.8,2.8,15.9,4.2,24,4.2c2.4,0,4.8-0.1,7.3-0.4c36.1-3.6,63.5-34,63.9-70.6C146.1,71.4,145.8,67.1,145.1,63.1
				z M141.3,75c-0.3,34.4-26.1,62.6-59.7,66c-2.3,0.2-4.6,0.3-6.8,0.3c-7.6,0-15.1-1.3-22.4-4c-0.7-0.2-1.3-0.4-1.9-0.4
				c-0.7,0-1.3,0.1-2.1,0.4c-6.7,2.6-13.5,4-20.5,4c-2.5,0-5-0.2-7.5-0.5c-1-0.1-2.1-0.5-3-0.9c-4.1-1.8-5.2-5.9-2.5-9.4
				s5.6-6.9,8.6-10.3c1.1-1.2,1-2,0-3.2C15.8,107.7,11,97.1,9.2,85.2c-5.5-35.7,17.9-68.5,52-75.4c4.7-0.9,9.3-1.4,13.8-1.4
				c31.9,0,59.5,22.5,65.4,55.5C141.1,67.8,141.4,71.6,141.3,75z"/>
		</g>
	</g>
</g>
<g id="Trazo">
</g>
<g id="Texto">
</g>
</svg>
