<svg xmlns="http://www.w3.org/2000/svg" viewBox="0 0 2460.27 2471.3"><defs><style>.cls-1,.cls-2{fill:#c8c8c8;}.cls-1{fill-rule:evenodd;}</style></defs><title>Recurso 1</title><g id="Capa_2" data-name="Capa 2"><g id="Capa_1-2" data-name="Capa 1"><path class="cls-1" d="M929.12,712.6c-22.93-51-47.07-52-68.88-52.88C842.4,659,822,659,801.58,659S748,666.67,720,697.3,612.83,802,612.83,952.55s109.69,296.13,125,316.57,211.75,339.31,522.86,462c258.55,102,311.17,81.67,367.29,76.57s181.09-74,206.6-145.5,25.51-132.71,17.85-145.52-28.06-20.41-58.67-35.71-181.09-89.37-209.15-99.57-48.47-15.31-68.87,15.34-79,99.53-96.89,119.94-35.72,23-66.33,7.7-129.19-47.64-246.14-151.91c-91-81.12-152.42-181.31-170.28-212s-1.91-47.2,13.44-62.46c13.75-13.71,30.62-35.73,45.92-53.6s20.38-30.63,30.58-51,5.1-38.31-2.55-53.61-67.14-166.68-94.35-227.2Z"/><path class="cls-2" d="M2101.81,359.13C1870.51,127.68,1563,.14,1235.28,0,560.05,0,10.55,549.32,10.28,1224.52a1222.31,1222.31,0,0,0,163.51,612.22L0,2471.3,649.39,2301a1224,1224,0,0,0,585.37,149.07h.52c675.12,0,1224.7-549.41,1225-1224.58.11-327.23-127.2-634.91-358.46-866.38ZM1235.28,2243.27h-.39a1016.87,1016.87,0,0,1-518.22-141.89l-37.2-22.05-385.36,101L397,1804.78l-24.24-38.51A1015.16,1015.16,0,0,1,217.11,1224.6c.22-561.2,456.94-1017.76,1018.56-1017.76,272,.11,527.57,106.12,719.82,298.5s298,448.11,297.94,720.09C2253.19,1786.65,1796.45,2243.27,1235.28,2243.27Z"/></g></g></svg>